<?xml version="1.0" encoding="UTF-8" standalone="no"?>
<!DOCTYPE svg PUBLIC "-//W3C//DTD SVG 1.1//EN"
 "http://www.w3.org/Graphics/SVG/1.1/DTD/svg11.dtd">
<!-- Generated by graphviz version 2.42.3 (20191010.1750)
 -->
<!-- Title: G Pages: 1 -->
<svg width="965pt" height="116pt"
 viewBox="0.00 0.00 964.86 116.00" xmlns="http://www.w3.org/2000/svg" xmlns:xlink="http://www.w3.org/1999/xlink">
<g id="graph0" class="graph" transform="scale(1 1) rotate(0) translate(4 112)">
<title>G</title>
<polygon fill="white" stroke="transparent" points="-4,4 -4,-112 960.86,-112 960.86,4 -4,4"/>
<!-- Ibn Tumart -->
<g id="node1" class="node">
<title>Ibn Tumart</title>
<g id="a_node1"><a xlink:href="https://en.wikipedia.org/wiki/Ibn_Tumart" xlink:title="Ibn Tumart">
<ellipse fill="none" stroke="black" cx="49.67" cy="-18" rx="49.85" ry="18"/>
<text text-anchor="middle" x="49.67" y="-13.8" font-family="Times,serif" font-size="14.00">Ibn Tumart</text>
</a>
</g>
</g>
<!-- Al&#45;Ghazali -->
<g id="node2" class="node">
<title>Al&#45;Ghazali</title>
<ellipse fill="none" stroke="black" cx="410.67" cy="-90" rx="49.29" ry="18"/>
<text text-anchor="middle" x="410.67" y="-85.8" font-family="Times,serif" font-size="14.00">Al&#45;Ghazali</text>
</g>
<!-- Al&#45;Ghazali&#45;&gt;Ibn Tumart -->
<g id="edge1" class="edge">
<title>Al&#45;Ghazali&#45;&gt;Ibn Tumart</title>
<path fill="none" stroke="black" d="M365.6,-82.63C306.31,-73.9 199.05,-56.89 108.67,-36 104.58,-35.05 100.36,-34 96.13,-32.89"/>
<polygon fill="black" stroke="black" points="96.91,-29.47 86.34,-30.22 95.07,-36.22 96.91,-29.47"/>
</g>
<!-- Fakhruddin Razi -->
<g id="node3" class="node">
<title>Fakhruddin Razi</title>
<g id="a_node3"><a xlink:href="https://en.wikipedia.org/wiki/Fakhr_al-Din_al-Razi" xlink:title="Fakhruddin Razi">
<ellipse fill="none" stroke="black" cx="186.67" cy="-18" rx="69.1" ry="18"/>
<text text-anchor="middle" x="186.67" y="-13.8" font-family="Times,serif" font-size="14.00">Fakhruddin Razi</text>
</a>
</g>
</g>
<!-- Al&#45;Ghazali&#45;&gt;Fakhruddin Razi -->
<g id="edge2" class="edge">
<title>Al&#45;Ghazali&#45;&gt;Fakhruddin Razi</title>
<path fill="none" stroke="black" d="M374.19,-77.6C337.46,-66.12 280.46,-48.31 238.94,-35.33"/>
<polygon fill="black" stroke="black" points="239.86,-31.95 229.27,-32.31 237.77,-38.63 239.86,-31.95"/>
</g>
<!-- Suyuti -->
<g id="node4" class="node">
<title>Suyuti</title>
<g id="a_node4"><a xlink:href="https://en.wikipedia.org/wiki/Suyuti" xlink:title="Suyuti">
<ellipse fill="none" stroke="black" cx="307.67" cy="-18" rx="33.41" ry="18"/>
<text text-anchor="middle" x="307.67" y="-13.8" font-family="Times,serif" font-size="14.00">Suyuti</text>
</a>
</g>
</g>
<!-- Al&#45;Ghazali&#45;&gt;Suyuti -->
<g id="edge3" class="edge">
<title>Al&#45;Ghazali&#45;&gt;Suyuti</title>
<path fill="none" stroke="black" d="M388.32,-73.81C373.05,-63.43 352.67,-49.58 336.22,-38.4"/>
<polygon fill="black" stroke="black" points="337.78,-35.23 327.54,-32.5 333.85,-41.02 337.78,-35.23"/>
</g>
<!-- Al&#45;Nawawi -->
<g id="node5" class="node">
<title>Al&#45;Nawawi</title>
<g id="a_node5"><a xlink:href="https://en.wikipedia.org/wiki/Al-Nawawi" xlink:title="Al&#45;Nawawi">
<ellipse fill="none" stroke="black" cx="410.67" cy="-18" rx="51.22" ry="18"/>
<text text-anchor="middle" x="410.67" y="-13.8" font-family="Times,serif" font-size="14.00">Al&#45;Nawawi</text>
</a>
</g>
</g>
<!-- Al&#45;Ghazali&#45;&gt;Al&#45;Nawawi -->
<g id="edge4" class="edge">
<title>Al&#45;Ghazali&#45;&gt;Al&#45;Nawawi</title>
<path fill="none" stroke="black" d="M410.67,-71.7C410.67,-63.98 410.67,-54.71 410.67,-46.11"/>
<polygon fill="black" stroke="black" points="414.17,-46.1 410.67,-36.1 407.17,-46.1 414.17,-46.1"/>
</g>
<!-- Maimonides -->
<g id="node6" class="node">
<title>Maimonides</title>
<g id="a_node6"><a xlink:href="https://en.wikipedia.org/wiki/Maimonides" xlink:title="Maimonides">
<ellipse fill="none" stroke="black" cx="534.67" cy="-18" rx="54.14" ry="18"/>
<text text-anchor="middle" x="534.67" y="-13.8" font-family="Times,serif" font-size="14.00">Maimonides</text>
</a>
</g>
</g>
<!-- Al&#45;Ghazali&#45;&gt;Maimonides -->
<g id="edge5" class="edge">
<title>Al&#45;Ghazali&#45;&gt;Maimonides</title>
<path fill="none" stroke="black" d="M436.37,-74.5C454.58,-64.22 479.24,-50.3 499.3,-38.97"/>
<polygon fill="black" stroke="black" points="501.17,-41.93 508.16,-33.97 497.73,-35.84 501.17,-41.93"/>
</g>
<!-- Thomas Aquinas -->
<g id="node7" class="node">
<title>Thomas Aquinas</title>
<g id="a_node7"><a xlink:href="https://en.wikipedia.org/wiki/Thomas_Aquinas" xlink:title="Thomas Aquinas">
<ellipse fill="none" stroke="black" cx="676.67" cy="-18" rx="69.6" ry="18"/>
<text text-anchor="middle" x="676.67" y="-13.8" font-family="Times,serif" font-size="14.00">Thomas Aquinas</text>
</a>
</g>
</g>
<!-- Al&#45;Ghazali&#45;&gt;Thomas Aquinas -->
<g id="edge6" class="edge">
<title>Al&#45;Ghazali&#45;&gt;Thomas Aquinas</title>
<path fill="none" stroke="black" d="M449.64,-78.75C494.42,-66.96 568.31,-47.52 619.58,-34.02"/>
<polygon fill="black" stroke="black" points="620.74,-37.34 629.52,-31.41 618.96,-30.57 620.74,-37.34"/>
</g>
<!-- Shah Waliullah Dehlawi -->
<g id="node8" class="node">
<title>Shah Waliullah Dehlawi</title>
<g id="a_node8"><a xlink:href="https://en.wikipedia.org/wiki/Shah_Waliullah_Dehlawi" xlink:title="Shah Waliullah Dehlawi">
<ellipse fill="none" stroke="black" cx="860.67" cy="-18" rx="96.37" ry="18"/>
<text text-anchor="middle" x="860.67" y="-13.8" font-family="Times,serif" font-size="14.00">Shah Waliullah Dehlawi</text>
</a>
</g>
</g>
<!-- Al&#45;Ghazali&#45;&gt;Shah Waliullah Dehlawi -->
<g id="edge7" class="edge">
<title>Al&#45;Ghazali&#45;&gt;Shah Waliullah Dehlawi</title>
<path fill="none" stroke="black" d="M455.35,-82.25C521.14,-72.29 647.93,-53 755.67,-36 763.8,-34.72 772.28,-33.37 780.75,-32.01"/>
<polygon fill="black" stroke="black" points="781.33,-35.46 790.65,-30.42 780.22,-28.55 781.33,-35.46"/>
</g>
</g>
</svg>
