<?xml version="1.0" encoding="UTF-8" standalone="no"?>
<!DOCTYPE svg PUBLIC "-//W3C//DTD SVG 1.1//EN"
 "http://www.w3.org/Graphics/SVG/1.1/DTD/svg11.dtd">
<!-- Generated by graphviz version 2.42.3 (20191010.1750)
 -->
<!-- Title: G Pages: 1 -->
<svg width="566pt" height="908pt"
 viewBox="0.00 0.00 565.53 908.00" xmlns="http://www.w3.org/2000/svg" xmlns:xlink="http://www.w3.org/1999/xlink">
<g id="graph0" class="graph" transform="scale(1 1) rotate(0) translate(4 904)">
<title>G</title>
<polygon fill="white" stroke="transparent" points="-4,4 -4,-904 561.53,-904 561.53,4 -4,4"/>
<!-- Karl Marx -->
<g id="node1" class="node">
<title>Karl Marx</title>
<g id="a_node1"><a xlink:href="https://en.wikipedia.org/wiki/Karl_Marx" xlink:title="Karl Marx">
<ellipse fill="none" stroke="black" cx="92.38" cy="-828" rx="47.37" ry="18"/>
<text text-anchor="middle" x="92.38" y="-823.8" font-family="Times,serif" font-size="14.00">Karl Marx</text>
</a>
</g>
</g>
<!-- Louis Althusser -->
<g id="node2" class="node">
<title>Louis Althusser</title>
<ellipse fill="none" stroke="black" cx="286.63" cy="-450" rx="65.75" ry="18"/>
<text text-anchor="middle" x="286.63" y="-445.8" font-family="Times,serif" font-size="14.00">Louis Althusser</text>
</g>
<!-- Karl Marx&#45;&gt;Louis Althusser -->
<g id="edge1" class="edge">
<title>Karl Marx&#45;&gt;Louis Althusser</title>
<path fill="none" stroke="black" d="M138.47,-823.77C154.94,-820.08 172.51,-813.33 184.75,-801 274.87,-710.2 285.6,-544.49 286.1,-478.36"/>
<polygon fill="black" stroke="black" points="289.6,-478.27 286.1,-468.27 282.6,-478.27 289.6,-478.27"/>
</g>
<!-- Nicos Poulantzas -->
<g id="node17" class="node">
<title>Nicos Poulantzas</title>
<g id="a_node17"><a xlink:href="https://en.wikipedia.org/wiki/Nicos_Poulantzas" xlink:title="Nicos Poulantzas">
<ellipse fill="none" stroke="black" cx="473.02" cy="-882" rx="71.03" ry="18"/>
<text text-anchor="middle" x="473.02" y="-877.8" font-family="Times,serif" font-size="14.00">Nicos Poulantzas</text>
</a>
</g>
</g>
<!-- Louis Althusser&#45;&gt;Nicos Poulantzas -->
<g id="edge16" class="edge">
<title>Louis Althusser&#45;&gt;Nicos Poulantzas</title>
<path fill="none" stroke="black" d="M289.82,-468.32C298.7,-539.51 334.1,-796.74 388.5,-855 393.18,-860.01 398.8,-864.1 404.88,-867.43"/>
<polygon fill="black" stroke="black" points="403.53,-870.66 414.06,-871.78 406.53,-864.34 403.53,-870.66"/>
</g>
<!-- Jacques Rancière -->
<g id="node18" class="node">
<title>Jacques Rancière</title>
<g id="a_node18"><a xlink:href="https://en.wikipedia.org/wiki/Jacques_Ranci%C3%A8re" xlink:title="Jacques Rancière">
<ellipse fill="none" stroke="black" cx="473.02" cy="-828" rx="71.49" ry="18"/>
<text text-anchor="middle" x="473.02" y="-823.8" font-family="Times,serif" font-size="14.00">Jacques Rancière</text>
</a>
</g>
</g>
<!-- Louis Althusser&#45;&gt;Jacques Rancière -->
<g id="edge17" class="edge">
<title>Louis Althusser&#45;&gt;Jacques Rancière</title>
<path fill="none" stroke="black" d="M287.26,-468.17C287.12,-525.41 294.59,-703.95 388.5,-801 393.27,-805.93 398.95,-809.96 405.06,-813.26"/>
<polygon fill="black" stroke="black" points="403.74,-816.5 414.28,-817.58 406.71,-810.16 403.74,-816.5"/>
</g>
<!-- Étienne Balibar -->
<g id="node19" class="node">
<title>Étienne Balibar</title>
<g id="a_node19"><a xlink:href="https://en.wikipedia.org/wiki/%C3%89tienne_Balibar" xlink:title="Étienne Balibar">
<ellipse fill="none" stroke="black" cx="473.02" cy="-774" rx="65.21" ry="18"/>
<text text-anchor="middle" x="473.02" y="-769.8" font-family="Times,serif" font-size="14.00">Étienne Balibar</text>
</a>
</g>
</g>
<!-- Louis Althusser&#45;&gt;Étienne Balibar -->
<g id="edge18" class="edge">
<title>Louis Althusser&#45;&gt;Étienne Balibar</title>
<path fill="none" stroke="black" d="M288.38,-468.28C291.5,-519.71 307.43,-667.12 388.5,-747 394.15,-752.56 400.95,-756.98 408.2,-760.49"/>
<polygon fill="black" stroke="black" points="407.01,-763.79 417.58,-764.46 409.74,-757.34 407.01,-763.79"/>
</g>
<!-- Alain Badiou -->
<g id="node20" class="node">
<title>Alain Badiou</title>
<g id="a_node20"><a xlink:href="https://en.wikipedia.org/wiki/Alain_Badiou" xlink:title="Alain Badiou">
<ellipse fill="none" stroke="black" cx="473.02" cy="-720" rx="57.52" ry="18"/>
<text text-anchor="middle" x="473.02" y="-715.8" font-family="Times,serif" font-size="14.00">Alain Badiou</text>
</a>
</g>
</g>
<!-- Louis Althusser&#45;&gt;Alain Badiou -->
<g id="edge19" class="edge">
<title>Louis Althusser&#45;&gt;Alain Badiou</title>
<path fill="none" stroke="black" d="M289.94,-468.19C296.62,-513.03 320,-629.82 388.5,-693 395.33,-699.3 403.64,-704.13 412.34,-707.83"/>
<polygon fill="black" stroke="black" points="411.29,-711.17 421.88,-711.42 413.76,-704.62 411.29,-711.17"/>
</g>
<!-- Pierre Bourdieu -->
<g id="node21" class="node">
<title>Pierre Bourdieu</title>
<g id="a_node21"><a xlink:href="https://en.wikipedia.org/wiki/Pierre_Bourdieu" xlink:title="Pierre Bourdieu">
<ellipse fill="none" stroke="black" cx="473.02" cy="-666" rx="66.19" ry="18"/>
<text text-anchor="middle" x="473.02" y="-661.8" font-family="Times,serif" font-size="14.00">Pierre Bourdieu</text>
</a>
</g>
</g>
<!-- Louis Althusser&#45;&gt;Pierre Bourdieu -->
<g id="edge20" class="edge">
<title>Louis Althusser&#45;&gt;Pierre Bourdieu</title>
<path fill="none" stroke="black" d="M292.27,-468C302.86,-505.41 332.3,-591.99 388.5,-639 394.58,-644.09 401.64,-648.22 409.03,-651.58"/>
<polygon fill="black" stroke="black" points="407.93,-654.91 418.52,-655.43 410.57,-648.43 407.93,-654.91"/>
</g>
<!-- Giulio Angioni -->
<g id="node22" class="node">
<title>Giulio Angioni</title>
<g id="a_node22"><a xlink:href="https://en.wikipedia.org/wiki/Giulio_Angioni" xlink:title="Giulio Angioni">
<ellipse fill="none" stroke="black" cx="473.02" cy="-612" rx="63.34" ry="18"/>
<text text-anchor="middle" x="473.02" y="-607.8" font-family="Times,serif" font-size="14.00">Giulio Angioni</text>
</a>
</g>
</g>
<!-- Louis Althusser&#45;&gt;Giulio Angioni -->
<g id="edge21" class="edge">
<title>Louis Althusser&#45;&gt;Giulio Angioni</title>
<path fill="none" stroke="black" d="M296.44,-468.13C311.4,-497.03 344.48,-553.51 388.5,-585 395.7,-590.15 403.94,-594.36 412.37,-597.78"/>
<polygon fill="black" stroke="black" points="411.34,-601.13 421.93,-601.32 413.77,-594.56 411.34,-601.13"/>
</g>
<!-- Judith Butler -->
<g id="node23" class="node">
<title>Judith Butler</title>
<g id="a_node23"><a xlink:href="https://en.wikipedia.org/wiki/Judith_Butler" xlink:title="Judith Butler">
<ellipse fill="none" stroke="black" cx="473.02" cy="-558" rx="56.09" ry="18"/>
<text text-anchor="middle" x="473.02" y="-553.8" font-family="Times,serif" font-size="14.00">Judith Butler</text>
</a>
</g>
</g>
<!-- Louis Althusser&#45;&gt;Judith Butler -->
<g id="edge22" class="edge">
<title>Louis Althusser&#45;&gt;Judith Butler</title>
<path fill="none" stroke="black" d="M305.13,-467.42C324.19,-485.54 356.28,-513.62 388.5,-531 397.85,-536.04 408.3,-540.34 418.56,-543.93"/>
<polygon fill="black" stroke="black" points="417.71,-547.33 428.3,-547.15 419.9,-540.68 417.71,-547.33"/>
</g>
<!-- Gilles Deleuze -->
<g id="node24" class="node">
<title>Gilles Deleuze</title>
<g id="a_node24"><a xlink:href="https://en.wikipedia.org/wiki/Gilles_Deleuze" xlink:title="Gilles Deleuze">
<ellipse fill="none" stroke="black" cx="473.02" cy="-504" rx="62.32" ry="18"/>
<text text-anchor="middle" x="473.02" y="-499.8" font-family="Times,serif" font-size="14.00">Gilles Deleuze</text>
</a>
</g>
</g>
<!-- Louis Althusser&#45;&gt;Gilles Deleuze -->
<g id="edge23" class="edge">
<title>Louis Althusser&#45;&gt;Gilles Deleuze</title>
<path fill="none" stroke="black" d="M332.26,-463.07C358.27,-470.69 391.24,-480.34 418.62,-488.36"/>
<polygon fill="black" stroke="black" points="417.85,-491.78 428.43,-491.23 419.81,-485.07 417.85,-491.78"/>
</g>
<!-- Michel Foucault -->
<g id="node25" class="node">
<title>Michel Foucault</title>
<g id="a_node25"><a xlink:href="https://en.wikipedia.org/wiki/Michel_Foucault" xlink:title="Michel Foucault">
<ellipse fill="none" stroke="black" cx="473.02" cy="-450" rx="68.13" ry="18"/>
<text text-anchor="middle" x="473.02" y="-445.8" font-family="Times,serif" font-size="14.00">Michel Foucault</text>
</a>
</g>
</g>
<!-- Louis Althusser&#45;&gt;Michel Foucault -->
<g id="edge24" class="edge">
<title>Louis Althusser&#45;&gt;Michel Foucault</title>
<path fill="none" stroke="black" d="M352.64,-450C366.15,-450 380.52,-450 394.44,-450"/>
<polygon fill="black" stroke="black" points="394.47,-453.5 404.47,-450 394.47,-446.5 394.47,-453.5"/>
</g>
<!-- Slavoj Žižek -->
<g id="node26" class="node">
<title>Slavoj Žižek</title>
<g id="a_node26"><a xlink:href="https://en.wikipedia.org/wiki/Slavoj_%C5%BDi%C5%BEek" xlink:title="Slavoj Žižek">
<ellipse fill="none" stroke="black" cx="473.02" cy="-396" rx="55.1" ry="18"/>
<text text-anchor="middle" x="473.02" y="-391.8" font-family="Times,serif" font-size="14.00">Slavoj Žižek</text>
</a>
</g>
</g>
<!-- Louis Althusser&#45;&gt;Slavoj Žižek -->
<g id="edge25" class="edge">
<title>Louis Althusser&#45;&gt;Slavoj Žižek</title>
<path fill="none" stroke="black" d="M332.26,-436.93C359.34,-429 393.95,-418.86 421.96,-410.66"/>
<polygon fill="black" stroke="black" points="422.95,-414.02 431.57,-407.85 420.99,-407.3 422.95,-414.02"/>
</g>
<!-- Dominique Lecourt -->
<g id="node27" class="node">
<title>Dominique Lecourt</title>
<g id="a_node27"><a xlink:href="https://en.wikipedia.org/wiki/Dominique_Lecourt" xlink:title="Dominique Lecourt">
<ellipse fill="none" stroke="black" cx="473.02" cy="-342" rx="79.71" ry="18"/>
<text text-anchor="middle" x="473.02" y="-337.8" font-family="Times,serif" font-size="14.00">Dominique Lecourt</text>
</a>
</g>
</g>
<!-- Louis Althusser&#45;&gt;Dominique Lecourt -->
<g id="edge26" class="edge">
<title>Louis Althusser&#45;&gt;Dominique Lecourt</title>
<path fill="none" stroke="black" d="M305.13,-432.58C324.19,-414.46 356.28,-386.38 388.5,-369 395.38,-365.29 402.87,-361.98 410.43,-359.06"/>
<polygon fill="black" stroke="black" points="411.81,-362.28 420.01,-355.57 409.42,-355.7 411.81,-362.28"/>
</g>
<!-- Pierre Macherey -->
<g id="node28" class="node">
<title>Pierre Macherey</title>
<g id="a_node28"><a xlink:href="https://en.wikipedia.org/wiki/Pierre_Macherey" xlink:title="Pierre Macherey">
<ellipse fill="none" stroke="black" cx="473.02" cy="-288" rx="68.57" ry="18"/>
<text text-anchor="middle" x="473.02" y="-283.8" font-family="Times,serif" font-size="14.00">Pierre Macherey</text>
</a>
</g>
</g>
<!-- Louis Althusser&#45;&gt;Pierre Macherey -->
<g id="edge27" class="edge">
<title>Louis Althusser&#45;&gt;Pierre Macherey</title>
<path fill="none" stroke="black" d="M296.44,-431.87C311.4,-402.97 344.48,-346.49 388.5,-315 395.11,-310.27 402.59,-306.34 410.29,-303.09"/>
<polygon fill="black" stroke="black" points="411.68,-306.3 419.75,-299.43 409.16,-299.77 411.68,-306.3"/>
</g>
<!-- Jacques&#45;Alain Miller -->
<g id="node29" class="node">
<title>Jacques&#45;Alain Miller</title>
<g id="a_node29"><a xlink:href="https://en.wikipedia.org/wiki/Jacques-Alain_Miller" xlink:title="Jacques&#45;Alain Miller">
<ellipse fill="none" stroke="black" cx="473.02" cy="-234" rx="84.53" ry="18"/>
<text text-anchor="middle" x="473.02" y="-229.8" font-family="Times,serif" font-size="14.00">Jacques&#45;Alain Miller</text>
</a>
</g>
</g>
<!-- Louis Althusser&#45;&gt;Jacques&#45;Alain Miller -->
<g id="edge28" class="edge">
<title>Louis Althusser&#45;&gt;Jacques&#45;Alain Miller</title>
<path fill="none" stroke="black" d="M292.27,-432C302.86,-394.59 332.3,-308.01 388.5,-261 393.07,-257.18 398.19,-253.9 403.58,-251.07"/>
<polygon fill="black" stroke="black" points="405.29,-254.14 412.88,-246.75 402.33,-247.8 405.29,-254.14"/>
</g>
<!-- Stephen Resnick -->
<g id="node30" class="node">
<title>Stephen Resnick</title>
<g id="a_node30"><a xlink:href="https://en.wikipedia.org/wiki/Stephen_Resnick" xlink:title="Stephen Resnick">
<ellipse fill="none" stroke="black" cx="473.02" cy="-180" rx="69.1" ry="18"/>
<text text-anchor="middle" x="473.02" y="-175.8" font-family="Times,serif" font-size="14.00">Stephen Resnick</text>
</a>
</g>
</g>
<!-- Louis Althusser&#45;&gt;Stephen Resnick -->
<g id="edge29" class="edge">
<title>Louis Althusser&#45;&gt;Stephen Resnick</title>
<path fill="none" stroke="black" d="M289.94,-431.81C296.62,-386.97 320,-270.18 388.5,-207 393.89,-202.03 400.21,-197.97 406.91,-194.66"/>
<polygon fill="black" stroke="black" points="408.47,-197.8 416.24,-190.59 405.67,-191.38 408.47,-197.8"/>
</g>
<!-- Richard D. Wolff -->
<g id="node31" class="node">
<title>Richard D. Wolff</title>
<g id="a_node31"><a xlink:href="https://en.wikipedia.org/wiki/Richard_D._Wolff" xlink:title="Richard D. Wolff">
<ellipse fill="none" stroke="black" cx="473.02" cy="-126" rx="71.44" ry="18"/>
<text text-anchor="middle" x="473.02" y="-121.8" font-family="Times,serif" font-size="14.00">Richard D. Wolff</text>
</a>
</g>
</g>
<!-- Louis Althusser&#45;&gt;Richard D. Wolff -->
<g id="edge30" class="edge">
<title>Louis Althusser&#45;&gt;Richard D. Wolff</title>
<path fill="none" stroke="black" d="M288.38,-431.72C291.5,-380.29 307.43,-232.88 388.5,-153 393.46,-148.11 399.31,-144.11 405.57,-140.83"/>
<polygon fill="black" stroke="black" points="407.35,-143.87 414.99,-136.53 404.44,-137.5 407.35,-143.87"/>
</g>
<!-- Anthony Giddens -->
<g id="node32" class="node">
<title>Anthony Giddens</title>
<g id="a_node32"><a xlink:href="https://en.wikipedia.org/wiki/Anthony_Giddens" xlink:title="Anthony Giddens">
<ellipse fill="none" stroke="black" cx="473.02" cy="-72" rx="72.99" ry="18"/>
<text text-anchor="middle" x="473.02" y="-67.8" font-family="Times,serif" font-size="14.00">Anthony Giddens</text>
</a>
</g>
</g>
<!-- Louis Althusser&#45;&gt;Anthony Giddens -->
<g id="edge31" class="edge">
<title>Louis Althusser&#45;&gt;Anthony Giddens</title>
<path fill="none" stroke="black" d="M287.26,-431.83C287.12,-374.59 294.59,-196.05 388.5,-99 393.2,-94.14 398.78,-90.16 404.79,-86.89"/>
<polygon fill="black" stroke="black" points="406.31,-90.04 413.85,-82.6 403.31,-83.72 406.31,-90.04"/>
</g>
<!-- Mahdi Amel -->
<g id="node33" class="node">
<title>Mahdi Amel</title>
<g id="a_node33"><a xlink:href="https://en.wikipedia.org/wiki/Mahdi_Amel" xlink:title="Mahdi Amel">
<ellipse fill="none" stroke="black" cx="473.02" cy="-18" rx="54.64" ry="18"/>
<text text-anchor="middle" x="473.02" y="-13.8" font-family="Times,serif" font-size="14.00">Mahdi Amel</text>
</a>
</g>
</g>
<!-- Louis Althusser&#45;&gt;Mahdi Amel -->
<g id="edge32" class="edge">
<title>Louis Althusser&#45;&gt;Mahdi Amel</title>
<path fill="none" stroke="black" d="M289.82,-431.68C298.7,-360.49 334.1,-103.26 388.5,-45 395.29,-37.73 404.04,-32.42 413.31,-28.53"/>
<polygon fill="black" stroke="black" points="414.52,-31.81 422.71,-25.1 412.12,-25.24 414.52,-31.81"/>
</g>
<!-- Gaston Bachelard -->
<g id="node3" class="node">
<title>Gaston Bachelard</title>
<g id="a_node3"><a xlink:href="https://en.wikipedia.org/wiki/Gaston_Bachelard" xlink:title="Gaston Bachelard">
<ellipse fill="none" stroke="black" cx="92.38" cy="-774" rx="73.43" ry="18"/>
<text text-anchor="middle" x="92.38" y="-769.8" font-family="Times,serif" font-size="14.00">Gaston Bachelard</text>
</a>
</g>
</g>
<!-- Gaston Bachelard&#45;&gt;Louis Althusser -->
<g id="edge2" class="edge">
<title>Gaston Bachelard&#45;&gt;Louis Althusser</title>
<path fill="none" stroke="black" d="M155.24,-764.48C166.09,-760.51 176.52,-754.91 184.75,-747 262.2,-672.6 280.19,-536.56 284.36,-478.01"/>
<polygon fill="black" stroke="black" points="287.86,-478.21 284.99,-468.01 280.87,-477.77 287.86,-478.21"/>
</g>
<!-- Georges Canguilhem -->
<g id="node4" class="node">
<title>Georges Canguilhem</title>
<g id="a_node4"><a xlink:href="https://en.wikipedia.org/wiki/Georges_Canguilhem" xlink:title="Georges Canguilhem">
<ellipse fill="none" stroke="black" cx="92.38" cy="-720" rx="84.72" ry="18"/>
<text text-anchor="middle" x="92.38" y="-715.8" font-family="Times,serif" font-size="14.00">Georges Canguilhem</text>
</a>
</g>
</g>
<!-- Georges Canguilhem&#45;&gt;Louis Althusser -->
<g id="edge3" class="edge">
<title>Georges Canguilhem&#45;&gt;Louis Althusser</title>
<path fill="none" stroke="black" d="M158.6,-708.61C168.13,-704.81 177.25,-699.75 184.75,-693 249.44,-634.84 273.71,-528.72 281.9,-478.19"/>
<polygon fill="black" stroke="black" points="285.36,-478.71 283.41,-468.29 278.44,-477.65 285.36,-478.71"/>
</g>
<!-- Jean Cavaillès -->
<g id="node5" class="node">
<title>Jean Cavaillès</title>
<g id="a_node5"><a xlink:href="https://en.wikipedia.org/wiki/Jean_Cavaill%C3%A8s" xlink:title="Jean Cavaillès">
<ellipse fill="none" stroke="black" cx="92.38" cy="-666" rx="60.88" ry="18"/>
<text text-anchor="middle" x="92.38" y="-661.8" font-family="Times,serif" font-size="14.00">Jean Cavaillès</text>
</a>
</g>
</g>
<!-- Jean Cavaillès&#45;&gt;Louis Althusser -->
<g id="edge4" class="edge">
<title>Jean Cavaillès&#45;&gt;Louis Althusser</title>
<path fill="none" stroke="black" d="M147.11,-657.7C160.44,-653.7 173.98,-647.78 184.75,-639 237.11,-596.32 265.95,-519.08 278.28,-477.79"/>
<polygon fill="black" stroke="black" points="281.67,-478.69 281.07,-468.11 274.94,-476.75 281.67,-478.69"/>
</g>
<!-- Jacques Lacan -->
<g id="node6" class="node">
<title>Jacques Lacan</title>
<g id="a_node6"><a xlink:href="https://en.wikipedia.org/wiki/Jacques_Lacan" xlink:title="Jacques Lacan">
<ellipse fill="none" stroke="black" cx="92.38" cy="-612" rx="61.34" ry="18"/>
<text text-anchor="middle" x="92.38" y="-607.8" font-family="Times,serif" font-size="14.00">Jacques Lacan</text>
</a>
</g>
</g>
<!-- Jacques Lacan&#45;&gt;Louis Althusser -->
<g id="edge5" class="edge">
<title>Jacques Lacan&#45;&gt;Louis Althusser</title>
<path fill="none" stroke="black" d="M145.3,-602.85C158.93,-598.84 173.08,-593.13 184.75,-585 225.01,-556.97 255.8,-507.75 272.26,-477.12"/>
<polygon fill="black" stroke="black" points="275.36,-478.74 276.9,-468.26 269.16,-475.49 275.36,-478.74"/>
</g>
<!-- Sigmund Freud -->
<g id="node7" class="node">
<title>Sigmund Freud</title>
<g id="a_node7"><a xlink:href="https://en.wikipedia.org/wiki/Sigmund_Freud" xlink:title="Sigmund Freud">
<ellipse fill="none" stroke="black" cx="92.38" cy="-558" rx="64.78" ry="18"/>
<text text-anchor="middle" x="92.38" y="-553.8" font-family="Times,serif" font-size="14.00">Sigmund Freud</text>
</a>
</g>
</g>
<!-- Sigmund Freud&#45;&gt;Louis Althusser -->
<g id="edge6" class="edge">
<title>Sigmund Freud&#45;&gt;Louis Althusser</title>
<path fill="none" stroke="black" d="M144.07,-546.82C157.7,-542.8 172.14,-537.59 184.75,-531 213.26,-516.09 241.45,-492.5 260.75,-474.61"/>
<polygon fill="black" stroke="black" points="263.33,-476.99 268.2,-467.58 258.53,-471.9 263.33,-476.99"/>
</g>
<!-- Vladimir Lenin -->
<g id="node8" class="node">
<title>Vladimir Lenin</title>
<g id="a_node8"><a xlink:href="https://en.wikipedia.org/wiki/Vladimir_Lenin" xlink:title="Vladimir Lenin">
<ellipse fill="none" stroke="black" cx="92.38" cy="-504" rx="64.75" ry="18"/>
<text text-anchor="middle" x="92.38" y="-499.8" font-family="Times,serif" font-size="14.00">Vladimir Lenin</text>
</a>
</g>
</g>
<!-- Vladimir Lenin&#45;&gt;Louis Althusser -->
<g id="edge7" class="edge">
<title>Vladimir Lenin&#45;&gt;Louis Althusser</title>
<path fill="none" stroke="black" d="M138.94,-491.2C166.25,-483.53 201.18,-473.72 230.1,-465.6"/>
<polygon fill="black" stroke="black" points="231.38,-468.87 240.06,-462.8 229.49,-462.13 231.38,-468.87"/>
</g>
<!-- Mao Zedong -->
<g id="node9" class="node">
<title>Mao Zedong</title>
<g id="a_node9"><a xlink:href="https://en.wikipedia.org/wiki/Mao_Zedong" xlink:title="Mao Zedong">
<ellipse fill="none" stroke="black" cx="92.38" cy="-450" rx="55.58" ry="18"/>
<text text-anchor="middle" x="92.38" y="-445.8" font-family="Times,serif" font-size="14.00">Mao Zedong</text>
</a>
</g>
</g>
<!-- Mao Zedong&#45;&gt;Louis Althusser -->
<g id="edge8" class="edge">
<title>Mao Zedong&#45;&gt;Louis Althusser</title>
<path fill="none" stroke="black" d="M147.95,-450C167.41,-450 189.69,-450 210.57,-450"/>
<polygon fill="black" stroke="black" points="210.69,-453.5 220.69,-450 210.69,-446.5 210.69,-453.5"/>
</g>
<!-- Antonio Gramsci -->
<g id="node10" class="node">
<title>Antonio Gramsci</title>
<g id="a_node10"><a xlink:href="https://en.wikipedia.org/wiki/Antonio_Gramsci" xlink:title="Antonio Gramsci">
<ellipse fill="none" stroke="black" cx="92.38" cy="-396" rx="71.03" ry="18"/>
<text text-anchor="middle" x="92.38" y="-391.8" font-family="Times,serif" font-size="14.00">Antonio Gramsci</text>
</a>
</g>
</g>
<!-- Antonio Gramsci&#45;&gt;Louis Althusser -->
<g id="edge9" class="edge">
<title>Antonio Gramsci&#45;&gt;Louis Althusser</title>
<path fill="none" stroke="black" d="M140.9,-409.35C167.95,-416.95 201.98,-426.5 230.24,-434.44"/>
<polygon fill="black" stroke="black" points="229.4,-437.84 239.97,-437.18 231.29,-431.1 229.4,-437.84"/>
</g>
<!-- G. W. F. Hegel -->
<g id="node11" class="node">
<title>G. W. F. Hegel</title>
<g id="a_node11"><a xlink:href="https://en.wikipedia.org/wiki/G._W._F._Hegel" xlink:title="G. W. F. Hegel">
<ellipse fill="none" stroke="black" cx="92.38" cy="-342" rx="62.44" ry="18"/>
<text text-anchor="middle" x="92.38" y="-337.8" font-family="Times,serif" font-size="14.00">G. W. F. Hegel</text>
</a>
</g>
</g>
<!-- G. W. F. Hegel&#45;&gt;Louis Althusser -->
<g id="edge10" class="edge">
<title>G. W. F. Hegel&#45;&gt;Louis Althusser</title>
<path fill="none" stroke="black" d="M142.64,-352.77C156.69,-356.83 171.71,-362.18 184.75,-369 213.26,-383.91 241.45,-407.5 260.75,-425.39"/>
<polygon fill="black" stroke="black" points="258.53,-428.1 268.2,-432.42 263.33,-423.01 258.53,-428.1"/>
</g>
<!-- Friedrich Nietzsche -->
<g id="node12" class="node">
<title>Friedrich Nietzsche</title>
<g id="a_node12"><a xlink:href="https://en.wikipedia.org/wiki/Friedrich_Nietzsche" xlink:title="Friedrich Nietzsche">
<ellipse fill="none" stroke="black" cx="92.38" cy="-288" rx="79.7" ry="18"/>
<text text-anchor="middle" x="92.38" y="-283.8" font-family="Times,serif" font-size="14.00">Friedrich Nietzsche</text>
</a>
</g>
</g>
<!-- Friedrich Nietzsche&#45;&gt;Louis Althusser -->
<g id="edge11" class="edge">
<title>Friedrich Nietzsche&#45;&gt;Louis Althusser</title>
<path fill="none" stroke="black" d="M153.42,-299.73C164.43,-303.51 175.38,-308.48 184.75,-315 225.01,-343.03 255.8,-392.25 272.26,-422.88"/>
<polygon fill="black" stroke="black" points="269.16,-424.51 276.9,-431.74 275.36,-421.26 269.16,-424.51"/>
</g>
<!-- Niccolò Machiavelli -->
<g id="node13" class="node">
<title>Niccolò Machiavelli</title>
<g id="a_node13"><a xlink:href="https://en.wikipedia.org/wiki/Niccol%C3%B2_Machiavelli" xlink:title="Niccolò Machiavelli">
<ellipse fill="none" stroke="black" cx="92.38" cy="-234" rx="82.59" ry="18"/>
<text text-anchor="middle" x="92.38" y="-229.8" font-family="Times,serif" font-size="14.00">Niccolò Machiavelli</text>
</a>
</g>
</g>
<!-- Niccolò Machiavelli&#45;&gt;Louis Althusser -->
<g id="edge12" class="edge">
<title>Niccolò Machiavelli&#45;&gt;Louis Althusser</title>
<path fill="none" stroke="black" d="M156.63,-245.49C166.73,-249.28 176.54,-254.31 184.75,-261 237.11,-303.68 265.95,-380.92 278.28,-422.21"/>
<polygon fill="black" stroke="black" points="274.94,-423.25 281.07,-431.89 281.67,-421.31 274.94,-423.25"/>
</g>
<!-- Baruch Spinoza -->
<g id="node14" class="node">
<title>Baruch Spinoza</title>
<g id="a_node14"><a xlink:href="https://en.wikipedia.org/wiki/Baruch_Spinoza" xlink:title="Baruch Spinoza">
<ellipse fill="none" stroke="black" cx="92.38" cy="-180" rx="66.19" ry="18"/>
<text text-anchor="middle" x="92.38" y="-175.8" font-family="Times,serif" font-size="14.00">Baruch Spinoza</text>
</a>
</g>
</g>
<!-- Baruch Spinoza&#45;&gt;Louis Althusser -->
<g id="edge13" class="edge">
<title>Baruch Spinoza&#45;&gt;Louis Althusser</title>
<path fill="none" stroke="black" d="M151.03,-188.65C163.24,-192.65 175.28,-198.48 184.75,-207 249.44,-265.16 273.71,-371.28 281.9,-421.81"/>
<polygon fill="black" stroke="black" points="278.44,-422.35 283.41,-431.71 285.36,-421.29 278.44,-422.35"/>
</g>
<!-- Montesquieu -->
<g id="node15" class="node">
<title>Montesquieu</title>
<g id="a_node15"><a xlink:href="https://en.wikipedia.org/wiki/Montesquieu" xlink:title="Montesquieu">
<ellipse fill="none" stroke="black" cx="92.38" cy="-126" rx="56.07" ry="18"/>
<text text-anchor="middle" x="92.38" y="-121.8" font-family="Times,serif" font-size="14.00">Montesquieu</text>
</a>
</g>
</g>
<!-- Montesquieu&#45;&gt;Louis Althusser -->
<g id="edge14" class="edge">
<title>Montesquieu&#45;&gt;Louis Althusser</title>
<path fill="none" stroke="black" d="M145.27,-132.33C159.53,-136.29 174.01,-142.69 184.75,-153 262.2,-227.4 280.19,-363.44 284.36,-421.99"/>
<polygon fill="black" stroke="black" points="280.87,-422.23 284.99,-431.99 287.86,-421.79 280.87,-422.23"/>
</g>
<!-- Jean&#45;Jacques Rousseau -->
<g id="node16" class="node">
<title>Jean&#45;Jacques Rousseau</title>
<g id="a_node16"><a xlink:href="https://en.wikipedia.org/wiki/Jean-Jacques_Rousseau" xlink:title="Jean&#45;Jacques Rousseau">
<ellipse fill="none" stroke="black" cx="92.38" cy="-72" rx="92.25" ry="18"/>
<text text-anchor="middle" x="92.38" y="-67.8" font-family="Times,serif" font-size="14.00">Jean&#45;Jacques Rousseau</text>
</a>
</g>
</g>
<!-- Jean&#45;Jacques Rousseau&#45;&gt;Louis Althusser -->
<g id="edge15" class="edge">
<title>Jean&#45;Jacques Rousseau&#45;&gt;Louis Althusser</title>
<path fill="none" stroke="black" d="M162.06,-83.85C170.47,-87.61 178.34,-92.54 184.75,-99 274.87,-189.8 285.6,-355.51 286.1,-421.64"/>
<polygon fill="black" stroke="black" points="282.6,-421.73 286.1,-431.73 289.6,-421.73 282.6,-421.73"/>
</g>
</g>
</svg>
