<?xml version="1.0" encoding="UTF-8" standalone="no"?>
<!DOCTYPE svg PUBLIC "-//W3C//DTD SVG 1.1//EN"
 "http://www.w3.org/Graphics/SVG/1.1/DTD/svg11.dtd">
<!-- Generated by graphviz version 2.42.3 (20191010.1750)
 -->
<!-- Title: G Pages: 1 -->
<svg width="1011pt" height="188pt"
 viewBox="0.00 0.00 1010.53 188.00" xmlns="http://www.w3.org/2000/svg" xmlns:xlink="http://www.w3.org/1999/xlink">
<g id="graph0" class="graph" transform="scale(1 1) rotate(0) translate(4 184)">
<title>G</title>
<polygon fill="white" stroke="transparent" points="-4,4 -4,-184 1006.53,-184 1006.53,4 -4,4"/>
<!-- Plato -->
<g id="node1" class="node">
<title>Plato</title>
<g id="a_node1"><a xlink:href="https://en.wikipedia.org/wiki/Plato" xlink:title="Plato">
<ellipse fill="none" stroke="black" cx="436.38" cy="-162" rx="28.07" ry="18"/>
<text text-anchor="middle" x="436.38" y="-157.8" font-family="Times,serif" font-size="14.00">Plato</text>
</a>
</g>
</g>
<!-- Aristotle -->
<g id="node2" class="node">
<title>Aristotle</title>
<ellipse fill="none" stroke="black" cx="436.38" cy="-90" rx="41.11" ry="18"/>
<text text-anchor="middle" x="436.38" y="-85.8" font-family="Times,serif" font-size="14.00">Aristotle</text>
</g>
<!-- Plato&#45;&gt;Aristotle -->
<g id="edge1" class="edge">
<title>Plato&#45;&gt;Aristotle</title>
<path fill="none" stroke="black" d="M436.38,-143.7C436.38,-135.98 436.38,-126.71 436.38,-118.11"/>
<polygon fill="black" stroke="black" points="439.88,-118.1 436.38,-108.1 432.88,-118.1 439.88,-118.1"/>
</g>
<!-- Western philosophy -->
<g id="node3" class="node">
<title>Western philosophy</title>
<g id="a_node3"><a xlink:href="https://en.wikipedia.org/wiki/Western_philosophy" xlink:title="Western philosophy">
<ellipse fill="none" stroke="black" cx="80.38" cy="-18" rx="80.27" ry="18"/>
<text text-anchor="middle" x="80.38" y="-13.8" font-family="Times,serif" font-size="14.00">Western philosophy</text>
</a>
</g>
</g>
<!-- Aristotle&#45;&gt;Western philosophy -->
<g id="edge2" class="edge">
<title>Aristotle&#45;&gt;Western philosophy</title>
<path fill="none" stroke="black" d="M399.63,-81.77C340.58,-70.16 223.67,-47.17 148.89,-32.47"/>
<polygon fill="black" stroke="black" points="149.12,-28.95 138.63,-30.45 147.77,-35.82 149.12,-28.95"/>
</g>
<!-- Islamic philosophy -->
<g id="node4" class="node">
<title>Islamic philosophy</title>
<g id="a_node4"><a xlink:href="https://en.wikipedia.org/wiki/Islamic_philosophy" xlink:title="Islamic philosophy">
<ellipse fill="none" stroke="black" cx="256.38" cy="-18" rx="77.81" ry="18"/>
<text text-anchor="middle" x="256.38" y="-13.8" font-family="Times,serif" font-size="14.00">Islamic philosophy</text>
</a>
</g>
</g>
<!-- Aristotle&#45;&gt;Islamic philosophy -->
<g id="edge3" class="edge">
<title>Aristotle&#45;&gt;Islamic philosophy</title>
<path fill="none" stroke="black" d="M406.66,-77.44C378.67,-66.56 336.28,-50.07 303.65,-37.38"/>
<polygon fill="black" stroke="black" points="304.88,-34.11 294.3,-33.74 302.35,-40.63 304.88,-34.11"/>
</g>
<!-- Christian philosophy -->
<g id="node5" class="node">
<title>Christian philosophy</title>
<g id="a_node5"><a xlink:href="https://en.wikipedia.org/wiki/Christian_philosophy" xlink:title="Christian philosophy">
<ellipse fill="none" stroke="black" cx="436.38" cy="-18" rx="84.1" ry="18"/>
<text text-anchor="middle" x="436.38" y="-13.8" font-family="Times,serif" font-size="14.00">Christian philosophy</text>
</a>
</g>
</g>
<!-- Aristotle&#45;&gt;Christian philosophy -->
<g id="edge4" class="edge">
<title>Aristotle&#45;&gt;Christian philosophy</title>
<path fill="none" stroke="black" d="M436.38,-71.7C436.38,-63.98 436.38,-54.71 436.38,-46.11"/>
<polygon fill="black" stroke="black" points="439.88,-46.1 436.38,-36.1 432.88,-46.1 439.88,-46.1"/>
</g>
<!-- Enlightenment -->
<g id="node6" class="node">
<title>Enlightenment</title>
<g id="a_node6"><a xlink:href="https://en.wikipedia.org/wiki/Age_of_Enlightenment" xlink:title="Enlightenment">
<ellipse fill="none" stroke="black" cx="600.38" cy="-18" rx="62.35" ry="18"/>
<text text-anchor="middle" x="600.38" y="-13.8" font-family="Times,serif" font-size="14.00">Enlightenment</text>
</a>
</g>
</g>
<!-- Aristotle&#45;&gt;Enlightenment -->
<g id="edge5" class="edge">
<title>Aristotle&#45;&gt;Enlightenment</title>
<path fill="none" stroke="black" d="M464.95,-76.81C490.51,-65.9 528.34,-49.75 557.52,-37.29"/>
<polygon fill="black" stroke="black" points="559.24,-40.37 567.06,-33.22 556.49,-33.93 559.24,-40.37"/>
</g>
<!-- Literally all writers influenced by Aristotle -->
<g id="node7" class="node">
<title>Literally all writers influenced by Aristotle</title>
<g id="a_node7"><a xlink:href="https://en.wikipedia.org/wiki/List_of_writers_influenced_by_Aristotle" xlink:title="Literally all writers influenced by Aristotle">
<ellipse fill="none" stroke="black" cx="841.38" cy="-18" rx="161.3" ry="18"/>
<text text-anchor="middle" x="841.38" y="-13.8" font-family="Times,serif" font-size="14.00">Literally all writers influenced by Aristotle</text>
</a>
</g>
</g>
<!-- Aristotle&#45;&gt;Literally all writers influenced by Aristotle -->
<g id="edge6" class="edge">
<title>Aristotle&#45;&gt;Literally all writers influenced by Aristotle</title>
<path fill="none" stroke="black" d="M473.76,-82.54C535.61,-71.85 661.04,-50.17 748.07,-35.13"/>
<polygon fill="black" stroke="black" points="748.7,-38.57 757.96,-33.42 747.51,-31.67 748.7,-38.57"/>
</g>
</g>
</svg>
