<?xml version="1.0" encoding="UTF-8" standalone="no"?>
<!DOCTYPE svg PUBLIC "-//W3C//DTD SVG 1.1//EN"
 "http://www.w3.org/Graphics/SVG/1.1/DTD/svg11.dtd">
<!-- Generated by graphviz version 2.42.3 (20191010.1750)
 -->
<!-- Title: G Pages: 1 -->
<svg width="2019pt" height="188pt"
 viewBox="0.00 0.00 2019.36 188.00" xmlns="http://www.w3.org/2000/svg" xmlns:xlink="http://www.w3.org/1999/xlink">
<g id="graph0" class="graph" transform="scale(1 1) rotate(0) translate(4 184)">
<title>G</title>
<polygon fill="white" stroke="transparent" points="-4,4 -4,-184 2015.36,-184 2015.36,4 -4,4"/>
<!-- Ambrose of Milan -->
<g id="node1" class="node">
<title>Ambrose of Milan</title>
<g id="a_node1"><a xlink:href="https://en.wikipedia.org/wiki/Ambrose_of_Milan" xlink:title="Ambrose of Milan">
<ellipse fill="none" stroke="black" cx="75.44" cy="-162" rx="75.38" ry="18"/>
<text text-anchor="middle" x="75.44" y="-157.8" font-family="Times,serif" font-size="14.00">Ambrose of Milan</text>
</a>
</g>
</g>
<!-- Augustine -->
<g id="node2" class="node">
<title>Augustine</title>
<ellipse fill="none" stroke="black" cx="1008.44" cy="-90" rx="46.42" ry="18"/>
<text text-anchor="middle" x="1008.44" y="-85.8" font-family="Times,serif" font-size="14.00">Augustine</text>
</g>
<!-- Ambrose of Milan&#45;&gt;Augustine -->
<g id="edge1" class="edge">
<title>Ambrose of Milan&#45;&gt;Augustine</title>
<path fill="none" stroke="black" d="M128.58,-149.1C138.78,-147.14 149.41,-145.32 159.44,-144 455.9,-104.94 814.5,-94.51 951.5,-91.86"/>
<polygon fill="black" stroke="black" points="951.81,-95.35 961.75,-91.67 951.68,-88.35 951.81,-95.35"/>
</g>
<!-- Western philosophy -->
<g id="node20" class="node">
<title>Western philosophy</title>
<g id="a_node20"><a xlink:href="https://en.wikipedia.org/wiki/Western_philosophy" xlink:title="Western philosophy">
<ellipse fill="none" stroke="black" cx="836.44" cy="-18" rx="80.27" ry="18"/>
<text text-anchor="middle" x="836.44" y="-13.8" font-family="Times,serif" font-size="14.00">Western philosophy</text>
</a>
</g>
</g>
<!-- Augustine&#45;&gt;Western philosophy -->
<g id="edge19" class="edge">
<title>Augustine&#45;&gt;Western philosophy</title>
<path fill="none" stroke="black" d="M977.69,-76.49C951.36,-65.77 913.04,-50.18 882.96,-37.93"/>
<polygon fill="black" stroke="black" points="884.09,-34.61 873.51,-34.09 881.45,-41.1 884.09,-34.61"/>
</g>
<!-- Catholic theology -->
<g id="node21" class="node">
<title>Catholic theology</title>
<g id="a_node21"><a xlink:href="https://en.wikipedia.org/wiki/Catholic_theology" xlink:title="Catholic theology">
<ellipse fill="none" stroke="black" cx="1008.44" cy="-18" rx="73.46" ry="18"/>
<text text-anchor="middle" x="1008.44" y="-13.8" font-family="Times,serif" font-size="14.00">Catholic theology</text>
</a>
</g>
</g>
<!-- Augustine&#45;&gt;Catholic theology -->
<g id="edge20" class="edge">
<title>Augustine&#45;&gt;Catholic theology</title>
<path fill="none" stroke="black" d="M1008.44,-71.7C1008.44,-63.98 1008.44,-54.71 1008.44,-46.11"/>
<polygon fill="black" stroke="black" points="1011.94,-46.1 1008.44,-36.1 1004.94,-46.1 1011.94,-46.1"/>
</g>
<!-- Protestant theology -->
<g id="node22" class="node">
<title>Protestant theology</title>
<g id="a_node22"><a xlink:href="https://en.wikipedia.org/wiki/Protestant_theology" xlink:title="Protestant theology">
<ellipse fill="none" stroke="black" cx="1178.44" cy="-18" rx="78.77" ry="18"/>
<text text-anchor="middle" x="1178.44" y="-13.8" font-family="Times,serif" font-size="14.00">Protestant theology</text>
</a>
</g>
</g>
<!-- Augustine&#45;&gt;Protestant theology -->
<g id="edge21" class="edge">
<title>Augustine&#45;&gt;Protestant theology</title>
<path fill="none" stroke="black" d="M1039.23,-76.32C1065.3,-65.59 1103.05,-50.04 1132.67,-37.85"/>
<polygon fill="black" stroke="black" points="1134.06,-41.06 1141.98,-34.01 1131.4,-34.59 1134.06,-41.06"/>
</g>
<!-- Aristotle -->
<g id="node3" class="node">
<title>Aristotle</title>
<g id="a_node3"><a xlink:href="https://en.wikipedia.org/wiki/Aristotle" xlink:title="Aristotle">
<ellipse fill="none" stroke="black" cx="209.44" cy="-162" rx="41.11" ry="18"/>
<text text-anchor="middle" x="209.44" y="-157.8" font-family="Times,serif" font-size="14.00">Aristotle</text>
</a>
</g>
</g>
<!-- Aristotle&#45;&gt;Augustine -->
<g id="edge2" class="edge">
<title>Aristotle&#45;&gt;Augustine</title>
<path fill="none" stroke="black" d="M239.24,-149.48C245.81,-147.33 252.79,-145.34 259.44,-144 391.87,-117.27 800.87,-99.08 951.76,-93.12"/>
<polygon fill="black" stroke="black" points="952.32,-96.6 962.17,-92.72 952.04,-89.61 952.32,-96.6"/>
</g>
<!-- Cicero -->
<g id="node4" class="node">
<title>Cicero</title>
<g id="a_node4"><a xlink:href="https://en.wikipedia.org/wiki/Cicero" xlink:title="Cicero">
<ellipse fill="none" stroke="black" cx="302.44" cy="-162" rx="33.86" ry="18"/>
<text text-anchor="middle" x="302.44" y="-157.8" font-family="Times,serif" font-size="14.00">Cicero</text>
</a>
</g>
</g>
<!-- Cicero&#45;&gt;Augustine -->
<g id="edge3" class="edge">
<title>Cicero&#45;&gt;Augustine</title>
<path fill="none" stroke="black" d="M327.35,-149.47C332.88,-147.32 338.77,-145.34 344.44,-144 459.33,-116.84 813.35,-99.29 951.96,-93.3"/>
<polygon fill="black" stroke="black" points="952.5,-96.78 962.34,-92.85 952.2,-89.78 952.5,-96.78"/>
</g>
<!-- Cyprian -->
<g id="node5" class="node">
<title>Cyprian</title>
<g id="a_node5"><a xlink:href="https://en.wikipedia.org/wiki/Cyprian" xlink:title="Cyprian">
<ellipse fill="none" stroke="black" cx="392.44" cy="-162" rx="38.7" ry="18"/>
<text text-anchor="middle" x="392.44" y="-157.8" font-family="Times,serif" font-size="14.00">Cyprian</text>
</a>
</g>
</g>
<!-- Cyprian&#45;&gt;Augustine -->
<g id="edge4" class="edge">
<title>Cyprian&#45;&gt;Augustine</title>
<path fill="none" stroke="black" d="M420.78,-149.66C427.16,-147.48 433.96,-145.43 440.44,-144 624.42,-103.49 848.59,-93.92 951.64,-91.68"/>
<polygon fill="black" stroke="black" points="951.9,-95.17 961.83,-91.47 951.76,-88.17 951.9,-95.17"/>
</g>
<!-- Monica of Hippo -->
<g id="node6" class="node">
<title>Monica of Hippo</title>
<g id="a_node6"><a xlink:href="https://en.wikipedia.org/wiki/Monica_of_Hippo" xlink:title="Monica of Hippo">
<ellipse fill="none" stroke="black" cx="520.44" cy="-162" rx="71.04" ry="18"/>
<text text-anchor="middle" x="520.44" y="-157.8" font-family="Times,serif" font-size="14.00">Monica of Hippo</text>
</a>
</g>
</g>
<!-- Monica of Hippo&#45;&gt;Augustine -->
<g id="edge5" class="edge">
<title>Monica of Hippo&#45;&gt;Augustine</title>
<path fill="none" stroke="black" d="M571.96,-149.42C581.41,-147.47 591.2,-145.58 600.44,-144 726.44,-122.46 875.67,-105.14 954.07,-96.66"/>
<polygon fill="black" stroke="black" points="954.62,-100.12 964.19,-95.57 953.88,-93.16 954.62,-100.12"/>
</g>
<!-- Homer -->
<g id="node7" class="node">
<title>Homer</title>
<g id="a_node7"><a xlink:href="https://en.wikipedia.org/wiki/Homer" xlink:title="Homer">
<ellipse fill="none" stroke="black" cx="644.44" cy="-162" rx="34.83" ry="18"/>
<text text-anchor="middle" x="644.44" y="-157.8" font-family="Times,serif" font-size="14.00">Homer</text>
</a>
</g>
</g>
<!-- Homer&#45;&gt;Augustine -->
<g id="edge6" class="edge">
<title>Homer&#45;&gt;Augustine</title>
<path fill="none" stroke="black" d="M670.06,-149.84C675.71,-147.67 681.71,-145.58 687.44,-144 779.29,-118.57 889.5,-103.64 953.98,-96.41"/>
<polygon fill="black" stroke="black" points="954.36,-99.89 963.92,-95.32 953.6,-92.94 954.36,-99.89"/>
</g>
<!-- Origen -->
<g id="node8" class="node">
<title>Origen</title>
<g id="a_node8"><a xlink:href="https://en.wikipedia.org/wiki/Origen" xlink:title="Origen">
<ellipse fill="none" stroke="black" cx="731.44" cy="-162" rx="34.83" ry="18"/>
<text text-anchor="middle" x="731.44" y="-157.8" font-family="Times,serif" font-size="14.00">Origen</text>
</a>
</g>
</g>
<!-- Origen&#45;&gt;Augustine -->
<g id="edge7" class="edge">
<title>Origen&#45;&gt;Augustine</title>
<path fill="none" stroke="black" d="M757.75,-150.12C763.52,-147.94 769.64,-145.77 775.44,-144 836.99,-125.22 909.49,-109.74 957.08,-100.45"/>
<polygon fill="black" stroke="black" points="957.99,-103.84 967.14,-98.51 956.66,-96.97 957.99,-103.84"/>
</g>
<!-- Paul the Apostle -->
<g id="node9" class="node">
<title>Paul the Apostle</title>
<g id="a_node9"><a xlink:href="https://en.wikipedia.org/wiki/Paul_the_Apostle" xlink:title="Paul the Apostle">
<ellipse fill="none" stroke="black" cx="852.44" cy="-162" rx="68.16" ry="18"/>
<text text-anchor="middle" x="852.44" y="-157.8" font-family="Times,serif" font-size="14.00">Paul the Apostle</text>
</a>
</g>
</g>
<!-- Paul the Apostle&#45;&gt;Augustine -->
<g id="edge8" class="edge">
<title>Paul the Apostle&#45;&gt;Augustine</title>
<path fill="none" stroke="black" d="M885.52,-146.15C910.3,-135.04 944.24,-119.81 970.18,-108.17"/>
<polygon fill="black" stroke="black" points="971.65,-111.34 979.34,-104.06 968.79,-104.96 971.65,-111.34"/>
</g>
<!-- Plato -->
<g id="node10" class="node">
<title>Plato</title>
<g id="a_node10"><a xlink:href="https://en.wikipedia.org/wiki/Plato" xlink:title="Plato">
<ellipse fill="none" stroke="black" cx="966.44" cy="-162" rx="28.07" ry="18"/>
<text text-anchor="middle" x="966.44" y="-157.8" font-family="Times,serif" font-size="14.00">Plato</text>
</a>
</g>
</g>
<!-- Plato&#45;&gt;Augustine -->
<g id="edge9" class="edge">
<title>Plato&#45;&gt;Augustine</title>
<path fill="none" stroke="black" d="M976.18,-144.76C981.25,-136.32 987.56,-125.8 993.25,-116.31"/>
<polygon fill="black" stroke="black" points="996.32,-118.01 998.46,-107.63 990.31,-114.41 996.32,-118.01"/>
</g>
<!-- Plotinus -->
<g id="node11" class="node">
<title>Plotinus</title>
<g id="a_node11"><a xlink:href="https://en.wikipedia.org/wiki/Plotinus" xlink:title="Plotinus">
<ellipse fill="none" stroke="black" cx="1051.44" cy="-162" rx="39.21" ry="18"/>
<text text-anchor="middle" x="1051.44" y="-157.8" font-family="Times,serif" font-size="14.00">Plotinus</text>
</a>
</g>
</g>
<!-- Plotinus&#45;&gt;Augustine -->
<g id="edge10" class="edge">
<title>Plotinus&#45;&gt;Augustine</title>
<path fill="none" stroke="black" d="M1041.25,-144.41C1036.13,-136.08 1029.82,-125.8 1024.1,-116.49"/>
<polygon fill="black" stroke="black" points="1027.07,-114.65 1018.86,-107.96 1021.11,-118.31 1027.07,-114.65"/>
</g>
<!-- Virgil -->
<g id="node12" class="node">
<title>Virgil</title>
<g id="a_node12"><a xlink:href="https://en.wikipedia.org/wiki/Virgil" xlink:title="Virgil">
<ellipse fill="none" stroke="black" cx="1139.44" cy="-162" rx="30.6" ry="18"/>
<text text-anchor="middle" x="1139.44" y="-157.8" font-family="Times,serif" font-size="14.00">Virgil</text>
</a>
</g>
</g>
<!-- Virgil&#45;&gt;Augustine -->
<g id="edge11" class="edge">
<title>Virgil&#45;&gt;Augustine</title>
<path fill="none" stroke="black" d="M1117.51,-149.28C1097.32,-138.49 1067.02,-122.3 1043.48,-109.72"/>
<polygon fill="black" stroke="black" points="1044.97,-106.55 1034.5,-104.92 1041.67,-112.72 1044.97,-106.55"/>
</g>
<!-- Mani -->
<g id="node13" class="node">
<title>Mani</title>
<g id="a_node13"><a xlink:href="https://en.wikipedia.org/wiki/Mani_(prophet)" xlink:title="Mani">
<ellipse fill="none" stroke="black" cx="1216.44" cy="-162" rx="28.55" ry="18"/>
<text text-anchor="middle" x="1216.44" y="-157.8" font-family="Times,serif" font-size="14.00">Mani</text>
</a>
</g>
</g>
<!-- Mani&#45;&gt;Augustine -->
<g id="edge12" class="edge">
<title>Mani&#45;&gt;Augustine</title>
<path fill="none" stroke="black" d="M1194.33,-150.28C1189.48,-148.08 1184.33,-145.87 1179.44,-144 1138.23,-128.22 1090.13,-113.64 1055.46,-103.79"/>
<polygon fill="black" stroke="black" points="1056.18,-100.35 1045.6,-101.01 1054.28,-107.09 1056.18,-100.35"/>
</g>
<!-- Socrates -->
<g id="node14" class="node">
<title>Socrates</title>
<g id="a_node14"><a xlink:href="https://en.wikipedia.org/wiki/Socrates" xlink:title="Socrates">
<ellipse fill="none" stroke="black" cx="1303.44" cy="-162" rx="40.13" ry="18"/>
<text text-anchor="middle" x="1303.44" y="-157.8" font-family="Times,serif" font-size="14.00">Socrates</text>
</a>
</g>
</g>
<!-- Socrates&#45;&gt;Augustine -->
<g id="edge13" class="edge">
<title>Socrates&#45;&gt;Augustine</title>
<path fill="none" stroke="black" d="M1273.56,-149.99C1267.29,-147.86 1260.68,-145.75 1254.44,-144 1187.92,-125.37 1109.74,-109.54 1059.66,-100.15"/>
<polygon fill="black" stroke="black" points="1060.2,-96.69 1049.73,-98.3 1058.92,-103.57 1060.2,-96.69"/>
</g>
<!-- Tertullian -->
<g id="node15" class="node">
<title>Tertullian</title>
<g id="a_node15"><a xlink:href="https://en.wikipedia.org/wiki/Tertullian" xlink:title="Tertullian">
<ellipse fill="none" stroke="black" cx="1405.44" cy="-162" rx="44.22" ry="18"/>
<text text-anchor="middle" x="1405.44" y="-157.8" font-family="Times,serif" font-size="14.00">Tertullian</text>
</a>
</g>
</g>
<!-- Tertullian&#45;&gt;Augustine -->
<g id="edge14" class="edge">
<title>Tertullian&#45;&gt;Augustine</title>
<path fill="none" stroke="black" d="M1372.87,-149.67C1366.17,-147.58 1359.12,-145.57 1352.44,-144 1251.47,-120.18 1131.21,-104.47 1062.94,-96.71"/>
<polygon fill="black" stroke="black" points="1063.18,-93.21 1052.85,-95.58 1062.4,-100.17 1063.18,-93.21"/>
</g>
<!-- Zoroaster -->
<g id="node16" class="node">
<title>Zoroaster</title>
<g id="a_node16"><a xlink:href="https://en.wikipedia.org/wiki/Zoroaster" xlink:title="Zoroaster">
<ellipse fill="none" stroke="black" cx="1511.44" cy="-162" rx="43.98" ry="18"/>
<text text-anchor="middle" x="1511.44" y="-157.8" font-family="Times,serif" font-size="14.00">Zoroaster</text>
</a>
</g>
</g>
<!-- Zoroaster&#45;&gt;Augustine -->
<g id="edge15" class="edge">
<title>Zoroaster&#45;&gt;Augustine</title>
<path fill="none" stroke="black" d="M1479.2,-149.57C1472.41,-147.47 1465.24,-145.48 1458.44,-144 1318.45,-113.6 1149.93,-99.63 1064.29,-94.1"/>
<polygon fill="black" stroke="black" points="1064.47,-90.61 1054.27,-93.47 1064.03,-97.59 1064.47,-90.61"/>
</g>
<!-- Seneca the Younger -->
<g id="node17" class="node">
<title>Seneca the Younger</title>
<g id="a_node17"><a xlink:href="https://en.wikipedia.org/wiki/Seneca_the_Younger" xlink:title="Seneca the Younger">
<ellipse fill="none" stroke="black" cx="1653.44" cy="-162" rx="80.22" ry="18"/>
<text text-anchor="middle" x="1653.44" y="-157.8" font-family="Times,serif" font-size="14.00">Seneca the Younger</text>
</a>
</g>
</g>
<!-- Seneca the Younger&#45;&gt;Augustine -->
<g id="edge16" class="edge">
<title>Seneca the Younger&#45;&gt;Augustine</title>
<path fill="none" stroke="black" d="M1596.12,-149.23C1585.61,-147.31 1574.72,-145.47 1564.44,-144 1382.26,-117.98 1164.63,-101.41 1064.23,-94.58"/>
<polygon fill="black" stroke="black" points="1064.23,-91.07 1054.02,-93.89 1063.76,-98.06 1064.23,-91.07"/>
</g>
<!-- Aulus Gellius -->
<g id="node18" class="node">
<title>Aulus Gellius</title>
<g id="a_node18"><a xlink:href="https://en.wikipedia.org/wiki/Aulus_Gellius" xlink:title="Aulus Gellius">
<ellipse fill="none" stroke="black" cx="1810.44" cy="-162" rx="58.98" ry="18"/>
<text text-anchor="middle" x="1810.44" y="-157.8" font-family="Times,serif" font-size="14.00">Aulus Gellius</text>
</a>
</g>
</g>
<!-- Aulus Gellius&#45;&gt;Augustine -->
<g id="edge17" class="edge">
<title>Aulus Gellius&#45;&gt;Augustine</title>
<path fill="none" stroke="black" d="M1768.23,-149.25C1759.75,-147.23 1750.85,-145.34 1742.44,-144 1492.11,-103.98 1188.88,-94.16 1065.14,-91.76"/>
<polygon fill="black" stroke="black" points="1065.2,-88.26 1055.13,-91.58 1065.07,-95.26 1065.2,-88.26"/>
</g>
<!-- Noctes Atticae -->
<g id="node19" class="node">
<title>Noctes Atticae</title>
<g id="a_node19"><a xlink:href="https://en.wikipedia.org/wiki/Noctes_Atticae" xlink:title="Noctes Atticae">
<ellipse fill="none" stroke="black" cx="1949.44" cy="-162" rx="61.85" ry="18"/>
<text text-anchor="middle" x="1949.44" y="-157.8" font-family="Times,serif" font-size="14.00">Noctes Atticae</text>
</a>
</g>
</g>
<!-- Noctes Atticae&#45;&gt;Augustine -->
<g id="edge18" class="edge">
<title>Noctes Atticae&#45;&gt;Augustine</title>
<path fill="none" stroke="black" d="M1905.36,-149.19C1896.5,-147.17 1887.22,-145.31 1878.44,-144 1574,-98.63 1204.09,-91.9 1064.96,-91.05"/>
<polygon fill="black" stroke="black" points="1064.97,-87.55 1054.95,-90.99 1064.93,-94.55 1064.97,-87.55"/>
</g>
</g>
</svg>
