<?xml version="1.0" encoding="UTF-8" standalone="no"?>
<!DOCTYPE svg PUBLIC "-//W3C//DTD SVG 1.1//EN"
 "http://www.w3.org/Graphics/SVG/1.1/DTD/svg11.dtd">
<!-- Generated by graphviz version 2.42.3 (20191010.1750)
 -->
<!-- Title: G Pages: 1 -->
<svg width="302pt" height="530pt"
 viewBox="0.00 0.00 301.70 530.00" xmlns="http://www.w3.org/2000/svg" xmlns:xlink="http://www.w3.org/1999/xlink">
<g id="graph0" class="graph" transform="scale(1 1) rotate(0) translate(4 526)">
<title>G</title>
<polygon fill="white" stroke="transparent" points="-4,4 -4,-526 297.7,-526 297.7,4 -4,4"/>
<!-- Jean&#45;Paul Sartre -->
<g id="node1" class="node">
<title>Jean&#45;Paul Sartre</title>
<g id="a_node1"><a xlink:href="https://en.wikipedia.org/wiki/Jean-Paul_Sartre" xlink:title="Jean&#45;Paul Sartre">
<ellipse fill="none" stroke="black" cx="94.18" cy="-504" rx="76.43" ry="18"/>
<text text-anchor="middle" x="94.18" y="-499.8" font-family="sans-serif" font-size="14.00">Jean&#45;Paul Sartre</text>
</a>
</g>
</g>
<!-- Camus -->
<g id="node2" class="node">
<title>Camus</title>
<ellipse fill="none" stroke="black" cx="259.02" cy="-261" rx="34.85" ry="18"/>
<text text-anchor="middle" x="259.02" y="-256.8" font-family="Times,serif" font-size="14.00">Camus</text>
</g>
<!-- Jean&#45;Paul Sartre&#45;&gt;Camus -->
<g id="edge1" class="edge">
<title>Jean&#45;Paul Sartre&#45;&gt;Camus</title>
<path fill="none" stroke="black" d="M159.3,-494.43C170.01,-490.45 180.25,-484.86 188.35,-477 240.97,-425.94 253.91,-334.98 257.05,-289.11"/>
<polygon fill="black" stroke="black" points="260.55,-289.17 257.63,-278.99 253.56,-288.77 260.55,-289.17"/>
</g>
<!-- Augustine -->
<g id="node3" class="node">
<title>Augustine</title>
<g id="a_node3"><a xlink:href="https://en.wikipedia.org/wiki/Augustine" xlink:title="Augustine">
<ellipse fill="none" stroke="black" cx="94.18" cy="-450" rx="49.38" ry="18"/>
<text text-anchor="middle" x="94.18" y="-445.8" font-family="sans-serif" font-size="14.00">Augustine</text>
</a>
</g>
</g>
<!-- Augustine&#45;&gt;Camus -->
<g id="edge2" class="edge">
<title>Augustine&#45;&gt;Camus</title>
<path fill="none" stroke="black" d="M141.78,-444.79C158.07,-440.97 175.47,-434.37 188.35,-423 228.46,-387.59 246.27,-325.04 253.54,-288.9"/>
<polygon fill="black" stroke="black" points="256.99,-289.49 255.4,-279.02 250.11,-288.2 256.99,-289.49"/>
</g>
<!-- Karl Marx -->
<g id="node4" class="node">
<title>Karl Marx</title>
<g id="a_node4"><a xlink:href="https://en.wikipedia.org/wiki/Karl_Marx" xlink:title="Karl Marx">
<ellipse fill="none" stroke="black" cx="94.18" cy="-396" rx="47.88" ry="18"/>
<text text-anchor="middle" x="94.18" y="-391.8" font-family="sans-serif" font-size="14.00">Karl Marx</text>
</a>
</g>
</g>
<!-- Karl Marx&#45;&gt;Camus -->
<g id="edge3" class="edge">
<title>Karl Marx&#45;&gt;Camus</title>
<path fill="none" stroke="black" d="M139.38,-389.92C155.94,-386 174.17,-379.56 188.35,-369 216.19,-348.27 235.93,-312.85 247.12,-288.25"/>
<polygon fill="black" stroke="black" points="250.47,-289.33 251.26,-278.77 244.06,-286.53 250.47,-289.33"/>
</g>
<!-- Friedrich Nietzsche -->
<g id="node5" class="node">
<title>Friedrich Nietzsche</title>
<g id="a_node5"><a xlink:href="https://en.wikipedia.org/wiki/Friedrich_Nietzsche" xlink:title="Friedrich Nietzsche">
<ellipse fill="none" stroke="black" cx="94.18" cy="-342" rx="85.58" ry="18"/>
<text text-anchor="middle" x="94.18" y="-337.8" font-family="sans-serif" font-size="14.00">Friedrich Nietzsche</text>
</a>
</g>
</g>
<!-- Friedrich Nietzsche&#45;&gt;Camus -->
<g id="edge4" class="edge">
<title>Friedrich Nietzsche&#45;&gt;Camus</title>
<path fill="none" stroke="black" d="M153.15,-328.88C165.11,-325.17 177.39,-320.58 188.35,-315 204.69,-306.69 220.99,-294.33 233.71,-283.54"/>
<polygon fill="black" stroke="black" points="236.28,-285.94 241.52,-276.73 231.68,-280.66 236.28,-285.94"/>
</g>
<!-- Fyodor Dostoevsky -->
<g id="node6" class="node">
<title>Fyodor Dostoevsky</title>
<g id="a_node6"><a xlink:href="https://en.wikipedia.org/wiki/Fyodor_Dostoevsky" xlink:title="Fyodor Dostoevsky">
<ellipse fill="none" stroke="black" cx="94.18" cy="-288" rx="85.59" ry="18"/>
<text text-anchor="middle" x="94.18" y="-283.8" font-family="sans-serif" font-size="14.00">Fyodor Dostoevsky</text>
</a>
</g>
</g>
<!-- Fyodor Dostoevsky&#45;&gt;Camus -->
<g id="edge5" class="edge">
<title>Fyodor Dostoevsky&#45;&gt;Camus</title>
<path fill="none" stroke="black" d="M161.88,-276.94C179.9,-273.95 198.9,-270.8 215.22,-268.1"/>
<polygon fill="black" stroke="black" points="216.22,-271.48 225.51,-266.39 215.08,-264.57 216.22,-271.48"/>
</g>
<!-- Franz Kafka -->
<g id="node7" class="node">
<title>Franz Kafka</title>
<g id="a_node7"><a xlink:href="https://en.wikipedia.org/wiki/Franz_Kafka" xlink:title="Franz Kafka">
<ellipse fill="none" stroke="black" cx="94.18" cy="-234" rx="57.57" ry="18"/>
<text text-anchor="middle" x="94.18" y="-229.8" font-family="sans-serif" font-size="14.00">Franz Kafka</text>
</a>
</g>
</g>
<!-- Franz Kafka&#45;&gt;Camus -->
<g id="edge6" class="edge">
<title>Franz Kafka&#45;&gt;Camus</title>
<path fill="none" stroke="black" d="M145.81,-242.39C168.28,-246.12 194.41,-250.45 215.8,-254"/>
<polygon fill="black" stroke="black" points="215.45,-257.49 225.89,-255.67 216.59,-250.58 215.45,-257.49"/>
</g>
<!-- Søren Kierkegaard -->
<g id="node8" class="node">
<title>Søren Kierkegaard</title>
<g id="a_node8"><a xlink:href="https://en.wikipedia.org/wiki/S%C3%B8ren_Kierkegaard" xlink:title="Søren Kierkegaard">
<ellipse fill="none" stroke="black" cx="94.18" cy="-180" rx="84.16" ry="18"/>
<text text-anchor="middle" x="94.18" y="-175.8" font-family="sans-serif" font-size="14.00">Søren Kierkegaard</text>
</a>
</g>
</g>
<!-- Søren Kierkegaard&#45;&gt;Camus -->
<g id="edge7" class="edge">
<title>Søren Kierkegaard&#45;&gt;Camus</title>
<path fill="none" stroke="black" d="M153.15,-193.12C165.11,-196.83 177.39,-201.42 188.35,-207 204.69,-215.31 220.99,-227.67 233.71,-238.46"/>
<polygon fill="black" stroke="black" points="231.68,-241.34 241.52,-245.27 236.28,-236.06 231.68,-241.34"/>
</g>
<!-- Simone Weil -->
<g id="node9" class="node">
<title>Simone Weil</title>
<g id="a_node9"><a xlink:href="https://en.wikipedia.org/wiki/Simone_Weil" xlink:title="Simone Weil">
<ellipse fill="none" stroke="black" cx="94.18" cy="-126" rx="59.68" ry="18"/>
<text text-anchor="middle" x="94.18" y="-121.8" font-family="sans-serif" font-size="14.00">Simone Weil</text>
</a>
</g>
</g>
<!-- Simone Weil&#45;&gt;Camus -->
<g id="edge8" class="edge">
<title>Simone Weil&#45;&gt;Camus</title>
<path fill="none" stroke="black" d="M147.53,-134.19C161.74,-138.19 176.46,-144.15 188.35,-153 216.19,-173.73 235.93,-209.15 247.12,-233.75"/>
<polygon fill="black" stroke="black" points="244.06,-235.47 251.26,-243.23 250.47,-232.67 244.06,-235.47"/>
</g>
<!-- Jean Grenier -->
<g id="node10" class="node">
<title>Jean Grenier</title>
<g id="a_node10"><a xlink:href="https://en.wikipedia.org/wiki/Jean_Grenier" xlink:title="Jean Grenier">
<ellipse fill="none" stroke="black" cx="94.18" cy="-72" rx="61.46" ry="18"/>
<text text-anchor="middle" x="94.18" y="-67.8" font-family="sans-serif" font-size="14.00">Jean Grenier</text>
</a>
</g>
</g>
<!-- Jean Grenier&#45;&gt;Camus -->
<g id="edge9" class="edge">
<title>Jean Grenier&#45;&gt;Camus</title>
<path fill="none" stroke="black" d="M150.48,-79.51C164.07,-83.51 177.75,-89.64 188.35,-99 228.46,-134.41 246.27,-196.96 253.54,-233.1"/>
<polygon fill="black" stroke="black" points="250.11,-233.8 255.4,-242.98 256.99,-232.51 250.11,-233.8"/>
</g>
<!-- Arthur Schopenhauer -->
<g id="node11" class="node">
<title>Arthur Schopenhauer</title>
<g id="a_node11"><a xlink:href="https://en.wikipedia.org/wiki/Arthur_Schopenhauer" xlink:title="Arthur Schopenhauer">
<ellipse fill="none" stroke="black" cx="94.18" cy="-18" rx="94.35" ry="18"/>
<text text-anchor="middle" x="94.18" y="-13.8" font-family="sans-serif" font-size="14.00">Arthur Schopenhauer</text>
</a>
</g>
</g>
<!-- Arthur Schopenhauer&#45;&gt;Camus -->
<g id="edge10" class="edge">
<title>Arthur Schopenhauer&#45;&gt;Camus</title>
<path fill="none" stroke="black" d="M165,-29.87C173.61,-33.62 181.7,-38.55 188.35,-45 240.97,-96.06 253.91,-187.02 257.05,-232.89"/>
<polygon fill="black" stroke="black" points="253.56,-233.23 257.63,-243.01 260.55,-232.83 253.56,-233.23"/>
</g>
</g>
</svg>
