<?xml version="1.0" encoding="UTF-8" standalone="no"?>
<!DOCTYPE svg PUBLIC "-//W3C//DTD SVG 1.1//EN"
 "http://www.w3.org/Graphics/SVG/1.1/DTD/svg11.dtd">
<!-- Generated by graphviz version 2.42.3 (20191010.1750)
 -->
<!-- Title: G Pages: 1 -->
<svg width="499pt" height="260pt"
 viewBox="0.00 0.00 498.72 260.00" xmlns="http://www.w3.org/2000/svg" xmlns:xlink="http://www.w3.org/1999/xlink">
<g id="graph0" class="graph" transform="scale(1 1) rotate(0) translate(4 256)">
<title>G</title>
<polygon fill="white" stroke="transparent" points="-4,4 -4,-256 494.72,-256 494.72,4 -4,4"/>
<!-- Charles Lyell -->
<g id="node1" class="node">
<title>Charles Lyell</title>
<g id="a_node1"><a xlink:href="https://en.wikipedia.org/wiki/Charles_Lyell" xlink:title="Charles Lyell">
<ellipse fill="none" stroke="black" cx="100.49" cy="-234" rx="57.52" ry="18"/>
<text text-anchor="middle" x="100.49" y="-229.8" font-family="Times,serif" font-size="14.00">Charles Lyell</text>
</a>
</g>
</g>
<!-- Charles Darwin -->
<g id="node2" class="node">
<title>Charles Darwin</title>
<ellipse fill="none" stroke="black" cx="302.83" cy="-126" rx="65.71" ry="18"/>
<text text-anchor="middle" x="302.83" y="-121.8" font-family="Times,serif" font-size="14.00">Charles Darwin</text>
</g>
<!-- Charles Lyell&#45;&gt;Charles Darwin -->
<g id="edge1" class="edge">
<title>Charles Lyell&#45;&gt;Charles Darwin</title>
<path fill="none" stroke="black" d="M150.54,-224.93C167.1,-220.78 185.35,-214.96 200.98,-207 229.83,-192.32 258.16,-168.49 277.42,-150.47"/>
<polygon fill="black" stroke="black" points="280.02,-152.83 284.83,-143.39 275.18,-147.76 280.02,-152.83"/>
</g>
<!-- Hooker -->
<g id="node7" class="node">
<title>Hooker</title>
<g id="a_node7"><a xlink:href="https://en.wikipedia.org/wiki/Joseph_Dalton_Hooker" xlink:title="Hooker">
<ellipse fill="none" stroke="black" cx="447.7" cy="-234" rx="36.76" ry="18"/>
<text text-anchor="middle" x="447.7" y="-229.8" font-family="Times,serif" font-size="14.00">Hooker</text>
</a>
</g>
</g>
<!-- Charles Darwin&#45;&gt;Hooker -->
<g id="edge6" class="edge">
<title>Charles Darwin&#45;&gt;Hooker</title>
<path fill="none" stroke="black" d="M323.82,-143.09C343.82,-159.95 375.7,-186.14 404.68,-207 408.17,-209.51 411.88,-212.05 415.59,-214.53"/>
<polygon fill="black" stroke="black" points="413.88,-217.6 424.17,-220.14 417.71,-211.74 413.88,-217.6"/>
</g>
<!-- Huxley -->
<g id="node8" class="node">
<title>Huxley</title>
<g id="a_node8"><a xlink:href="https://en.wikipedia.org/wiki/Thomas_Henry_Huxley" xlink:title="Huxley">
<ellipse fill="none" stroke="black" cx="447.7" cy="-180" rx="36.28" ry="18"/>
<text text-anchor="middle" x="447.7" y="-175.8" font-family="Times,serif" font-size="14.00">Huxley</text>
</a>
</g>
</g>
<!-- Charles Darwin&#45;&gt;Huxley -->
<g id="edge7" class="edge">
<title>Charles Darwin&#45;&gt;Huxley</title>
<path fill="none" stroke="black" d="M342.12,-140.47C362.81,-148.29 388.27,-157.92 408.89,-165.71"/>
<polygon fill="black" stroke="black" points="407.7,-169 418.29,-169.26 410.17,-162.45 407.7,-169"/>
</g>
<!-- Romanes -->
<g id="node9" class="node">
<title>Romanes</title>
<g id="a_node9"><a xlink:href="https://en.wikipedia.org/wiki/George_Romanes" xlink:title="Romanes">
<ellipse fill="none" stroke="black" cx="447.7" cy="-126" rx="43.04" ry="18"/>
<text text-anchor="middle" x="447.7" y="-121.8" font-family="Times,serif" font-size="14.00">Romanes</text>
</a>
</g>
</g>
<!-- Charles Darwin&#45;&gt;Romanes -->
<g id="edge8" class="edge">
<title>Charles Darwin&#45;&gt;Romanes</title>
<path fill="none" stroke="black" d="M369,-126C377.48,-126 386.09,-126 394.33,-126"/>
<polygon fill="black" stroke="black" points="394.54,-129.5 404.54,-126 394.54,-122.5 394.54,-129.5"/>
</g>
<!-- Haeckel -->
<g id="node10" class="node">
<title>Haeckel</title>
<g id="a_node10"><a xlink:href="https://en.wikipedia.org/wiki/Ernst_Haeckel" xlink:title="Haeckel">
<ellipse fill="none" stroke="black" cx="447.7" cy="-72" rx="39.15" ry="18"/>
<text text-anchor="middle" x="447.7" y="-67.8" font-family="Times,serif" font-size="14.00">Haeckel</text>
</a>
</g>
</g>
<!-- Charles Darwin&#45;&gt;Haeckel -->
<g id="edge9" class="edge">
<title>Charles Darwin&#45;&gt;Haeckel</title>
<path fill="none" stroke="black" d="M342.12,-111.53C362.29,-103.9 387,-94.57 407.33,-86.88"/>
<polygon fill="black" stroke="black" points="408.81,-90.07 416.92,-83.26 406.33,-83.52 408.81,-90.07"/>
</g>
<!-- Lubbock -->
<g id="node11" class="node">
<title>Lubbock</title>
<g id="a_node11"><a xlink:href="https://en.wikipedia.org/wiki/John_Lubbock,_1st_Baron_Avebury" xlink:title="Lubbock">
<ellipse fill="none" stroke="black" cx="447.7" cy="-18" rx="41.59" ry="18"/>
<text text-anchor="middle" x="447.7" y="-13.8" font-family="Times,serif" font-size="14.00">Lubbock</text>
</a>
</g>
</g>
<!-- Charles Darwin&#45;&gt;Lubbock -->
<g id="edge10" class="edge">
<title>Charles Darwin&#45;&gt;Lubbock</title>
<path fill="none" stroke="black" d="M323.82,-108.91C343.82,-92.05 375.7,-65.86 404.68,-45 407.75,-42.79 410.99,-40.56 414.25,-38.36"/>
<polygon fill="black" stroke="black" points="416.42,-41.13 422.85,-32.71 412.58,-35.28 416.42,-41.13"/>
</g>
<!-- Alexander von Humboldt -->
<g id="node3" class="node">
<title>Alexander von Humboldt</title>
<g id="a_node3"><a xlink:href="https://en.wikipedia.org/wiki/Alexander_von_Humboldt" xlink:title="Alexander von Humboldt">
<ellipse fill="none" stroke="black" cx="100.49" cy="-180" rx="100.48" ry="18"/>
<text text-anchor="middle" x="100.49" y="-175.8" font-family="Times,serif" font-size="14.00">Alexander von Humboldt</text>
</a>
</g>
</g>
<!-- Alexander von Humboldt&#45;&gt;Charles Darwin -->
<g id="edge2" class="edge">
<title>Alexander von Humboldt&#45;&gt;Charles Darwin</title>
<path fill="none" stroke="black" d="M157.03,-165.03C184.57,-157.61 217.76,-148.66 245.42,-141.21"/>
<polygon fill="black" stroke="black" points="246.59,-144.52 255.33,-138.53 244.77,-137.76 246.59,-144.52"/>
</g>
<!-- John Herschel -->
<g id="node4" class="node">
<title>John Herschel</title>
<g id="a_node4"><a xlink:href="https://en.wikipedia.org/wiki/John_Herschel" xlink:title="John Herschel">
<ellipse fill="none" stroke="black" cx="100.49" cy="-126" rx="60.4" ry="18"/>
<text text-anchor="middle" x="100.49" y="-121.8" font-family="Times,serif" font-size="14.00">John Herschel</text>
</a>
</g>
</g>
<!-- John Herschel&#45;&gt;Charles Darwin -->
<g id="edge3" class="edge">
<title>John Herschel&#45;&gt;Charles Darwin</title>
<path fill="none" stroke="black" d="M161.06,-126C181.67,-126 205.04,-126 226.74,-126"/>
<polygon fill="black" stroke="black" points="226.9,-129.5 236.9,-126 226.9,-122.5 226.9,-129.5"/>
</g>
<!-- Thomas Malthus -->
<g id="node5" class="node">
<title>Thomas Malthus</title>
<g id="a_node5"><a xlink:href="https://en.wikipedia.org/wiki/Thomas_Malthus" xlink:title="Thomas Malthus">
<ellipse fill="none" stroke="black" cx="100.49" cy="-72" rx="69.59" ry="18"/>
<text text-anchor="middle" x="100.49" y="-67.8" font-family="Times,serif" font-size="14.00">Thomas Malthus</text>
</a>
</g>
</g>
<!-- Thomas Malthus&#45;&gt;Charles Darwin -->
<g id="edge4" class="edge">
<title>Thomas Malthus&#45;&gt;Charles Darwin</title>
<path fill="none" stroke="black" d="M149.48,-84.93C178.29,-92.7 215.08,-102.62 245.3,-110.76"/>
<polygon fill="black" stroke="black" points="244.71,-114.23 255.27,-113.45 246.53,-107.47 244.71,-114.23"/>
</g>
<!-- Gilbert White -->
<g id="node6" class="node">
<title>Gilbert White</title>
<g id="a_node6"><a xlink:href="https://en.wikipedia.org/wiki/Gilbert_White" xlink:title="Gilbert White">
<ellipse fill="none" stroke="black" cx="100.49" cy="-18" rx="58.64" ry="18"/>
<text text-anchor="middle" x="100.49" y="-13.8" font-family="Times,serif" font-size="14.00">Gilbert White</text>
</a>
</g>
</g>
<!-- Gilbert White&#45;&gt;Charles Darwin -->
<g id="edge5" class="edge">
<title>Gilbert White&#45;&gt;Charles Darwin</title>
<path fill="none" stroke="black" d="M151.3,-27.26C167.66,-31.4 185.59,-37.17 200.98,-45 229.83,-59.68 258.16,-83.51 277.42,-101.53"/>
<polygon fill="black" stroke="black" points="275.18,-104.24 284.83,-108.61 280.02,-99.17 275.18,-104.24"/>
</g>
</g>
</svg>
