<?xml version="1.0" encoding="UTF-8" standalone="no"?>
<!DOCTYPE svg PUBLIC "-//W3C//DTD SVG 1.1//EN"
 "http://www.w3.org/Graphics/SVG/1.1/DTD/svg11.dtd">
<!-- Generated by graphviz version 2.42.3 (20191010.1750)
 -->
<!-- Title: G Pages: 1 -->
<svg width="2091pt" height="188pt"
 viewBox="0.00 0.00 2091.44 188.00" xmlns="http://www.w3.org/2000/svg" xmlns:xlink="http://www.w3.org/1999/xlink">
<g id="graph0" class="graph" transform="scale(1 1) rotate(0) translate(4 184)">
<title>G</title>
<polygon fill="white" stroke="transparent" points="-4,4 -4,-184 2087.44,-184 2087.44,4 -4,4"/>
<!-- Bayle -->
<g id="node1" class="node">
<title>Bayle</title>
<g id="a_node1"><a xlink:href="/wiki/Pierre_Bayle" xlink:title="Bayle">
<ellipse fill="none" stroke="black" cx="662.24" cy="-162" rx="30.97" ry="18"/>
<text text-anchor="middle" x="662.24" y="-157.8" font-family="Times,serif" font-size="14.00">Bayle</text>
</a>
</g>
</g>
<!-- David Hume -->
<g id="node2" class="node">
<title>David Hume</title>
<ellipse fill="none" stroke="black" cx="1039.24" cy="-90" rx="55.58" ry="18"/>
<text text-anchor="middle" x="1039.24" y="-85.8" font-family="Times,serif" font-size="14.00">David Hume</text>
</g>
<!-- Bayle&#45;&gt;David Hume -->
<g id="edge1" class="edge">
<title>Bayle&#45;&gt;David Hume</title>
<path fill="none" stroke="black" d="M685.58,-149.95C690.96,-147.72 696.73,-145.58 702.24,-144 795.52,-117.28 907.44,-103.06 975.93,-96.27"/>
<polygon fill="black" stroke="black" points="976.51,-99.73 986.12,-95.29 975.83,-92.77 976.51,-99.73"/>
</g>
<!-- Smith -->
<g id="node11" class="node">
<title>Smith</title>
<g id="a_node11"><a xlink:href="/wiki/Adam_Smith" xlink:title="Smith">
<ellipse fill="none" stroke="black" cx="31.24" cy="-18" rx="31.48" ry="18"/>
<text text-anchor="middle" x="31.24" y="-13.8" font-family="Times,serif" font-size="14.00">Smith</text>
</a>
</g>
</g>
<!-- David Hume&#45;&gt;Smith -->
<g id="edge32" class="edge">
<title>David Hume&#45;&gt;Smith</title>
<path fill="none" stroke="black" d="M983.61,-88.46C803.71,-86.27 239.78,-76.2 63.24,-36 62.32,-35.79 61.39,-35.56 60.46,-35.32"/>
<polygon fill="black" stroke="black" points="61.19,-31.88 50.6,-32.16 59.06,-38.54 61.19,-31.88"/>
</g>
<!-- Western philosophy -->
<g id="node12" class="node">
<title>Western philosophy</title>
<g id="a_node12"><a xlink:href="/wiki/Western_philosophy" xlink:title="Western philosophy">
<ellipse fill="none" stroke="black" cx="161.24" cy="-18" rx="80.27" ry="18"/>
<text text-anchor="middle" x="161.24" y="-13.8" font-family="Times,serif" font-size="14.00">Western philosophy</text>
</a>
</g>
</g>
<!-- David Hume&#45;&gt;Western philosophy -->
<g id="edge11" class="edge">
<title>David Hume&#45;&gt;Western philosophy</title>
<path fill="none" stroke="black" d="M984.01,-87.6C855.06,-83.83 524.27,-71.24 250.24,-36 243.05,-35.08 235.57,-33.93 228.13,-32.68"/>
<polygon fill="black" stroke="black" points="228.5,-29.19 218.05,-30.92 227.3,-36.09 228.5,-29.19"/>
</g>
<!-- Ayer -->
<g id="node13" class="node">
<title>Ayer</title>
<g id="a_node13"><a xlink:href="/wiki/Alfred_Jules_Ayer" xlink:title="Ayer">
<ellipse fill="none" stroke="black" cx="286.24" cy="-18" rx="27" ry="18"/>
<text text-anchor="middle" x="286.24" y="-13.8" font-family="Times,serif" font-size="14.00">Ayer</text>
</a>
</g>
</g>
<!-- David Hume&#45;&gt;Ayer -->
<g id="edge12" class="edge">
<title>David Hume&#45;&gt;Ayer</title>
<path fill="none" stroke="black" d="M984.22,-87.53C838.86,-83.25 447.17,-68.9 322.24,-36 320.07,-35.43 317.87,-34.73 315.68,-33.94"/>
<polygon fill="black" stroke="black" points="316.89,-30.65 306.31,-30.06 314.21,-37.12 316.89,-30.65"/>
</g>
<!-- Blackburn -->
<g id="node14" class="node">
<title>Blackburn</title>
<g id="a_node14"><a xlink:href="/wiki/Simon_Blackburn" xlink:title="Blackburn">
<ellipse fill="none" stroke="black" cx="378.24" cy="-18" rx="46.89" ry="18"/>
<text text-anchor="middle" x="378.24" y="-13.8" font-family="Times,serif" font-size="14.00">Blackburn</text>
</a>
</g>
</g>
<!-- David Hume&#45;&gt;Blackburn -->
<g id="edge13" class="edge">
<title>David Hume&#45;&gt;Blackburn</title>
<path fill="none" stroke="black" d="M983.65,-87.97C876.44,-85.14 634.03,-74.64 434.24,-36 430.31,-35.24 426.27,-34.31 422.24,-33.29"/>
<polygon fill="black" stroke="black" points="422.88,-29.83 412.31,-30.57 421.03,-36.58 422.88,-29.83"/>
</g>
<!-- Borges -->
<g id="node15" class="node">
<title>Borges</title>
<g id="a_node15"><a xlink:href="/wiki/Jorge_Luis_Borges" xlink:title="Borges">
<ellipse fill="none" stroke="black" cx="478.24" cy="-18" rx="35.01" ry="18"/>
<text text-anchor="middle" x="478.24" y="-13.8" font-family="Times,serif" font-size="14.00">Borges</text>
</a>
</g>
</g>
<!-- David Hume&#45;&gt;Borges -->
<g id="edge14" class="edge">
<title>David Hume&#45;&gt;Borges</title>
<path fill="none" stroke="black" d="M983.72,-88.13C888.15,-85.58 686.97,-75.51 522.24,-36 519.4,-35.32 516.5,-34.5 513.61,-33.59"/>
<polygon fill="black" stroke="black" points="514.53,-30.2 503.93,-30.24 512.24,-36.82 514.53,-30.2"/>
</g>
<!-- Deleuze -->
<g id="node16" class="node">
<title>Deleuze</title>
<g id="a_node16"><a xlink:href="/wiki/Gilles_Deleuze" xlink:title="Deleuze">
<ellipse fill="none" stroke="black" cx="570.24" cy="-18" rx="39.15" ry="18"/>
<text text-anchor="middle" x="570.24" y="-13.8" font-family="Times,serif" font-size="14.00">Deleuze</text>
</a>
</g>
</g>
<!-- David Hume&#45;&gt;Deleuze -->
<g id="edge15" class="edge">
<title>David Hume&#45;&gt;Deleuze</title>
<path fill="none" stroke="black" d="M985.08,-85.92C904.28,-80.48 747.8,-66.72 618.24,-36 615.06,-35.25 611.79,-34.35 608.53,-33.38"/>
<polygon fill="black" stroke="black" points="609.47,-30 598.87,-30.27 607.32,-36.67 609.47,-30"/>
</g>
<!-- Dennett -->
<g id="node17" class="node">
<title>Dennett</title>
<g id="a_node17"><a xlink:href="/wiki/Daniel_Dennett" xlink:title="Dennett">
<ellipse fill="none" stroke="black" cx="665.24" cy="-18" rx="38.2" ry="18"/>
<text text-anchor="middle" x="665.24" y="-13.8" font-family="Times,serif" font-size="14.00">Dennett</text>
</a>
</g>
</g>
<!-- David Hume&#45;&gt;Dennett -->
<g id="edge16" class="edge">
<title>David Hume&#45;&gt;Dennett</title>
<path fill="none" stroke="black" d="M987.08,-83.59C922.02,-76.14 807.71,-60.77 712.24,-36 709.31,-35.24 706.31,-34.37 703.3,-33.44"/>
<polygon fill="black" stroke="black" points="704.4,-30.11 693.81,-30.29 702.2,-36.76 704.4,-30.11"/>
</g>
<!-- Einstein -->
<g id="node18" class="node">
<title>Einstein</title>
<g id="a_node18"><a xlink:href="/wiki/Albert_Einstein" xlink:title="Einstein">
<ellipse fill="none" stroke="black" cx="760.24" cy="-18" rx="39.18" ry="18"/>
<text text-anchor="middle" x="760.24" y="-13.8" font-family="Times,serif" font-size="14.00">Einstein</text>
</a>
</g>
</g>
<!-- David Hume&#45;&gt;Einstein -->
<g id="edge17" class="edge">
<title>David Hume&#45;&gt;Einstein</title>
<path fill="none" stroke="black" d="M992.82,-79.98C945.89,-70.49 871.46,-54.38 808.24,-36 805.28,-35.14 802.23,-34.2 799.18,-33.21"/>
<polygon fill="black" stroke="black" points="800.11,-29.83 789.51,-29.97 797.88,-36.47 800.11,-29.83"/>
</g>
<!-- Fodor -->
<g id="node19" class="node">
<title>Fodor</title>
<g id="a_node19"><a xlink:href="/wiki/Jerry_Fodor" xlink:title="Fodor">
<ellipse fill="none" stroke="black" cx="848.24" cy="-18" rx="31.47" ry="18"/>
<text text-anchor="middle" x="848.24" y="-13.8" font-family="Times,serif" font-size="14.00">Fodor</text>
</a>
</g>
</g>
<!-- David Hume&#45;&gt;Fodor -->
<g id="edge18" class="edge">
<title>David Hume&#45;&gt;Fodor</title>
<path fill="none" stroke="black" d="M1001.76,-76.59C971.06,-66.25 926.58,-50.86 888.24,-36 886.18,-35.2 884.07,-34.37 881.95,-33.51"/>
<polygon fill="black" stroke="black" points="883.26,-30.26 872.68,-29.68 880.58,-36.73 883.26,-30.26"/>
</g>
<!-- Hamann -->
<g id="node20" class="node">
<title>Hamann</title>
<g id="a_node20"><a xlink:href="/wiki/Johann_Georg_Hamann" xlink:title="Hamann">
<ellipse fill="none" stroke="black" cx="937.24" cy="-18" rx="40.13" ry="18"/>
<text text-anchor="middle" x="937.24" y="-13.8" font-family="Times,serif" font-size="14.00">Hamann</text>
</a>
</g>
</g>
<!-- David Hume&#45;&gt;Hamann -->
<g id="edge19" class="edge">
<title>David Hume&#45;&gt;Hamann</title>
<path fill="none" stroke="black" d="M1016.6,-73.46C1001.94,-63.41 982.7,-50.2 966.84,-39.31"/>
<polygon fill="black" stroke="black" points="968.65,-36.31 958.42,-33.54 964.69,-42.08 968.65,-36.31"/>
</g>
<!-- Hamilton -->
<g id="node21" class="node">
<title>Hamilton</title>
<g id="a_node21"><a xlink:href="/wiki/Alexander_Hamilton" xlink:title="Hamilton">
<ellipse fill="none" stroke="black" cx="1039.24" cy="-18" rx="43.52" ry="18"/>
<text text-anchor="middle" x="1039.24" y="-13.8" font-family="Times,serif" font-size="14.00">Hamilton</text>
</a>
</g>
</g>
<!-- David Hume&#45;&gt;Hamilton -->
<g id="edge20" class="edge">
<title>David Hume&#45;&gt;Hamilton</title>
<path fill="none" stroke="black" d="M1039.24,-71.7C1039.24,-63.98 1039.24,-54.71 1039.24,-46.11"/>
<polygon fill="black" stroke="black" points="1042.74,-46.1 1039.24,-36.1 1035.74,-46.1 1042.74,-46.1"/>
</g>
<!-- Husserl -->
<g id="node22" class="node">
<title>Husserl</title>
<g id="a_node22"><a xlink:href="/wiki/Edmund_Husserl" xlink:title="Husserl">
<ellipse fill="none" stroke="black" cx="1138.24" cy="-18" rx="37.25" ry="18"/>
<text text-anchor="middle" x="1138.24" y="-13.8" font-family="Times,serif" font-size="14.00">Husserl</text>
</a>
</g>
</g>
<!-- David Hume&#45;&gt;Husserl -->
<g id="edge21" class="edge">
<title>David Hume&#45;&gt;Husserl</title>
<path fill="none" stroke="black" d="M1061.21,-73.46C1075.53,-63.34 1094.37,-50.02 1109.82,-39.09"/>
<polygon fill="black" stroke="black" points="1111.87,-41.93 1118.02,-33.3 1107.83,-36.22 1111.87,-41.93"/>
</g>
<!-- Jefferson -->
<g id="node23" class="node">
<title>Jefferson</title>
<g id="a_node23"><a xlink:href="/wiki/Thomas_Jefferson" xlink:title="Jefferson">
<ellipse fill="none" stroke="black" cx="1235.24" cy="-18" rx="42.23" ry="18"/>
<text text-anchor="middle" x="1235.24" y="-13.8" font-family="Times,serif" font-size="14.00">Jefferson</text>
</a>
</g>
</g>
<!-- David Hume&#45;&gt;Jefferson -->
<g id="edge22" class="edge">
<title>David Hume&#45;&gt;Jefferson</title>
<path fill="none" stroke="black" d="M1075.19,-76.16C1108.83,-64.15 1159.04,-46.22 1194.22,-33.65"/>
<polygon fill="black" stroke="black" points="1195.48,-36.91 1203.73,-30.26 1193.13,-30.32 1195.48,-36.91"/>
</g>
<!-- James -->
<g id="node24" class="node">
<title>James</title>
<g id="a_node24"><a xlink:href="/wiki/William_James" xlink:title="James">
<ellipse fill="none" stroke="black" cx="1327.24" cy="-18" rx="31.94" ry="18"/>
<text text-anchor="middle" x="1327.24" y="-13.8" font-family="Times,serif" font-size="14.00">James</text>
</a>
</g>
</g>
<!-- David Hume&#45;&gt;James -->
<g id="edge23" class="edge">
<title>David Hume&#45;&gt;James</title>
<path fill="none" stroke="black" d="M1088.19,-81.2C1138.51,-72.56 1218.83,-57.02 1286.24,-36 1288.69,-35.24 1291.19,-34.39 1293.69,-33.48"/>
<polygon fill="black" stroke="black" points="1295.15,-36.67 1303.23,-29.81 1292.64,-30.14 1295.15,-36.67"/>
</g>
<!-- Kant -->
<g id="node25" class="node">
<title>Kant</title>
<g id="a_node25"><a xlink:href="/wiki/Immanuel_Kant" xlink:title="Kant">
<ellipse fill="none" stroke="black" cx="1404.24" cy="-18" rx="27.1" ry="18"/>
<text text-anchor="middle" x="1404.24" y="-13.8" font-family="Times,serif" font-size="14.00">Kant</text>
</a>
</g>
</g>
<!-- David Hume&#45;&gt;Kant -->
<g id="edge24" class="edge">
<title>David Hume&#45;&gt;Kant</title>
<path fill="none" stroke="black" d="M1092.71,-85.03C1158.69,-79.09 1273.74,-65.28 1368.24,-36 1370.17,-35.4 1372.13,-34.72 1374.09,-33.98"/>
<polygon fill="black" stroke="black" points="1375.85,-37.03 1383.7,-29.91 1373.12,-30.58 1375.85,-37.03"/>
</g>
<!-- Mackie -->
<g id="node26" class="node">
<title>Mackie</title>
<g id="a_node26"><a xlink:href="/wiki/J._L._Mackie" xlink:title="Mackie">
<ellipse fill="none" stroke="black" cx="1486.24" cy="-18" rx="36.75" ry="18"/>
<text text-anchor="middle" x="1486.24" y="-13.8" font-family="Times,serif" font-size="14.00">Mackie</text>
</a>
</g>
</g>
<!-- David Hume&#45;&gt;Mackie -->
<g id="edge25" class="edge">
<title>David Hume&#45;&gt;Mackie</title>
<path fill="none" stroke="black" d="M1093.46,-85.68C1171.2,-80.05 1318.39,-66.17 1440.24,-36 1443.2,-35.27 1446.24,-34.41 1449.26,-33.47"/>
<polygon fill="black" stroke="black" points="1450.45,-36.76 1458.82,-30.26 1448.23,-30.12 1450.45,-36.76"/>
</g>
<!-- Madison -->
<g id="node27" class="node">
<title>Madison</title>
<g id="a_node27"><a xlink:href="/wiki/James_Madison" xlink:title="Madison">
<ellipse fill="none" stroke="black" cx="1582.24" cy="-18" rx="41.12" ry="18"/>
<text text-anchor="middle" x="1582.24" y="-13.8" font-family="Times,serif" font-size="14.00">Madison</text>
</a>
</g>
</g>
<!-- David Hume&#45;&gt;Madison -->
<g id="edge26" class="edge">
<title>David Hume&#45;&gt;Madison</title>
<path fill="none" stroke="black" d="M1094.22,-87.04C1185.98,-82.9 1375.68,-70.58 1532.24,-36 1535.61,-35.26 1539.07,-34.36 1542.52,-33.38"/>
<polygon fill="black" stroke="black" points="1543.6,-36.71 1552.14,-30.43 1541.55,-30.02 1543.6,-36.71"/>
</g>
<!-- Mill -->
<g id="node28" class="node">
<title>Mill</title>
<g id="a_node28"><a xlink:href="/wiki/John_Stuart_Mill" xlink:title="Mill">
<ellipse fill="none" stroke="black" cx="1668.24" cy="-18" rx="27" ry="18"/>
<text text-anchor="middle" x="1668.24" y="-13.8" font-family="Times,serif" font-size="14.00">Mill</text>
</a>
</g>
</g>
<!-- David Hume&#45;&gt;Mill -->
<g id="edge27" class="edge">
<title>David Hume&#45;&gt;Mill</title>
<path fill="none" stroke="black" d="M1093.82,-86.57C1220.52,-80.54 1531.49,-63.36 1632.24,-36 1634.19,-35.47 1636.17,-34.84 1638.13,-34.14"/>
<polygon fill="black" stroke="black" points="1639.85,-37.21 1647.78,-30.18 1637.2,-30.74 1639.85,-37.21"/>
</g>
<!-- Popper -->
<g id="node29" class="node">
<title>Popper</title>
<g id="a_node29"><a xlink:href="/wiki/Karl_Popper" xlink:title="Popper">
<ellipse fill="none" stroke="black" cx="1748.24" cy="-18" rx="35.32" ry="18"/>
<text text-anchor="middle" x="1748.24" y="-13.8" font-family="Times,serif" font-size="14.00">Popper</text>
</a>
</g>
</g>
<!-- David Hume&#45;&gt;Popper -->
<g id="edge28" class="edge">
<title>David Hume&#45;&gt;Popper</title>
<path fill="none" stroke="black" d="M1093.87,-86.68C1231.26,-80.52 1588.42,-62.4 1704.24,-36 1707.08,-35.35 1709.99,-34.55 1712.88,-33.66"/>
<polygon fill="black" stroke="black" points="1714.25,-36.9 1722.57,-30.34 1711.98,-30.27 1714.25,-36.9"/>
</g>
<!-- Reid -->
<g id="node30" class="node">
<title>Reid</title>
<g id="a_node30"><a xlink:href="/wiki/Thomas_Reid" xlink:title="Reid">
<ellipse fill="none" stroke="black" cx="1828.24" cy="-18" rx="27" ry="18"/>
<text text-anchor="middle" x="1828.24" y="-13.8" font-family="Times,serif" font-size="14.00">Reid</text>
</a>
</g>
</g>
<!-- David Hume&#45;&gt;Reid -->
<g id="edge29" class="edge">
<title>David Hume&#45;&gt;Reid</title>
<path fill="none" stroke="black" d="M1094.55,-87.75C1245.2,-83.93 1660.3,-70.5 1792.24,-36 1794.41,-35.43 1796.61,-34.73 1798.8,-33.95"/>
<polygon fill="black" stroke="black" points="1800.27,-37.13 1808.17,-30.07 1797.6,-30.66 1800.27,-37.13"/>
</g>
<!-- Russell -->
<g id="node31" class="node">
<title>Russell</title>
<g id="a_node31"><a xlink:href="/wiki/Bertrand_Russell" xlink:title="Russell">
<ellipse fill="none" stroke="black" cx="1909.24" cy="-18" rx="36.3" ry="18"/>
<text text-anchor="middle" x="1909.24" y="-13.8" font-family="Times,serif" font-size="14.00">Russell</text>
</a>
</g>
</g>
<!-- David Hume&#45;&gt;Russell -->
<g id="edge30" class="edge">
<title>David Hume&#45;&gt;Russell</title>
<path fill="none" stroke="black" d="M1094.45,-87.59C1254.5,-83.15 1716.67,-67.87 1864.24,-36 1867.24,-35.35 1870.32,-34.54 1873.37,-33.62"/>
<polygon fill="black" stroke="black" points="1874.61,-36.9 1882.98,-30.41 1872.39,-30.26 1874.61,-36.9"/>
</g>
<!-- Schopenhauer -->
<g id="node32" class="node">
<title>Schopenhauer</title>
<g id="a_node32"><a xlink:href="/wiki/Arthur_Schopenhauer" xlink:title="Schopenhauer">
<ellipse fill="none" stroke="black" cx="2023.24" cy="-18" rx="60.4" ry="18"/>
<text text-anchor="middle" x="2023.24" y="-13.8" font-family="Times,serif" font-size="14.00">Schopenhauer</text>
</a>
</g>
</g>
<!-- David Hume&#45;&gt;Schopenhauer -->
<g id="edge31" class="edge">
<title>David Hume&#45;&gt;Schopenhauer</title>
<path fill="none" stroke="black" d="M1094.79,-89.32C1238.02,-89.38 1631.3,-84.71 1954.24,-36 1959.58,-35.19 1965.11,-34.17 1970.6,-33.02"/>
<polygon fill="black" stroke="black" points="1971.41,-36.43 1980.42,-30.84 1969.9,-29.59 1971.41,-36.43"/>
</g>
<!-- Berkeley -->
<g id="node3" class="node">
<title>Berkeley</title>
<g id="a_node3"><a xlink:href="/wiki/George_Berkeley" xlink:title="Berkeley">
<ellipse fill="none" stroke="black" cx="753.24" cy="-162" rx="42.05" ry="18"/>
<text text-anchor="middle" x="753.24" y="-157.8" font-family="Times,serif" font-size="14.00">Berkeley</text>
</a>
</g>
</g>
<!-- Berkeley&#45;&gt;David Hume -->
<g id="edge2" class="edge">
<title>Berkeley&#45;&gt;David Hume</title>
<path fill="none" stroke="black" d="M784.65,-149.98C791.09,-147.88 797.86,-145.78 804.24,-144 864.8,-127.12 935.26,-111.79 983.11,-102.01"/>
<polygon fill="black" stroke="black" points="983.87,-105.43 992.97,-100.01 982.47,-98.57 983.87,-105.43"/>
</g>
<!-- Cicero -->
<g id="node4" class="node">
<title>Cicero</title>
<g id="a_node4"><a xlink:href="/wiki/Cicero" xlink:title="Cicero">
<ellipse fill="none" stroke="black" cx="847.24" cy="-162" rx="33.86" ry="18"/>
<text text-anchor="middle" x="847.24" y="-157.8" font-family="Times,serif" font-size="14.00">Cicero</text>
</a>
</g>
</g>
<!-- Cicero&#45;&gt;David Hume -->
<g id="edge3" class="edge">
<title>Cicero&#45;&gt;David Hume</title>
<path fill="none" stroke="black" d="M873.56,-150.43C879.06,-148.26 884.83,-146.03 890.24,-144 924.53,-131.13 963.55,-117.28 993.06,-106.96"/>
<polygon fill="black" stroke="black" points="994.39,-110.21 1002.68,-103.61 992.08,-103.6 994.39,-110.21"/>
</g>
<!-- Hobbes -->
<g id="node5" class="node">
<title>Hobbes</title>
<g id="a_node5"><a xlink:href="/wiki/Thomas_Hobbes" xlink:title="Hobbes">
<ellipse fill="none" stroke="black" cx="936.24" cy="-162" rx="37.25" ry="18"/>
<text text-anchor="middle" x="936.24" y="-157.8" font-family="Times,serif" font-size="14.00">Hobbes</text>
</a>
</g>
</g>
<!-- Hobbes&#45;&gt;David Hume -->
<g id="edge4" class="edge">
<title>Hobbes&#45;&gt;David Hume</title>
<path fill="none" stroke="black" d="M957.08,-146.83C971.7,-136.9 991.5,-123.45 1007.99,-112.23"/>
<polygon fill="black" stroke="black" points="1009.97,-115.12 1016.28,-106.61 1006.04,-109.33 1009.97,-115.12"/>
</g>
<!-- Hutcheson -->
<g id="node6" class="node">
<title>Hutcheson</title>
<g id="a_node6"><a xlink:href="/wiki/Francis_Hutcheson_(philosopher)" xlink:title="Hutcheson">
<ellipse fill="none" stroke="black" cx="1039.24" cy="-162" rx="47.86" ry="18"/>
<text text-anchor="middle" x="1039.24" y="-157.8" font-family="Times,serif" font-size="14.00">Hutcheson</text>
</a>
</g>
</g>
<!-- Hutcheson&#45;&gt;David Hume -->
<g id="edge5" class="edge">
<title>Hutcheson&#45;&gt;David Hume</title>
<path fill="none" stroke="black" d="M1039.24,-143.7C1039.24,-135.98 1039.24,-126.71 1039.24,-118.11"/>
<polygon fill="black" stroke="black" points="1042.74,-118.1 1039.24,-108.1 1035.74,-118.1 1042.74,-118.1"/>
</g>
<!-- Locke -->
<g id="node7" class="node">
<title>Locke</title>
<g id="a_node7"><a xlink:href="/wiki/John_Locke" xlink:title="Locke">
<ellipse fill="none" stroke="black" cx="1137.24" cy="-162" rx="32.41" ry="18"/>
<text text-anchor="middle" x="1137.24" y="-157.8" font-family="Times,serif" font-size="14.00">Locke</text>
</a>
</g>
</g>
<!-- Locke&#45;&gt;David Hume -->
<g id="edge6" class="edge">
<title>Locke&#45;&gt;David Hume</title>
<path fill="none" stroke="black" d="M1117.88,-147.17C1104.13,-137.35 1085.41,-123.98 1069.68,-112.74"/>
<polygon fill="black" stroke="black" points="1071.47,-109.72 1061.3,-106.76 1067.4,-115.42 1071.47,-109.72"/>
</g>
<!-- Malebranche -->
<g id="node8" class="node">
<title>Malebranche</title>
<g id="a_node8"><a xlink:href="/wiki/Nicolas_Malebranche" xlink:title="Malebranche">
<ellipse fill="none" stroke="black" cx="1243.24" cy="-162" rx="56.03" ry="18"/>
<text text-anchor="middle" x="1243.24" y="-157.8" font-family="Times,serif" font-size="14.00">Malebranche</text>
</a>
</g>
</g>
<!-- Malebranche&#45;&gt;David Hume -->
<g id="edge7" class="edge">
<title>Malebranche&#45;&gt;David Hume</title>
<path fill="none" stroke="black" d="M1206.3,-148.32C1172.5,-136.73 1122.36,-119.52 1085.83,-106.99"/>
<polygon fill="black" stroke="black" points="1086.5,-103.52 1075.91,-103.58 1084.23,-110.14 1086.5,-103.52"/>
</g>
<!-- Newton -->
<g id="node9" class="node">
<title>Newton</title>
<g id="a_node9"><a xlink:href="/wiki/Isaac_Newton" xlink:title="Newton">
<ellipse fill="none" stroke="black" cx="1355.24" cy="-162" rx="38.21" ry="18"/>
<text text-anchor="middle" x="1355.24" y="-157.8" font-family="Times,serif" font-size="14.00">Newton</text>
</a>
</g>
</g>
<!-- Newton&#45;&gt;David Hume -->
<g id="edge8" class="edge">
<title>Newton&#45;&gt;David Hume</title>
<path fill="none" stroke="black" d="M1326.63,-149.87C1320.61,-147.75 1314.26,-145.67 1308.24,-144 1237.21,-124.28 1153.68,-109.03 1098.77,-100.05"/>
<polygon fill="black" stroke="black" points="1099.28,-96.59 1088.85,-98.44 1098.17,-103.5 1099.28,-96.59"/>
</g>
<!-- Rousseau -->
<g id="node10" class="node">
<title>Rousseau</title>
<g id="a_node10"><a xlink:href="/wiki/Jean-Jacques_Rousseau" xlink:title="Rousseau">
<ellipse fill="none" stroke="black" cx="1455.24" cy="-162" rx="44.01" ry="18"/>
<text text-anchor="middle" x="1455.24" y="-157.8" font-family="Times,serif" font-size="14.00">Rousseau</text>
</a>
</g>
</g>
<!-- Rousseau&#45;&gt;David Hume -->
<g id="edge9" class="edge">
<title>Rousseau&#45;&gt;David Hume</title>
<path fill="none" stroke="black" d="M1422.96,-149.71C1416.18,-147.6 1409.02,-145.57 1402.24,-144 1298.31,-119.92 1174.97,-104.66 1102.12,-96.99"/>
<polygon fill="black" stroke="black" points="1102.05,-93.46 1091.74,-95.91 1101.33,-100.42 1102.05,-93.46"/>
</g>
<!-- Smith&#45;&gt;David Hume -->
<g id="edge10" class="edge">
<title>Smith&#45;&gt;David Hume</title>
<path fill="none" stroke="black" d="M57.57,-27.98C65.19,-31.08 73.43,-34.22 81.24,-36 252.19,-74.93 786.4,-85.61 973.66,-88.22"/>
<polygon fill="black" stroke="black" points="973.86,-91.73 983.91,-88.37 973.96,-84.73 973.86,-91.73"/>
</g>
</g>
</svg>
