<?xml version="1.0" encoding="UTF-8" standalone="no"?>
<!DOCTYPE svg PUBLIC "-//W3C//DTD SVG 1.1//EN"
 "http://www.w3.org/Graphics/SVG/1.1/DTD/svg11.dtd">
<!-- Generated by graphviz version 2.42.3 (20191010.1750)
 -->
<!-- Title: G Pages: 1 -->
<svg width="726pt" height="188pt"
 viewBox="0.00 0.00 725.72 188.00" xmlns="http://www.w3.org/2000/svg" xmlns:xlink="http://www.w3.org/1999/xlink">
<g id="graph0" class="graph" transform="scale(1 1) rotate(0) translate(4 184)">
<title>G</title>
<polygon fill="white" stroke="transparent" points="-4,4 -4,-184 721.72,-184 721.72,4 -4,4"/>
<!-- Douglas Hofstadter -->
<g id="node1" class="node">
<title>Douglas Hofstadter</title>
<g id="a_node1"><a xlink:href="https://en.wikipedia.org/wiki/Douglas_Hofstadter" xlink:title="Douglas Hofstadter">
<ellipse fill="none" stroke="black" cx="79.12" cy="-162" rx="79.24" ry="18"/>
<text text-anchor="middle" x="79.12" y="-157.8" font-family="Times,serif" font-size="14.00">Douglas Hofstadter</text>
</a>
</g>
</g>
<!-- David Chalmers -->
<g id="node2" class="node">
<title>David Chalmers</title>
<ellipse fill="none" stroke="black" cx="387.12" cy="-90" rx="67.65" ry="18"/>
<text text-anchor="middle" x="387.12" y="-85.8" font-family="Times,serif" font-size="14.00">David Chalmers</text>
</g>
<!-- Douglas Hofstadter&#45;&gt;David Chalmers -->
<g id="edge1" class="edge">
<title>Douglas Hofstadter&#45;&gt;David Chalmers</title>
<path fill="none" stroke="black" d="M133.12,-148.73C187.48,-136.37 271.13,-117.36 327.43,-104.57"/>
<polygon fill="black" stroke="black" points="328.28,-107.96 337.26,-102.33 326.73,-101.13 328.28,-107.96"/>
</g>
<!-- Gualtiero Piccinini -->
<g id="node7" class="node">
<title>Gualtiero Piccinini</title>
<g id="a_node7"><a xlink:href="https://en.wikipedia.org/wiki/Gualtiero_Piccinini" xlink:title="Gualtiero Piccinini">
<ellipse fill="none" stroke="black" cx="242.12" cy="-18" rx="77.31" ry="18"/>
<text text-anchor="middle" x="242.12" y="-13.8" font-family="Times,serif" font-size="14.00">Gualtiero Piccinini</text>
</a>
</g>
</g>
<!-- David Chalmers&#45;&gt;Gualtiero Piccinini -->
<g id="edge6" class="edge">
<title>David Chalmers&#45;&gt;Gualtiero Piccinini</title>
<path fill="none" stroke="black" d="M356.01,-73.98C334.8,-63.74 306.48,-50.07 283.39,-38.92"/>
<polygon fill="black" stroke="black" points="284.7,-35.67 274.18,-34.48 281.66,-41.98 284.7,-35.67"/>
</g>
<!-- Sam Harris -->
<g id="node8" class="node">
<title>Sam Harris</title>
<g id="a_node8"><a xlink:href="https://en.wikipedia.org/wiki/Sam_Harris" xlink:title="Sam Harris">
<ellipse fill="none" stroke="black" cx="387.12" cy="-18" rx="50.28" ry="18"/>
<text text-anchor="middle" x="387.12" y="-13.8" font-family="Times,serif" font-size="14.00">Sam Harris</text>
</a>
</g>
</g>
<!-- David Chalmers&#45;&gt;Sam Harris -->
<g id="edge7" class="edge">
<title>David Chalmers&#45;&gt;Sam Harris</title>
<path fill="none" stroke="black" d="M387.12,-71.7C387.12,-63.98 387.12,-54.71 387.12,-46.11"/>
<polygon fill="black" stroke="black" points="390.62,-46.1 387.12,-36.1 383.62,-46.1 390.62,-46.1"/>
</g>
<!-- Tyler Burge -->
<g id="node9" class="node">
<title>Tyler Burge</title>
<g id="a_node9"><a xlink:href="https://en.wikipedia.org/wiki/Tyler_Burge" xlink:title="Tyler Burge">
<ellipse fill="none" stroke="black" cx="507.12" cy="-18" rx="52.12" ry="18"/>
<text text-anchor="middle" x="507.12" y="-13.8" font-family="Times,serif" font-size="14.00">Tyler Burge</text>
</a>
</g>
</g>
<!-- David Chalmers&#45;&gt;Tyler Burge -->
<g id="edge8" class="edge">
<title>David Chalmers&#45;&gt;Tyler Burge</title>
<path fill="none" stroke="black" d="M414.05,-73.29C431.39,-63.18 454.09,-49.93 472.73,-39.06"/>
<polygon fill="black" stroke="black" points="474.64,-42 481.51,-33.94 471.11,-35.95 474.64,-42"/>
</g>
<!-- Daniel Dennett -->
<g id="node3" class="node">
<title>Daniel Dennett</title>
<g id="a_node3"><a xlink:href="https://en.wikipedia.org/wiki/Daniel_Dennett" xlink:title="Daniel Dennett">
<ellipse fill="none" stroke="black" cx="240.12" cy="-162" rx="63.77" ry="18"/>
<text text-anchor="middle" x="240.12" y="-157.8" font-family="Times,serif" font-size="14.00">Daniel Dennett</text>
</a>
</g>
</g>
<!-- Daniel Dennett&#45;&gt;David Chalmers -->
<g id="edge2" class="edge">
<title>Daniel Dennett&#45;&gt;David Chalmers</title>
<path fill="none" stroke="black" d="M271.29,-146.15C293.17,-135.74 322.63,-121.71 346.36,-110.41"/>
<polygon fill="black" stroke="black" points="347.96,-113.52 355.48,-106.07 344.95,-107.2 347.96,-113.52"/>
</g>
<!-- René Descartes -->
<g id="node4" class="node">
<title>René Descartes</title>
<g id="a_node4"><a xlink:href="https://en.wikipedia.org/wiki/Ren%C3%A9_Descartes" xlink:title="René Descartes">
<ellipse fill="none" stroke="black" cx="387.12" cy="-162" rx="64.72" ry="18"/>
<text text-anchor="middle" x="387.12" y="-157.8" font-family="Times,serif" font-size="14.00">René Descartes</text>
</a>
</g>
</g>
<!-- René Descartes&#45;&gt;David Chalmers -->
<g id="edge3" class="edge">
<title>René Descartes&#45;&gt;David Chalmers</title>
<path fill="none" stroke="black" d="M387.12,-143.7C387.12,-135.98 387.12,-126.71 387.12,-118.11"/>
<polygon fill="black" stroke="black" points="390.62,-118.1 387.12,-108.1 383.62,-118.1 390.62,-118.1"/>
</g>
<!-- Rudolf Carnap -->
<g id="node5" class="node">
<title>Rudolf Carnap</title>
<g id="a_node5"><a xlink:href="https://en.wikipedia.org/wiki/Rudolf_Carnap" xlink:title="Rudolf Carnap">
<ellipse fill="none" stroke="black" cx="532.12" cy="-162" rx="62.34" ry="18"/>
<text text-anchor="middle" x="532.12" y="-157.8" font-family="Times,serif" font-size="14.00">Rudolf Carnap</text>
</a>
</g>
</g>
<!-- Rudolf Carnap&#45;&gt;David Chalmers -->
<g id="edge4" class="edge">
<title>Rudolf Carnap&#45;&gt;David Chalmers</title>
<path fill="none" stroke="black" d="M501.37,-146.15C479.89,-135.78 450.99,-121.83 427.63,-110.56"/>
<polygon fill="black" stroke="black" points="428.85,-107.26 418.32,-106.07 425.81,-113.56 428.85,-107.26"/>
</g>
<!-- Saul Kripke -->
<g id="node6" class="node">
<title>Saul Kripke</title>
<g id="a_node6"><a xlink:href="https://en.wikipedia.org/wiki/Saul_Kripke" xlink:title="Saul Kripke">
<ellipse fill="none" stroke="black" cx="665.12" cy="-162" rx="52.69" ry="18"/>
<text text-anchor="middle" x="665.12" y="-157.8" font-family="Times,serif" font-size="14.00">Saul Kripke</text>
</a>
</g>
</g>
<!-- Saul Kripke&#45;&gt;David Chalmers -->
<g id="edge5" class="edge">
<title>Saul Kripke&#45;&gt;David Chalmers</title>
<path fill="none" stroke="black" d="M625.47,-149.96C618.05,-147.94 610.36,-145.88 603.12,-144 550.07,-130.22 489.44,-115.43 445.95,-104.98"/>
<polygon fill="black" stroke="black" points="446.65,-101.55 436.11,-102.62 445.02,-108.36 446.65,-101.55"/>
</g>
</g>
</svg>
