<?xml version="1.0" encoding="UTF-8" standalone="no"?>
<!DOCTYPE svg PUBLIC "-//W3C//DTD SVG 1.1//EN"
 "http://www.w3.org/Graphics/SVG/1.1/DTD/svg11.dtd">
<!-- Generated by graphviz version 2.42.3 (20191010.1750)
 -->
<!-- Title: G Pages: 1 -->
<svg width="2288pt" height="188pt"
 viewBox="0.00 0.00 2288.26 188.00" xmlns="http://www.w3.org/2000/svg" xmlns:xlink="http://www.w3.org/1999/xlink">
<g id="graph0" class="graph" transform="scale(1 1) rotate(0) translate(4 184)">
<title>G</title>
<polygon fill="white" stroke="transparent" points="-4,4 -4,-184 2284.26,-184 2284.26,4 -4,4"/>
<!-- Plato -->
<g id="node1" class="node">
<title>Plato</title>
<g id="a_node1"><a xlink:href="https://en.wikipedia.org/wiki/Plato" xlink:title="Plato">
<ellipse fill="none" stroke="black" cx="391.81" cy="-162" rx="28.07" ry="18"/>
<text text-anchor="middle" x="391.81" y="-157.8" font-family="Times,serif" font-size="14.00">Plato</text>
</a>
</g>
</g>
<!-- Derrida -->
<g id="node2" class="node">
<title>Derrida</title>
<ellipse fill="none" stroke="black" cx="1180.81" cy="-90" rx="37.22" ry="18"/>
<text text-anchor="middle" x="1180.81" y="-85.8" font-family="Times,serif" font-size="14.00">Derrida</text>
</g>
<!-- Plato&#45;&gt;Derrida -->
<g id="edge1" class="edge">
<title>Plato&#45;&gt;Derrida</title>
<path fill="none" stroke="black" d="M413.04,-149.94C418.38,-147.59 424.2,-145.41 429.81,-144 564.16,-110.33 990.81,-96.08 1133.68,-92.18"/>
<polygon fill="black" stroke="black" points="1133.96,-95.67 1143.86,-91.9 1133.77,-88.67 1133.96,-95.67"/>
</g>
<!-- Jean&#45;Luc Nancy -->
<g id="node19" class="node">
<title>Jean&#45;Luc Nancy</title>
<g id="a_node19"><a xlink:href="https://en.wikipedia.org/wiki/Jean-Luc_Nancy" xlink:title="Jean&#45;Luc Nancy">
<ellipse fill="none" stroke="black" cx="67.81" cy="-18" rx="67.61" ry="18"/>
<text text-anchor="middle" x="67.81" y="-13.8" font-family="Times,serif" font-size="14.00">Jean&#45;Luc Nancy</text>
</a>
</g>
</g>
<!-- Derrida&#45;&gt;Jean&#45;Luc Nancy -->
<g id="edge18" class="edge">
<title>Derrida&#45;&gt;Jean&#45;Luc Nancy</title>
<path fill="none" stroke="black" d="M1143.43,-89.32C1008.29,-90.02 532.55,-88.35 144.81,-36 138.57,-35.16 132.1,-34.07 125.67,-32.85"/>
<polygon fill="black" stroke="black" points="126.13,-29.38 115.64,-30.85 124.76,-36.24 126.13,-29.38"/>
</g>
<!-- Gayatri Chakravorty Spivak -->
<g id="node20" class="node">
<title>Gayatri Chakravorty Spivak</title>
<g id="a_node20"><a xlink:href="https://en.wikipedia.org/wiki/Gayatri_Chakravorty_Spivak" xlink:title="Gayatri Chakravorty Spivak">
<ellipse fill="none" stroke="black" cx="263.81" cy="-18" rx="109.63" ry="18"/>
<text text-anchor="middle" x="263.81" y="-13.8" font-family="Times,serif" font-size="14.00">Gayatri Chakravorty Spivak</text>
</a>
</g>
</g>
<!-- Derrida&#45;&gt;Gayatri Chakravorty Spivak -->
<g id="edge19" class="edge">
<title>Derrida&#45;&gt;Gayatri Chakravorty Spivak</title>
<path fill="none" stroke="black" d="M1143.73,-87.54C1029.87,-82.82 675.22,-66.55 382.81,-36 372.5,-34.92 361.72,-33.63 351.03,-32.23"/>
<polygon fill="black" stroke="black" points="351.21,-28.72 340.84,-30.87 350.28,-35.66 351.21,-28.72"/>
</g>
<!-- Paul de Man -->
<g id="node21" class="node">
<title>Paul de Man</title>
<g id="a_node21"><a xlink:href="https://en.wikipedia.org/wiki/Paul_de_Man" xlink:title="Paul de Man">
<ellipse fill="none" stroke="black" cx="446.81" cy="-18" rx="54.62" ry="18"/>
<text text-anchor="middle" x="446.81" y="-13.8" font-family="Times,serif" font-size="14.00">Paul de Man</text>
</a>
</g>
</g>
<!-- Derrida&#45;&gt;Paul de Man -->
<g id="edge20" class="edge">
<title>Derrida&#45;&gt;Paul de Man</title>
<path fill="none" stroke="black" d="M1143.47,-88.41C1041.41,-86.28 749.46,-76.79 510.81,-36 506.03,-35.18 501.09,-34.17 496.17,-33.06"/>
<polygon fill="black" stroke="black" points="496.7,-29.59 486.16,-30.65 495.06,-36.39 496.7,-29.59"/>
</g>
<!-- Philippe Lacoue&#45;Labarthe -->
<g id="node22" class="node">
<title>Philippe Lacoue&#45;Labarthe</title>
<g id="a_node22"><a xlink:href="https://en.wikipedia.org/wiki/Philippe_Lacoue-Labarthe" xlink:title="Philippe Lacoue&#45;Labarthe">
<ellipse fill="none" stroke="black" cx="621.81" cy="-18" rx="102.37" ry="18"/>
<text text-anchor="middle" x="621.81" y="-13.8" font-family="Times,serif" font-size="14.00">Philippe Lacoue&#45;Labarthe</text>
</a>
</g>
</g>
<!-- Derrida&#45;&gt;Philippe Lacoue&#45;Labarthe -->
<g id="edge21" class="edge">
<title>Derrida&#45;&gt;Philippe Lacoue&#45;Labarthe</title>
<path fill="none" stroke="black" d="M1145.04,-85.19C1069.04,-77 885.89,-56.77 732.81,-36 723.87,-34.79 714.53,-33.46 705.24,-32.09"/>
<polygon fill="black" stroke="black" points="705.6,-28.61 695.19,-30.6 704.57,-35.53 705.6,-28.61"/>
</g>
<!-- Maebh Long -->
<g id="node23" class="node">
<title>Maebh Long</title>
<g id="a_node23"><a xlink:href="https://en.wikipedia.org/wiki/Maebh_Long" xlink:title="Maebh Long">
<ellipse fill="none" stroke="black" cx="797.81" cy="-18" rx="55.58" ry="18"/>
<text text-anchor="middle" x="797.81" y="-13.8" font-family="Times,serif" font-size="14.00">Maebh Long</text>
</a>
</g>
</g>
<!-- Derrida&#45;&gt;Maebh Long -->
<g id="edge22" class="edge">
<title>Derrida&#45;&gt;Maebh Long</title>
<path fill="none" stroke="black" d="M1145.31,-84.16C1086.35,-75.87 964.61,-57.75 862.81,-36 858.13,-35 853.29,-33.89 848.45,-32.72"/>
<polygon fill="black" stroke="black" points="849.13,-29.28 838.59,-30.27 847.45,-36.08 849.13,-29.28"/>
</g>
<!-- Geoffrey Hartman -->
<g id="node24" class="node">
<title>Geoffrey Hartman</title>
<g id="a_node24"><a xlink:href="https://en.wikipedia.org/wiki/Geoffrey_Hartman" xlink:title="Geoffrey Hartman">
<ellipse fill="none" stroke="black" cx="946.81" cy="-18" rx="75.03" ry="18"/>
<text text-anchor="middle" x="946.81" y="-13.8" font-family="Times,serif" font-size="14.00">Geoffrey Hartman</text>
</a>
</g>
</g>
<!-- Derrida&#45;&gt;Geoffrey Hartman -->
<g id="edge23" class="edge">
<title>Derrida&#45;&gt;Geoffrey Hartman</title>
<path fill="none" stroke="black" d="M1149.73,-79.7C1112.09,-68.44 1048,-49.27 1001.91,-35.48"/>
<polygon fill="black" stroke="black" points="1002.65,-32.05 992.07,-32.54 1000.65,-38.76 1002.65,-32.05"/>
</g>
<!-- John D. Caputo -->
<g id="node25" class="node">
<title>John D. Caputo</title>
<g id="a_node25"><a xlink:href="https://en.wikipedia.org/wiki/John_D._Caputo" xlink:title="John D. Caputo">
<ellipse fill="none" stroke="black" cx="1104.81" cy="-18" rx="65.26" ry="18"/>
<text text-anchor="middle" x="1104.81" y="-13.8" font-family="Times,serif" font-size="14.00">John D. Caputo</text>
</a>
</g>
</g>
<!-- Derrida&#45;&gt;John D. Caputo -->
<g id="edge24" class="edge">
<title>Derrida&#45;&gt;John D. Caputo</title>
<path fill="none" stroke="black" d="M1164.31,-73.81C1154.31,-64.6 1141.34,-52.65 1130.07,-42.27"/>
<polygon fill="black" stroke="black" points="1132.32,-39.58 1122.59,-35.38 1127.57,-44.73 1132.32,-39.58"/>
</g>
<!-- James KA Smith -->
<g id="node26" class="node">
<title>James KA Smith</title>
<g id="a_node26"><a xlink:href="https://en.wikipedia.org/wiki/James_KA_Smith" xlink:title="James KA Smith">
<ellipse fill="none" stroke="black" cx="1257.81" cy="-18" rx="69.63" ry="18"/>
<text text-anchor="middle" x="1257.81" y="-13.8" font-family="Times,serif" font-size="14.00">James KA Smith</text>
</a>
</g>
</g>
<!-- Derrida&#45;&gt;James KA Smith -->
<g id="edge25" class="edge">
<title>Derrida&#45;&gt;James KA Smith</title>
<path fill="none" stroke="black" d="M1197.51,-73.81C1207.58,-64.66 1220.6,-52.82 1231.97,-42.49"/>
<polygon fill="black" stroke="black" points="1234.47,-44.94 1239.51,-35.63 1229.76,-39.76 1234.47,-44.94"/>
</g>
<!-- Judith Butler -->
<g id="node27" class="node">
<title>Judith Butler</title>
<g id="a_node27"><a xlink:href="https://en.wikipedia.org/wiki/Judith_Butler" xlink:title="Judith Butler">
<ellipse fill="none" stroke="black" cx="1401.81" cy="-18" rx="56.09" ry="18"/>
<text text-anchor="middle" x="1401.81" y="-13.8" font-family="Times,serif" font-size="14.00">Judith Butler</text>
</a>
</g>
</g>
<!-- Derrida&#45;&gt;Judith Butler -->
<g id="edge26" class="edge">
<title>Derrida&#45;&gt;Judith Butler</title>
<path fill="none" stroke="black" d="M1211.07,-79.41C1247.81,-67.78 1310.23,-48.01 1353.61,-34.27"/>
<polygon fill="black" stroke="black" points="1354.9,-37.53 1363.38,-31.17 1352.79,-30.85 1354.9,-37.53"/>
</g>
<!-- Catherine Malabou -->
<g id="node28" class="node">
<title>Catherine Malabou</title>
<g id="a_node28"><a xlink:href="https://en.wikipedia.org/wiki/Catherine_Malabou" xlink:title="Catherine Malabou">
<ellipse fill="none" stroke="black" cx="1553.81" cy="-18" rx="78.26" ry="18"/>
<text text-anchor="middle" x="1553.81" y="-13.8" font-family="Times,serif" font-size="14.00">Catherine Malabou</text>
</a>
</g>
</g>
<!-- Derrida&#45;&gt;Catherine Malabou -->
<g id="edge27" class="edge">
<title>Derrida&#45;&gt;Catherine Malabou</title>
<path fill="none" stroke="black" d="M1215.16,-82.74C1268.88,-72.94 1376.02,-53.28 1466.81,-36 1473.06,-34.81 1479.56,-33.56 1486.06,-32.3"/>
<polygon fill="black" stroke="black" points="1487.11,-35.67 1496.26,-30.33 1485.78,-28.79 1487.11,-35.67"/>
</g>
<!-- Bernard Stiegler -->
<g id="node29" class="node">
<title>Bernard Stiegler</title>
<g id="a_node29"><a xlink:href="https://en.wikipedia.org/wiki/Bernard_Stiegler" xlink:title="Bernard Stiegler">
<ellipse fill="none" stroke="black" cx="1717.81" cy="-18" rx="68.11" ry="18"/>
<text text-anchor="middle" x="1717.81" y="-13.8" font-family="Times,serif" font-size="14.00">Bernard Stiegler</text>
</a>
</g>
</g>
<!-- Derrida&#45;&gt;Bernard Stiegler -->
<g id="edge28" class="edge">
<title>Derrida&#45;&gt;Bernard Stiegler</title>
<path fill="none" stroke="black" d="M1217.06,-86.1C1294.98,-79.58 1484.02,-62.27 1640.81,-36 1646.6,-35.03 1652.62,-33.91 1658.62,-32.71"/>
<polygon fill="black" stroke="black" points="1659.57,-36.09 1668.66,-30.64 1658.16,-29.23 1659.57,-36.09"/>
</g>
<!-- Béatrice Galinon&#45;Mélénec -->
<g id="node30" class="node">
<title>Béatrice Galinon&#45;Mélénec</title>
<g id="a_node30"><a xlink:href="https://en.wikipedia.org/wiki/B%C3%A9atrice_Galinon-M%C3%A9l%C3%A9nec" xlink:title="Béatrice Galinon&#45;Mélénec">
<ellipse fill="none" stroke="black" cx="1907.81" cy="-18" rx="103.81" ry="18"/>
<text text-anchor="middle" x="1907.81" y="-13.8" font-family="Times,serif" font-size="14.00">Béatrice Galinon&#45;Mélénec</text>
</a>
</g>
</g>
<!-- Derrida&#45;&gt;Béatrice Galinon&#45;Mélénec -->
<g id="edge29" class="edge">
<title>Derrida&#45;&gt;Béatrice Galinon&#45;Mélénec</title>
<path fill="none" stroke="black" d="M1217.57,-86.64C1313.01,-80.34 1576.45,-61.82 1794.81,-36 1804.41,-34.86 1814.45,-33.54 1824.42,-32.15"/>
<polygon fill="black" stroke="black" points="1824.94,-35.61 1834.35,-30.74 1823.95,-28.68 1824.94,-35.61"/>
</g>
<!-- Peter Rollins -->
<g id="node31" class="node">
<title>Peter Rollins</title>
<g id="a_node31"><a xlink:href="https://en.wikipedia.org/wiki/Peter_Rollins" xlink:title="Peter Rollins">
<ellipse fill="none" stroke="black" cx="2085.81" cy="-18" rx="56.09" ry="18"/>
<text text-anchor="middle" x="2085.81" y="-13.8" font-family="Times,serif" font-size="14.00">Peter Rollins</text>
</a>
</g>
</g>
<!-- Derrida&#45;&gt;Peter Rollins -->
<g id="edge30" class="edge">
<title>Derrida&#45;&gt;Peter Rollins</title>
<path fill="none" stroke="black" d="M1217.93,-89.2C1336.06,-89.29 1713.51,-85.41 2020.81,-36 2025.79,-35.2 2030.94,-34.18 2036.07,-33.05"/>
<polygon fill="black" stroke="black" points="2036.91,-36.45 2045.84,-30.74 2035.31,-29.63 2036.91,-36.45"/>
</g>
<!-- Richard Rorty -->
<g id="node32" class="node">
<title>Richard Rorty</title>
<g id="a_node32"><a xlink:href="https://en.wikipedia.org/wiki/Richard_Rorty" xlink:title="Richard Rorty">
<ellipse fill="none" stroke="black" cx="2219.81" cy="-18" rx="60.41" ry="18"/>
<text text-anchor="middle" x="2219.81" y="-13.8" font-family="Times,serif" font-size="14.00">Richard Rorty</text>
</a>
</g>
</g>
<!-- Derrida&#45;&gt;Richard Rorty -->
<g id="edge31" class="edge">
<title>Derrida&#45;&gt;Richard Rorty</title>
<path fill="none" stroke="black" d="M1218.06,-89.46C1347.65,-90.53 1790.5,-89.75 2150.81,-36 2156.14,-35.2 2161.67,-34.18 2167.17,-33.04"/>
<polygon fill="black" stroke="black" points="2167.98,-36.44 2176.99,-30.86 2166.47,-29.61 2167.98,-36.44"/>
</g>
<!-- Joyce -->
<g id="node3" class="node">
<title>Joyce</title>
<g id="a_node3"><a xlink:href="https://en.wikipedia.org/wiki/James_Joyce" xlink:title="Joyce">
<ellipse fill="none" stroke="black" cx="468.81" cy="-162" rx="30.49" ry="18"/>
<text text-anchor="middle" x="468.81" y="-157.8" font-family="Times,serif" font-size="14.00">Joyce</text>
</a>
</g>
</g>
<!-- Joyce&#45;&gt;Derrida -->
<g id="edge2" class="edge">
<title>Joyce&#45;&gt;Derrida</title>
<path fill="none" stroke="black" d="M491.04,-149.8C496.41,-147.52 502.22,-145.4 507.81,-144 626.82,-114.27 1001.19,-97.72 1133.73,-92.68"/>
<polygon fill="black" stroke="black" points="1134.09,-96.17 1143.95,-92.29 1133.83,-89.17 1134.09,-96.17"/>
</g>
<!-- Nietzsche -->
<g id="node4" class="node">
<title>Nietzsche</title>
<g id="a_node4"><a xlink:href="https://en.wikipedia.org/wiki/Friedrich_Nietzsche" xlink:title="Nietzsche">
<ellipse fill="none" stroke="black" cx="561.81" cy="-162" rx="44.94" ry="18"/>
<text text-anchor="middle" x="561.81" y="-157.8" font-family="Times,serif" font-size="14.00">Nietzsche</text>
</a>
</g>
</g>
<!-- Nietzsche&#45;&gt;Derrida -->
<g id="edge3" class="edge">
<title>Nietzsche&#45;&gt;Derrida</title>
<path fill="none" stroke="black" d="M594.36,-149.54C601.36,-147.41 608.77,-145.42 615.81,-144 805.19,-105.76 1035.97,-95 1133.59,-92.07"/>
<polygon fill="black" stroke="black" points="1133.83,-95.56 1143.73,-91.77 1133.63,-88.56 1133.83,-95.56"/>
</g>
<!-- De Saussure -->
<g id="node5" class="node">
<title>De Saussure</title>
<g id="a_node5"><a xlink:href="https://en.wikipedia.org/wiki/Ferdinand_de_Saussure" xlink:title="De Saussure">
<ellipse fill="none" stroke="black" cx="678.81" cy="-162" rx="54.14" ry="18"/>
<text text-anchor="middle" x="678.81" y="-157.8" font-family="Times,serif" font-size="14.00">De Saussure</text>
</a>
</g>
</g>
<!-- De Saussure&#45;&gt;Derrida -->
<g id="edge4" class="edge">
<title>De Saussure&#45;&gt;Derrida</title>
<path fill="none" stroke="black" d="M717.92,-149.51C725.78,-147.47 734.02,-145.51 741.81,-144 883.34,-116.51 1053.5,-100.83 1134.09,-94.43"/>
<polygon fill="black" stroke="black" points="1134.7,-97.89 1144.39,-93.62 1134.15,-90.91 1134.7,-97.89"/>
</g>
<!-- Heidegger -->
<g id="node6" class="node">
<title>Heidegger</title>
<g id="a_node6"><a xlink:href="https://en.wikipedia.org/wiki/Martin_Heidegger" xlink:title="Heidegger">
<ellipse fill="none" stroke="black" cx="797.81" cy="-162" rx="46.87" ry="18"/>
<text text-anchor="middle" x="797.81" y="-157.8" font-family="Times,serif" font-size="14.00">Heidegger</text>
</a>
</g>
</g>
<!-- Heidegger&#45;&gt;Derrida -->
<g id="edge5" class="edge">
<title>Heidegger&#45;&gt;Derrida</title>
<path fill="none" stroke="black" d="M832.26,-149.75C839.34,-147.66 846.78,-145.63 853.81,-144 953.05,-121 1071.52,-104.46 1135.08,-96.44"/>
<polygon fill="black" stroke="black" points="1135.69,-99.89 1145.18,-95.18 1134.82,-92.95 1135.69,-99.89"/>
</g>
<!-- Benjamin -->
<g id="node7" class="node">
<title>Benjamin</title>
<g id="a_node7"><a xlink:href="https://en.wikipedia.org/wiki/Walter_Benjamin" xlink:title="Benjamin">
<ellipse fill="none" stroke="black" cx="906.81" cy="-162" rx="44.48" ry="18"/>
<text text-anchor="middle" x="906.81" y="-157.8" font-family="Times,serif" font-size="14.00">Benjamin</text>
</a>
</g>
</g>
<!-- Benjamin&#45;&gt;Derrida -->
<g id="edge6" class="edge">
<title>Benjamin&#45;&gt;Derrida</title>
<path fill="none" stroke="black" d="M940.4,-150.03C947.13,-147.94 954.18,-145.84 960.81,-144 1021.74,-127.09 1093.02,-110.49 1137.55,-100.5"/>
<polygon fill="black" stroke="black" points="1138.45,-103.88 1147.45,-98.29 1136.93,-97.05 1138.45,-103.88"/>
</g>
<!-- Levinas -->
<g id="node8" class="node">
<title>Levinas</title>
<g id="a_node8"><a xlink:href="https://en.wikipedia.org/wiki/Emmanuel_Levinas" xlink:title="Levinas">
<ellipse fill="none" stroke="black" cx="1007.81" cy="-162" rx="38.2" ry="18"/>
<text text-anchor="middle" x="1007.81" y="-157.8" font-family="Times,serif" font-size="14.00">Levinas</text>
</a>
</g>
</g>
<!-- Levinas&#45;&gt;Derrida -->
<g id="edge7" class="edge">
<title>Levinas&#45;&gt;Derrida</title>
<path fill="none" stroke="black" d="M1035.99,-149.6C1065.31,-137.73 1111.38,-119.09 1143.67,-106.03"/>
<polygon fill="black" stroke="black" points="1145.25,-109.16 1153.21,-102.17 1142.63,-102.67 1145.25,-109.16"/>
</g>
<!-- Freud -->
<g id="node9" class="node">
<title>Freud</title>
<g id="a_node9"><a xlink:href="https://en.wikipedia.org/wiki/Sigmund_Freud" xlink:title="Freud">
<ellipse fill="none" stroke="black" cx="1094.81" cy="-162" rx="30.98" ry="18"/>
<text text-anchor="middle" x="1094.81" y="-157.8" font-family="Times,serif" font-size="14.00">Freud</text>
</a>
</g>
</g>
<!-- Freud&#45;&gt;Derrida -->
<g id="edge8" class="edge">
<title>Freud&#45;&gt;Derrida</title>
<path fill="none" stroke="black" d="M1112.21,-146.83C1124.32,-136.98 1140.69,-123.65 1154.41,-112.49"/>
<polygon fill="black" stroke="black" points="1156.99,-114.9 1162.54,-105.87 1152.57,-109.47 1156.99,-114.9"/>
</g>
<!-- Husserl -->
<g id="node10" class="node">
<title>Husserl</title>
<g id="a_node10"><a xlink:href="https://en.wikipedia.org/wiki/Edmund_Husserl" xlink:title="Husserl">
<ellipse fill="none" stroke="black" cx="1180.81" cy="-162" rx="37.25" ry="18"/>
<text text-anchor="middle" x="1180.81" y="-157.8" font-family="Times,serif" font-size="14.00">Husserl</text>
</a>
</g>
</g>
<!-- Husserl&#45;&gt;Derrida -->
<g id="edge9" class="edge">
<title>Husserl&#45;&gt;Derrida</title>
<path fill="none" stroke="black" d="M1180.81,-143.7C1180.81,-135.98 1180.81,-126.71 1180.81,-118.11"/>
<polygon fill="black" stroke="black" points="1184.31,-118.1 1180.81,-108.1 1177.31,-118.1 1184.31,-118.1"/>
</g>
<!-- Rousseau -->
<g id="node11" class="node">
<title>Rousseau</title>
<g id="a_node11"><a xlink:href="https://en.wikipedia.org/wiki/Jean-Jacques_Rousseau" xlink:title="Rousseau">
<ellipse fill="none" stroke="black" cx="1279.81" cy="-162" rx="44.01" ry="18"/>
<text text-anchor="middle" x="1279.81" y="-157.8" font-family="Times,serif" font-size="14.00">Rousseau</text>
</a>
</g>
</g>
<!-- Rousseau&#45;&gt;Derrida -->
<g id="edge10" class="edge">
<title>Rousseau&#45;&gt;Derrida</title>
<path fill="none" stroke="black" d="M1258.81,-146.15C1244.44,-136 1225.22,-122.4 1209.45,-111.25"/>
<polygon fill="black" stroke="black" points="1211.28,-108.26 1201.09,-105.35 1207.24,-113.98 1211.28,-108.26"/>
</g>
<!-- Marx -->
<g id="node12" class="node">
<title>Marx</title>
<g id="a_node12"><a xlink:href="https://en.wikipedia.org/wiki/Karl_Marx" xlink:title="Marx">
<ellipse fill="none" stroke="black" cx="1370.81" cy="-162" rx="29.03" ry="18"/>
<text text-anchor="middle" x="1370.81" y="-157.8" font-family="Times,serif" font-size="14.00">Marx</text>
</a>
</g>
</g>
<!-- Marx&#45;&gt;Derrida -->
<g id="edge11" class="edge">
<title>Marx&#45;&gt;Derrida</title>
<path fill="none" stroke="black" d="M1348.03,-150.43C1343.05,-148.23 1337.78,-145.97 1332.81,-144 1295.07,-129.01 1251.21,-113.97 1220.34,-103.76"/>
<polygon fill="black" stroke="black" points="1221.38,-100.42 1210.79,-100.62 1219.2,-107.07 1221.38,-100.42"/>
</g>
<!-- Lévi&#45;Strauss -->
<g id="node13" class="node">
<title>Lévi&#45;Strauss</title>
<g id="a_node13"><a xlink:href="https://en.wikipedia.org/wiki/Claude_L%C3%A9vi-Strauss" xlink:title="Lévi&#45;Strauss">
<ellipse fill="none" stroke="black" cx="1472.81" cy="-162" rx="54.62" ry="18"/>
<text text-anchor="middle" x="1472.81" y="-157.8" font-family="Times,serif" font-size="14.00">Lévi&#45;Strauss</text>
</a>
</g>
</g>
<!-- Lévi&#45;Strauss&#45;&gt;Derrida -->
<g id="edge12" class="edge">
<title>Lévi&#45;Strauss&#45;&gt;Derrida</title>
<path fill="none" stroke="black" d="M1431.88,-149.93C1424.23,-147.91 1416.28,-145.86 1408.81,-144 1344.46,-127.98 1269.52,-110.85 1223.63,-100.54"/>
<polygon fill="black" stroke="black" points="1224.25,-97.09 1213.73,-98.31 1222.72,-103.92 1224.25,-97.09"/>
</g>
<!-- Blanchot -->
<g id="node14" class="node">
<title>Blanchot</title>
<g id="a_node14"><a xlink:href="https://en.wikipedia.org/wiki/Maurice_Blanchot" xlink:title="Blanchot">
<ellipse fill="none" stroke="black" cx="1587.81" cy="-162" rx="42.07" ry="18"/>
<text text-anchor="middle" x="1587.81" y="-157.8" font-family="Times,serif" font-size="14.00">Blanchot</text>
</a>
</g>
</g>
<!-- Blanchot&#45;&gt;Derrida -->
<g id="edge13" class="edge">
<title>Blanchot&#45;&gt;Derrida</title>
<path fill="none" stroke="black" d="M1556.77,-149.7C1550.23,-147.59 1543.34,-145.56 1536.81,-144 1427.26,-117.8 1295.49,-102.22 1227.1,-95.29"/>
<polygon fill="black" stroke="black" points="1227.38,-91.8 1217.08,-94.29 1226.68,-98.77 1227.38,-91.8"/>
</g>
<!-- Kierkegaard -->
<g id="node15" class="node">
<title>Kierkegaard</title>
<g id="a_node15"><a xlink:href="https://en.wikipedia.org/wiki/S%C3%B8ren_Kierkegaard" xlink:title="Kierkegaard">
<ellipse fill="none" stroke="black" cx="1701.81" cy="-162" rx="53.61" ry="18"/>
<text text-anchor="middle" x="1701.81" y="-157.8" font-family="Times,serif" font-size="14.00">Kierkegaard</text>
</a>
</g>
</g>
<!-- Kierkegaard&#45;&gt;Derrida -->
<g id="edge14" class="edge">
<title>Kierkegaard&#45;&gt;Derrida</title>
<path fill="none" stroke="black" d="M1662.69,-149.48C1654.83,-147.44 1646.59,-145.49 1638.81,-144 1489.91,-115.46 1310.64,-100.14 1227.44,-94.1"/>
<polygon fill="black" stroke="black" points="1227.53,-90.6 1217.3,-93.38 1227.03,-97.58 1227.53,-90.6"/>
</g>
<!-- Hegel -->
<g id="node16" class="node">
<title>Hegel</title>
<g id="a_node16"><a xlink:href="https://en.wikipedia.org/wiki/Georg_Wilhelm_Friedrich_Hegel" xlink:title="Hegel">
<ellipse fill="none" stroke="black" cx="1804.81" cy="-162" rx="31.45" ry="18"/>
<text text-anchor="middle" x="1804.81" y="-157.8" font-family="Times,serif" font-size="14.00">Hegel</text>
</a>
</g>
</g>
<!-- Hegel&#45;&gt;Derrida -->
<g id="edge15" class="edge">
<title>Hegel&#45;&gt;Derrida</title>
<path fill="none" stroke="black" d="M1781.54,-149.68C1776.15,-147.46 1770.37,-145.4 1764.81,-144 1570.03,-95.06 1328.66,-90.07 1228.16,-90.36"/>
<polygon fill="black" stroke="black" points="1228.01,-86.86 1218.03,-90.41 1228.04,-93.86 1228.01,-86.86"/>
</g>
<!-- Genet -->
<g id="node17" class="node">
<title>Genet</title>
<g id="a_node17"><a xlink:href="https://en.wikipedia.org/wiki/Jean_Genet" xlink:title="Genet">
<ellipse fill="none" stroke="black" cx="1884.81" cy="-162" rx="31.45" ry="18"/>
<text text-anchor="middle" x="1884.81" y="-157.8" font-family="Times,serif" font-size="14.00">Genet</text>
</a>
</g>
</g>
<!-- Genet&#45;&gt;Derrida -->
<g id="edge16" class="edge">
<title>Genet&#45;&gt;Derrida</title>
<path fill="none" stroke="black" d="M1861.55,-149.63C1856.16,-147.42 1850.37,-145.37 1844.81,-144 1727.53,-115.21 1359.69,-98.12 1228.16,-92.8"/>
<polygon fill="black" stroke="black" points="1228.13,-89.3 1218,-92.4 1227.85,-96.29 1228.13,-89.3"/>
</g>
<!-- Kafka -->
<g id="node18" class="node">
<title>Kafka</title>
<g id="a_node18"><a xlink:href="https://en.wikipedia.org/wiki/Franz_Kafka" xlink:title="Kafka">
<ellipse fill="none" stroke="black" cx="1965.81" cy="-162" rx="31.92" ry="18"/>
<text text-anchor="middle" x="1965.81" y="-157.8" font-family="Times,serif" font-size="14.00">Kafka</text>
</a>
</g>
</g>
<!-- Kafka&#45;&gt;Derrida -->
<g id="edge17" class="edge">
<title>Kafka&#45;&gt;Derrida</title>
<path fill="none" stroke="black" d="M1942.39,-149.78C1936.75,-147.5 1930.65,-145.38 1924.81,-144 1791.41,-112.47 1369.84,-96.84 1227.94,-92.38"/>
<polygon fill="black" stroke="black" points="1227.93,-88.88 1217.83,-92.07 1227.71,-95.87 1227.93,-88.88"/>
</g>
</g>
</svg>
