<?xml version="1.0" encoding="UTF-8" standalone="no"?>
<!DOCTYPE svg PUBLIC "-//W3C//DTD SVG 1.1//EN"
 "http://www.w3.org/Graphics/SVG/1.1/DTD/svg11.dtd">
<!-- Generated by graphviz version 2.42.3 (20191010.1750)
 -->
<!-- Title: G Pages: 1 -->
<svg width="2581pt" height="188pt"
 viewBox="0.00 0.00 2580.77 188.00" xmlns="http://www.w3.org/2000/svg" xmlns:xlink="http://www.w3.org/1999/xlink">
<g id="graph0" class="graph" transform="scale(1 1) rotate(0) translate(4 184)">
<title>G</title>
<polygon fill="white" stroke="transparent" points="-4,4 -4,-184 2576.77,-184 2576.77,4 -4,4"/>
<!-- Plato -->
<g id="node1" class="node">
<title>Plato</title>
<g id="a_node1"><a xlink:href="https://en.wikipedia.org/wiki/Plato" xlink:title="Plato">
<ellipse fill="none" stroke="black" cx="28.29" cy="-162" rx="28.07" ry="18"/>
<text text-anchor="middle" x="28.29" y="-157.8" font-family="Times,serif" font-size="14.00">Plato</text>
</a>
</g>
</g>
<!-- Descartes -->
<g id="node2" class="node">
<title>Descartes</title>
<ellipse fill="none" stroke="black" cx="1265.29" cy="-90" rx="44.46" ry="18"/>
<text text-anchor="middle" x="1265.29" y="-85.8" font-family="Times,serif" font-size="14.00">Descartes</text>
</g>
<!-- Plato&#45;&gt;Descartes -->
<g id="edge1" class="edge">
<title>Plato&#45;&gt;Descartes</title>
<path fill="none" stroke="black" d="M49.3,-149.65C54.4,-147.38 59.93,-145.3 65.29,-144 286.92,-90.37 1005.64,-89.69 1210.39,-90.63"/>
<polygon fill="black" stroke="black" points="1210.58,-94.13 1220.6,-90.68 1210.62,-87.13 1210.58,-94.13"/>
</g>
<!-- Western philosophy -->
<g id="node25" class="node">
<title>Western philosophy</title>
<g id="a_node25"><a xlink:href="https://en.wikipedia.org/wiki/Western_philosophy" xlink:title="Western philosophy">
<ellipse fill="none" stroke="black" cx="506.29" cy="-18" rx="80.27" ry="18"/>
<text text-anchor="middle" x="506.29" y="-13.8" font-family="Times,serif" font-size="14.00">Western philosophy</text>
</a>
</g>
</g>
<!-- Descartes&#45;&gt;Western philosophy -->
<g id="edge24" class="edge">
<title>Descartes&#45;&gt;Western philosophy</title>
<path fill="none" stroke="black" d="M1221.21,-87.19C1113.78,-82.41 830.03,-67.61 595.29,-36 588.1,-35.03 580.63,-33.86 573.19,-32.6"/>
<polygon fill="black" stroke="black" points="573.56,-29.11 563.11,-30.82 572.35,-36 573.56,-29.11"/>
</g>
<!-- Spinoza -->
<g id="node26" class="node">
<title>Spinoza</title>
<g id="a_node26"><a xlink:href="https://en.wikipedia.org/wiki/Spinoza" xlink:title="Spinoza">
<ellipse fill="none" stroke="black" cx="643.29" cy="-18" rx="38.7" ry="18"/>
<text text-anchor="middle" x="643.29" y="-13.8" font-family="Times,serif" font-size="14.00">Spinoza</text>
</a>
</g>
</g>
<!-- Descartes&#45;&gt;Spinoza -->
<g id="edge25" class="edge">
<title>Descartes&#45;&gt;Spinoza</title>
<path fill="none" stroke="black" d="M1220.79,-88.63C1123.55,-87.01 885.31,-78.62 691.29,-36 688.05,-35.29 684.73,-34.42 681.42,-33.46"/>
<polygon fill="black" stroke="black" points="682.22,-30.04 671.63,-30.34 680.1,-36.71 682.22,-30.04"/>
</g>
<!-- Leibniz -->
<g id="node27" class="node">
<title>Leibniz</title>
<g id="a_node27"><a xlink:href="https://en.wikipedia.org/wiki/Leibniz" xlink:title="Leibniz">
<ellipse fill="none" stroke="black" cx="737.29" cy="-18" rx="37.23" ry="18"/>
<text text-anchor="middle" x="737.29" y="-13.8" font-family="Times,serif" font-size="14.00">Leibniz</text>
</a>
</g>
</g>
<!-- Descartes&#45;&gt;Leibniz -->
<g id="edge26" class="edge">
<title>Descartes&#45;&gt;Leibniz</title>
<path fill="none" stroke="black" d="M1221.14,-87.74C1135.58,-84.52 941.62,-73.37 783.29,-36 780.32,-35.3 777.28,-34.46 774.24,-33.54"/>
<polygon fill="black" stroke="black" points="775.27,-30.19 764.68,-30.37 773.07,-36.84 775.27,-30.19"/>
</g>
<!-- John Locke -->
<g id="node28" class="node">
<title>John Locke</title>
<g id="a_node28"><a xlink:href="https://en.wikipedia.org/wiki/John_Locke" xlink:title="John Locke">
<ellipse fill="none" stroke="black" cx="843.29" cy="-18" rx="51.24" ry="18"/>
<text text-anchor="middle" x="843.29" y="-13.8" font-family="Times,serif" font-size="14.00">John Locke</text>
</a>
</g>
</g>
<!-- Descartes&#45;&gt;John Locke -->
<g id="edge27" class="edge">
<title>Descartes&#45;&gt;John Locke</title>
<path fill="none" stroke="black" d="M1222.74,-84.51C1154.92,-76.97 1018.31,-60.16 904.29,-36 899.87,-35.06 895.3,-33.99 890.75,-32.85"/>
<polygon fill="black" stroke="black" points="891.41,-29.41 880.85,-30.27 889.64,-36.18 891.41,-29.41"/>
</g>
<!-- Nicolas Malebranche -->
<g id="node29" class="node">
<title>Nicolas Malebranche</title>
<g id="a_node29"><a xlink:href="https://en.wikipedia.org/wiki/Nicolas_Malebranche" xlink:title="Nicolas Malebranche">
<ellipse fill="none" stroke="black" cx="998.29" cy="-18" rx="85.48" ry="18"/>
<text text-anchor="middle" x="998.29" y="-13.8" font-family="Times,serif" font-size="14.00">Nicolas Malebranche</text>
</a>
</g>
</g>
<!-- Descartes&#45;&gt;Nicolas Malebranche -->
<g id="edge28" class="edge">
<title>Descartes&#45;&gt;Nicolas Malebranche</title>
<path fill="none" stroke="black" d="M1229,-79.49C1185.47,-68.07 1111.81,-48.76 1059.44,-35.03"/>
<polygon fill="black" stroke="black" points="1060.15,-31.6 1049.59,-32.45 1058.37,-38.37 1060.15,-31.6"/>
</g>
<!-- Antoine Arnauld -->
<g id="node30" class="node">
<title>Antoine Arnauld</title>
<g id="a_node30"><a xlink:href="https://en.wikipedia.org/wiki/Antoine_Arnauld" xlink:title="Antoine Arnauld">
<ellipse fill="none" stroke="black" cx="1171.29" cy="-18" rx="69.11" ry="18"/>
<text text-anchor="middle" x="1171.29" y="-13.8" font-family="Times,serif" font-size="14.00">Antoine Arnauld</text>
</a>
</g>
</g>
<!-- Descartes&#45;&gt;Antoine Arnauld -->
<g id="edge29" class="edge">
<title>Descartes&#45;&gt;Antoine Arnauld</title>
<path fill="none" stroke="black" d="M1244.89,-73.81C1232.07,-64.26 1215.31,-51.79 1201.03,-41.15"/>
<polygon fill="black" stroke="black" points="1203.06,-38.3 1192.95,-35.13 1198.88,-43.91 1203.06,-38.3"/>
</g>
<!-- Jacques&#45;Bénigne Bossuet -->
<g id="node31" class="node">
<title>Jacques&#45;Bénigne Bossuet</title>
<g id="a_node31"><a xlink:href="https://en.wikipedia.org/wiki/Jacques-B%C3%A9nigne_Bossuet" xlink:title="Jacques&#45;Bénigne Bossuet">
<ellipse fill="none" stroke="black" cx="1359.29" cy="-18" rx="100.49" ry="18"/>
<text text-anchor="middle" x="1359.29" y="-13.8" font-family="Times,serif" font-size="14.00">Jacques&#45;Bénigne Bossuet</text>
</a>
</g>
</g>
<!-- Descartes&#45;&gt;Jacques&#45;Bénigne Bossuet -->
<g id="edge30" class="edge">
<title>Descartes&#45;&gt;Jacques&#45;Bénigne Bossuet</title>
<path fill="none" stroke="black" d="M1285.68,-73.81C1298.2,-64.49 1314.48,-52.37 1328.54,-41.9"/>
<polygon fill="black" stroke="black" points="1331.03,-44.41 1336.96,-35.63 1326.85,-38.79 1331.03,-44.41"/>
</g>
<!-- Blaise Pascal -->
<g id="node32" class="node">
<title>Blaise Pascal</title>
<g id="a_node32"><a xlink:href="https://en.wikipedia.org/wiki/Blaise_Pascal" xlink:title="Blaise Pascal">
<ellipse fill="none" stroke="black" cx="1534.29" cy="-18" rx="57.03" ry="18"/>
<text text-anchor="middle" x="1534.29" y="-13.8" font-family="Times,serif" font-size="14.00">Blaise Pascal</text>
</a>
</g>
</g>
<!-- Descartes&#45;&gt;Blaise Pascal -->
<g id="edge31" class="edge">
<title>Descartes&#45;&gt;Blaise Pascal</title>
<path fill="none" stroke="black" d="M1301.56,-79.56C1347.91,-67.5 1428.47,-46.54 1481.58,-32.71"/>
<polygon fill="black" stroke="black" points="1482.7,-36.04 1491.49,-30.14 1480.94,-29.27 1482.7,-36.04"/>
</g>
<!-- Isaac Newton -->
<g id="node33" class="node">
<title>Isaac Newton</title>
<g id="a_node33"><a xlink:href="https://en.wikipedia.org/wiki/Isaac_Newton" xlink:title="Isaac Newton">
<ellipse fill="none" stroke="black" cx="1667.29" cy="-18" rx="58.46" ry="18"/>
<text text-anchor="middle" x="1667.29" y="-13.8" font-family="Times,serif" font-size="14.00">Isaac Newton</text>
</a>
</g>
</g>
<!-- Descartes&#45;&gt;Isaac Newton -->
<g id="edge32" class="edge">
<title>Descartes&#45;&gt;Isaac Newton</title>
<path fill="none" stroke="black" d="M1307.03,-83.65C1370.62,-75.21 1495.46,-57.54 1600.29,-36 1604.96,-35.04 1609.8,-33.97 1614.64,-32.84"/>
<polygon fill="black" stroke="black" points="1615.62,-36.2 1624.53,-30.47 1613.99,-29.4 1615.62,-36.2"/>
</g>
<!-- Immanuel Kant -->
<g id="node34" class="node">
<title>Immanuel Kant</title>
<g id="a_node34"><a xlink:href="https://en.wikipedia.org/wiki/Immanuel_Kant" xlink:title="Immanuel Kant">
<ellipse fill="none" stroke="black" cx="1809.29" cy="-18" rx="65.22" ry="18"/>
<text text-anchor="middle" x="1809.29" y="-13.8" font-family="Times,serif" font-size="14.00">Immanuel Kant</text>
</a>
</g>
</g>
<!-- Descartes&#45;&gt;Immanuel Kant -->
<g id="edge33" class="edge">
<title>Descartes&#45;&gt;Immanuel Kant</title>
<path fill="none" stroke="black" d="M1308.51,-85.72C1391.46,-79.07 1578.56,-62.37 1734.29,-36 1740.1,-35.01 1746.15,-33.86 1752.17,-32.63"/>
<polygon fill="black" stroke="black" points="1753.18,-36 1762.23,-30.5 1751.73,-29.15 1753.18,-36"/>
</g>
<!-- Edmund Husserl -->
<g id="node35" class="node">
<title>Edmund Husserl</title>
<g id="a_node35"><a xlink:href="https://en.wikipedia.org/wiki/Edmund_Husserl" xlink:title="Edmund Husserl">
<ellipse fill="none" stroke="black" cx="1962.29" cy="-18" rx="69.11" ry="18"/>
<text text-anchor="middle" x="1962.29" y="-13.8" font-family="Times,serif" font-size="14.00">Edmund Husserl</text>
</a>
</g>
</g>
<!-- Descartes&#45;&gt;Edmund Husserl -->
<g id="edge34" class="edge">
<title>Descartes&#45;&gt;Edmund Husserl</title>
<path fill="none" stroke="black" d="M1309.34,-87.14C1410.97,-82.42 1669.49,-68.04 1883.29,-36 1889.57,-35.06 1896.1,-33.92 1902.6,-32.68"/>
<polygon fill="black" stroke="black" points="1903.61,-36.05 1912.73,-30.66 1902.24,-29.18 1903.61,-36.05"/>
</g>
<!-- Noam Chomsky -->
<g id="node36" class="node">
<title>Noam Chomsky</title>
<g id="a_node36"><a xlink:href="https://en.wikipedia.org/wiki/Noam_Chomsky" xlink:title="Noam Chomsky">
<ellipse fill="none" stroke="black" cx="2117.29" cy="-18" rx="67.67" ry="18"/>
<text text-anchor="middle" x="2117.29" y="-13.8" font-family="Times,serif" font-size="14.00">Noam Chomsky</text>
</a>
</g>
</g>
<!-- Descartes&#45;&gt;Noam Chomsky -->
<g id="edge35" class="edge">
<title>Descartes&#45;&gt;Noam Chomsky</title>
<path fill="none" stroke="black" d="M1309.66,-88.28C1428.6,-85.84 1764.29,-75.68 2040.29,-36 2046.42,-35.12 2052.8,-34.02 2059.13,-32.8"/>
<polygon fill="black" stroke="black" points="2059.91,-36.21 2069.02,-30.81 2058.52,-29.35 2059.91,-36.21"/>
</g>
<!-- Aristotle -->
<g id="node3" class="node">
<title>Aristotle</title>
<g id="a_node3"><a xlink:href="https://en.wikipedia.org/wiki/Aristotle" xlink:title="Aristotle">
<ellipse fill="none" stroke="black" cx="115.29" cy="-162" rx="41.11" ry="18"/>
<text text-anchor="middle" x="115.29" y="-157.8" font-family="Times,serif" font-size="14.00">Aristotle</text>
</a>
</g>
</g>
<!-- Aristotle&#45;&gt;Descartes -->
<g id="edge2" class="edge">
<title>Aristotle&#45;&gt;Descartes</title>
<path fill="none" stroke="black" d="M144.8,-149.45C151.44,-147.28 158.53,-145.28 165.29,-144 369.09,-105.24 1017.8,-94.11 1210.68,-91.62"/>
<polygon fill="black" stroke="black" points="1210.91,-95.11 1220.86,-91.49 1210.82,-88.11 1210.91,-95.11"/>
</g>
<!-- Archimedes -->
<g id="node4" class="node">
<title>Archimedes</title>
<g id="a_node4"><a xlink:href="https://en.wikipedia.org/wiki/Archimedes" xlink:title="Archimedes">
<ellipse fill="none" stroke="black" cx="227.29" cy="-162" rx="52.67" ry="18"/>
<text text-anchor="middle" x="227.29" y="-157.8" font-family="Times,serif" font-size="14.00">Archimedes</text>
</a>
</g>
</g>
<!-- Archimedes&#45;&gt;Descartes -->
<g id="edge3" class="edge">
<title>Archimedes&#45;&gt;Descartes</title>
<path fill="none" stroke="black" d="M264.75,-149.18C272.46,-147.14 280.58,-145.27 288.29,-144 468.04,-114.44 1032.37,-97.21 1210.7,-92.4"/>
<polygon fill="black" stroke="black" points="1210.99,-95.89 1220.89,-92.12 1210.8,-88.89 1210.99,-95.89"/>
</g>
<!-- Alhazen -->
<g id="node5" class="node">
<title>Alhazen</title>
<g id="a_node5"><a xlink:href="https://en.wikipedia.org/wiki/Ibn_al-Haytham" xlink:title="Alhazen">
<ellipse fill="none" stroke="black" cx="337.29" cy="-162" rx="39.64" ry="18"/>
<text text-anchor="middle" x="337.29" y="-157.8" font-family="Times,serif" font-size="14.00">Alhazen</text>
</a>
</g>
</g>
<!-- Alhazen&#45;&gt;Descartes -->
<g id="edge4" class="edge">
<title>Alhazen&#45;&gt;Descartes</title>
<path fill="none" stroke="black" d="M366.2,-149.51C372.72,-147.33 379.66,-145.32 386.29,-144 545.27,-112.25 1044.16,-96.73 1210.62,-92.34"/>
<polygon fill="black" stroke="black" points="1211.19,-95.83 1221.09,-92.07 1211,-88.83 1211.19,-95.83"/>
</g>
<!-- Al&#45;Ghazali -->
<g id="node6" class="node">
<title>Al&#45;Ghazali</title>
<g id="a_node6"><a xlink:href="https://en.wikipedia.org/wiki/Al-Ghazali" xlink:title="Al&#45;Ghazali">
<ellipse fill="none" stroke="black" cx="444.29" cy="-162" rx="49.29" ry="18"/>
<text text-anchor="middle" x="444.29" y="-157.8" font-family="Times,serif" font-size="14.00">Al&#45;Ghazali</text>
</a>
</g>
</g>
<!-- Al&#45;Ghazali&#45;&gt;Descartes -->
<g id="edge5" class="edge">
<title>Al&#45;Ghazali&#45;&gt;Descartes</title>
<path fill="none" stroke="black" d="M479.58,-149.34C487.01,-147.26 494.85,-145.33 502.29,-144 764.49,-97.04 1084.3,-91.13 1210.41,-90.77"/>
<polygon fill="black" stroke="black" points="1210.59,-94.27 1220.58,-90.76 1210.58,-87.27 1210.59,-94.27"/>
</g>
<!-- Averroes -->
<g id="node7" class="node">
<title>Averroes</title>
<g id="a_node7"><a xlink:href="https://en.wikipedia.org/wiki/Averroes" xlink:title="Averroes">
<ellipse fill="none" stroke="black" cx="553.29" cy="-162" rx="41.73" ry="18"/>
<text text-anchor="middle" x="553.29" y="-157.8" font-family="Times,serif" font-size="14.00">Averroes</text>
</a>
</g>
</g>
<!-- Averroes&#45;&gt;Descartes -->
<g id="edge6" class="edge">
<title>Averroes&#45;&gt;Descartes</title>
<path fill="none" stroke="black" d="M583.7,-149.53C590.4,-147.38 597.52,-145.38 604.29,-144 825.81,-98.89 1096.42,-91.8 1210.46,-90.94"/>
<polygon fill="black" stroke="black" points="1210.7,-94.44 1220.68,-90.88 1210.66,-87.44 1210.7,-94.44"/>
</g>
<!-- Avicenna -->
<g id="node8" class="node">
<title>Avicenna</title>
<g id="a_node8"><a xlink:href="https://en.wikipedia.org/wiki/Avicenna" xlink:title="Avicenna">
<ellipse fill="none" stroke="black" cx="656.29" cy="-162" rx="43.18" ry="18"/>
<text text-anchor="middle" x="656.29" y="-157.8" font-family="Times,serif" font-size="14.00">Avicenna</text>
</a>
</g>
</g>
<!-- Avicenna&#45;&gt;Descartes -->
<g id="edge7" class="edge">
<title>Avicenna&#45;&gt;Descartes</title>
<path fill="none" stroke="black" d="M687.61,-149.53C694.35,-147.4 701.5,-145.41 708.29,-144 889.68,-106.2 1110,-95.31 1210.53,-92.21"/>
<polygon fill="black" stroke="black" points="1210.85,-95.7 1220.74,-91.91 1210.64,-88.7 1210.85,-95.7"/>
</g>
<!-- Anselm -->
<g id="node9" class="node">
<title>Anselm</title>
<g id="a_node9"><a xlink:href="https://en.wikipedia.org/wiki/Anselm_of_Canterbury" xlink:title="Anselm">
<ellipse fill="none" stroke="black" cx="755.29" cy="-162" rx="37.74" ry="18"/>
<text text-anchor="middle" x="755.29" y="-157.8" font-family="Times,serif" font-size="14.00">Anselm</text>
</a>
</g>
</g>
<!-- Anselm&#45;&gt;Descartes -->
<g id="edge8" class="edge">
<title>Anselm&#45;&gt;Descartes</title>
<path fill="none" stroke="black" d="M782.68,-149.65C788.73,-147.5 795.16,-145.46 801.29,-144 946.81,-109.33 1123.58,-97.11 1210.97,-92.98"/>
<polygon fill="black" stroke="black" points="1211.35,-96.47 1221.18,-92.52 1211.03,-89.47 1211.35,-96.47"/>
</g>
<!-- Elisabeth of the Palatinate -->
<g id="node10" class="node">
<title>Elisabeth of the Palatinate</title>
<g id="a_node10"><a xlink:href="https://en.wikipedia.org/wiki/Elisabeth_of_the_Palatinate" xlink:title="Elisabeth of the Palatinate">
<ellipse fill="none" stroke="black" cx="913.29" cy="-162" rx="102.87" ry="18"/>
<text text-anchor="middle" x="913.29" y="-157.8" font-family="Times,serif" font-size="14.00">Elisabeth of the Palatinate</text>
</a>
</g>
</g>
<!-- Elisabeth of the Palatinate&#45;&gt;Descartes -->
<g id="edge9" class="edge">
<title>Elisabeth of the Palatinate&#45;&gt;Descartes</title>
<path fill="none" stroke="black" d="M978.67,-148C1047.41,-134.33 1154.02,-113.13 1216,-100.8"/>
<polygon fill="black" stroke="black" points="1216.79,-104.21 1225.92,-98.83 1215.43,-97.35 1216.79,-104.21"/>
</g>
<!-- Augustine -->
<g id="node11" class="node">
<title>Augustine</title>
<g id="a_node11"><a xlink:href="https://en.wikipedia.org/wiki/Augustine_of_Hippo" xlink:title="Augustine">
<ellipse fill="none" stroke="black" cx="1080.29" cy="-162" rx="46.42" ry="18"/>
<text text-anchor="middle" x="1080.29" y="-157.8" font-family="Times,serif" font-size="14.00">Augustine</text>
</a>
</g>
</g>
<!-- Augustine&#45;&gt;Descartes -->
<g id="edge10" class="edge">
<title>Augustine&#45;&gt;Descartes</title>
<path fill="none" stroke="black" d="M1112.51,-148.81C1143.6,-137.04 1190.79,-119.19 1224.49,-106.44"/>
<polygon fill="black" stroke="black" points="1225.93,-109.63 1234.05,-102.82 1223.46,-103.09 1225.93,-109.63"/>
</g>
<!-- Stoics -->
<g id="node12" class="node">
<title>Stoics</title>
<g id="a_node12"><a xlink:href="https://en.wikipedia.org/wiki/Stoics" xlink:title="Stoics">
<ellipse fill="none" stroke="black" cx="1176.29" cy="-162" rx="31.96" ry="18"/>
<text text-anchor="middle" x="1176.29" y="-157.8" font-family="Times,serif" font-size="14.00">Stoics</text>
</a>
</g>
</g>
<!-- Stoics&#45;&gt;Descartes -->
<g id="edge11" class="edge">
<title>Stoics&#45;&gt;Descartes</title>
<path fill="none" stroke="black" d="M1194.3,-146.83C1206.78,-137.02 1223.64,-123.76 1237.79,-112.63"/>
<polygon fill="black" stroke="black" points="1240.06,-115.29 1245.76,-106.36 1235.73,-109.79 1240.06,-115.29"/>
</g>
<!-- Aquinas -->
<g id="node13" class="node">
<title>Aquinas</title>
<g id="a_node13"><a xlink:href="https://en.wikipedia.org/wiki/Thomas_Aquinas" xlink:title="Aquinas">
<ellipse fill="none" stroke="black" cx="1265.29" cy="-162" rx="39.66" ry="18"/>
<text text-anchor="middle" x="1265.29" y="-157.8" font-family="Times,serif" font-size="14.00">Aquinas</text>
</a>
</g>
</g>
<!-- Aquinas&#45;&gt;Descartes -->
<g id="edge12" class="edge">
<title>Aquinas&#45;&gt;Descartes</title>
<path fill="none" stroke="black" d="M1265.29,-143.7C1265.29,-135.98 1265.29,-126.71 1265.29,-118.11"/>
<polygon fill="black" stroke="black" points="1268.79,-118.1 1265.29,-108.1 1261.79,-118.1 1268.79,-118.1"/>
</g>
<!-- Ockham -->
<g id="node14" class="node">
<title>Ockham</title>
<g id="a_node14"><a xlink:href="https://en.wikipedia.org/wiki/William_of_Ockham" xlink:title="Ockham">
<ellipse fill="none" stroke="black" cx="1363.29" cy="-162" rx="40.13" ry="18"/>
<text text-anchor="middle" x="1363.29" y="-157.8" font-family="Times,serif" font-size="14.00">Ockham</text>
</a>
</g>
</g>
<!-- Ockham&#45;&gt;Descartes -->
<g id="edge13" class="edge">
<title>Ockham&#45;&gt;Descartes</title>
<path fill="none" stroke="black" d="M1342.5,-146.15C1328.57,-136.2 1310.01,-122.94 1294.58,-111.92"/>
<polygon fill="black" stroke="black" points="1296.55,-109.03 1286.38,-106.07 1292.48,-114.73 1296.55,-109.03"/>
</g>
<!-- Suárez -->
<g id="node15" class="node">
<title>Suárez</title>
<g id="a_node15"><a xlink:href="https://en.wikipedia.org/wiki/Francisco_Su%C3%A1rez" xlink:title="Suárez">
<ellipse fill="none" stroke="black" cx="1455.29" cy="-162" rx="34.34" ry="18"/>
<text text-anchor="middle" x="1455.29" y="-157.8" font-family="Times,serif" font-size="14.00">Suárez</text>
</a>
</g>
</g>
<!-- Suárez&#45;&gt;Descartes -->
<g id="edge14" class="edge">
<title>Suárez&#45;&gt;Descartes</title>
<path fill="none" stroke="black" d="M1428.96,-150.44C1423.46,-148.28 1417.69,-146.04 1412.29,-144 1377.06,-130.69 1336.82,-116.23 1307.35,-105.78"/>
<polygon fill="black" stroke="black" points="1308.39,-102.44 1297.8,-102.4 1306.06,-109.04 1308.39,-102.44"/>
</g>
<!-- Mersenne -->
<g id="node16" class="node">
<title>Mersenne</title>
<g id="a_node16"><a xlink:href="https://en.wikipedia.org/wiki/Marin_Mersenne" xlink:title="Mersenne">
<ellipse fill="none" stroke="black" cx="1552.29" cy="-162" rx="44.95" ry="18"/>
<text text-anchor="middle" x="1552.29" y="-157.8" font-family="Times,serif" font-size="14.00">Mersenne</text>
</a>
</g>
</g>
<!-- Mersenne&#45;&gt;Descartes -->
<g id="edge15" class="edge">
<title>Mersenne&#45;&gt;Descartes</title>
<path fill="none" stroke="black" d="M1518.71,-149.96C1511.97,-147.88 1504.93,-145.8 1498.29,-144 1435.24,-126.94 1361.61,-110.81 1314.26,-100.93"/>
<polygon fill="black" stroke="black" points="1314.78,-97.46 1304.28,-98.86 1313.36,-104.32 1314.78,-97.46"/>
</g>
<!-- Sextus Empiricus -->
<g id="node17" class="node">
<title>Sextus Empiricus</title>
<g id="a_node17"><a xlink:href="https://en.wikipedia.org/wiki/Sextus_Empiricus" xlink:title="Sextus Empiricus">
<ellipse fill="none" stroke="black" cx="1687.29" cy="-162" rx="72.01" ry="18"/>
<text text-anchor="middle" x="1687.29" y="-157.8" font-family="Times,serif" font-size="14.00">Sextus Empiricus</text>
</a>
</g>
</g>
<!-- Sextus Empiricus&#45;&gt;Descartes -->
<g id="edge16" class="edge">
<title>Sextus Empiricus&#45;&gt;Descartes</title>
<path fill="none" stroke="black" d="M1634.64,-149.53C1625.22,-147.6 1615.47,-145.68 1606.29,-144 1504.05,-125.34 1383.79,-107.63 1316.88,-98.16"/>
<polygon fill="black" stroke="black" points="1317,-94.64 1306.61,-96.71 1316.02,-101.57 1317,-94.64"/>
</g>
<!-- Montaigne -->
<g id="node18" class="node">
<title>Montaigne</title>
<g id="a_node18"><a xlink:href="https://en.wikipedia.org/wiki/Michel_de_Montaigne" xlink:title="Montaigne">
<ellipse fill="none" stroke="black" cx="1826.29" cy="-162" rx="48.34" ry="18"/>
<text text-anchor="middle" x="1826.29" y="-157.8" font-family="Times,serif" font-size="14.00">Montaigne</text>
</a>
</g>
</g>
<!-- Montaigne&#45;&gt;Descartes -->
<g id="edge17" class="edge">
<title>Montaigne&#45;&gt;Descartes</title>
<path fill="none" stroke="black" d="M1790.96,-149.55C1783.53,-147.45 1775.7,-145.46 1768.29,-144 1606.95,-112.13 1412.47,-98.52 1319.68,-93.52"/>
<polygon fill="black" stroke="black" points="1319.59,-90.01 1309.42,-92.98 1319.22,-97 1319.59,-90.01"/>
</g>
<!-- Jacobus Golius -->
<g id="node19" class="node">
<title>Jacobus Golius</title>
<g id="a_node19"><a xlink:href="https://en.wikipedia.org/wiki/Jacobus_Golius" xlink:title="Jacobus Golius">
<ellipse fill="none" stroke="black" cx="1956.29" cy="-162" rx="63.8" ry="18"/>
<text text-anchor="middle" x="1956.29" y="-157.8" font-family="Times,serif" font-size="14.00">Jacobus Golius</text>
</a>
</g>
</g>
<!-- Jacobus Golius&#45;&gt;Descartes -->
<g id="edge18" class="edge">
<title>Jacobus Golius&#45;&gt;Descartes</title>
<path fill="none" stroke="black" d="M1910.53,-149.29C1901.54,-147.29 1892.15,-145.41 1883.29,-144 1676.65,-111.25 1427.72,-97.68 1319.7,-93.05"/>
<polygon fill="black" stroke="black" points="1319.52,-89.54 1309.38,-92.61 1319.23,-96.53 1319.52,-89.54"/>
</g>
<!-- Beeckman -->
<g id="node20" class="node">
<title>Beeckman</title>
<g id="a_node20"><a xlink:href="https://en.wikipedia.org/wiki/Isaac_Beeckman" xlink:title="Beeckman">
<ellipse fill="none" stroke="black" cx="2085.29" cy="-162" rx="47.36" ry="18"/>
<text text-anchor="middle" x="2085.29" y="-157.8" font-family="Times,serif" font-size="14.00">Beeckman</text>
</a>
</g>
</g>
<!-- Beeckman&#45;&gt;Descartes -->
<g id="edge19" class="edge">
<title>Beeckman&#45;&gt;Descartes</title>
<path fill="none" stroke="black" d="M2051.23,-149.33C2044.06,-147.25 2036.48,-145.32 2029.29,-144 1766.96,-95.72 1446.61,-90.56 1320.27,-90.59"/>
<polygon fill="black" stroke="black" points="1320.07,-87.09 1310.08,-90.6 1320.08,-94.09 1320.07,-87.09"/>
</g>
<!-- Harvey -->
<g id="node21" class="node">
<title>Harvey</title>
<g id="a_node21"><a xlink:href="https://en.wikipedia.org/wiki/William_Harvey" xlink:title="Harvey">
<ellipse fill="none" stroke="black" cx="2187.29" cy="-162" rx="36.26" ry="18"/>
<text text-anchor="middle" x="2187.29" y="-157.8" font-family="Times,serif" font-size="14.00">Harvey</text>
</a>
</g>
</g>
<!-- Harvey&#45;&gt;Descartes -->
<g id="edge20" class="edge">
<title>Harvey&#45;&gt;Descartes</title>
<path fill="none" stroke="black" d="M2160.43,-149.58C2154.24,-147.37 2147.62,-145.33 2141.29,-144 1983.26,-110.78 1486.34,-96.24 1320.09,-92.22"/>
<polygon fill="black" stroke="black" points="1319.7,-88.71 1309.62,-91.97 1319.53,-95.7 1319.7,-88.71"/>
</g>
<!-- Viète -->
<g id="node22" class="node">
<title>Viète</title>
<g id="a_node22"><a xlink:href="https://en.wikipedia.org/wiki/Fran%C3%A7ois_Vi%C3%A8te" xlink:title="Viète">
<ellipse fill="none" stroke="black" cx="2270.29" cy="-162" rx="28.96" ry="18"/>
<text text-anchor="middle" x="2270.29" y="-157.8" font-family="Times,serif" font-size="14.00">Viète</text>
</a>
</g>
</g>
<!-- Viète&#45;&gt;Descartes -->
<g id="edge21" class="edge">
<title>Viète&#45;&gt;Descartes</title>
<path fill="none" stroke="black" d="M2248.67,-149.7C2243.43,-147.42 2237.76,-145.33 2232.29,-144 2057.15,-101.57 1497.33,-93.04 1319.83,-91.38"/>
<polygon fill="black" stroke="black" points="1319.71,-87.88 1309.68,-91.29 1319.65,-94.88 1319.71,-87.88"/>
</g>
<!-- Duns Scotus -->
<g id="node23" class="node">
<title>Duns Scotus</title>
<g id="a_node23"><a xlink:href="https://en.wikipedia.org/wiki/Duns_Scotus" xlink:title="Duns Scotus">
<ellipse fill="none" stroke="black" cx="2371.29" cy="-162" rx="54.65" ry="18"/>
<text text-anchor="middle" x="2371.29" y="-157.8" font-family="Times,serif" font-size="14.00">Duns Scotus</text>
</a>
</g>
</g>
<!-- Duns Scotus&#45;&gt;Descartes -->
<g id="edge22" class="edge">
<title>Duns Scotus&#45;&gt;Descartes</title>
<path fill="none" stroke="black" d="M2332.58,-149.17C2324.61,-147.13 2316.23,-145.26 2308.29,-144 2114.96,-113.36 1505.78,-96.7 1319.77,-92.24"/>
<polygon fill="black" stroke="black" points="1319.76,-88.74 1309.68,-92 1319.59,-95.73 1319.76,-88.74"/>
</g>
<!-- Teresa of Ávila -->
<g id="node24" class="node">
<title>Teresa of Ávila</title>
<g id="a_node24"><a xlink:href="https://en.wikipedia.org/wiki/Teresa_of_%C3%81vila" xlink:title="Teresa of Ávila">
<ellipse fill="none" stroke="black" cx="2508.29" cy="-162" rx="64.48" ry="18"/>
<text text-anchor="middle" x="2508.29" y="-157.8" font-family="Times,serif" font-size="14.00">Teresa of Ávila</text>
</a>
</g>
</g>
<!-- Teresa of Ávila&#45;&gt;Descartes -->
<g id="edge23" class="edge">
<title>Teresa of Ávila&#45;&gt;Descartes</title>
<path fill="none" stroke="black" d="M2462.97,-149.09C2453.86,-147.08 2444.31,-145.24 2435.29,-144 2215.51,-113.69 1520.27,-96.54 1319.85,-92.14"/>
<polygon fill="black" stroke="black" points="1319.65,-88.64 1309.57,-91.92 1319.49,-95.64 1319.65,-88.64"/>
</g>
</g>
</svg>
