<?xml version="1.0" encoding="UTF-8" standalone="no"?>
<!DOCTYPE svg PUBLIC "-//W3C//DTD SVG 1.1//EN"
 "http://www.w3.org/Graphics/SVG/1.1/DTD/svg11.dtd">
<!-- Generated by graphviz version 2.42.3 (20191010.1750)
 -->
<!-- Title: G Pages: 1 -->
<svg width="615pt" height="638pt"
 viewBox="0.00 0.00 614.87 638.00" xmlns="http://www.w3.org/2000/svg" xmlns:xlink="http://www.w3.org/1999/xlink">
<g id="graph0" class="graph" transform="scale(1 1) rotate(0) translate(4 634)">
<title>G</title>
<polygon fill="white" stroke="transparent" points="-4,4 -4,-634 610.87,-634 610.87,4 -4,4"/>
<!-- Aristotle -->
<g id="node1" class="node">
<title>Aristotle</title>
<g id="a_node1"><a xlink:href="https://en.wikipedia.org/wiki/Aristotle" xlink:title="Aristotle">
<ellipse fill="none" stroke="black" cx="92.38" cy="-612" rx="41.11" ry="18"/>
<text text-anchor="middle" x="92.38" y="-607.8" font-family="Times,serif" font-size="14.00">Aristotle</text>
</a>
</g>
</g>
<!-- Denis Diderot -->
<g id="node2" class="node">
<title>Denis Diderot</title>
<ellipse fill="none" stroke="black" cx="280.71" cy="-315" rx="59.93" ry="18"/>
<text text-anchor="middle" x="280.71" y="-310.8" font-family="Times,serif" font-size="14.00">Denis Diderot</text>
</g>
<!-- Aristotle&#45;&gt;Denis Diderot -->
<g id="edge1" class="edge">
<title>Aristotle&#45;&gt;Denis Diderot</title>
<path fill="none" stroke="black" d="M132.99,-608.47C150.78,-605 170.84,-598.22 184.75,-585 254.65,-518.57 273.14,-397.7 278,-343.1"/>
<polygon fill="black" stroke="black" points="281.49,-343.35 278.8,-333.1 274.52,-342.79 281.49,-343.35"/>
</g>
<!-- François&#45;Noël Babeuf -->
<g id="node14" class="node">
<title>François&#45;Noël Babeuf</title>
<g id="a_node14"><a xlink:href="https://en.wikipedia.org/wiki/Fran%C3%A7ois-No%C3%ABl_Babeuf" xlink:title="François&#45;Noël Babeuf">
<ellipse fill="none" stroke="black" cx="491.77" cy="-531" rx="88.39" ry="18"/>
<text text-anchor="middle" x="491.77" y="-526.8" font-family="Times,serif" font-size="14.00">François&#45;Noël Babeuf</text>
</a>
</g>
</g>
<!-- Denis Diderot&#45;&gt;François&#45;Noël Babeuf -->
<g id="edge13" class="edge">
<title>Denis Diderot&#45;&gt;François&#45;Noël Babeuf</title>
<path fill="none" stroke="black" d="M285.41,-333.05C294.15,-370.96 319.78,-459.03 376.68,-504 384.79,-510.41 394.17,-515.34 404,-519.12"/>
<polygon fill="black" stroke="black" points="402.93,-522.46 413.53,-522.41 405.22,-515.84 402.93,-522.46"/>
</g>
<!-- Étienne Bonnot de Condillac -->
<g id="node15" class="node">
<title>Étienne Bonnot de Condillac</title>
<g id="a_node15"><a xlink:href="https://en.wikipedia.org/wiki/%C3%89tienne_Bonnot_de_Condillac" xlink:title="Étienne Bonnot de Condillac">
<ellipse fill="none" stroke="black" cx="491.77" cy="-477" rx="112.55" ry="18"/>
<text text-anchor="middle" x="491.77" y="-472.8" font-family="Times,serif" font-size="14.00">Étienne Bonnot de Condillac</text>
</a>
</g>
</g>
<!-- Denis Diderot&#45;&gt;Étienne Bonnot de Condillac -->
<g id="edge14" class="edge">
<title>Denis Diderot&#45;&gt;Étienne Bonnot de Condillac</title>
<path fill="none" stroke="black" d="M289.23,-333.06C302.41,-362.4 332.54,-420.12 376.68,-450 383.33,-454.5 390.64,-458.26 398.25,-461.39"/>
<polygon fill="black" stroke="black" points="397.06,-464.68 407.66,-464.91 399.52,-458.13 397.06,-464.68"/>
</g>
<!-- Baron d&#39;Holbach -->
<g id="node16" class="node">
<title>Baron d&#39;Holbach</title>
<g id="a_node16"><a xlink:href="https://en.wikipedia.org/wiki/Baron_d%27Holbach" xlink:title="Baron d&#39;Holbach">
<ellipse fill="none" stroke="black" cx="491.77" cy="-423" rx="69.81" ry="18"/>
<text text-anchor="middle" x="491.77" y="-418.8" font-family="Times,serif" font-size="14.00">Baron d&#39;Holbach</text>
</a>
</g>
</g>
<!-- Denis Diderot&#45;&gt;Baron d&#39;Holbach -->
<g id="edge15" class="edge">
<title>Denis Diderot&#45;&gt;Baron d&#39;Holbach</title>
<path fill="none" stroke="black" d="M297.41,-332.64C314.92,-351.21 344.98,-379.93 376.68,-396 390.23,-402.87 405.58,-408.03 420.53,-411.89"/>
<polygon fill="black" stroke="black" points="419.73,-415.3 430.27,-414.25 421.37,-408.5 419.73,-415.3"/>
</g>
<!-- Johann Wolfgang von Goethe -->
<g id="node17" class="node">
<title>Johann Wolfgang von Goethe</title>
<g id="a_node17"><a xlink:href="https://en.wikipedia.org/wiki/Johann_Wolfgang_von_Goethe" xlink:title="Johann Wolfgang von Goethe">
<ellipse fill="none" stroke="black" cx="491.77" cy="-369" rx="115.19" ry="18"/>
<text text-anchor="middle" x="491.77" y="-364.8" font-family="Times,serif" font-size="14.00">Johann Wolfgang von Goethe</text>
</a>
</g>
</g>
<!-- Denis Diderot&#45;&gt;Johann Wolfgang von Goethe -->
<g id="edge16" class="edge">
<title>Denis Diderot&#45;&gt;Johann Wolfgang von Goethe</title>
<path fill="none" stroke="black" d="M324.15,-327.5C340.52,-332.21 359.43,-337.51 376.68,-342 389.31,-345.29 402.78,-348.63 415.87,-351.78"/>
<polygon fill="black" stroke="black" points="415.25,-355.23 425.79,-354.15 416.88,-348.42 415.25,-355.23"/>
</g>
<!-- Auguste Comte -->
<g id="node18" class="node">
<title>Auguste Comte</title>
<g id="a_node18"><a xlink:href="https://en.wikipedia.org/wiki/Auguste_Comte" xlink:title="Auguste Comte">
<ellipse fill="none" stroke="black" cx="491.77" cy="-315" rx="65.25" ry="18"/>
<text text-anchor="middle" x="491.77" y="-310.8" font-family="Times,serif" font-size="14.00">Auguste Comte</text>
</a>
</g>
</g>
<!-- Denis Diderot&#45;&gt;Auguste Comte -->
<g id="edge17" class="edge">
<title>Denis Diderot&#45;&gt;Auguste Comte</title>
<path fill="none" stroke="black" d="M340.78,-315C364.24,-315 391.48,-315 416.27,-315"/>
<polygon fill="black" stroke="black" points="416.36,-318.5 426.36,-315 416.36,-311.5 416.36,-318.5"/>
</g>
<!-- Milan Kundera -->
<g id="node19" class="node">
<title>Milan Kundera</title>
<g id="a_node19"><a xlink:href="https://en.wikipedia.org/wiki/Milan_Kundera" xlink:title="Milan Kundera">
<ellipse fill="none" stroke="black" cx="491.77" cy="-261" rx="63.78" ry="18"/>
<text text-anchor="middle" x="491.77" y="-256.8" font-family="Times,serif" font-size="14.00">Milan Kundera</text>
</a>
</g>
</g>
<!-- Denis Diderot&#45;&gt;Milan Kundera -->
<g id="edge18" class="edge">
<title>Denis Diderot&#45;&gt;Milan Kundera</title>
<path fill="none" stroke="black" d="M324.15,-302.5C340.52,-297.79 359.43,-292.49 376.68,-288 394.38,-283.39 413.71,-278.69 431.35,-274.53"/>
<polygon fill="black" stroke="black" points="432.58,-277.84 441.52,-272.15 430.98,-271.02 432.58,-277.84"/>
</g>
<!-- Günter Grass -->
<g id="node20" class="node">
<title>Günter Grass</title>
<g id="a_node20"><a xlink:href="https://en.wikipedia.org/wiki/G%C3%BCnter_Grass" xlink:title="Günter Grass">
<ellipse fill="none" stroke="black" cx="491.77" cy="-207" rx="57.03" ry="18"/>
<text text-anchor="middle" x="491.77" y="-202.8" font-family="Times,serif" font-size="14.00">Günter Grass</text>
</a>
</g>
</g>
<!-- Denis Diderot&#45;&gt;Günter Grass -->
<g id="edge19" class="edge">
<title>Denis Diderot&#45;&gt;Günter Grass</title>
<path fill="none" stroke="black" d="M297.41,-297.36C314.92,-278.79 344.98,-250.07 376.68,-234 392.76,-225.84 411.38,-220.1 428.86,-216.07"/>
<polygon fill="black" stroke="black" points="429.94,-219.42 438.98,-213.9 428.47,-212.58 429.94,-219.42"/>
</g>
<!-- Jacques Barzun -->
<g id="node21" class="node">
<title>Jacques Barzun</title>
<g id="a_node21"><a xlink:href="https://en.wikipedia.org/wiki/Jacques_Barzun" xlink:title="Jacques Barzun">
<ellipse fill="none" stroke="black" cx="491.77" cy="-153" rx="65.21" ry="18"/>
<text text-anchor="middle" x="491.77" y="-148.8" font-family="Times,serif" font-size="14.00">Jacques Barzun</text>
</a>
</g>
</g>
<!-- Denis Diderot&#45;&gt;Jacques Barzun -->
<g id="edge20" class="edge">
<title>Denis Diderot&#45;&gt;Jacques Barzun</title>
<path fill="none" stroke="black" d="M289.23,-296.94C302.41,-267.6 332.54,-209.88 376.68,-180 389.54,-171.29 404.87,-165.38 420.05,-161.37"/>
<polygon fill="black" stroke="black" points="421.06,-164.72 429.98,-158.99 419.44,-157.91 421.06,-164.72"/>
</g>
<!-- Karl Marx -->
<g id="node22" class="node">
<title>Karl Marx</title>
<g id="a_node22"><a xlink:href="https://en.wikipedia.org/wiki/Karl_Marx" xlink:title="Karl Marx">
<ellipse fill="none" stroke="black" cx="491.77" cy="-99" rx="47.37" ry="18"/>
<text text-anchor="middle" x="491.77" y="-94.8" font-family="Times,serif" font-size="14.00">Karl Marx</text>
</a>
</g>
</g>
<!-- Denis Diderot&#45;&gt;Karl Marx -->
<g id="edge21" class="edge">
<title>Denis Diderot&#45;&gt;Karl Marx</title>
<path fill="none" stroke="black" d="M285.41,-296.95C294.15,-259.04 319.78,-170.97 376.68,-126 393.07,-113.04 414.67,-106.14 434.65,-102.51"/>
<polygon fill="black" stroke="black" points="435.28,-105.96 444.61,-100.94 434.19,-99.04 435.28,-105.96"/>
</g>
<!-- Baruch Spinoza -->
<g id="node3" class="node">
<title>Baruch Spinoza</title>
<g id="a_node3"><a xlink:href="https://en.wikipedia.org/wiki/Baruch_Spinoza" xlink:title="Baruch Spinoza">
<ellipse fill="none" stroke="black" cx="92.38" cy="-558" rx="66.19" ry="18"/>
<text text-anchor="middle" x="92.38" y="-553.8" font-family="Times,serif" font-size="14.00">Baruch Spinoza</text>
</a>
</g>
</g>
<!-- Baruch Spinoza&#45;&gt;Denis Diderot -->
<g id="edge2" class="edge">
<title>Baruch Spinoza&#45;&gt;Denis Diderot</title>
<path fill="none" stroke="black" d="M150.9,-549.2C163.12,-545.21 175.19,-539.42 184.75,-531 242.08,-480.52 266.28,-388.97 275.19,-342.97"/>
<polygon fill="black" stroke="black" points="278.64,-343.56 277,-333.09 271.76,-342.3 278.64,-343.56"/>
</g>
<!-- John Locke -->
<g id="node4" class="node">
<title>John Locke</title>
<g id="a_node4"><a xlink:href="https://en.wikipedia.org/wiki/John_Locke" xlink:title="John Locke">
<ellipse fill="none" stroke="black" cx="92.38" cy="-504" rx="51.24" ry="18"/>
<text text-anchor="middle" x="92.38" y="-499.8" font-family="Times,serif" font-size="14.00">John Locke</text>
</a>
</g>
</g>
<!-- John Locke&#45;&gt;Denis Diderot -->
<g id="edge3" class="edge">
<title>John Locke&#45;&gt;Denis Diderot</title>
<path fill="none" stroke="black" d="M140.24,-497.26C155.6,-493.29 171.98,-486.99 184.75,-477 229.81,-441.74 257.72,-378.69 270.82,-342.52"/>
<polygon fill="black" stroke="black" points="274.12,-343.68 274.12,-333.08 267.51,-341.36 274.12,-343.68"/>
</g>
<!-- Voltaire -->
<g id="node5" class="node">
<title>Voltaire</title>
<g id="a_node5"><a xlink:href="https://en.wikipedia.org/wiki/Voltaire" xlink:title="Voltaire">
<ellipse fill="none" stroke="black" cx="92.38" cy="-450" rx="37.88" ry="18"/>
<text text-anchor="middle" x="92.38" y="-445.8" font-family="Times,serif" font-size="14.00">Voltaire</text>
</a>
</g>
</g>
<!-- Voltaire&#45;&gt;Denis Diderot -->
<g id="edge4" class="edge">
<title>Voltaire&#45;&gt;Denis Diderot</title>
<path fill="none" stroke="black" d="M128.73,-444.38C146.55,-440.4 167.88,-433.77 184.75,-423 217.92,-401.81 246.25,-365.77 263.12,-341.2"/>
<polygon fill="black" stroke="black" points="266.15,-342.97 268.81,-332.71 260.33,-339.07 266.15,-342.97"/>
</g>
<!-- Jean&#45;Jacques Rousseau -->
<g id="node6" class="node">
<title>Jean&#45;Jacques Rousseau</title>
<g id="a_node6"><a xlink:href="https://en.wikipedia.org/wiki/Jean-Jacques_Rousseau" xlink:title="Jean&#45;Jacques Rousseau">
<ellipse fill="none" stroke="black" cx="92.38" cy="-396" rx="92.25" ry="18"/>
<text text-anchor="middle" x="92.38" y="-391.8" font-family="Times,serif" font-size="14.00">Jean&#45;Jacques Rousseau</text>
</a>
</g>
</g>
<!-- Jean&#45;Jacques Rousseau&#45;&gt;Denis Diderot -->
<g id="edge5" class="edge">
<title>Jean&#45;Jacques Rousseau&#45;&gt;Denis Diderot</title>
<path fill="none" stroke="black" d="M149.18,-381.73C161.1,-378.07 173.49,-373.79 184.75,-369 205.85,-360.02 228.21,-347.48 245.92,-336.74"/>
<polygon fill="black" stroke="black" points="248.05,-339.54 254.73,-331.32 244.38,-333.58 248.05,-339.54"/>
</g>
<!-- Miguel de Cervantes -->
<g id="node7" class="node">
<title>Miguel de Cervantes</title>
<g id="a_node7"><a xlink:href="https://en.wikipedia.org/wiki/Miguel_de_Cervantes" xlink:title="Miguel de Cervantes">
<ellipse fill="none" stroke="black" cx="92.38" cy="-342" rx="83.57" ry="18"/>
<text text-anchor="middle" x="92.38" y="-337.8" font-family="Times,serif" font-size="14.00">Miguel de Cervantes</text>
</a>
</g>
</g>
<!-- Miguel de Cervantes&#45;&gt;Denis Diderot -->
<g id="edge6" class="edge">
<title>Miguel de Cervantes&#45;&gt;Denis Diderot</title>
<path fill="none" stroke="black" d="M162.23,-332.02C179.91,-329.46 198.85,-326.72 216.24,-324.2"/>
<polygon fill="black" stroke="black" points="216.89,-327.64 226.28,-322.74 215.88,-320.71 216.89,-327.64"/>
</g>
<!-- Laurence Sterne -->
<g id="node8" class="node">
<title>Laurence Sterne</title>
<g id="a_node8"><a xlink:href="https://en.wikipedia.org/wiki/Laurence_Sterne" xlink:title="Laurence Sterne">
<ellipse fill="none" stroke="black" cx="92.38" cy="-288" rx="67.6" ry="18"/>
<text text-anchor="middle" x="92.38" y="-283.8" font-family="Times,serif" font-size="14.00">Laurence Sterne</text>
</a>
</g>
</g>
<!-- Laurence Sterne&#45;&gt;Denis Diderot -->
<g id="edge7" class="edge">
<title>Laurence Sterne&#45;&gt;Denis Diderot</title>
<path fill="none" stroke="black" d="M152.33,-296.54C172.77,-299.5 195.75,-302.83 216.51,-305.84"/>
<polygon fill="black" stroke="black" points="216.11,-309.32 226.5,-307.29 217.11,-302.39 216.11,-309.32"/>
</g>
<!-- Niccolò Machiavelli -->
<g id="node9" class="node">
<title>Niccolò Machiavelli</title>
<g id="a_node9"><a xlink:href="https://en.wikipedia.org/wiki/Niccol%C3%B2_Machiavelli" xlink:title="Niccolò Machiavelli">
<ellipse fill="none" stroke="black" cx="92.38" cy="-234" rx="82.59" ry="18"/>
<text text-anchor="middle" x="92.38" y="-229.8" font-family="Times,serif" font-size="14.00">Niccolò Machiavelli</text>
</a>
</g>
</g>
<!-- Niccolò Machiavelli&#45;&gt;Denis Diderot -->
<g id="edge8" class="edge">
<title>Niccolò Machiavelli&#45;&gt;Denis Diderot</title>
<path fill="none" stroke="black" d="M147.25,-247.68C159.76,-251.47 172.88,-255.95 184.75,-261 205.85,-269.98 228.21,-282.52 245.92,-293.26"/>
<polygon fill="black" stroke="black" points="244.38,-296.42 254.73,-298.68 248.05,-290.46 244.38,-296.42"/>
</g>
<!-- Samuel Richardson -->
<g id="node10" class="node">
<title>Samuel Richardson</title>
<g id="a_node10"><a xlink:href="https://en.wikipedia.org/wiki/Samuel_Richardson" xlink:title="Samuel Richardson">
<ellipse fill="none" stroke="black" cx="92.38" cy="-180" rx="79.25" ry="18"/>
<text text-anchor="middle" x="92.38" y="-175.8" font-family="Times,serif" font-size="14.00">Samuel Richardson</text>
</a>
</g>
</g>
<!-- Samuel Richardson&#45;&gt;Denis Diderot -->
<g id="edge9" class="edge">
<title>Samuel Richardson&#45;&gt;Denis Diderot</title>
<path fill="none" stroke="black" d="M152.06,-192.02C163.42,-195.79 174.85,-200.68 184.75,-207 217.92,-228.19 246.25,-264.23 263.12,-288.8"/>
<polygon fill="black" stroke="black" points="260.33,-290.93 268.81,-297.29 266.15,-287.03 260.33,-290.93"/>
</g>
<!-- Isaac Newton -->
<g id="node11" class="node">
<title>Isaac Newton</title>
<g id="a_node11"><a xlink:href="https://en.wikipedia.org/wiki/Isaac_Newton" xlink:title="Isaac Newton">
<ellipse fill="none" stroke="black" cx="92.38" cy="-126" rx="58.46" ry="18"/>
<text text-anchor="middle" x="92.38" y="-121.8" font-family="Times,serif" font-size="14.00">Isaac Newton</text>
</a>
</g>
</g>
<!-- Isaac Newton&#45;&gt;Denis Diderot -->
<g id="edge10" class="edge">
<title>Isaac Newton&#45;&gt;Denis Diderot</title>
<path fill="none" stroke="black" d="M144.97,-134.03C158.91,-138.04 173.29,-144.03 184.75,-153 229.81,-188.26 257.72,-251.31 270.82,-287.48"/>
<polygon fill="black" stroke="black" points="267.51,-288.64 274.12,-296.92 274.12,-286.32 267.51,-288.64"/>
</g>
<!-- Lucretius -->
<g id="node12" class="node">
<title>Lucretius</title>
<g id="a_node12"><a xlink:href="https://en.wikipedia.org/wiki/Lucretius" xlink:title="Lucretius">
<ellipse fill="none" stroke="black" cx="92.38" cy="-72" rx="43.51" ry="18"/>
<text text-anchor="middle" x="92.38" y="-67.8" font-family="Times,serif" font-size="14.00">Lucretius</text>
</a>
</g>
</g>
<!-- Lucretius&#45;&gt;Denis Diderot -->
<g id="edge11" class="edge">
<title>Lucretius&#45;&gt;Denis Diderot</title>
<path fill="none" stroke="black" d="M134.85,-76.5C151.96,-80.18 170.97,-86.87 184.75,-99 242.08,-149.48 266.28,-241.03 275.19,-287.03"/>
<polygon fill="black" stroke="black" points="271.76,-287.7 277,-296.91 278.64,-286.44 271.76,-287.7"/>
</g>
<!-- René Descartes -->
<g id="node13" class="node">
<title>René Descartes</title>
<g id="a_node13"><a xlink:href="https://en.wikipedia.org/wiki/Ren%C3%A9_Descartes" xlink:title="René Descartes">
<ellipse fill="none" stroke="black" cx="92.38" cy="-18" rx="64.72" ry="18"/>
<text text-anchor="middle" x="92.38" y="-13.8" font-family="Times,serif" font-size="14.00">René Descartes</text>
</a>
</g>
</g>
<!-- René Descartes&#45;&gt;Denis Diderot -->
<g id="edge12" class="edge">
<title>René Descartes&#45;&gt;Denis Diderot</title>
<path fill="none" stroke="black" d="M150.91,-26.12C163.26,-30.13 175.4,-36.11 184.75,-45 254.65,-111.43 273.14,-232.3 278,-286.9"/>
<polygon fill="black" stroke="black" points="274.52,-287.21 278.8,-296.9 281.49,-286.65 274.52,-287.21"/>
</g>
</g>
</svg>
