<?xml version="1.0" encoding="UTF-8" standalone="no"?>
<!DOCTYPE svg PUBLIC "-//W3C//DTD SVG 1.1//EN"
 "http://www.w3.org/Graphics/SVG/1.1/DTD/svg11.dtd">
<!-- Generated by graphviz version 2.42.3 (20191010.1750)
 -->
<!-- Title: G Pages: 1 -->
<svg width="542pt" height="908pt"
 viewBox="0.00 0.00 541.76 908.00" xmlns="http://www.w3.org/2000/svg" xmlns:xlink="http://www.w3.org/1999/xlink">
<g id="graph0" class="graph" transform="scale(1 1) rotate(0) translate(4 904)">
<title>G</title>
<polygon fill="white" stroke="transparent" points="-4,4 -4,-904 537.76,-904 537.76,4 -4,4"/>
<!-- Karl Marx -->
<g id="node1" class="node">
<title>Karl Marx</title>
<g id="a_node1"><a xlink:href="https://en.wikipedia.org/wiki/Karl_Marx" xlink:title="Karl Marx">
<ellipse fill="none" stroke="black" cx="85.79" cy="-774" rx="47.88" ry="18"/>
<text text-anchor="middle" x="85.79" y="-769.8" font-family="FiraSans-Regular" font-size="14.00">Karl Marx</text>
</a>
</g>
</g>
<!-- Frantz Fanon -->
<g id="node2" class="node">
<title>Frantz Fanon</title>
<ellipse fill="none" stroke="black" cx="264.6" cy="-450" rx="57.04" ry="18"/>
<text text-anchor="middle" x="264.6" y="-445.8" font-family="Times,serif" font-size="14.00">Frantz Fanon</text>
</g>
<!-- Karl Marx&#45;&gt;Frantz Fanon -->
<g id="edge1" class="edge">
<title>Karl Marx&#45;&gt;Frantz Fanon</title>
<path fill="none" stroke="black" d="M131.63,-768.12C145.99,-764.22 160.92,-757.75 171.58,-747 246.23,-671.76 260.5,-537.22 263.1,-478.61"/>
<polygon fill="black" stroke="black" points="266.61,-478.38 263.47,-468.26 259.61,-478.13 266.61,-478.38"/>
</g>
<!-- Afro&#45;pessimism -->
<g id="node15" class="node">
<title>Afro&#45;pessimism</title>
<g id="a_node15"><a xlink:href="https://en.wikipedia.org/wiki/Afro-pessimism" xlink:title="Afro&#45;pessimism">
<ellipse fill="none" stroke="black" cx="445.69" cy="-882" rx="67.19" ry="18"/>
<text text-anchor="middle" x="445.69" y="-877.8" font-family="Times,serif" font-size="14.00">Afro&#45;pessimism</text>
</a>
</g>
</g>
<!-- Frantz Fanon&#45;&gt;Afro&#45;pessimism -->
<g id="edge14" class="edge">
<title>Frantz Fanon&#45;&gt;Afro&#45;pessimism</title>
<path fill="none" stroke="black" d="M267.35,-468.32C274.51,-539.53 303.74,-796.79 357.62,-855 363.14,-860.96 369.94,-865.62 377.3,-869.25"/>
<polygon fill="black" stroke="black" points="376.28,-872.62 386.85,-873.33 379.03,-866.19 376.28,-872.62"/>
</g>
<!-- Hortense Spillers -->
<g id="node16" class="node">
<title>Hortense Spillers</title>
<g id="a_node16"><a xlink:href="https://en.wikipedia.org/wiki/Hortense_Spillers" xlink:title="Hortense Spillers">
<ellipse fill="none" stroke="black" cx="445.69" cy="-828" rx="71.03" ry="18"/>
<text text-anchor="middle" x="445.69" y="-823.8" font-family="Times,serif" font-size="14.00">Hortense Spillers</text>
</a>
</g>
</g>
<!-- Frantz Fanon&#45;&gt;Hortense Spillers -->
<g id="edge15" class="edge">
<title>Frantz Fanon&#45;&gt;Hortense Spillers</title>
<path fill="none" stroke="black" d="M268,-468.07C276.95,-532.75 310.26,-751.5 357.62,-801 362.73,-806.35 368.88,-810.64 375.52,-814.09"/>
<polygon fill="black" stroke="black" points="374.27,-817.36 384.82,-818.28 377.14,-810.98 374.27,-817.36"/>
</g>
<!-- Edward Said -->
<g id="node17" class="node">
<title>Edward Said</title>
<g id="a_node17"><a xlink:href="https://en.wikipedia.org/wiki/Edward_Said" xlink:title="Edward Said">
<ellipse fill="none" stroke="black" cx="445.69" cy="-774" rx="55.58" ry="18"/>
<text text-anchor="middle" x="445.69" y="-769.8" font-family="Times,serif" font-size="14.00">Edward Said</text>
</a>
</g>
</g>
<!-- Frantz Fanon&#45;&gt;Edward Said -->
<g id="edge16" class="edge">
<title>Frantz Fanon&#45;&gt;Edward Said</title>
<path fill="none" stroke="black" d="M265.7,-468.29C267,-519.75 277.85,-667.21 357.62,-747 365.08,-754.46 374.56,-759.87 384.51,-763.79"/>
<polygon fill="black" stroke="black" points="383.54,-767.15 394.13,-767.1 385.82,-760.54 383.54,-767.15"/>
</g>
<!-- Ngugi wa Thiong&#39;o -->
<g id="node18" class="node">
<title>Ngugi wa Thiong&#39;o</title>
<g id="a_node18"><a xlink:href="https://en.wikipedia.org/wiki/Ngugi_wa_Thiong%27o" xlink:title="Ngugi wa Thiong&#39;o">
<ellipse fill="none" stroke="black" cx="445.69" cy="-720" rx="78.21" ry="18"/>
<text text-anchor="middle" x="445.69" y="-715.8" font-family="Times,serif" font-size="14.00">Ngugi wa Thiong&#39;o</text>
</a>
</g>
</g>
<!-- Frantz Fanon&#45;&gt;Ngugi wa Thiong&#39;o -->
<g id="edge17" class="edge">
<title>Frantz Fanon&#45;&gt;Ngugi wa Thiong&#39;o</title>
<path fill="none" stroke="black" d="M267.15,-468.2C271.95,-513.08 290.58,-629.95 357.62,-693 362.57,-697.66 368.32,-701.52 374.46,-704.71"/>
<polygon fill="black" stroke="black" points="373.12,-707.95 383.67,-708.93 376.04,-701.59 373.12,-707.95"/>
</g>
<!-- Achille Mbembe -->
<g id="node19" class="node">
<title>Achille Mbembe</title>
<g id="a_node19"><a xlink:href="https://en.wikipedia.org/wiki/Achille_Mbembe" xlink:title="Achille Mbembe">
<ellipse fill="none" stroke="black" cx="445.69" cy="-666" rx="69.57" ry="18"/>
<text text-anchor="middle" x="445.69" y="-661.8" font-family="Times,serif" font-size="14.00">Achille Mbembe</text>
</a>
</g>
</g>
<!-- Frantz Fanon&#45;&gt;Achille Mbembe -->
<g id="edge18" class="edge">
<title>Frantz Fanon&#45;&gt;Achille Mbembe</title>
<path fill="none" stroke="black" d="M269.31,-468.03C277.98,-505.5 303.06,-592.18 357.62,-639 363.7,-644.22 370.78,-648.43 378.23,-651.82"/>
<polygon fill="black" stroke="black" points="377.22,-655.2 387.81,-655.71 379.85,-648.71 377.22,-655.2"/>
</g>
<!-- Édouard Glissant -->
<g id="node20" class="node">
<title>Édouard Glissant</title>
<g id="a_node20"><a xlink:href="https://en.wikipedia.org/wiki/%C3%89douard_Glissant" xlink:title="Édouard Glissant">
<ellipse fill="none" stroke="black" cx="445.69" cy="-612" rx="71.03" ry="18"/>
<text text-anchor="middle" x="445.69" y="-607.8" font-family="Times,serif" font-size="14.00">Édouard Glissant</text>
</a>
</g>
</g>
<!-- Frantz Fanon&#45;&gt;Édouard Glissant -->
<g id="edge19" class="edge">
<title>Frantz Fanon&#45;&gt;Édouard Glissant</title>
<path fill="none" stroke="black" d="M273.17,-468.19C286.16,-497.2 315.42,-553.81 357.62,-585 364.22,-589.88 371.73,-593.9 379.5,-597.19"/>
<polygon fill="black" stroke="black" points="378.47,-600.55 389.06,-600.86 380.98,-594.01 378.47,-600.55"/>
</g>
<!-- Ali Shariati -->
<g id="node21" class="node">
<title>Ali Shariati</title>
<g id="a_node21"><a xlink:href="https://en.wikipedia.org/wiki/Ali_Shariati" xlink:title="Ali Shariati">
<ellipse fill="none" stroke="black" cx="445.69" cy="-558" rx="51.25" ry="18"/>
<text text-anchor="middle" x="445.69" y="-553.8" font-family="Times,serif" font-size="14.00">Ali Shariati</text>
</a>
</g>
</g>
<!-- Frantz Fanon&#45;&gt;Ali Shariati -->
<g id="edge20" class="edge">
<title>Frantz Fanon&#45;&gt;Ali Shariati</title>
<path fill="none" stroke="black" d="M280.92,-467.25C297.97,-485.48 327.18,-513.92 357.62,-531 368.19,-536.93 380.22,-541.73 391.9,-545.54"/>
<polygon fill="black" stroke="black" points="391,-548.92 401.59,-548.51 393.05,-542.23 391,-548.92"/>
</g>
<!-- Steve Biko -->
<g id="node22" class="node">
<title>Steve Biko</title>
<g id="a_node22"><a xlink:href="https://en.wikipedia.org/wiki/Steve_Biko" xlink:title="Steve Biko">
<ellipse fill="none" stroke="black" cx="445.69" cy="-504" rx="49.33" ry="18"/>
<text text-anchor="middle" x="445.69" y="-499.8" font-family="Times,serif" font-size="14.00">Steve Biko</text>
</a>
</g>
</g>
<!-- Frantz Fanon&#45;&gt;Steve Biko -->
<g id="edge21" class="edge">
<title>Frantz Fanon&#45;&gt;Steve Biko</title>
<path fill="none" stroke="black" d="M306.69,-462.39C333.75,-470.55 369.27,-481.26 397.5,-489.77"/>
<polygon fill="black" stroke="black" points="396.56,-493.15 407.15,-492.68 398.59,-486.44 396.56,-493.15"/>
</g>
<!-- Malcolm X -->
<g id="node23" class="node">
<title>Malcolm X</title>
<g id="a_node23"><a xlink:href="https://en.wikipedia.org/wiki/Malcolm_X" xlink:title="Malcolm X">
<ellipse fill="none" stroke="black" cx="445.69" cy="-450" rx="50.76" ry="18"/>
<text text-anchor="middle" x="445.69" y="-445.8" font-family="Times,serif" font-size="14.00">Malcolm X</text>
</a>
</g>
</g>
<!-- Frantz Fanon&#45;&gt;Malcolm X -->
<g id="edge22" class="edge">
<title>Frantz Fanon&#45;&gt;Malcolm X</title>
<path fill="none" stroke="black" d="M321.77,-450C341.78,-450 364.38,-450 384.7,-450"/>
<polygon fill="black" stroke="black" points="384.78,-453.5 394.78,-450 384.78,-446.5 384.78,-453.5"/>
</g>
<!-- Che Guevara -->
<g id="node24" class="node">
<title>Che Guevara</title>
<g id="a_node24"><a xlink:href="https://en.wikipedia.org/wiki/Che_Guevara" xlink:title="Che Guevara">
<ellipse fill="none" stroke="black" cx="445.69" cy="-396" rx="56.53" ry="18"/>
<text text-anchor="middle" x="445.69" y="-391.8" font-family="Times,serif" font-size="14.00">Che Guevara</text>
</a>
</g>
</g>
<!-- Frantz Fanon&#45;&gt;Che Guevara -->
<g id="edge23" class="edge">
<title>Frantz Fanon&#45;&gt;Che Guevara</title>
<path fill="none" stroke="black" d="M306.69,-437.61C332.71,-429.76 366.56,-419.56 394.22,-411.22"/>
<polygon fill="black" stroke="black" points="395.54,-414.48 404.1,-408.24 393.52,-407.77 395.54,-414.48"/>
</g>
<!-- Paulo Freire -->
<g id="node25" class="node">
<title>Paulo Freire</title>
<g id="a_node25"><a xlink:href="https://en.wikipedia.org/wiki/Paulo_Freire" xlink:title="Paulo Freire">
<ellipse fill="none" stroke="black" cx="445.69" cy="-342" rx="53.65" ry="18"/>
<text text-anchor="middle" x="445.69" y="-337.8" font-family="Times,serif" font-size="14.00">Paulo Freire</text>
</a>
</g>
</g>
<!-- Frantz Fanon&#45;&gt;Paulo Freire -->
<g id="edge24" class="edge">
<title>Frantz Fanon&#45;&gt;Paulo Freire</title>
<path fill="none" stroke="black" d="M280.92,-432.75C297.97,-414.52 327.18,-386.08 357.62,-369 367.76,-363.31 379.25,-358.66 390.49,-354.93"/>
<polygon fill="black" stroke="black" points="391.75,-358.2 400.25,-351.88 389.66,-351.52 391.75,-358.2"/>
</g>
<!-- Huey P. Newton -->
<g id="node26" class="node">
<title>Huey P. Newton</title>
<g id="a_node26"><a xlink:href="https://en.wikipedia.org/wiki/Huey_P._Newton" xlink:title="Huey P. Newton">
<ellipse fill="none" stroke="black" cx="445.69" cy="-288" rx="67.66" ry="18"/>
<text text-anchor="middle" x="445.69" y="-283.8" font-family="Times,serif" font-size="14.00">Huey P. Newton</text>
</a>
</g>
</g>
<!-- Frantz Fanon&#45;&gt;Huey P. Newton -->
<g id="edge25" class="edge">
<title>Frantz Fanon&#45;&gt;Huey P. Newton</title>
<path fill="none" stroke="black" d="M273.17,-431.81C286.16,-402.8 315.42,-346.19 357.62,-315 364.64,-309.8 372.69,-305.59 380.99,-302.19"/>
<polygon fill="black" stroke="black" points="382.28,-305.44 390.43,-298.67 379.84,-298.88 382.28,-305.44"/>
</g>
<!-- Bobby Seale -->
<g id="node27" class="node">
<title>Bobby Seale</title>
<g id="a_node27"><a xlink:href="https://en.wikipedia.org/wiki/Bobby_Seale" xlink:title="Bobby Seale">
<ellipse fill="none" stroke="black" cx="445.69" cy="-234" rx="55.11" ry="18"/>
<text text-anchor="middle" x="445.69" y="-229.8" font-family="Times,serif" font-size="14.00">Bobby Seale</text>
</a>
</g>
</g>
<!-- Frantz Fanon&#45;&gt;Bobby Seale -->
<g id="edge26" class="edge">
<title>Frantz Fanon&#45;&gt;Bobby Seale</title>
<path fill="none" stroke="black" d="M269.31,-431.97C277.98,-394.5 303.06,-307.82 357.62,-261 365.72,-254.05 375.59,-248.89 385.75,-245.05"/>
<polygon fill="black" stroke="black" points="387.15,-248.27 395.52,-241.77 384.92,-241.64 387.15,-248.27"/>
</g>
<!-- Immanuel Wallerstein -->
<g id="node28" class="node">
<title>Immanuel Wallerstein</title>
<g id="a_node28"><a xlink:href="https://en.wikipedia.org/wiki/Immanuel_Wallerstein" xlink:title="Immanuel Wallerstein">
<ellipse fill="none" stroke="black" cx="445.69" cy="-180" rx="88.14" ry="18"/>
<text text-anchor="middle" x="445.69" y="-175.8" font-family="Times,serif" font-size="14.00">Immanuel Wallerstein</text>
</a>
</g>
</g>
<!-- Frantz Fanon&#45;&gt;Immanuel Wallerstein -->
<g id="edge27" class="edge">
<title>Frantz Fanon&#45;&gt;Immanuel Wallerstein</title>
<path fill="none" stroke="black" d="M267.15,-431.8C271.95,-386.92 290.58,-270.05 357.62,-207 361.72,-203.14 366.37,-199.83 371.34,-196.99"/>
<polygon fill="black" stroke="black" points="373.18,-199.98 380.56,-192.38 370.05,-193.72 373.18,-199.98"/>
</g>
<!-- Slavoj Žižek -->
<g id="node29" class="node">
<title>Slavoj Žižek</title>
<g id="a_node29"><a xlink:href="https://en.wikipedia.org/wiki/Slavoj_%C5%BDi%C5%BEek" xlink:title="Slavoj Žižek">
<ellipse fill="none" stroke="black" cx="445.69" cy="-126" rx="55.1" ry="18"/>
<text text-anchor="middle" x="445.69" y="-121.8" font-family="Times,serif" font-size="14.00">Slavoj Žižek</text>
</a>
</g>
</g>
<!-- Frantz Fanon&#45;&gt;Slavoj Žižek -->
<g id="edge28" class="edge">
<title>Frantz Fanon&#45;&gt;Slavoj Žižek</title>
<path fill="none" stroke="black" d="M265.7,-431.71C267,-380.25 277.85,-232.79 357.62,-153 365.16,-145.45 374.78,-140.01 384.85,-136.08"/>
<polygon fill="black" stroke="black" points="386.25,-139.3 394.59,-132.76 383.99,-132.67 386.25,-139.3"/>
</g>
<!-- Lewis Gordon -->
<g id="node30" class="node">
<title>Lewis Gordon</title>
<g id="a_node30"><a xlink:href="https://en.wikipedia.org/wiki/Lewis_Gordon" xlink:title="Lewis Gordon">
<ellipse fill="none" stroke="black" cx="445.69" cy="-72" rx="60.9" ry="18"/>
<text text-anchor="middle" x="445.69" y="-67.8" font-family="Times,serif" font-size="14.00">Lewis Gordon</text>
</a>
</g>
</g>
<!-- Frantz Fanon&#45;&gt;Lewis Gordon -->
<g id="edge29" class="edge">
<title>Frantz Fanon&#45;&gt;Lewis Gordon</title>
<path fill="none" stroke="black" d="M268,-431.93C276.95,-367.25 310.26,-148.5 357.62,-99 364.05,-92.28 372.11,-87.22 380.72,-83.42"/>
<polygon fill="black" stroke="black" points="382.15,-86.62 390.22,-79.76 379.63,-80.09 382.15,-86.62"/>
</g>
<!-- Raya Dunayevskaya -->
<g id="node31" class="node">
<title>Raya Dunayevskaya</title>
<g id="a_node31"><a xlink:href="https://en.wikipedia.org/wiki/Raya_Dunayevskaya" xlink:title="Raya Dunayevskaya">
<ellipse fill="none" stroke="black" cx="445.69" cy="-18" rx="82.59" ry="18"/>
<text text-anchor="middle" x="445.69" y="-13.8" font-family="Times,serif" font-size="14.00">Raya Dunayevskaya</text>
</a>
</g>
</g>
<!-- Frantz Fanon&#45;&gt;Raya Dunayevskaya -->
<g id="edge30" class="edge">
<title>Frantz Fanon&#45;&gt;Raya Dunayevskaya</title>
<path fill="none" stroke="black" d="M267.35,-431.68C274.51,-360.47 303.74,-103.21 357.62,-45 361.68,-40.61 366.44,-36.93 371.61,-33.84"/>
<polygon fill="black" stroke="black" points="373.35,-36.88 380.63,-29.18 370.14,-30.66 373.35,-36.88"/>
</g>
<!-- Négritude -->
<g id="node3" class="node">
<title>Négritude</title>
<g id="a_node3"><a xlink:href="https://en.wikipedia.org/wiki/N%C3%A9gritude" xlink:title="Négritude">
<ellipse fill="none" stroke="black" cx="85.79" cy="-720" rx="48.4" ry="18"/>
<text text-anchor="middle" x="85.79" y="-715.8" font-family="FiraSans-Regular" font-size="14.00">Négritude</text>
</a>
</g>
</g>
<!-- Négritude&#45;&gt;Frantz Fanon -->
<g id="edge2" class="edge">
<title>Négritude&#45;&gt;Frantz Fanon</title>
<path fill="none" stroke="black" d="M131.26,-713.74C145.59,-709.81 160.59,-703.41 171.58,-693 233.81,-634.03 254.36,-528.68 260.81,-478.33"/>
<polygon fill="black" stroke="black" points="264.32,-478.51 262.02,-468.17 257.37,-477.69 264.32,-478.51"/>
</g>
<!-- Alfred Adler -->
<g id="node4" class="node">
<title>Alfred Adler</title>
<g id="a_node4"><a xlink:href="https://en.wikipedia.org/wiki/Alfred_Adler" xlink:title="Alfred Adler">
<ellipse fill="none" stroke="black" cx="85.79" cy="-666" rx="55.65" ry="18"/>
<text text-anchor="middle" x="85.79" y="-661.8" font-family="FiraSans-Regular" font-size="14.00">Alfred Adler</text>
</a>
</g>
</g>
<!-- Alfred Adler&#45;&gt;Frantz Fanon -->
<g id="edge3" class="edge">
<title>Alfred Adler&#45;&gt;Frantz Fanon</title>
<path fill="none" stroke="black" d="M135.57,-657.73C148.36,-653.73 161.41,-647.79 171.58,-639 221.61,-595.74 246.92,-519.01 257.44,-477.88"/>
<polygon fill="black" stroke="black" points="260.88,-478.54 259.85,-468 254.08,-476.88 260.88,-478.54"/>
</g>
<!-- Sigmund Freud -->
<g id="node5" class="node">
<title>Sigmund Freud</title>
<g id="a_node5"><a xlink:href="https://en.wikipedia.org/wiki/Sigmund_Freud" xlink:title="Sigmund Freud">
<ellipse fill="none" stroke="black" cx="85.79" cy="-612" rx="70.64" ry="18"/>
<text text-anchor="middle" x="85.79" y="-607.8" font-family="FiraSans-Regular" font-size="14.00">Sigmund Freud</text>
</a>
</g>
</g>
<!-- Sigmund Freud&#45;&gt;Frantz Fanon -->
<g id="edge4" class="edge">
<title>Sigmund Freud&#45;&gt;Frantz Fanon</title>
<path fill="none" stroke="black" d="M140.97,-600.66C151.76,-596.83 162.54,-591.74 171.58,-585 209.55,-556.71 237.13,-507.91 251.72,-477.38"/>
<polygon fill="black" stroke="black" points="254.97,-478.7 256,-468.16 248.62,-475.76 254.97,-478.7"/>
</g>
<!-- Carl Gustav Jung -->
<g id="node6" class="node">
<title>Carl Gustav Jung</title>
<g id="a_node6"><a xlink:href="https://en.wikipedia.org/wiki/Carl_Gustav_Jung" xlink:title="Carl Gustav Jung">
<ellipse fill="none" stroke="black" cx="85.79" cy="-558" rx="78.36" ry="18"/>
<text text-anchor="middle" x="85.79" y="-553.8" font-family="FiraSans-Regular" font-size="14.00">Carl Gustav Jung</text>
</a>
</g>
</g>
<!-- Carl Gustav Jung&#45;&gt;Frantz Fanon -->
<g id="edge5" class="edge">
<title>Carl Gustav Jung&#45;&gt;Frantz Fanon</title>
<path fill="none" stroke="black" d="M139.78,-544.85C150.65,-541.14 161.77,-536.56 171.58,-531 198,-516.05 223.54,-492.61 240.98,-474.79"/>
<polygon fill="black" stroke="black" points="243.55,-477.18 247.94,-467.54 238.5,-472.33 243.55,-477.18"/>
</g>
<!-- György Lukács -->
<g id="node7" class="node">
<title>György Lukács</title>
<g id="a_node7"><a xlink:href="https://en.wikipedia.org/wiki/Gy%C3%B6rgy_Luk%C3%A1cs" xlink:title="György Lukács">
<ellipse fill="none" stroke="black" cx="85.79" cy="-504" rx="69.18" ry="18"/>
<text text-anchor="middle" x="85.79" y="-499.8" font-family="FiraSans-Regular" font-size="14.00">György Lukács</text>
</a>
</g>
</g>
<!-- György Lukács&#45;&gt;Frantz Fanon -->
<g id="edge6" class="edge">
<title>György Lukács&#45;&gt;Frantz Fanon</title>
<path fill="none" stroke="black" d="M131.41,-490.37C156.35,-482.75 187.52,-473.24 213.33,-465.35"/>
<polygon fill="black" stroke="black" points="214.39,-468.69 222.93,-462.42 212.35,-461.99 214.39,-468.69"/>
</g>
<!-- Jean&#45;Paul Sartre -->
<g id="node8" class="node">
<title>Jean&#45;Paul Sartre</title>
<g id="a_node8"><a xlink:href="https://en.wikipedia.org/wiki/Jean-Paul_Sartre" xlink:title="Jean&#45;Paul Sartre">
<ellipse fill="none" stroke="black" cx="85.79" cy="-450" rx="76.43" ry="18"/>
<text text-anchor="middle" x="85.79" y="-445.8" font-family="FiraSans-Regular" font-size="14.00">Jean&#45;Paul Sartre</text>
</a>
</g>
</g>
<!-- Jean&#45;Paul Sartre&#45;&gt;Frantz Fanon -->
<g id="edge7" class="edge">
<title>Jean&#45;Paul Sartre&#45;&gt;Frantz Fanon</title>
<path fill="none" stroke="black" d="M162.29,-450C173.86,-450 185.73,-450 197.08,-450"/>
<polygon fill="black" stroke="black" points="197.35,-453.5 207.35,-450 197.35,-446.5 197.35,-453.5"/>
</g>
<!-- Aimé Césaire -->
<g id="node9" class="node">
<title>Aimé Césaire</title>
<g id="a_node9"><a xlink:href="https://en.wikipedia.org/wiki/Aim%C3%A9_C%C3%A9saire" xlink:title="Aimé Césaire">
<ellipse fill="none" stroke="black" cx="85.79" cy="-396" rx="63.37" ry="18"/>
<text text-anchor="middle" x="85.79" y="-391.8" font-family="FiraSans-Regular" font-size="14.00">Aimé Césaire</text>
</a>
</g>
</g>
<!-- Aimé Césaire&#45;&gt;Frantz Fanon -->
<g id="edge8" class="edge">
<title>Aimé Césaire&#45;&gt;Frantz Fanon</title>
<path fill="none" stroke="black" d="M129.59,-409.07C154.78,-416.77 186.78,-426.54 213.19,-434.61"/>
<polygon fill="black" stroke="black" points="212.43,-438.03 223.01,-437.6 214.47,-431.34 212.43,-438.03"/>
</g>
<!-- Cheikh Anta Diop -->
<g id="node10" class="node">
<title>Cheikh Anta Diop</title>
<g id="a_node10"><a xlink:href="https://en.wikipedia.org/wiki/Cheikh_Anta_Diop" xlink:title="Cheikh Anta Diop">
<ellipse fill="none" stroke="black" cx="85.79" cy="-342" rx="78.39" ry="18"/>
<text text-anchor="middle" x="85.79" y="-337.8" font-family="FiraSans-Regular" font-size="14.00">Cheikh Anta Diop</text>
</a>
</g>
</g>
<!-- Cheikh Anta Diop&#45;&gt;Frantz Fanon -->
<g id="edge9" class="edge">
<title>Cheikh Anta Diop&#45;&gt;Frantz Fanon</title>
<path fill="none" stroke="black" d="M139.78,-355.15C150.65,-358.86 161.77,-363.44 171.58,-369 198,-383.95 223.54,-407.39 240.98,-425.21"/>
<polygon fill="black" stroke="black" points="238.5,-427.67 247.94,-432.46 243.55,-422.82 238.5,-427.67"/>
</g>
<!-- G.W.F. Hegel -->
<g id="node11" class="node">
<title>G.W.F. Hegel</title>
<g id="a_node11"><a xlink:href="https://en.wikipedia.org/wiki/Georg_Wilhelm_Friedrich_Hegel" xlink:title="G.W.F. Hegel">
<ellipse fill="none" stroke="black" cx="85.79" cy="-288" rx="62.41" ry="18"/>
<text text-anchor="middle" x="85.79" y="-283.8" font-family="FiraSans-Regular" font-size="14.00">G.W.F. Hegel</text>
</a>
</g>
</g>
<!-- G.W.F. Hegel&#45;&gt;Frantz Fanon -->
<g id="edge10" class="edge">
<title>G.W.F. Hegel&#45;&gt;Frantz Fanon</title>
<path fill="none" stroke="black" d="M137.42,-298.12C149.37,-302.07 161.55,-307.52 171.58,-315 209.55,-343.29 237.13,-392.09 251.72,-422.62"/>
<polygon fill="black" stroke="black" points="248.62,-424.24 256,-431.84 254.97,-421.3 248.62,-424.24"/>
</g>
<!-- Chester Himes -->
<g id="node12" class="node">
<title>Chester Himes</title>
<g id="a_node12"><a xlink:href="https://en.wikipedia.org/wiki/Chester_Himes" xlink:title="Chester Himes">
<ellipse fill="none" stroke="black" cx="85.79" cy="-234" rx="68.67" ry="18"/>
<text text-anchor="middle" x="85.79" y="-229.8" font-family="FiraSans-Regular" font-size="14.00">Chester Himes</text>
</a>
</g>
</g>
<!-- Chester Himes&#45;&gt;Frantz Fanon -->
<g id="edge11" class="edge">
<title>Chester Himes&#45;&gt;Frantz Fanon</title>
<path fill="none" stroke="black" d="M142.19,-244.52C152.78,-248.41 163.17,-253.72 171.58,-261 221.61,-304.26 246.92,-380.99 257.44,-422.12"/>
<polygon fill="black" stroke="black" points="254.08,-423.12 259.85,-432 260.88,-421.46 254.08,-423.12"/>
</g>
<!-- Max Weber -->
<g id="node13" class="node">
<title>Max Weber</title>
<g id="a_node13"><a xlink:href="https://en.wikipedia.org/wiki/Max_Weber" xlink:title="Max Weber">
<ellipse fill="none" stroke="black" cx="85.79" cy="-180" rx="55.32" ry="18"/>
<text text-anchor="middle" x="85.79" y="-175.8" font-family="FiraSans-Regular" font-size="14.00">Max Weber</text>
</a>
</g>
</g>
<!-- Max Weber&#45;&gt;Frantz Fanon -->
<g id="edge12" class="edge">
<title>Max Weber&#45;&gt;Frantz Fanon</title>
<path fill="none" stroke="black" d="M136.1,-187.68C148.91,-191.68 161.82,-197.75 171.58,-207 233.81,-265.97 254.36,-371.32 260.81,-421.67"/>
<polygon fill="black" stroke="black" points="257.37,-422.31 262.02,-431.83 264.32,-421.49 257.37,-422.31"/>
</g>
<!-- Friedrich Nietzsche -->
<g id="node14" class="node">
<title>Friedrich Nietzsche</title>
<g id="a_node14"><a xlink:href="https://en.wikipedia.org/wiki/Friedrich_Nietzsche" xlink:title="Friedrich Nietzsche">
<ellipse fill="none" stroke="black" cx="85.79" cy="-126" rx="85.58" ry="18"/>
<text text-anchor="middle" x="85.79" y="-121.8" font-family="FiraSans-Regular" font-size="14.00">Friedrich Nietzsche</text>
</a>
</g>
</g>
<!-- Friedrich Nietzsche&#45;&gt;Frantz Fanon -->
<g id="edge13" class="edge">
<title>Friedrich Nietzsche&#45;&gt;Frantz Fanon</title>
<path fill="none" stroke="black" d="M149.6,-138.25C157.73,-141.94 165.38,-146.75 171.58,-153 246.23,-228.24 260.5,-362.78 263.1,-421.39"/>
<polygon fill="black" stroke="black" points="259.61,-421.87 263.47,-431.74 266.61,-421.62 259.61,-421.87"/>
</g>
</g>
</svg>
