<?xml version="1.0" encoding="UTF-8" standalone="no"?>
<!DOCTYPE svg PUBLIC "-//W3C//DTD SVG 1.1//EN"
 "http://www.w3.org/Graphics/SVG/1.1/DTD/svg11.dtd">
<!-- Generated by graphviz version 2.42.3 (20191010.1750)
 -->
<!-- Title: G Pages: 1 -->
<svg width="529pt" height="908pt"
 viewBox="0.00 0.00 529.37 908.00" xmlns="http://www.w3.org/2000/svg" xmlns:xlink="http://www.w3.org/1999/xlink">
<g id="graph0" class="graph" transform="scale(1 1) rotate(0) translate(4 904)">
<title>G</title>
<polygon fill="white" stroke="transparent" points="-4,4 -4,-904 525.37,-904 525.37,4 -4,4"/>
<!-- Karl Marx -->
<g id="node1" class="node">
<title>Karl Marx</title>
<g id="a_node1"><a xlink:href="https://en.wikipedia.org/wiki/Karl_Marx" xlink:title="Karl Marx">
<ellipse fill="none" stroke="black" cx="79.6" cy="-774" rx="47.37" ry="18"/>
<text text-anchor="middle" x="79.6" y="-769.8" font-family="Times,serif" font-size="14.00">Karl Marx</text>
</a>
</g>
</g>
<!-- Frantz Fanon -->
<g id="node2" class="node">
<title>Frantz Fanon</title>
<ellipse fill="none" stroke="black" cx="252.21" cy="-450" rx="57.04" ry="18"/>
<text text-anchor="middle" x="252.21" y="-445.8" font-family="Times,serif" font-size="14.00">Frantz Fanon</text>
</g>
<!-- Karl Marx&#45;&gt;Frantz Fanon -->
<g id="edge1" class="edge">
<title>Karl Marx&#45;&gt;Frantz Fanon</title>
<path fill="none" stroke="black" d="M123.43,-767.07C136.37,-763.09 149.65,-756.84 159.2,-747 232.99,-670.92 247.72,-536.83 250.57,-478.47"/>
<polygon fill="black" stroke="black" points="254.08,-478.3 250.99,-468.17 247.09,-478.02 254.08,-478.3"/>
</g>
<!-- Afro&#45;pessimism -->
<g id="node15" class="node">
<title>Afro&#45;pessimism</title>
<g id="a_node15"><a xlink:href="https://en.wikipedia.org/wiki/Afro-pessimism" xlink:title="Afro&#45;pessimism">
<ellipse fill="none" stroke="black" cx="433.3" cy="-882" rx="67.19" ry="18"/>
<text text-anchor="middle" x="433.3" y="-877.8" font-family="Times,serif" font-size="14.00">Afro&#45;pessimism</text>
</a>
</g>
</g>
<!-- Frantz Fanon&#45;&gt;Afro&#45;pessimism -->
<g id="edge14" class="edge">
<title>Frantz Fanon&#45;&gt;Afro&#45;pessimism</title>
<path fill="none" stroke="black" d="M254.97,-468.32C262.12,-539.53 291.36,-796.79 345.23,-855 350.75,-860.96 357.56,-865.62 364.91,-869.25"/>
<polygon fill="black" stroke="black" points="363.89,-872.62 374.47,-873.33 366.64,-866.19 363.89,-872.62"/>
</g>
<!-- Hortense Spillers -->
<g id="node16" class="node">
<title>Hortense Spillers</title>
<g id="a_node16"><a xlink:href="https://en.wikipedia.org/wiki/Hortense_Spillers" xlink:title="Hortense Spillers">
<ellipse fill="none" stroke="black" cx="433.3" cy="-828" rx="71.03" ry="18"/>
<text text-anchor="middle" x="433.3" y="-823.8" font-family="Times,serif" font-size="14.00">Hortense Spillers</text>
</a>
</g>
</g>
<!-- Frantz Fanon&#45;&gt;Hortense Spillers -->
<g id="edge15" class="edge">
<title>Frantz Fanon&#45;&gt;Hortense Spillers</title>
<path fill="none" stroke="black" d="M255.62,-468.07C264.57,-532.75 297.87,-751.5 345.23,-801 350.35,-806.35 356.5,-810.64 363.14,-814.09"/>
<polygon fill="black" stroke="black" points="361.88,-817.36 372.44,-818.28 364.76,-810.98 361.88,-817.36"/>
</g>
<!-- Edward Said -->
<g id="node17" class="node">
<title>Edward Said</title>
<g id="a_node17"><a xlink:href="https://en.wikipedia.org/wiki/Edward_Said" xlink:title="Edward Said">
<ellipse fill="none" stroke="black" cx="433.3" cy="-774" rx="55.58" ry="18"/>
<text text-anchor="middle" x="433.3" y="-769.8" font-family="Times,serif" font-size="14.00">Edward Said</text>
</a>
</g>
</g>
<!-- Frantz Fanon&#45;&gt;Edward Said -->
<g id="edge16" class="edge">
<title>Frantz Fanon&#45;&gt;Edward Said</title>
<path fill="none" stroke="black" d="M253.31,-468.29C254.61,-519.75 265.47,-667.21 345.23,-747 352.7,-754.46 362.18,-759.87 372.12,-763.79"/>
<polygon fill="black" stroke="black" points="371.15,-767.15 381.75,-767.1 373.43,-760.54 371.15,-767.15"/>
</g>
<!-- Ngugi wa Thiong&#39;o -->
<g id="node18" class="node">
<title>Ngugi wa Thiong&#39;o</title>
<g id="a_node18"><a xlink:href="https://en.wikipedia.org/wiki/Ngugi_wa_Thiong%27o" xlink:title="Ngugi wa Thiong&#39;o">
<ellipse fill="none" stroke="black" cx="433.3" cy="-720" rx="78.21" ry="18"/>
<text text-anchor="middle" x="433.3" y="-715.8" font-family="Times,serif" font-size="14.00">Ngugi wa Thiong&#39;o</text>
</a>
</g>
</g>
<!-- Frantz Fanon&#45;&gt;Ngugi wa Thiong&#39;o -->
<g id="edge17" class="edge">
<title>Frantz Fanon&#45;&gt;Ngugi wa Thiong&#39;o</title>
<path fill="none" stroke="black" d="M254.76,-468.2C259.57,-513.08 278.2,-629.95 345.23,-693 350.19,-697.66 355.94,-701.52 362.07,-704.71"/>
<polygon fill="black" stroke="black" points="360.74,-707.95 371.29,-708.93 363.65,-701.59 360.74,-707.95"/>
</g>
<!-- Achille Mbembe -->
<g id="node19" class="node">
<title>Achille Mbembe</title>
<g id="a_node19"><a xlink:href="https://en.wikipedia.org/wiki/Achille_Mbembe" xlink:title="Achille Mbembe">
<ellipse fill="none" stroke="black" cx="433.3" cy="-666" rx="69.57" ry="18"/>
<text text-anchor="middle" x="433.3" y="-661.8" font-family="Times,serif" font-size="14.00">Achille Mbembe</text>
</a>
</g>
</g>
<!-- Frantz Fanon&#45;&gt;Achille Mbembe -->
<g id="edge18" class="edge">
<title>Frantz Fanon&#45;&gt;Achille Mbembe</title>
<path fill="none" stroke="black" d="M256.93,-468.03C265.59,-505.5 290.67,-592.18 345.23,-639 351.31,-644.22 358.39,-648.43 365.84,-651.82"/>
<polygon fill="black" stroke="black" points="364.84,-655.2 375.42,-655.71 367.47,-648.71 364.84,-655.2"/>
</g>
<!-- Édouard Glissant -->
<g id="node20" class="node">
<title>Édouard Glissant</title>
<g id="a_node20"><a xlink:href="https://en.wikipedia.org/wiki/%C3%89douard_Glissant" xlink:title="Édouard Glissant">
<ellipse fill="none" stroke="black" cx="433.3" cy="-612" rx="71.03" ry="18"/>
<text text-anchor="middle" x="433.3" y="-607.8" font-family="Times,serif" font-size="14.00">Édouard Glissant</text>
</a>
</g>
</g>
<!-- Frantz Fanon&#45;&gt;Édouard Glissant -->
<g id="edge19" class="edge">
<title>Frantz Fanon&#45;&gt;Édouard Glissant</title>
<path fill="none" stroke="black" d="M260.79,-468.19C273.77,-497.2 303.04,-553.81 345.23,-585 351.84,-589.88 359.34,-593.9 367.11,-597.19"/>
<polygon fill="black" stroke="black" points="366.09,-600.55 376.68,-600.86 368.6,-594.01 366.09,-600.55"/>
</g>
<!-- Ali Shariati -->
<g id="node21" class="node">
<title>Ali Shariati</title>
<g id="a_node21"><a xlink:href="https://en.wikipedia.org/wiki/Ali_Shariati" xlink:title="Ali Shariati">
<ellipse fill="none" stroke="black" cx="433.3" cy="-558" rx="51.25" ry="18"/>
<text text-anchor="middle" x="433.3" y="-553.8" font-family="Times,serif" font-size="14.00">Ali Shariati</text>
</a>
</g>
</g>
<!-- Frantz Fanon&#45;&gt;Ali Shariati -->
<g id="edge20" class="edge">
<title>Frantz Fanon&#45;&gt;Ali Shariati</title>
<path fill="none" stroke="black" d="M268.53,-467.25C285.59,-485.48 314.79,-513.92 345.23,-531 355.8,-536.93 367.84,-541.73 379.51,-545.54"/>
<polygon fill="black" stroke="black" points="378.61,-548.92 389.2,-548.51 380.67,-542.23 378.61,-548.92"/>
</g>
<!-- Steve Biko -->
<g id="node22" class="node">
<title>Steve Biko</title>
<g id="a_node22"><a xlink:href="https://en.wikipedia.org/wiki/Steve_Biko" xlink:title="Steve Biko">
<ellipse fill="none" stroke="black" cx="433.3" cy="-504" rx="49.33" ry="18"/>
<text text-anchor="middle" x="433.3" y="-499.8" font-family="Times,serif" font-size="14.00">Steve Biko</text>
</a>
</g>
</g>
<!-- Frantz Fanon&#45;&gt;Steve Biko -->
<g id="edge21" class="edge">
<title>Frantz Fanon&#45;&gt;Steve Biko</title>
<path fill="none" stroke="black" d="M294.3,-462.39C321.37,-470.55 356.89,-481.26 385.11,-489.77"/>
<polygon fill="black" stroke="black" points="384.18,-493.15 394.76,-492.68 386.2,-486.44 384.18,-493.15"/>
</g>
<!-- Malcolm X -->
<g id="node23" class="node">
<title>Malcolm X</title>
<g id="a_node23"><a xlink:href="https://en.wikipedia.org/wiki/Malcolm_X" xlink:title="Malcolm X">
<ellipse fill="none" stroke="black" cx="433.3" cy="-450" rx="50.76" ry="18"/>
<text text-anchor="middle" x="433.3" y="-445.8" font-family="Times,serif" font-size="14.00">Malcolm X</text>
</a>
</g>
</g>
<!-- Frantz Fanon&#45;&gt;Malcolm X -->
<g id="edge22" class="edge">
<title>Frantz Fanon&#45;&gt;Malcolm X</title>
<path fill="none" stroke="black" d="M309.39,-450C329.4,-450 352,-450 372.31,-450"/>
<polygon fill="black" stroke="black" points="372.39,-453.5 382.39,-450 372.39,-446.5 372.39,-453.5"/>
</g>
<!-- Che Guevara -->
<g id="node24" class="node">
<title>Che Guevara</title>
<g id="a_node24"><a xlink:href="https://en.wikipedia.org/wiki/Che_Guevara" xlink:title="Che Guevara">
<ellipse fill="none" stroke="black" cx="433.3" cy="-396" rx="56.53" ry="18"/>
<text text-anchor="middle" x="433.3" y="-391.8" font-family="Times,serif" font-size="14.00">Che Guevara</text>
</a>
</g>
</g>
<!-- Frantz Fanon&#45;&gt;Che Guevara -->
<g id="edge23" class="edge">
<title>Frantz Fanon&#45;&gt;Che Guevara</title>
<path fill="none" stroke="black" d="M294.3,-437.61C320.33,-429.76 354.17,-419.56 381.83,-411.22"/>
<polygon fill="black" stroke="black" points="383.15,-414.48 391.72,-408.24 381.13,-407.77 383.15,-414.48"/>
</g>
<!-- Paulo Freire -->
<g id="node25" class="node">
<title>Paulo Freire</title>
<g id="a_node25"><a xlink:href="https://en.wikipedia.org/wiki/Paulo_Freire" xlink:title="Paulo Freire">
<ellipse fill="none" stroke="black" cx="433.3" cy="-342" rx="53.65" ry="18"/>
<text text-anchor="middle" x="433.3" y="-337.8" font-family="Times,serif" font-size="14.00">Paulo Freire</text>
</a>
</g>
</g>
<!-- Frantz Fanon&#45;&gt;Paulo Freire -->
<g id="edge24" class="edge">
<title>Frantz Fanon&#45;&gt;Paulo Freire</title>
<path fill="none" stroke="black" d="M268.53,-432.75C285.59,-414.52 314.79,-386.08 345.23,-369 355.38,-363.31 366.87,-358.66 378.1,-354.93"/>
<polygon fill="black" stroke="black" points="379.36,-358.2 387.86,-351.88 377.28,-351.52 379.36,-358.2"/>
</g>
<!-- Huey P. Newton -->
<g id="node26" class="node">
<title>Huey P. Newton</title>
<g id="a_node26"><a xlink:href="https://en.wikipedia.org/wiki/Huey_P._Newton" xlink:title="Huey P. Newton">
<ellipse fill="none" stroke="black" cx="433.3" cy="-288" rx="67.66" ry="18"/>
<text text-anchor="middle" x="433.3" y="-283.8" font-family="Times,serif" font-size="14.00">Huey P. Newton</text>
</a>
</g>
</g>
<!-- Frantz Fanon&#45;&gt;Huey P. Newton -->
<g id="edge25" class="edge">
<title>Frantz Fanon&#45;&gt;Huey P. Newton</title>
<path fill="none" stroke="black" d="M260.79,-431.81C273.77,-402.8 303.04,-346.19 345.23,-315 352.26,-309.8 360.31,-305.59 368.61,-302.19"/>
<polygon fill="black" stroke="black" points="369.9,-305.44 378.04,-298.67 367.45,-298.88 369.9,-305.44"/>
</g>
<!-- Bobby Seale -->
<g id="node27" class="node">
<title>Bobby Seale</title>
<g id="a_node27"><a xlink:href="https://en.wikipedia.org/wiki/Bobby_Seale" xlink:title="Bobby Seale">
<ellipse fill="none" stroke="black" cx="433.3" cy="-234" rx="55.11" ry="18"/>
<text text-anchor="middle" x="433.3" y="-229.8" font-family="Times,serif" font-size="14.00">Bobby Seale</text>
</a>
</g>
</g>
<!-- Frantz Fanon&#45;&gt;Bobby Seale -->
<g id="edge26" class="edge">
<title>Frantz Fanon&#45;&gt;Bobby Seale</title>
<path fill="none" stroke="black" d="M256.93,-431.97C265.59,-394.5 290.67,-307.82 345.23,-261 353.33,-254.05 363.21,-248.89 373.36,-245.05"/>
<polygon fill="black" stroke="black" points="374.77,-248.27 383.13,-241.77 372.54,-241.64 374.77,-248.27"/>
</g>
<!-- Immanuel Wallerstein -->
<g id="node28" class="node">
<title>Immanuel Wallerstein</title>
<g id="a_node28"><a xlink:href="https://en.wikipedia.org/wiki/Immanuel_Wallerstein" xlink:title="Immanuel Wallerstein">
<ellipse fill="none" stroke="black" cx="433.3" cy="-180" rx="88.14" ry="18"/>
<text text-anchor="middle" x="433.3" y="-175.8" font-family="Times,serif" font-size="14.00">Immanuel Wallerstein</text>
</a>
</g>
</g>
<!-- Frantz Fanon&#45;&gt;Immanuel Wallerstein -->
<g id="edge27" class="edge">
<title>Frantz Fanon&#45;&gt;Immanuel Wallerstein</title>
<path fill="none" stroke="black" d="M254.76,-431.8C259.57,-386.92 278.2,-270.05 345.23,-207 349.34,-203.14 353.99,-199.83 358.95,-196.99"/>
<polygon fill="black" stroke="black" points="360.8,-199.98 368.17,-192.38 357.66,-193.72 360.8,-199.98"/>
</g>
<!-- Slavoj Žižek -->
<g id="node29" class="node">
<title>Slavoj Žižek</title>
<g id="a_node29"><a xlink:href="https://en.wikipedia.org/wiki/Slavoj_%C5%BDi%C5%BEek" xlink:title="Slavoj Žižek">
<ellipse fill="none" stroke="black" cx="433.3" cy="-126" rx="55.1" ry="18"/>
<text text-anchor="middle" x="433.3" y="-121.8" font-family="Times,serif" font-size="14.00">Slavoj Žižek</text>
</a>
</g>
</g>
<!-- Frantz Fanon&#45;&gt;Slavoj Žižek -->
<g id="edge28" class="edge">
<title>Frantz Fanon&#45;&gt;Slavoj Žižek</title>
<path fill="none" stroke="black" d="M253.31,-431.71C254.61,-380.25 265.47,-232.79 345.23,-153 352.78,-145.45 362.39,-140.01 372.46,-136.08"/>
<polygon fill="black" stroke="black" points="373.86,-139.3 382.2,-132.76 371.61,-132.67 373.86,-139.3"/>
</g>
<!-- Lewis Gordon -->
<g id="node30" class="node">
<title>Lewis Gordon</title>
<g id="a_node30"><a xlink:href="https://en.wikipedia.org/wiki/Lewis_Gordon" xlink:title="Lewis Gordon">
<ellipse fill="none" stroke="black" cx="433.3" cy="-72" rx="60.9" ry="18"/>
<text text-anchor="middle" x="433.3" y="-67.8" font-family="Times,serif" font-size="14.00">Lewis Gordon</text>
</a>
</g>
</g>
<!-- Frantz Fanon&#45;&gt;Lewis Gordon -->
<g id="edge29" class="edge">
<title>Frantz Fanon&#45;&gt;Lewis Gordon</title>
<path fill="none" stroke="black" d="M255.62,-431.93C264.57,-367.25 297.87,-148.5 345.23,-99 351.66,-92.28 359.72,-87.22 368.33,-83.42"/>
<polygon fill="black" stroke="black" points="369.76,-86.62 377.84,-79.76 367.25,-80.09 369.76,-86.62"/>
</g>
<!-- Raya Dunayevskaya -->
<g id="node31" class="node">
<title>Raya Dunayevskaya</title>
<g id="a_node31"><a xlink:href="https://en.wikipedia.org/wiki/Raya_Dunayevskaya" xlink:title="Raya Dunayevskaya">
<ellipse fill="none" stroke="black" cx="433.3" cy="-18" rx="82.59" ry="18"/>
<text text-anchor="middle" x="433.3" y="-13.8" font-family="Times,serif" font-size="14.00">Raya Dunayevskaya</text>
</a>
</g>
</g>
<!-- Frantz Fanon&#45;&gt;Raya Dunayevskaya -->
<g id="edge30" class="edge">
<title>Frantz Fanon&#45;&gt;Raya Dunayevskaya</title>
<path fill="none" stroke="black" d="M254.97,-431.68C262.12,-360.47 291.36,-103.21 345.23,-45 349.3,-40.61 354.06,-36.93 359.22,-33.84"/>
<polygon fill="black" stroke="black" points="360.96,-36.88 368.24,-29.18 357.75,-30.66 360.96,-36.88"/>
</g>
<!-- Négritude -->
<g id="node3" class="node">
<title>Négritude</title>
<g id="a_node3"><a xlink:href="https://en.wikipedia.org/wiki/N%C3%A9gritude" xlink:title="Négritude">
<ellipse fill="none" stroke="black" cx="79.6" cy="-720" rx="45.44" ry="18"/>
<text text-anchor="middle" x="79.6" y="-715.8" font-family="Times,serif" font-size="14.00">Négritude</text>
</a>
</g>
</g>
<!-- Négritude&#45;&gt;Frantz Fanon -->
<g id="edge2" class="edge">
<title>Négritude&#45;&gt;Frantz Fanon</title>
<path fill="none" stroke="black" d="M121.86,-713.09C135.15,-709.1 149.04,-702.84 159.2,-693 220.76,-633.33 241.63,-528.32 248.3,-478.19"/>
<polygon fill="black" stroke="black" points="251.79,-478.43 249.55,-468.08 244.85,-477.57 251.79,-478.43"/>
</g>
<!-- Alfred Adler -->
<g id="node4" class="node">
<title>Alfred Adler</title>
<g id="a_node4"><a xlink:href="https://en.wikipedia.org/wiki/Alfred_Adler" xlink:title="Alfred Adler">
<ellipse fill="none" stroke="black" cx="79.6" cy="-666" rx="55.1" ry="18"/>
<text text-anchor="middle" x="79.6" y="-661.8" font-family="Times,serif" font-size="14.00">Alfred Adler</text>
</a>
</g>
</g>
<!-- Alfred Adler&#45;&gt;Frantz Fanon -->
<g id="edge3" class="edge">
<title>Alfred Adler&#45;&gt;Frantz Fanon</title>
<path fill="none" stroke="black" d="M127.07,-656.69C138.54,-652.7 150.12,-647.03 159.2,-639 208.61,-595.29 234.12,-519.07 244.85,-478.05"/>
<polygon fill="black" stroke="black" points="248.28,-478.73 247.32,-468.18 241.49,-477.03 248.28,-478.73"/>
</g>
<!-- Sigmund Freud -->
<g id="node5" class="node">
<title>Sigmund Freud</title>
<g id="a_node5"><a xlink:href="https://en.wikipedia.org/wiki/Sigmund_Freud" xlink:title="Sigmund Freud">
<ellipse fill="none" stroke="black" cx="79.6" cy="-612" rx="64.78" ry="18"/>
<text text-anchor="middle" x="79.6" y="-607.8" font-family="Times,serif" font-size="14.00">Sigmund Freud</text>
</a>
</g>
</g>
<!-- Sigmund Freud&#45;&gt;Frantz Fanon -->
<g id="edge4" class="edge">
<title>Sigmund Freud&#45;&gt;Frantz Fanon</title>
<path fill="none" stroke="black" d="M130.01,-600.44C140.28,-596.6 150.59,-591.56 159.2,-585 196.84,-556.28 224.52,-507.61 239.22,-477.22"/>
<polygon fill="black" stroke="black" points="242.45,-478.59 243.53,-468.05 236.11,-475.61 242.45,-478.59"/>
</g>
<!-- Carl Gustav Jung -->
<g id="node6" class="node">
<title>Carl Gustav Jung</title>
<g id="a_node6"><a xlink:href="https://en.wikipedia.org/wiki/Carl_Gustav_Jung" xlink:title="Carl Gustav Jung">
<ellipse fill="none" stroke="black" cx="79.6" cy="-558" rx="71.53" ry="18"/>
<text text-anchor="middle" x="79.6" y="-553.8" font-family="Times,serif" font-size="14.00">Carl Gustav Jung</text>
</a>
</g>
</g>
<!-- Carl Gustav Jung&#45;&gt;Frantz Fanon -->
<g id="edge5" class="edge">
<title>Carl Gustav Jung&#45;&gt;Frantz Fanon</title>
<path fill="none" stroke="black" d="M128.88,-544.75C139.22,-541 149.84,-536.44 159.2,-531 185.44,-515.75 211.01,-492.35 228.5,-474.62"/>
<polygon fill="black" stroke="black" points="231.04,-477.02 235.48,-467.4 226.01,-472.15 231.04,-477.02"/>
</g>
<!-- György Lukács -->
<g id="node7" class="node">
<title>György Lukács</title>
<g id="a_node7"><a xlink:href="https://en.wikipedia.org/wiki/Gy%C3%B6rgy_Luk%C3%A1cs" xlink:title="György Lukács">
<ellipse fill="none" stroke="black" cx="79.6" cy="-504" rx="64.94" ry="18"/>
<text text-anchor="middle" x="79.6" y="-499.8" font-family="Times,serif" font-size="14.00">György Lukács</text>
</a>
</g>
</g>
<!-- György Lukács&#45;&gt;Frantz Fanon -->
<g id="edge6" class="edge">
<title>György Lukács&#45;&gt;Frantz Fanon</title>
<path fill="none" stroke="black" d="M123.21,-490.51C147,-482.98 176.76,-473.57 201.59,-465.71"/>
<polygon fill="black" stroke="black" points="202.72,-469.02 211.19,-462.67 200.6,-462.35 202.72,-469.02"/>
</g>
<!-- Jean&#45;Paul Sartre -->
<g id="node8" class="node">
<title>Jean&#45;Paul Sartre</title>
<g id="a_node8"><a xlink:href="https://en.wikipedia.org/wiki/Jean-Paul_Sartre" xlink:title="Jean&#45;Paul Sartre">
<ellipse fill="none" stroke="black" cx="79.6" cy="-450" rx="67.63" ry="18"/>
<text text-anchor="middle" x="79.6" y="-445.8" font-family="Times,serif" font-size="14.00">Jean&#45;Paul Sartre</text>
</a>
</g>
</g>
<!-- Jean&#45;Paul Sartre&#45;&gt;Frantz Fanon -->
<g id="edge7" class="edge">
<title>Jean&#45;Paul Sartre&#45;&gt;Frantz Fanon</title>
<path fill="none" stroke="black" d="M147.54,-450C159.79,-450 172.58,-450 184.81,-450"/>
<polygon fill="black" stroke="black" points="184.94,-453.5 194.94,-450 184.94,-446.5 184.94,-453.5"/>
</g>
<!-- Aimé Césaire -->
<g id="node9" class="node">
<title>Aimé Césaire</title>
<g id="a_node9"><a xlink:href="https://en.wikipedia.org/wiki/Aim%C3%A9_C%C3%A9saire" xlink:title="Aimé Césaire">
<ellipse fill="none" stroke="black" cx="79.6" cy="-396" rx="58.46" ry="18"/>
<text text-anchor="middle" x="79.6" y="-391.8" font-family="Times,serif" font-size="14.00">Aimé Césaire</text>
</a>
</g>
</g>
<!-- Aimé Césaire&#45;&gt;Frantz Fanon -->
<g id="edge8" class="edge">
<title>Aimé Césaire&#45;&gt;Frantz Fanon</title>
<path fill="none" stroke="black" d="M121.03,-408.8C145.24,-416.46 176.18,-426.25 201.82,-434.37"/>
<polygon fill="black" stroke="black" points="200.78,-437.71 211.37,-437.39 202.89,-431.03 200.78,-437.71"/>
</g>
<!-- Cheikh Anta Diop -->
<g id="node10" class="node">
<title>Cheikh Anta Diop</title>
<g id="a_node10"><a xlink:href="https://en.wikipedia.org/wiki/Cheikh_Anta_Diop" xlink:title="Cheikh Anta Diop">
<ellipse fill="none" stroke="black" cx="79.6" cy="-342" rx="74.44" ry="18"/>
<text text-anchor="middle" x="79.6" y="-337.8" font-family="Times,serif" font-size="14.00">Cheikh Anta Diop</text>
</a>
</g>
</g>
<!-- Cheikh Anta Diop&#45;&gt;Frantz Fanon -->
<g id="edge9" class="edge">
<title>Cheikh Anta Diop&#45;&gt;Frantz Fanon</title>
<path fill="none" stroke="black" d="M129.71,-355.55C139.78,-359.24 150.09,-363.71 159.2,-369 185.44,-384.25 211.01,-407.65 228.5,-425.38"/>
<polygon fill="black" stroke="black" points="226.01,-427.85 235.48,-432.6 231.04,-422.98 226.01,-427.85"/>
</g>
<!-- G.W.F. Hegel -->
<g id="node11" class="node">
<title>G.W.F. Hegel</title>
<g id="a_node11"><a xlink:href="https://en.wikipedia.org/wiki/Georg_Wilhelm_Friedrich_Hegel" xlink:title="G.W.F. Hegel">
<ellipse fill="none" stroke="black" cx="79.6" cy="-288" rx="58.4" ry="18"/>
<text text-anchor="middle" x="79.6" y="-283.8" font-family="Times,serif" font-size="14.00">G.W.F. Hegel</text>
</a>
</g>
</g>
<!-- G.W.F. Hegel&#45;&gt;Frantz Fanon -->
<g id="edge10" class="edge">
<title>G.W.F. Hegel&#45;&gt;Frantz Fanon</title>
<path fill="none" stroke="black" d="M127.13,-298.52C138.35,-302.47 149.79,-307.82 159.2,-315 196.84,-343.72 224.52,-392.39 239.22,-422.78"/>
<polygon fill="black" stroke="black" points="236.11,-424.39 243.53,-431.95 242.45,-421.41 236.11,-424.39"/>
</g>
<!-- Chester Himes -->
<g id="node12" class="node">
<title>Chester Himes</title>
<g id="a_node12"><a xlink:href="https://en.wikipedia.org/wiki/Chester_Himes" xlink:title="Chester Himes">
<ellipse fill="none" stroke="black" cx="79.6" cy="-234" rx="62.34" ry="18"/>
<text text-anchor="middle" x="79.6" y="-229.8" font-family="Times,serif" font-size="14.00">Chester Himes</text>
</a>
</g>
</g>
<!-- Chester Himes&#45;&gt;Frantz Fanon -->
<g id="edge11" class="edge">
<title>Chester Himes&#45;&gt;Frantz Fanon</title>
<path fill="none" stroke="black" d="M130.35,-244.5C140.72,-248.4 150.98,-253.73 159.2,-261 208.61,-304.71 234.12,-380.93 244.85,-421.95"/>
<polygon fill="black" stroke="black" points="241.49,-422.97 247.32,-431.82 248.28,-421.27 241.49,-422.97"/>
</g>
<!-- Max Weber -->
<g id="node13" class="node">
<title>Max Weber</title>
<g id="a_node13"><a xlink:href="https://en.wikipedia.org/wiki/Max_Weber" xlink:title="Max Weber">
<ellipse fill="none" stroke="black" cx="79.6" cy="-180" rx="51.47" ry="18"/>
<text text-anchor="middle" x="79.6" y="-175.8" font-family="Times,serif" font-size="14.00">Max Weber</text>
</a>
</g>
</g>
<!-- Max Weber&#45;&gt;Frantz Fanon -->
<g id="edge12" class="edge">
<title>Max Weber&#45;&gt;Frantz Fanon</title>
<path fill="none" stroke="black" d="M125.53,-188.07C137.67,-192.08 149.98,-198.06 159.2,-207 220.76,-266.67 241.63,-371.68 248.3,-421.81"/>
<polygon fill="black" stroke="black" points="244.85,-422.43 249.55,-431.92 251.79,-421.57 244.85,-422.43"/>
</g>
<!-- Friedrich Nietzsche -->
<g id="node14" class="node">
<title>Friedrich Nietzsche</title>
<g id="a_node14"><a xlink:href="https://en.wikipedia.org/wiki/Friedrich_Nietzsche" xlink:title="Friedrich Nietzsche">
<ellipse fill="none" stroke="black" cx="79.6" cy="-126" rx="79.7" ry="18"/>
<text text-anchor="middle" x="79.6" y="-121.8" font-family="Times,serif" font-size="14.00">Friedrich Nietzsche</text>
</a>
</g>
</g>
<!-- Friedrich Nietzsche&#45;&gt;Frantz Fanon -->
<g id="edge13" class="edge">
<title>Friedrich Nietzsche&#45;&gt;Frantz Fanon</title>
<path fill="none" stroke="black" d="M137.67,-138.32C145.65,-142 153.17,-146.79 159.2,-153 232.99,-229.08 247.72,-363.17 250.57,-421.53"/>
<polygon fill="black" stroke="black" points="247.09,-421.98 250.99,-431.83 254.08,-421.7 247.09,-421.98"/>
</g>
</g>
</svg>
