<?xml version="1.0" encoding="UTF-8" standalone="no"?>
<!DOCTYPE svg PUBLIC "-//W3C//DTD SVG 1.1//EN"
 "http://www.w3.org/Graphics/SVG/1.1/DTD/svg11.dtd">
<!-- Generated by graphviz version 2.42.3 (20191010.1750)
 -->
<!-- Title: G Pages: 1 -->
<svg width="1801pt" height="188pt"
 viewBox="0.00 0.00 1800.98 188.00" xmlns="http://www.w3.org/2000/svg" xmlns:xlink="http://www.w3.org/1999/xlink">
<g id="graph0" class="graph" transform="scale(1 1) rotate(0) translate(4 184)">
<title>G</title>
<polygon fill="white" stroke="transparent" points="-4,4 -4,-184 1796.98,-184 1796.98,4 -4,4"/>
<!-- Brentano -->
<g id="node1" class="node">
<title>Brentano</title>
<g id="a_node1"><a xlink:href="https://en.wikipedia.org/wiki/Franz_Brentano" xlink:title="Brentano">
<ellipse fill="none" stroke="black" cx="42.52" cy="-162" rx="42.55" ry="18"/>
<text text-anchor="middle" x="42.52" y="-157.8" font-family="Times,serif" font-size="14.00">Brentano</text>
</a>
</g>
</g>
<!-- freud -->
<g id="node2" class="node">
<title>freud</title>
<ellipse fill="none" stroke="black" cx="840.52" cy="-90" rx="28.53" ry="18"/>
<text text-anchor="middle" x="840.52" y="-85.8" font-family="Times,serif" font-size="14.00">freud</text>
</g>
<!-- Brentano&#45;&gt;freud -->
<g id="edge1" class="edge">
<title>Brentano&#45;&gt;freud</title>
<path fill="none" stroke="black" d="M73.54,-149.49C80.37,-147.34 87.63,-145.35 94.52,-144 361.15,-91.77 690.32,-89.51 801.65,-90.43"/>
<polygon fill="black" stroke="black" points="801.7,-93.93 811.73,-90.53 801.77,-86.93 801.7,-93.93"/>
</g>
<!-- Literally all psychoanalysts -->
<g id="node19" class="node">
<title>Literally all psychoanalysts</title>
<g id="a_node19"><a xlink:href="https://en.wikipedia.org/wiki/List_of_psychoanalysts" xlink:title="Literally all psychoanalysts">
<ellipse fill="none" stroke="black" cx="705.52" cy="-18" rx="107.22" ry="18"/>
<text text-anchor="middle" x="705.52" y="-13.8" font-family="Times,serif" font-size="14.00">Literally all psychoanalysts</text>
</a>
</g>
</g>
<!-- freud&#45;&gt;Literally all psychoanalysts -->
<g id="edge18" class="edge">
<title>freud&#45;&gt;Literally all psychoanalysts</title>
<path fill="none" stroke="black" d="M819.13,-77.91C799.49,-67.72 769.86,-52.36 745.78,-39.88"/>
<polygon fill="black" stroke="black" points="747.35,-36.75 736.86,-35.25 744.13,-42.96 747.35,-36.75"/>
</g>
<!-- Literally all psychoanalytical theorists -->
<g id="node20" class="node">
<title>Literally all psychoanalytical theorists</title>
<g id="a_node20"><a xlink:href="https://en.wikipedia.org/wiki/List_of_psychoanalytical_theorists" xlink:title="Literally all psychoanalytical theorists">
<ellipse fill="none" stroke="black" cx="976.52" cy="-18" rx="145.34" ry="18"/>
<text text-anchor="middle" x="976.52" y="-13.8" font-family="Times,serif" font-size="14.00">Literally all psychoanalytical theorists</text>
</a>
</g>
</g>
<!-- freud&#45;&gt;Literally all psychoanalytical theorists -->
<g id="edge19" class="edge">
<title>freud&#45;&gt;Literally all psychoanalytical theorists</title>
<path fill="none" stroke="black" d="M862.07,-77.91C881.66,-67.82 911.11,-52.67 935.23,-40.25"/>
<polygon fill="black" stroke="black" points="936.89,-43.34 944.18,-35.65 933.69,-37.11 936.89,-43.34"/>
</g>
<!-- Breuer -->
<g id="node3" class="node">
<title>Breuer</title>
<g id="a_node3"><a xlink:href="https://en.wikipedia.org/wiki/Josef_Breuer" xlink:title="Breuer">
<ellipse fill="none" stroke="black" cx="137.52" cy="-162" rx="34.34" ry="18"/>
<text text-anchor="middle" x="137.52" y="-157.8" font-family="Times,serif" font-size="14.00">Breuer</text>
</a>
</g>
</g>
<!-- Breuer&#45;&gt;freud -->
<g id="edge2" class="edge">
<title>Breuer&#45;&gt;freud</title>
<path fill="none" stroke="black" d="M162.59,-149.65C168.38,-147.44 174.58,-145.38 180.52,-144 299.93,-116.25 678.49,-97.95 801.5,-92.62"/>
<polygon fill="black" stroke="black" points="801.75,-96.11 811.59,-92.18 801.45,-89.12 801.75,-96.11"/>
</g>
<!-- Charcot -->
<g id="node4" class="node">
<title>Charcot</title>
<g id="a_node4"><a xlink:href="https://en.wikipedia.org/wiki/Jean_Martin_Charcot" xlink:title="Charcot">
<ellipse fill="none" stroke="black" cx="227.52" cy="-162" rx="38.2" ry="18"/>
<text text-anchor="middle" x="227.52" y="-157.8" font-family="Times,serif" font-size="14.00">Charcot</text>
</a>
</g>
</g>
<!-- Charcot&#45;&gt;freud -->
<g id="edge3" class="edge">
<title>Charcot&#45;&gt;freud</title>
<path fill="none" stroke="black" d="M255.51,-149.57C261.69,-147.41 268.26,-145.4 274.52,-144 469.04,-100.46 708.92,-92.63 801.52,-91.27"/>
<polygon fill="black" stroke="black" points="801.6,-94.77 811.56,-91.14 801.51,-87.77 801.6,-94.77"/>
</g>
<!-- Darwin -->
<g id="node5" class="node">
<title>Darwin</title>
<g id="a_node5"><a xlink:href="https://en.wikipedia.org/wiki/Charles_Darwin" xlink:title="Darwin">
<ellipse fill="none" stroke="black" cx="320.52" cy="-162" rx="36.76" ry="18"/>
<text text-anchor="middle" x="320.52" y="-157.8" font-family="Times,serif" font-size="14.00">Darwin</text>
</a>
</g>
</g>
<!-- Darwin&#45;&gt;freud -->
<g id="edge4" class="edge">
<title>Darwin&#45;&gt;freud</title>
<path fill="none" stroke="black" d="M347.92,-149.64C353.96,-147.49 360.39,-145.45 366.52,-144 524.99,-106.45 719.73,-95.31 801.48,-92.17"/>
<polygon fill="black" stroke="black" points="801.93,-95.66 811.79,-91.79 801.67,-88.66 801.93,-95.66"/>
</g>
<!-- Dostoyevsky -->
<g id="node6" class="node">
<title>Dostoyevsky</title>
<g id="a_node6"><a xlink:href="https://en.wikipedia.org/wiki/Fyodor_Dostoyevsky" xlink:title="Dostoyevsky">
<ellipse fill="none" stroke="black" cx="431.52" cy="-162" rx="56.08" ry="18"/>
<text text-anchor="middle" x="431.52" y="-157.8" font-family="Times,serif" font-size="14.00">Dostoyevsky</text>
</a>
</g>
</g>
<!-- Dostoyevsky&#45;&gt;freud -->
<g id="edge5" class="edge">
<title>Dostoyevsky&#45;&gt;freud</title>
<path fill="none" stroke="black" d="M472.92,-149.67C481.04,-147.64 489.53,-145.64 497.52,-144 607.38,-121.42 738.82,-103.66 802.38,-95.64"/>
<polygon fill="black" stroke="black" points="802.86,-99.11 812.34,-94.4 801.99,-92.16 802.86,-99.11"/>
</g>
<!-- Empedocles -->
<g id="node7" class="node">
<title>Empedocles</title>
<g id="a_node7"><a xlink:href="https://en.wikipedia.org/wiki/Empedocles" xlink:title="Empedocles">
<ellipse fill="none" stroke="black" cx="559.52" cy="-162" rx="53.15" ry="18"/>
<text text-anchor="middle" x="559.52" y="-157.8" font-family="Times,serif" font-size="14.00">Empedocles</text>
</a>
</g>
</g>
<!-- Empedocles&#45;&gt;freud -->
<g id="edge6" class="edge">
<title>Empedocles&#45;&gt;freud</title>
<path fill="none" stroke="black" d="M599.17,-149.94C606.58,-147.92 614.28,-145.87 621.52,-144 685.52,-127.49 760.43,-109.68 803.98,-99.49"/>
<polygon fill="black" stroke="black" points="804.88,-102.87 813.83,-97.19 803.29,-96.05 804.88,-102.87"/>
</g>
<!-- Fechner -->
<g id="node8" class="node">
<title>Fechner</title>
<g id="a_node8"><a xlink:href="https://en.wikipedia.org/wiki/Gustav_Fechner" xlink:title="Fechner">
<ellipse fill="none" stroke="black" cx="669.52" cy="-162" rx="38.68" ry="18"/>
<text text-anchor="middle" x="669.52" y="-157.8" font-family="Times,serif" font-size="14.00">Fechner</text>
</a>
</g>
</g>
<!-- Fechner&#45;&gt;freud -->
<g id="edge7" class="edge">
<title>Fechner&#45;&gt;freud</title>
<path fill="none" stroke="black" d="M697.76,-149.44C728.02,-137.05 775.99,-117.42 807.86,-104.37"/>
<polygon fill="black" stroke="black" points="809.27,-107.58 817.19,-100.55 806.61,-101.1 809.27,-107.58"/>
</g>
<!-- Fliess -->
<g id="node9" class="node">
<title>Fliess</title>
<g id="a_node9"><a xlink:href="https://en.wikipedia.org/wiki/Wilhelm_Fliess" xlink:title="Fliess">
<ellipse fill="none" stroke="black" cx="756.52" cy="-162" rx="31" ry="18"/>
<text text-anchor="middle" x="756.52" y="-157.8" font-family="Times,serif" font-size="14.00">Fliess</text>
</a>
</g>
</g>
<!-- Fliess&#45;&gt;freud -->
<g id="edge8" class="edge">
<title>Fliess&#45;&gt;freud</title>
<path fill="none" stroke="black" d="M773.52,-146.83C785.67,-136.71 802.21,-122.93 815.81,-111.59"/>
<polygon fill="black" stroke="black" points="818.39,-114 823.84,-104.91 813.91,-108.62 818.39,-114"/>
</g>
<!-- Goethe -->
<g id="node10" class="node">
<title>Goethe</title>
<g id="a_node10"><a xlink:href="https://en.wikipedia.org/wiki/Johann_Wolfgang_von_Goethe" xlink:title="Goethe">
<ellipse fill="none" stroke="black" cx="840.52" cy="-162" rx="35.79" ry="18"/>
<text text-anchor="middle" x="840.52" y="-157.8" font-family="Times,serif" font-size="14.00">Goethe</text>
</a>
</g>
</g>
<!-- Goethe&#45;&gt;freud -->
<g id="edge9" class="edge">
<title>Goethe&#45;&gt;freud</title>
<path fill="none" stroke="black" d="M840.52,-143.7C840.52,-135.98 840.52,-126.71 840.52,-118.11"/>
<polygon fill="black" stroke="black" points="844.02,-118.1 840.52,-108.1 837.02,-118.1 844.02,-118.1"/>
</g>
<!-- von Hartmann -->
<g id="node11" class="node">
<title>von Hartmann</title>
<g id="a_node11"><a xlink:href="https://en.wikipedia.org/wiki/Eduard_von_Hartmann" xlink:title="von Hartmann">
<ellipse fill="none" stroke="black" cx="955.52" cy="-162" rx="60.89" ry="18"/>
<text text-anchor="middle" x="955.52" y="-157.8" font-family="Times,serif" font-size="14.00">von Hartmann</text>
</a>
</g>
</g>
<!-- von Hartmann&#45;&gt;freud -->
<g id="edge10" class="edge">
<title>von Hartmann&#45;&gt;freud</title>
<path fill="none" stroke="black" d="M930,-145.46C912.03,-134.53 887.95,-119.87 869.3,-108.52"/>
<polygon fill="black" stroke="black" points="870.99,-105.45 860.63,-103.24 867.35,-111.43 870.99,-105.45"/>
</g>
<!-- Herbart -->
<g id="node12" class="node">
<title>Herbart</title>
<g id="a_node12"><a xlink:href="https://en.wikipedia.org/wiki/Johann_Friedrich_Herbart" xlink:title="Herbart">
<ellipse fill="none" stroke="black" cx="1071.52" cy="-162" rx="37.22" ry="18"/>
<text text-anchor="middle" x="1071.52" y="-157.8" font-family="Times,serif" font-size="14.00">Herbart</text>
</a>
</g>
</g>
<!-- Herbart&#45;&gt;freud -->
<g id="edge11" class="edge">
<title>Herbart&#45;&gt;freud</title>
<path fill="none" stroke="black" d="M1043.42,-150.23C1037.54,-148.09 1031.35,-145.91 1025.52,-144 974.3,-127.22 914.16,-110.54 876.69,-100.5"/>
<polygon fill="black" stroke="black" points="877.32,-97.04 866.75,-97.85 875.51,-103.81 877.32,-97.04"/>
</g>
<!-- Kierkegaard -->
<g id="node13" class="node">
<title>Kierkegaard</title>
<g id="a_node13"><a xlink:href="https://en.wikipedia.org/wiki/S%C3%B8ren_Kierkegaard" xlink:title="Kierkegaard">
<ellipse fill="none" stroke="black" cx="1180.52" cy="-162" rx="53.61" ry="18"/>
<text text-anchor="middle" x="1180.52" y="-157.8" font-family="Times,serif" font-size="14.00">Kierkegaard</text>
</a>
</g>
</g>
<!-- Kierkegaard&#45;&gt;freud -->
<g id="edge12" class="edge">
<title>Kierkegaard&#45;&gt;freud</title>
<path fill="none" stroke="black" d="M1140.64,-149.76C1132.99,-147.74 1125.03,-145.73 1117.52,-144 1032.53,-124.43 931.71,-106.43 878.23,-97.3"/>
<polygon fill="black" stroke="black" points="878.63,-93.81 868.19,-95.59 877.46,-100.72 878.63,-93.81"/>
</g>
<!-- Nietzsche -->
<g id="node14" class="node">
<title>Nietzsche</title>
<g id="a_node14"><a xlink:href="https://en.wikipedia.org/wiki/Friedrich_Nietzsche" xlink:title="Nietzsche">
<ellipse fill="none" stroke="black" cx="1297.52" cy="-162" rx="44.94" ry="18"/>
<text text-anchor="middle" x="1297.52" y="-157.8" font-family="Times,serif" font-size="14.00">Nietzsche</text>
</a>
</g>
</g>
<!-- Nietzsche&#45;&gt;freud -->
<g id="edge13" class="edge">
<title>Nietzsche&#45;&gt;freud</title>
<path fill="none" stroke="black" d="M1264.64,-149.65C1257.73,-147.54 1250.43,-145.53 1243.52,-144 1111.53,-114.78 951.4,-99.61 879.16,-93.83"/>
<polygon fill="black" stroke="black" points="879.4,-90.34 869.16,-93.04 878.85,-97.31 879.4,-90.34"/>
</g>
<!-- Plato -->
<g id="node15" class="node">
<title>Plato</title>
<g id="a_node15"><a xlink:href="https://en.wikipedia.org/wiki/Plato" xlink:title="Plato">
<ellipse fill="none" stroke="black" cx="1388.52" cy="-162" rx="28.07" ry="18"/>
<text text-anchor="middle" x="1388.52" y="-157.8" font-family="Times,serif" font-size="14.00">Plato</text>
</a>
</g>
</g>
<!-- Plato&#45;&gt;freud -->
<g id="edge14" class="edge">
<title>Plato&#45;&gt;freud</title>
<path fill="none" stroke="black" d="M1367.45,-149.88C1362.35,-147.6 1356.84,-145.45 1351.52,-144 1180.16,-97.12 966.09,-91.11 879.53,-90.75"/>
<polygon fill="black" stroke="black" points="879.38,-87.25 869.37,-90.73 879.37,-94.25 879.38,-87.25"/>
</g>
<!-- Schopenhauer -->
<g id="node16" class="node">
<title>Schopenhauer</title>
<g id="a_node16"><a xlink:href="https://en.wikipedia.org/wiki/Arthur_Schopenhauer" xlink:title="Schopenhauer">
<ellipse fill="none" stroke="black" cx="1494.52" cy="-162" rx="60.4" ry="18"/>
<text text-anchor="middle" x="1494.52" y="-157.8" font-family="Times,serif" font-size="14.00">Schopenhauer</text>
</a>
</g>
</g>
<!-- Schopenhauer&#45;&gt;freud -->
<g id="edge15" class="edge">
<title>Schopenhauer&#45;&gt;freud</title>
<path fill="none" stroke="black" d="M1451.3,-149.29C1442.8,-147.29 1433.92,-145.41 1425.52,-144 1221.66,-109.85 973.9,-96.55 879.54,-92.5"/>
<polygon fill="black" stroke="black" points="879.47,-88.99 869.33,-92.07 879.17,-95.98 879.47,-88.99"/>
</g>
<!-- Shakespeare -->
<g id="node17" class="node">
<title>Shakespeare</title>
<g id="a_node17"><a xlink:href="https://en.wikipedia.org/wiki/William_Shakespeare" xlink:title="Shakespeare">
<ellipse fill="none" stroke="black" cx="1627.52" cy="-162" rx="54.11" ry="18"/>
<text text-anchor="middle" x="1627.52" y="-157.8" font-family="Times,serif" font-size="14.00">Shakespeare</text>
</a>
</g>
</g>
<!-- Shakespeare&#45;&gt;freud -->
<g id="edge16" class="edge">
<title>Shakespeare&#45;&gt;freud</title>
<path fill="none" stroke="black" d="M1588.51,-149.4C1580.32,-147.32 1571.69,-145.37 1563.52,-144 1304.97,-100.57 988.47,-92.73 879.52,-91.31"/>
<polygon fill="black" stroke="black" points="879.38,-87.81 869.34,-91.19 879.3,-94.81 879.38,-87.81"/>
</g>
<!-- Sophocles -->
<g id="node18" class="node">
<title>Sophocles</title>
<g id="a_node18"><a xlink:href="https://en.wikipedia.org/wiki/Sophocles" xlink:title="Sophocles">
<ellipse fill="none" stroke="black" cx="1746.52" cy="-162" rx="46.42" ry="18"/>
<text text-anchor="middle" x="1746.52" y="-157.8" font-family="Times,serif" font-size="14.00">Sophocles</text>
</a>
</g>
</g>
<!-- Sophocles&#45;&gt;freud -->
<g id="edge17" class="edge">
<title>Sophocles&#45;&gt;freud</title>
<path fill="none" stroke="black" d="M1713.07,-149.46C1705.72,-147.32 1697.92,-145.33 1690.52,-144 1531.53,-115.31 1024.59,-96.98 879.6,-92.23"/>
<polygon fill="black" stroke="black" points="879.52,-88.73 869.41,-91.9 879.29,-95.72 879.52,-88.73"/>
</g>
</g>
</svg>
