<?xml version="1.0" encoding="UTF-8" standalone="no"?>
<!DOCTYPE svg PUBLIC "-//W3C//DTD SVG 1.1//EN"
 "http://www.w3.org/Graphics/SVG/1.1/DTD/svg11.dtd">
<!-- Generated by graphviz version 2.42.3 (20191010.1750)
 -->
<!-- Title: G Pages: 1 -->
<svg width="977pt" height="188pt"
 viewBox="0.00 0.00 977.11 188.00" xmlns="http://www.w3.org/2000/svg" xmlns:xlink="http://www.w3.org/1999/xlink">
<g id="graph0" class="graph" transform="scale(1 1) rotate(0) translate(4 184)">
<title>G</title>
<polygon fill="white" stroke="transparent" points="-4,4 -4,-184 973.11,-184 973.11,4 -4,4"/>
<!-- Sigmund Freud -->
<g id="node1" class="node">
<title>Sigmund Freud</title>
<g id="a_node1"><a xlink:href="https://en.wikipedia.org/wiki/Sigmund_Freud" xlink:title="Sigmund Freud">
<ellipse fill="none" stroke="black" cx="64.89" cy="-162" rx="64.78" ry="18"/>
<text text-anchor="middle" x="64.89" y="-157.8" font-family="Times,serif" font-size="14.00">Sigmund Freud</text>
</a>
</g>
</g>
<!-- Irigaray -->
<g id="node2" class="node">
<title>Irigaray</title>
<ellipse fill="none" stroke="black" cx="447.89" cy="-90" rx="38.19" ry="18"/>
<text text-anchor="middle" x="447.89" y="-85.8" font-family="Times,serif" font-size="14.00">Irigaray</text>
</g>
<!-- Sigmund Freud&#45;&gt;Irigaray -->
<g id="edge1" class="edge">
<title>Sigmund Freud&#45;&gt;Irigaray</title>
<path fill="none" stroke="black" d="M112.57,-149.63C121.31,-147.67 130.36,-145.71 138.89,-144 231.97,-125.34 341.64,-107.51 402.1,-98.03"/>
<polygon fill="black" stroke="black" points="402.74,-101.48 412.09,-96.47 401.66,-94.56 402.74,-101.48"/>
</g>
<!-- Catherine Malabou -->
<g id="node8" class="node">
<title>Catherine Malabou</title>
<g id="a_node8"><a xlink:href="https://en.wikipedia.org/wiki/Catherine_Malabou" xlink:title="Catherine Malabou">
<ellipse fill="none" stroke="black" cx="295.89" cy="-18" rx="78.26" ry="18"/>
<text text-anchor="middle" x="295.89" y="-13.8" font-family="Times,serif" font-size="14.00">Catherine Malabou</text>
</a>
</g>
</g>
<!-- Irigaray&#45;&gt;Catherine Malabou -->
<g id="edge7" class="edge">
<title>Irigaray&#45;&gt;Catherine Malabou</title>
<path fill="none" stroke="black" d="M421.41,-76.81C398.51,-66.26 364.98,-50.82 338.34,-38.55"/>
<polygon fill="black" stroke="black" points="339.78,-35.36 329.23,-34.35 336.85,-41.72 339.78,-35.36"/>
</g>
<!-- Judith Butler -->
<g id="node9" class="node">
<title>Judith Butler</title>
<g id="a_node9"><a xlink:href="https://en.wikipedia.org/wiki/Judith_Butler" xlink:title="Judith Butler">
<ellipse fill="none" stroke="black" cx="447.89" cy="-18" rx="56.09" ry="18"/>
<text text-anchor="middle" x="447.89" y="-13.8" font-family="Times,serif" font-size="14.00">Judith Butler</text>
</a>
</g>
</g>
<!-- Irigaray&#45;&gt;Judith Butler -->
<g id="edge8" class="edge">
<title>Irigaray&#45;&gt;Judith Butler</title>
<path fill="none" stroke="black" d="M447.89,-71.7C447.89,-63.98 447.89,-54.71 447.89,-46.11"/>
<polygon fill="black" stroke="black" points="451.39,-46.1 447.89,-36.1 444.39,-46.1 451.39,-46.1"/>
</g>
<!-- Elizabeth Grosz -->
<g id="node10" class="node">
<title>Elizabeth Grosz</title>
<g id="a_node10"><a xlink:href="https://en.wikipedia.org/wiki/Elizabeth_Grosz" xlink:title="Elizabeth Grosz">
<ellipse fill="none" stroke="black" cx="588.89" cy="-18" rx="66.66" ry="18"/>
<text text-anchor="middle" x="588.89" y="-13.8" font-family="Times,serif" font-size="14.00">Elizabeth Grosz</text>
</a>
</g>
</g>
<!-- Irigaray&#45;&gt;Elizabeth Grosz -->
<g id="edge9" class="edge">
<title>Irigaray&#45;&gt;Elizabeth Grosz</title>
<path fill="none" stroke="black" d="M473.1,-76.49C494.31,-65.95 525.01,-50.71 549.47,-38.57"/>
<polygon fill="black" stroke="black" points="551.1,-41.67 558.5,-34.09 547.99,-35.4 551.1,-41.67"/>
</g>
<!-- Jacques Lacan -->
<g id="node3" class="node">
<title>Jacques Lacan</title>
<g id="a_node3"><a xlink:href="https://en.wikipedia.org/wiki/Jacques_Lacan" xlink:title="Jacques Lacan">
<ellipse fill="none" stroke="black" cx="208.89" cy="-162" rx="61.34" ry="18"/>
<text text-anchor="middle" x="208.89" y="-157.8" font-family="Times,serif" font-size="14.00">Jacques Lacan</text>
</a>
</g>
</g>
<!-- Jacques Lacan&#45;&gt;Irigaray -->
<g id="edge2" class="edge">
<title>Jacques Lacan&#45;&gt;Irigaray</title>
<path fill="none" stroke="black" d="M250.79,-148.73C294.64,-135.89 363.03,-115.85 406.63,-103.08"/>
<polygon fill="black" stroke="black" points="407.73,-106.41 416.35,-100.24 405.76,-99.69 407.73,-106.41"/>
</g>
<!-- Emmanuel Levinas -->
<g id="node4" class="node">
<title>Emmanuel Levinas</title>
<g id="a_node4"><a xlink:href="https://en.wikipedia.org/wiki/Emmanuel_Levinas" xlink:title="Emmanuel Levinas">
<ellipse fill="none" stroke="black" cx="366.89" cy="-162" rx="78.74" ry="18"/>
<text text-anchor="middle" x="366.89" y="-157.8" font-family="Times,serif" font-size="14.00">Emmanuel Levinas</text>
</a>
</g>
</g>
<!-- Emmanuel Levinas&#45;&gt;Irigaray -->
<g id="edge3" class="edge">
<title>Emmanuel Levinas&#45;&gt;Irigaray</title>
<path fill="none" stroke="black" d="M386.09,-144.41C397.03,-134.95 410.88,-122.98 422.7,-112.77"/>
<polygon fill="black" stroke="black" points="425.21,-115.23 430.49,-106.04 420.63,-109.93 425.21,-115.23"/>
</g>
<!-- Jacques Derrida -->
<g id="node5" class="node">
<title>Jacques Derrida</title>
<g id="a_node5"><a xlink:href="https://en.wikipedia.org/wiki/Jacques_Derrida" xlink:title="Jacques Derrida">
<ellipse fill="none" stroke="black" cx="529.89" cy="-162" rx="66.65" ry="18"/>
<text text-anchor="middle" x="529.89" y="-157.8" font-family="Times,serif" font-size="14.00">Jacques Derrida</text>
</a>
</g>
</g>
<!-- Jacques Derrida&#45;&gt;Irigaray -->
<g id="edge4" class="edge">
<title>Jacques Derrida&#45;&gt;Irigaray</title>
<path fill="none" stroke="black" d="M510.46,-144.41C499.38,-134.95 485.35,-122.98 473.4,-112.77"/>
<polygon fill="black" stroke="black" points="475.38,-109.87 465.51,-106.04 470.84,-115.19 475.38,-109.87"/>
</g>
<!-- Maurice Merleau&#45;Ponty -->
<g id="node6" class="node">
<title>Maurice Merleau&#45;Ponty</title>
<g id="a_node6"><a xlink:href="https://en.wikipedia.org/wiki/Maurice_Merleau-Ponty" xlink:title="Maurice Merleau&#45;Ponty">
<ellipse fill="none" stroke="black" cx="709.89" cy="-162" rx="94.66" ry="18"/>
<text text-anchor="middle" x="709.89" y="-157.8" font-family="Times,serif" font-size="14.00">Maurice Merleau&#45;Ponty</text>
</a>
</g>
</g>
<!-- Maurice Merleau&#45;Ponty&#45;&gt;Irigaray -->
<g id="edge5" class="edge">
<title>Maurice Merleau&#45;Ponty&#45;&gt;Irigaray</title>
<path fill="none" stroke="black" d="M657.19,-146.92C608.01,-133.78 535.57,-114.43 490.1,-102.28"/>
<polygon fill="black" stroke="black" points="490.83,-98.85 480.27,-99.65 489.03,-105.61 490.83,-98.85"/>
</g>
<!-- Martin Heidegger -->
<g id="node7" class="node">
<title>Martin Heidegger</title>
<g id="a_node7"><a xlink:href="https://en.wikipedia.org/wiki/Martin_Heidegger" xlink:title="Martin Heidegger">
<ellipse fill="none" stroke="black" cx="895.89" cy="-162" rx="73.43" ry="18"/>
<text text-anchor="middle" x="895.89" y="-157.8" font-family="Times,serif" font-size="14.00">Martin Heidegger</text>
</a>
</g>
</g>
<!-- Martin Heidegger&#45;&gt;Irigaray -->
<g id="edge6" class="edge">
<title>Martin Heidegger&#45;&gt;Irigaray</title>
<path fill="none" stroke="black" d="M842.61,-149.47C833.07,-147.54 823.2,-145.64 813.89,-144 699.61,-123.9 564.28,-105.77 494.58,-96.84"/>
<polygon fill="black" stroke="black" points="494.73,-93.33 484.37,-95.54 493.85,-100.27 494.73,-93.33"/>
</g>
</g>
</svg>
