<?xml version="1.0" encoding="UTF-8" standalone="no"?>
<!DOCTYPE svg PUBLIC "-//W3C//DTD SVG 1.1//EN"
 "http://www.w3.org/Graphics/SVG/1.1/DTD/svg11.dtd">
<!-- Generated by graphviz version 2.42.3 (20191010.1750)
 -->
<!-- Title: G Pages: 1 -->
<svg width="1978pt" height="188pt"
 viewBox="0.00 0.00 1977.52 188.00" xmlns="http://www.w3.org/2000/svg" xmlns:xlink="http://www.w3.org/1999/xlink">
<g id="graph0" class="graph" transform="scale(1 1) rotate(0) translate(4 184)">
<title>G</title>
<polygon fill="white" stroke="transparent" points="-4,4 -4,-184 1973.52,-184 1973.52,4 -4,4"/>
<!-- Sigmund Freud -->
<g id="node1" class="node">
<title>Sigmund Freud</title>
<g id="a_node1"><a xlink:href="https://en.wikipedia.org/wiki/Sigmund_Freud" xlink:title="Sigmund Freud">
<ellipse fill="none" stroke="black" cx="64.89" cy="-162" rx="64.78" ry="18"/>
<text text-anchor="middle" x="64.89" y="-157.8" font-family="Times,serif" font-size="14.00">Sigmund Freud</text>
</a>
</g>
</g>
<!-- Jacques Lacan -->
<g id="node2" class="node">
<title>Jacques Lacan</title>
<ellipse fill="none" stroke="black" cx="1016.89" cy="-90" rx="61.34" ry="18"/>
<text text-anchor="middle" x="1016.89" y="-85.8" font-family="Times,serif" font-size="14.00">Jacques Lacan</text>
</g>
<!-- Sigmund Freud&#45;&gt;Jacques Lacan -->
<g id="edge1" class="edge">
<title>Sigmund Freud&#45;&gt;Jacques Lacan</title>
<path fill="none" stroke="black" d="M110.85,-149.2C120.09,-147.18 129.76,-145.32 138.89,-144 436.43,-101.14 795.53,-92.86 945.59,-91.32"/>
<polygon fill="black" stroke="black" points="945.63,-94.82 955.6,-91.22 945.56,-87.82 945.63,-94.82"/>
</g>
<!-- Alain Badiou -->
<g id="node14" class="node">
<title>Alain Badiou</title>
<g id="a_node14"><a xlink:href="https://en.wikipedia.org/wiki/Alain_Badiou" xlink:title="Alain Badiou">
<ellipse fill="none" stroke="black" cx="279.89" cy="-18" rx="57.52" ry="18"/>
<text text-anchor="middle" x="279.89" y="-13.8" font-family="Times,serif" font-size="14.00">Alain Badiou</text>
</a>
</g>
</g>
<!-- Jacques Lacan&#45;&gt;Alain Badiou -->
<g id="edge13" class="edge">
<title>Jacques Lacan&#45;&gt;Alain Badiou</title>
<path fill="none" stroke="black" d="M955.86,-87.71C837.45,-84.44 568.63,-73.19 345.89,-36 340.91,-35.17 335.76,-34.14 330.63,-33.01"/>
<polygon fill="black" stroke="black" points="331.38,-29.59 320.85,-30.72 329.79,-36.41 331.38,-29.59"/>
</g>
<!-- Louis Althusser -->
<g id="node15" class="node">
<title>Louis Althusser</title>
<g id="a_node15"><a xlink:href="https://en.wikipedia.org/wiki/Louis_Althusser" xlink:title="Louis Althusser">
<ellipse fill="none" stroke="black" cx="420.89" cy="-18" rx="65.75" ry="18"/>
<text text-anchor="middle" x="420.89" y="-13.8" font-family="Times,serif" font-size="14.00">Louis Althusser</text>
</a>
</g>
</g>
<!-- Jacques Lacan&#45;&gt;Louis Althusser -->
<g id="edge14" class="edge">
<title>Jacques Lacan&#45;&gt;Louis Althusser</title>
<path fill="none" stroke="black" d="M957.2,-85.3C860.05,-78.74 661.88,-63.15 495.89,-36 490.15,-35.06 484.19,-33.95 478.26,-32.75"/>
<polygon fill="black" stroke="black" points="478.84,-29.3 468.33,-30.67 477.4,-36.15 478.84,-29.3"/>
</g>
<!-- Luce Irigaray -->
<g id="node16" class="node">
<title>Luce Irigaray</title>
<g id="a_node16"><a xlink:href="https://en.wikipedia.org/wiki/Luce_Irigaray" xlink:title="Luce Irigaray">
<ellipse fill="none" stroke="black" cx="562.89" cy="-18" rx="57.95" ry="18"/>
<text text-anchor="middle" x="562.89" y="-13.8" font-family="Times,serif" font-size="14.00">Luce Irigaray</text>
</a>
</g>
</g>
<!-- Jacques Lacan&#45;&gt;Luce Irigaray -->
<g id="edge15" class="edge">
<title>Jacques Lacan&#45;&gt;Luce Irigaray</title>
<path fill="none" stroke="black" d="M959.84,-83.22C884.06,-75.07 746.21,-58.65 629.89,-36 624.94,-35.04 619.8,-33.93 614.68,-32.75"/>
<polygon fill="black" stroke="black" points="615.44,-29.34 604.9,-30.43 613.82,-36.15 615.44,-29.34"/>
</g>
<!-- Julia Kristeva -->
<g id="node17" class="node">
<title>Julia Kristeva</title>
<g id="a_node17"><a xlink:href="https://en.wikipedia.org/wiki/Julia_Kristeva" xlink:title="Julia Kristeva">
<ellipse fill="none" stroke="black" cx="697.89" cy="-18" rx="58.96" ry="18"/>
<text text-anchor="middle" x="697.89" y="-13.8" font-family="Times,serif" font-size="14.00">Julia Kristeva</text>
</a>
</g>
</g>
<!-- Jacques Lacan&#45;&gt;Julia Kristeva -->
<g id="edge16" class="edge">
<title>Jacques Lacan&#45;&gt;Julia Kristeva</title>
<path fill="none" stroke="black" d="M967.51,-79.24C916.6,-69.03 835.01,-52.26 764.89,-36 760.5,-34.98 755.95,-33.9 751.39,-32.78"/>
<polygon fill="black" stroke="black" points="751.98,-29.33 741.44,-30.33 750.31,-36.12 751.98,-29.33"/>
</g>
<!-- Jacques&#45;Alain Miller -->
<g id="node18" class="node">
<title>Jacques&#45;Alain Miller</title>
<g id="a_node18"><a xlink:href="https://en.wikipedia.org/wiki/Jacques-Alain_Miller" xlink:title="Jacques&#45;Alain Miller">
<ellipse fill="none" stroke="black" cx="858.89" cy="-18" rx="84.53" ry="18"/>
<text text-anchor="middle" x="858.89" y="-13.8" font-family="Times,serif" font-size="14.00">Jacques&#45;Alain Miller</text>
</a>
</g>
</g>
<!-- Jacques Lacan&#45;&gt;Jacques&#45;Alain Miller -->
<g id="edge17" class="edge">
<title>Jacques Lacan&#45;&gt;Jacques&#45;Alain Miller</title>
<path fill="none" stroke="black" d="M984.54,-74.67C960.98,-64.23 928.79,-49.97 902.9,-38.5"/>
<polygon fill="black" stroke="black" points="904.23,-35.26 893.67,-34.41 901.39,-41.66 904.23,-35.26"/>
</g>
<!-- Slavoj Žižek -->
<g id="node19" class="node">
<title>Slavoj Žižek</title>
<g id="a_node19"><a xlink:href="https://en.wikipedia.org/wiki/Slavoj_%C5%BDi%C5%BEek" xlink:title="Slavoj Žižek">
<ellipse fill="none" stroke="black" cx="1016.89" cy="-18" rx="55.1" ry="18"/>
<text text-anchor="middle" x="1016.89" y="-13.8" font-family="Times,serif" font-size="14.00">Slavoj Žižek</text>
</a>
</g>
</g>
<!-- Jacques Lacan&#45;&gt;Slavoj Žižek -->
<g id="edge18" class="edge">
<title>Jacques Lacan&#45;&gt;Slavoj Žižek</title>
<path fill="none" stroke="black" d="M1016.89,-71.7C1016.89,-63.98 1016.89,-54.71 1016.89,-46.11"/>
<polygon fill="black" stroke="black" points="1020.39,-46.1 1016.89,-36.1 1013.39,-46.1 1020.39,-46.1"/>
</g>
<!-- Éric Laurent -->
<g id="node20" class="node">
<title>Éric Laurent</title>
<g id="a_node20"><a xlink:href="https://en.wikipedia.org/wiki/%C3%89ric_Laurent_(psychoanalyst)" xlink:title="Éric Laurent">
<ellipse fill="none" stroke="black" cx="1144.89" cy="-18" rx="54.59" ry="18"/>
<text text-anchor="middle" x="1144.89" y="-13.8" font-family="Times,serif" font-size="14.00">Éric Laurent</text>
</a>
</g>
</g>
<!-- Jacques Lacan&#45;&gt;Éric Laurent -->
<g id="edge19" class="edge">
<title>Jacques Lacan&#45;&gt;Éric Laurent</title>
<path fill="none" stroke="black" d="M1044.66,-73.81C1063.54,-63.49 1088.68,-49.74 1109.06,-38.6"/>
<polygon fill="black" stroke="black" points="1110.95,-41.55 1118.05,-33.68 1107.59,-35.41 1110.95,-41.55"/>
</g>
<!-- Elisabeth Roudinesco -->
<g id="node21" class="node">
<title>Elisabeth Roudinesco</title>
<g id="a_node21"><a xlink:href="https://en.wikipedia.org/wiki/Elisabeth_Roudinesco" xlink:title="Elisabeth Roudinesco">
<ellipse fill="none" stroke="black" cx="1304.89" cy="-18" rx="86.96" ry="18"/>
<text text-anchor="middle" x="1304.89" y="-13.8" font-family="Times,serif" font-size="14.00">Elisabeth Roudinesco</text>
</a>
</g>
</g>
<!-- Jacques Lacan&#45;&gt;Elisabeth Roudinesco -->
<g id="edge20" class="edge">
<title>Jacques Lacan&#45;&gt;Elisabeth Roudinesco</title>
<path fill="none" stroke="black" d="M1062.52,-77.91C1110.68,-66.2 1186.95,-47.67 1241.05,-34.52"/>
<polygon fill="black" stroke="black" points="1242,-37.89 1250.89,-32.13 1240.34,-31.09 1242,-37.89"/>
</g>
<!-- Mari Ruti -->
<g id="node22" class="node">
<title>Mari Ruti</title>
<g id="a_node22"><a xlink:href="https://en.wikipedia.org/wiki/Mari_Ruti" xlink:title="Mari Ruti">
<ellipse fill="none" stroke="black" cx="1454.89" cy="-18" rx="44.99" ry="18"/>
<text text-anchor="middle" x="1454.89" y="-13.8" font-family="Times,serif" font-size="14.00">Mari Ruti</text>
</a>
</g>
</g>
<!-- Jacques Lacan&#45;&gt;Mari Ruti -->
<g id="edge21" class="edge">
<title>Jacques Lacan&#45;&gt;Mari Ruti</title>
<path fill="none" stroke="black" d="M1075.01,-84.04C1150.69,-76.89 1286.8,-61.64 1400.89,-36 1404.56,-35.18 1408.34,-34.22 1412.11,-33.19"/>
<polygon fill="black" stroke="black" points="1413.37,-36.46 1422,-30.32 1411.42,-29.74 1413.37,-36.46"/>
</g>
<!-- Lacanian movement -->
<g id="node23" class="node">
<title>Lacanian movement</title>
<g id="a_node23"><a xlink:href="https://en.wikipedia.org/wiki/Lacanian_movement" xlink:title="Lacanian movement">
<ellipse fill="none" stroke="black" cx="1599.89" cy="-18" rx="82.1" ry="18"/>
<text text-anchor="middle" x="1599.89" y="-13.8" font-family="Times,serif" font-size="14.00">Lacanian movement</text>
</a>
</g>
</g>
<!-- Jacques Lacan&#45;&gt;Lacanian movement -->
<g id="edge22" class="edge">
<title>Jacques Lacan&#45;&gt;Lacanian movement</title>
<path fill="none" stroke="black" d="M1075.39,-84.17C1167.76,-76.22 1352.92,-58.93 1508.89,-36 1516.19,-34.93 1523.79,-33.69 1531.36,-32.39"/>
<polygon fill="black" stroke="black" points="1532.02,-35.83 1541.26,-30.64 1530.8,-28.93 1532.02,-35.83"/>
</g>
<!-- Ljubljana school of psychoanalysis -->
<g id="node24" class="node">
<title>Ljubljana school of psychoanalysis</title>
<g id="a_node24"><a xlink:href="https://en.wikipedia.org/wiki/Ljubljana_school_of_psychoanalysis" xlink:title="Ljubljana school of psychoanalysis">
<ellipse fill="none" stroke="black" cx="1834.89" cy="-18" rx="134.76" ry="18"/>
<text text-anchor="middle" x="1834.89" y="-13.8" font-family="Times,serif" font-size="14.00">Ljubljana school of psychoanalysis</text>
</a>
</g>
</g>
<!-- Jacques Lacan&#45;&gt;Ljubljana school of psychoanalysis -->
<g id="edge23" class="edge">
<title>Jacques Lacan&#45;&gt;Ljubljana school of psychoanalysis</title>
<path fill="none" stroke="black" d="M1076.47,-85.1C1194.06,-77.23 1464.28,-58.28 1690.89,-36 1703.47,-34.76 1716.65,-33.36 1729.72,-31.9"/>
<polygon fill="black" stroke="black" points="1730.13,-35.37 1739.67,-30.77 1729.34,-28.42 1730.13,-35.37"/>
</g>
<!-- Gaëtan Gatian de Clérambault -->
<g id="node3" class="node">
<title>Gaëtan Gatian de Clérambault</title>
<g id="a_node3"><a xlink:href="https://en.wikipedia.org/wiki/Ga%C3%ABtan_Gatian_de_Cl%C3%A9rambault" xlink:title="Gaëtan Gatian de Clérambault">
<ellipse fill="none" stroke="black" cx="264.89" cy="-162" rx="117.32" ry="18"/>
<text text-anchor="middle" x="264.89" y="-157.8" font-family="Times,serif" font-size="14.00">Gaëtan Gatian de Clérambault</text>
</a>
</g>
</g>
<!-- Gaëtan Gatian de Clérambault&#45;&gt;Jacques Lacan -->
<g id="edge2" class="edge">
<title>Gaëtan Gatian de Clérambault&#45;&gt;Jacques Lacan</title>
<path fill="none" stroke="black" d="M348.16,-149.27C362.72,-147.38 377.74,-145.55 391.89,-144 593.38,-121.98 832.28,-103.96 947.67,-95.77"/>
<polygon fill="black" stroke="black" points="948.04,-99.25 957.77,-95.05 947.55,-92.27 948.04,-99.25"/>
</g>
<!-- G.W.F. Hegel -->
<g id="node4" class="node">
<title>G.W.F. Hegel</title>
<g id="a_node4"><a xlink:href="https://en.wikipedia.org/wiki/Georg_Wilhelm_Friedrich_Hegel" xlink:title="G.W.F. Hegel">
<ellipse fill="none" stroke="black" cx="458.89" cy="-162" rx="58.4" ry="18"/>
<text text-anchor="middle" x="458.89" y="-157.8" font-family="Times,serif" font-size="14.00">G.W.F. Hegel</text>
</a>
</g>
</g>
<!-- G.W.F. Hegel&#45;&gt;Jacques Lacan -->
<g id="edge3" class="edge">
<title>G.W.F. Hegel&#45;&gt;Jacques Lacan</title>
<path fill="none" stroke="black" d="M500.87,-149.39C509.12,-147.38 517.74,-145.47 525.89,-144 674.88,-117.19 851.92,-102.15 947.44,-95.4"/>
<polygon fill="black" stroke="black" points="947.82,-98.88 957.55,-94.69 947.34,-91.9 947.82,-98.88"/>
</g>
<!-- Alexandre Kojève -->
<g id="node5" class="node">
<title>Alexandre Kojève</title>
<g id="a_node5"><a xlink:href="https://en.wikipedia.org/wiki/Alexandre_Koj%C3%A8ve" xlink:title="Alexandre Kojève">
<ellipse fill="none" stroke="black" cx="609.89" cy="-162" rx="74.87" ry="18"/>
<text text-anchor="middle" x="609.89" y="-157.8" font-family="Times,serif" font-size="14.00">Alexandre Kojève</text>
</a>
</g>
</g>
<!-- Alexandre Kojève&#45;&gt;Jacques Lacan -->
<g id="edge4" class="edge">
<title>Alexandre Kojève&#45;&gt;Jacques Lacan</title>
<path fill="none" stroke="black" d="M664.51,-149.64C674.28,-147.7 684.38,-145.74 693.89,-144 783.82,-127.53 888.3,-110.83 953.51,-100.69"/>
<polygon fill="black" stroke="black" points="954.29,-104.11 963.63,-99.12 953.21,-97.19 954.29,-104.11"/>
</g>
<!-- Claude Lévi&#45;Strauss -->
<g id="node6" class="node">
<title>Claude Lévi&#45;Strauss</title>
<g id="a_node6"><a xlink:href="https://en.wikipedia.org/wiki/Claude_L%C3%A9vi-Strauss" xlink:title="Claude Lévi&#45;Strauss">
<ellipse fill="none" stroke="black" cx="784.89" cy="-162" rx="82.14" ry="18"/>
<text text-anchor="middle" x="784.89" y="-157.8" font-family="Times,serif" font-size="14.00">Claude Lévi&#45;Strauss</text>
</a>
</g>
</g>
<!-- Claude Lévi&#45;Strauss&#45;&gt;Jacques Lacan -->
<g id="edge5" class="edge">
<title>Claude Lévi&#45;Strauss&#45;&gt;Jacques Lacan</title>
<path fill="none" stroke="black" d="M831,-147.09C869.95,-135.34 925.64,-118.53 965.91,-106.38"/>
<polygon fill="black" stroke="black" points="966.97,-109.72 975.53,-103.48 964.95,-103.02 966.97,-109.72"/>
</g>
<!-- Salvador Dali -->
<g id="node7" class="node">
<title>Salvador Dali</title>
<g id="a_node7"><a xlink:href="https://en.wikipedia.org/wiki/Salvador_Dali" xlink:title="Salvador Dali">
<ellipse fill="none" stroke="black" cx="943.89" cy="-162" rx="58.96" ry="18"/>
<text text-anchor="middle" x="943.89" y="-157.8" font-family="Times,serif" font-size="14.00">Salvador Dali</text>
</a>
</g>
</g>
<!-- Salvador Dali&#45;&gt;Jacques Lacan -->
<g id="edge6" class="edge">
<title>Salvador Dali&#45;&gt;Jacques Lacan</title>
<path fill="none" stroke="black" d="M961.19,-144.41C970.46,-135.52 982.05,-124.41 992.25,-114.63"/>
<polygon fill="black" stroke="black" points="994.92,-116.92 999.71,-107.47 990.07,-111.86 994.92,-116.92"/>
</g>
<!-- Georges Bataille -->
<g id="node8" class="node">
<title>Georges Bataille</title>
<g id="a_node8"><a xlink:href="https://en.wikipedia.org/wiki/Georges_Bataille" xlink:title="Georges Bataille">
<ellipse fill="none" stroke="black" cx="1089.89" cy="-162" rx="69.26" ry="18"/>
<text text-anchor="middle" x="1089.89" y="-157.8" font-family="Times,serif" font-size="14.00">Georges Bataille</text>
</a>
</g>
</g>
<!-- Georges Bataille&#45;&gt;Jacques Lacan -->
<g id="edge7" class="edge">
<title>Georges Bataille&#45;&gt;Jacques Lacan</title>
<path fill="none" stroke="black" d="M1072.59,-144.41C1063.32,-135.52 1051.73,-124.41 1041.53,-114.63"/>
<polygon fill="black" stroke="black" points="1043.71,-111.86 1034.07,-107.47 1038.86,-116.92 1043.71,-111.86"/>
</g>
<!-- Marquis de Sade -->
<g id="node9" class="node">
<title>Marquis de Sade</title>
<g id="a_node9"><a xlink:href="https://en.wikipedia.org/wiki/Marquis_de_Sade" xlink:title="Marquis de Sade">
<ellipse fill="none" stroke="black" cx="1246.89" cy="-162" rx="69.58" ry="18"/>
<text text-anchor="middle" x="1246.89" y="-157.8" font-family="Times,serif" font-size="14.00">Marquis de Sade</text>
</a>
</g>
</g>
<!-- Marquis de Sade&#45;&gt;Jacques Lacan -->
<g id="edge8" class="edge">
<title>Marquis de Sade&#45;&gt;Jacques Lacan</title>
<path fill="none" stroke="black" d="M1203.63,-147.83C1165.04,-136.09 1108.51,-118.88 1067.76,-106.48"/>
<polygon fill="black" stroke="black" points="1068.61,-103.08 1058.02,-103.52 1066.57,-109.78 1068.61,-103.08"/>
</g>
<!-- Jean Paul Sartre -->
<g id="node10" class="node">
<title>Jean Paul Sartre</title>
<g id="a_node10"><a xlink:href="https://en.wikipedia.org/wiki/Jean_Paul_Sartre" xlink:title="Jean Paul Sartre">
<ellipse fill="none" stroke="black" cx="1401.89" cy="-162" rx="67.16" ry="18"/>
<text text-anchor="middle" x="1401.89" y="-157.8" font-family="Times,serif" font-size="14.00">Jean Paul Sartre</text>
</a>
</g>
</g>
<!-- Jean Paul Sartre&#45;&gt;Jacques Lacan -->
<g id="edge9" class="edge">
<title>Jean Paul Sartre&#45;&gt;Jacques Lacan</title>
<path fill="none" stroke="black" d="M1352.91,-149.66C1343.94,-147.7 1334.65,-145.73 1325.89,-144 1241.04,-127.24 1142.47,-110.87 1079.91,-100.86"/>
<polygon fill="black" stroke="black" points="1080.23,-97.37 1069.8,-99.25 1079.12,-104.28 1080.23,-97.37"/>
</g>
<!-- Immanuel Kant -->
<g id="node11" class="node">
<title>Immanuel Kant</title>
<g id="a_node11"><a xlink:href="https://en.wikipedia.org/wiki/Immanuel_Kant" xlink:title="Immanuel Kant">
<ellipse fill="none" stroke="black" cx="1551.89" cy="-162" rx="65.22" ry="18"/>
<text text-anchor="middle" x="1551.89" y="-157.8" font-family="Times,serif" font-size="14.00">Immanuel Kant</text>
</a>
</g>
</g>
<!-- Immanuel Kant&#45;&gt;Jacques Lacan -->
<g id="edge10" class="edge">
<title>Immanuel Kant&#45;&gt;Jacques Lacan</title>
<path fill="none" stroke="black" d="M1505.07,-149.42C1496.09,-147.43 1486.72,-145.52 1477.89,-144 1339.51,-120.23 1175.88,-104.26 1085.52,-96.49"/>
<polygon fill="black" stroke="black" points="1085.67,-92.99 1075.41,-95.62 1085.07,-99.96 1085.67,-92.99"/>
</g>
<!-- Aristotle -->
<g id="node12" class="node">
<title>Aristotle</title>
<g id="a_node12"><a xlink:href="https://en.wikipedia.org/wiki/Aristotle" xlink:title="Aristotle">
<ellipse fill="none" stroke="black" cx="1675.89" cy="-162" rx="41.11" ry="18"/>
<text text-anchor="middle" x="1675.89" y="-157.8" font-family="Times,serif" font-size="14.00">Aristotle</text>
</a>
</g>
</g>
<!-- Aristotle&#45;&gt;Jacques Lacan -->
<g id="edge11" class="edge">
<title>Aristotle&#45;&gt;Jacques Lacan</title>
<path fill="none" stroke="black" d="M1646.08,-149.56C1639.51,-147.41 1632.53,-145.4 1625.89,-144 1434.34,-103.72 1202.7,-93.97 1088.15,-91.67"/>
<polygon fill="black" stroke="black" points="1088.17,-88.17 1078.11,-91.48 1088.04,-95.16 1088.17,-88.17"/>
</g>
<!-- Karl Marx -->
<g id="node13" class="node">
<title>Karl Marx</title>
<g id="a_node13"><a xlink:href="https://en.wikipedia.org/wiki/Karl_Marx" xlink:title="Karl Marx">
<ellipse fill="none" stroke="black" cx="1781.89" cy="-162" rx="47.37" ry="18"/>
<text text-anchor="middle" x="1781.89" y="-157.8" font-family="Times,serif" font-size="14.00">Karl Marx</text>
</a>
</g>
</g>
<!-- Karl Marx&#45;&gt;Jacques Lacan -->
<g id="edge12" class="edge">
<title>Karl Marx&#45;&gt;Jacques Lacan</title>
<path fill="none" stroke="black" d="M1747.83,-149.36C1740.66,-147.28 1733.08,-145.34 1725.89,-144 1495.82,-101.02 1217.6,-92.63 1088.78,-91.17"/>
<polygon fill="black" stroke="black" points="1088.68,-87.67 1078.65,-91.07 1088.61,-94.67 1088.68,-87.67"/>
</g>
</g>
</svg>
