<?xml version="1.0" encoding="UTF-8" standalone="no"?>
<!DOCTYPE svg PUBLIC "-//W3C//DTD SVG 1.1//EN"
 "http://www.w3.org/Graphics/SVG/1.1/DTD/svg11.dtd">
<!-- Generated by graphviz version 2.42.3 (20191010.1750)
 -->
<!-- Title: G Pages: 1 -->
<svg width="672pt" height="188pt"
 viewBox="0.00 0.00 671.64 188.00" xmlns="http://www.w3.org/2000/svg" xmlns:xlink="http://www.w3.org/1999/xlink">
<g id="graph0" class="graph" transform="scale(1 1) rotate(0) translate(4 184)">
<title>G</title>
<polygon fill="white" stroke="transparent" points="-4,4 -4,-184 667.64,-184 667.64,4 -4,4"/>
<!-- Bacon -->
<g id="node1" class="node">
<title>Bacon</title>
<g id="a_node1"><a xlink:href="https://en.wikipedia.org/wiki/Francis_Bacon" xlink:title="Bacon">
<ellipse fill="none" stroke="black" cx="32.7" cy="-162" rx="32.9" ry="18"/>
<text text-anchor="middle" x="32.7" y="-157.8" font-family="Times,serif" font-size="14.00">Bacon</text>
</a>
</g>
</g>
<!-- John Locke -->
<g id="node2" class="node">
<title>John Locke</title>
<ellipse fill="none" stroke="black" cx="314.7" cy="-90" rx="51.24" ry="18"/>
<text text-anchor="middle" x="314.7" y="-85.8" font-family="Times,serif" font-size="14.00">John Locke</text>
</g>
<!-- Bacon&#45;&gt;John Locke -->
<g id="edge1" class="edge">
<title>Bacon&#45;&gt;John Locke</title>
<path fill="none" stroke="black" d="M57.15,-150.03C62.54,-147.85 68.26,-145.71 73.7,-144 136.08,-124.38 209.75,-109.31 259.07,-100.35"/>
<polygon fill="black" stroke="black" points="259.99,-103.74 269.21,-98.53 258.75,-96.85 259.99,-103.74"/>
</g>
<!-- Berkeley -->
<g id="node9" class="node">
<title>Berkeley</title>
<g id="a_node9"><a xlink:href="https://en.wikipedia.org/wiki/George_Berkeley" xlink:title="Berkeley">
<ellipse fill="none" stroke="black" cx="42.7" cy="-18" rx="42.05" ry="18"/>
<text text-anchor="middle" x="42.7" y="-13.8" font-family="Times,serif" font-size="14.00">Berkeley</text>
</a>
</g>
</g>
<!-- John Locke&#45;&gt;Berkeley -->
<g id="edge8" class="edge">
<title>John Locke&#45;&gt;Berkeley</title>
<path fill="none" stroke="black" d="M272.05,-79.92C227.33,-70.13 155.15,-53.58 93.7,-36 90.56,-35.1 87.32,-34.13 84.08,-33.13"/>
<polygon fill="black" stroke="black" points="84.99,-29.74 74.4,-30.04 82.86,-36.41 84.99,-29.74"/>
</g>
<!-- Hume -->
<g id="node10" class="node">
<title>Hume</title>
<g id="a_node10"><a xlink:href="https://en.wikipedia.org/wiki/David_Hume" xlink:title="Hume">
<ellipse fill="none" stroke="black" cx="134.7" cy="-18" rx="31.94" ry="18"/>
<text text-anchor="middle" x="134.7" y="-13.8" font-family="Times,serif" font-size="14.00">Hume</text>
</a>
</g>
</g>
<!-- John Locke&#45;&gt;Hume -->
<g id="edge9" class="edge">
<title>John Locke&#45;&gt;Hume</title>
<path fill="none" stroke="black" d="M280.89,-76.42C252.68,-65.85 211.45,-50.23 175.7,-36 173.46,-35.11 171.16,-34.19 168.85,-33.25"/>
<polygon fill="black" stroke="black" points="169.95,-29.91 159.37,-29.36 167.3,-36.39 169.95,-29.91"/>
</g>
<!-- Jefferson -->
<g id="node11" class="node">
<title>Jefferson</title>
<g id="a_node11"><a xlink:href="https://en.wikipedia.org/wiki/Thomas_Jefferson" xlink:title="Jefferson">
<ellipse fill="none" stroke="black" cx="226.7" cy="-18" rx="42.23" ry="18"/>
<text text-anchor="middle" x="226.7" y="-13.8" font-family="Times,serif" font-size="14.00">Jefferson</text>
</a>
</g>
</g>
<!-- John Locke&#45;&gt;Jefferson -->
<g id="edge10" class="edge">
<title>John Locke&#45;&gt;Jefferson</title>
<path fill="none" stroke="black" d="M294.73,-73.12C282.55,-63.43 266.83,-50.92 253.57,-40.37"/>
<polygon fill="black" stroke="black" points="255.69,-37.59 245.68,-34.1 251.33,-43.07 255.69,-37.59"/>
</g>
<!-- Kant -->
<g id="node12" class="node">
<title>Kant</title>
<g id="a_node12"><a xlink:href="https://en.wikipedia.org/wiki/Immanuel_Kant" xlink:title="Kant">
<ellipse fill="none" stroke="black" cx="314.7" cy="-18" rx="27.1" ry="18"/>
<text text-anchor="middle" x="314.7" y="-13.8" font-family="Times,serif" font-size="14.00">Kant</text>
</a>
</g>
</g>
<!-- John Locke&#45;&gt;Kant -->
<g id="edge11" class="edge">
<title>John Locke&#45;&gt;Kant</title>
<path fill="none" stroke="black" d="M314.7,-71.7C314.7,-63.98 314.7,-54.71 314.7,-46.11"/>
<polygon fill="black" stroke="black" points="318.2,-46.1 314.7,-36.1 311.2,-46.1 318.2,-46.1"/>
</g>
<!-- Rousseau -->
<g id="node13" class="node">
<title>Rousseau</title>
<g id="a_node13"><a xlink:href="https://en.wikipedia.org/wiki/J._J._Rousseau" xlink:title="Rousseau">
<ellipse fill="none" stroke="black" cx="403.7" cy="-18" rx="44.01" ry="18"/>
<text text-anchor="middle" x="403.7" y="-13.8" font-family="Times,serif" font-size="14.00">Rousseau</text>
</a>
</g>
</g>
<!-- John Locke&#45;&gt;Rousseau -->
<g id="edge12" class="edge">
<title>John Locke&#45;&gt;Rousseau</title>
<path fill="none" stroke="black" d="M334.89,-73.12C347.13,-63.5 362.89,-51.1 376.25,-40.59"/>
<polygon fill="black" stroke="black" points="378.5,-43.27 384.2,-34.34 374.17,-37.77 378.5,-43.27"/>
</g>
<!-- Shaftesbury -->
<g id="node14" class="node">
<title>Shaftesbury</title>
<g id="a_node14"><a xlink:href="https://en.wikipedia.org/wiki/Anthony_Ashley-Cooper,_3rd_Earl_of_Shaftesbury" xlink:title="Shaftesbury">
<ellipse fill="none" stroke="black" cx="517.7" cy="-18" rx="52.2" ry="18"/>
<text text-anchor="middle" x="517.7" y="-13.8" font-family="Times,serif" font-size="14.00">Shaftesbury</text>
</a>
</g>
</g>
<!-- John Locke&#45;&gt;Shaftesbury -->
<g id="edge13" class="edge">
<title>John Locke&#45;&gt;Shaftesbury</title>
<path fill="none" stroke="black" d="M350.06,-76.81C384.05,-65.08 435.58,-47.32 472.53,-34.58"/>
<polygon fill="black" stroke="black" points="473.75,-37.86 482.06,-31.29 471.47,-31.24 473.75,-37.86"/>
</g>
<!-- Voltaire -->
<g id="node15" class="node">
<title>Voltaire</title>
<g id="a_node15"><a xlink:href="https://en.wikipedia.org/wiki/Voltaire" xlink:title="Voltaire">
<ellipse fill="none" stroke="black" cx="625.7" cy="-18" rx="37.88" ry="18"/>
<text text-anchor="middle" x="625.7" y="-13.8" font-family="Times,serif" font-size="14.00">Voltaire</text>
</a>
</g>
</g>
<!-- John Locke&#45;&gt;Voltaire -->
<g id="edge14" class="edge">
<title>John Locke&#45;&gt;Voltaire</title>
<path fill="none" stroke="black" d="M360.5,-81.94C413.54,-73.27 503.29,-57.08 578.7,-36 581.61,-35.19 584.61,-34.28 587.6,-33.32"/>
<polygon fill="black" stroke="black" points="588.73,-36.63 597.09,-30.12 586.49,-30 588.73,-36.63"/>
</g>
<!-- Grotius -->
<g id="node3" class="node">
<title>Grotius</title>
<g id="a_node3"><a xlink:href="https://en.wikipedia.org/wiki/Hugo_Grotius" xlink:title="Grotius">
<ellipse fill="none" stroke="black" cx="119.7" cy="-162" rx="36.77" ry="18"/>
<text text-anchor="middle" x="119.7" y="-157.8" font-family="Times,serif" font-size="14.00">Grotius</text>
</a>
</g>
</g>
<!-- Grotius&#45;&gt;John Locke -->
<g id="edge2" class="edge">
<title>Grotius&#45;&gt;John Locke</title>
<path fill="none" stroke="black" d="M148.39,-150.34C154.12,-148.22 160.1,-146.03 165.7,-144 200.72,-131.3 240.46,-117.18 270.09,-106.71"/>
<polygon fill="black" stroke="black" points="271.47,-109.93 279.73,-103.3 269.14,-103.33 271.47,-109.93"/>
</g>
<!-- Descartes -->
<g id="node4" class="node">
<title>Descartes</title>
<g id="a_node4"><a xlink:href="https://en.wikipedia.org/wiki/Ren%C3%A9_Descartes" xlink:title="Descartes">
<ellipse fill="none" stroke="black" cx="218.7" cy="-162" rx="44.46" ry="18"/>
<text text-anchor="middle" x="218.7" y="-157.8" font-family="Times,serif" font-size="14.00">Descartes</text>
</a>
</g>
</g>
<!-- Descartes&#45;&gt;John Locke -->
<g id="edge3" class="edge">
<title>Descartes&#45;&gt;John Locke</title>
<path fill="none" stroke="black" d="M239.53,-145.81C252.9,-136.06 270.46,-123.26 285.25,-112.48"/>
<polygon fill="black" stroke="black" points="287.56,-115.12 293.58,-106.4 283.44,-109.46 287.56,-115.12"/>
</g>
<!-- Filmer -->
<g id="node5" class="node">
<title>Filmer</title>
<g id="a_node5"><a xlink:href="https://en.wikipedia.org/wiki/Robert_Filmer" xlink:title="Filmer">
<ellipse fill="none" stroke="black" cx="314.7" cy="-162" rx="33.88" ry="18"/>
<text text-anchor="middle" x="314.7" y="-157.8" font-family="Times,serif" font-size="14.00">Filmer</text>
</a>
</g>
</g>
<!-- Filmer&#45;&gt;John Locke -->
<g id="edge4" class="edge">
<title>Filmer&#45;&gt;John Locke</title>
<path fill="none" stroke="black" d="M314.7,-143.7C314.7,-135.98 314.7,-126.71 314.7,-118.11"/>
<polygon fill="black" stroke="black" points="318.2,-118.1 314.7,-108.1 311.2,-118.1 318.2,-118.1"/>
</g>
<!-- Pufendorf -->
<g id="node6" class="node">
<title>Pufendorf</title>
<g id="a_node6"><a xlink:href="https://en.wikipedia.org/wiki/Samuel_von_Pufendorf" xlink:title="Pufendorf">
<ellipse fill="none" stroke="black" cx="411.7" cy="-162" rx="45.44" ry="18"/>
<text text-anchor="middle" x="411.7" y="-157.8" font-family="Times,serif" font-size="14.00">Pufendorf</text>
</a>
</g>
</g>
<!-- Pufendorf&#45;&gt;John Locke -->
<g id="edge5" class="edge">
<title>Pufendorf&#45;&gt;John Locke</title>
<path fill="none" stroke="black" d="M390.65,-145.81C377.14,-136.06 359.4,-123.26 344.46,-112.48"/>
<polygon fill="black" stroke="black" points="346.2,-109.41 336.04,-106.4 342.1,-115.09 346.2,-109.41"/>
</g>
<!-- Hobbes -->
<g id="node7" class="node">
<title>Hobbes</title>
<g id="a_node7"><a xlink:href="https://en.wikipedia.org/wiki/Thomas_Hobbes" xlink:title="Hobbes">
<ellipse fill="none" stroke="black" cx="512.7" cy="-162" rx="37.25" ry="18"/>
<text text-anchor="middle" x="512.7" y="-157.8" font-family="Times,serif" font-size="14.00">Hobbes</text>
</a>
</g>
</g>
<!-- Hobbes&#45;&gt;John Locke -->
<g id="edge6" class="edge">
<title>Hobbes&#45;&gt;John Locke</title>
<path fill="none" stroke="black" d="M483.88,-150.53C477.88,-148.36 471.58,-146.1 465.7,-144 430.08,-131.31 389.65,-117.13 359.59,-106.63"/>
<polygon fill="black" stroke="black" points="360.42,-103.21 349.82,-103.22 358.11,-109.82 360.42,-103.21"/>
</g>
<!-- Masham -->
<g id="node8" class="node">
<title>Masham</title>
<g id="a_node8"><a xlink:href="https://en.wikipedia.org/wiki/Damaris_Cudworth_Masham" xlink:title="Masham">
<ellipse fill="none" stroke="black" cx="608.7" cy="-162" rx="40.62" ry="18"/>
<text text-anchor="middle" x="608.7" y="-157.8" font-family="Times,serif" font-size="14.00">Masham</text>
</a>
</g>
</g>
<!-- Masham&#45;&gt;John Locke -->
<g id="edge7" class="edge">
<title>Masham&#45;&gt;John Locke</title>
<path fill="none" stroke="black" d="M578.2,-150.01C571.8,-147.88 565.06,-145.77 558.7,-144 494.22,-126.1 418.79,-110.52 369.05,-100.96"/>
<polygon fill="black" stroke="black" points="369.63,-97.51 359.15,-99.08 368.32,-104.39 369.63,-97.51"/>
</g>
</g>
</svg>
