<?xml version="1.0" encoding="UTF-8" standalone="no"?>
<!DOCTYPE svg PUBLIC "-//W3C//DTD SVG 1.1//EN"
 "http://www.w3.org/Graphics/SVG/1.1/DTD/svg11.dtd">
<!-- Generated by graphviz version 2.42.3 (20191010.1750)
 -->
<!-- Title: G Pages: 1 -->
<svg width="2214pt" height="188pt"
 viewBox="0.00 0.00 2213.50 188.00" xmlns="http://www.w3.org/2000/svg" xmlns:xlink="http://www.w3.org/1999/xlink">
<g id="graph0" class="graph" transform="scale(1 1) rotate(0) translate(4 184)">
<title>G</title>
<polygon fill="white" stroke="transparent" points="-4,4 -4,-184 2209.5,-184 2209.5,4 -4,4"/>
<!-- Karl Marx -->
<g id="node1" class="node">
<title>Karl Marx</title>
<g id="a_node1"><a xlink:href="https://en.wikipedia.org/wiki/Karl_Marx" xlink:title="Karl Marx">
<ellipse fill="none" stroke="black" cx="47.19" cy="-162" rx="47.37" ry="18"/>
<text text-anchor="middle" x="47.19" y="-157.8" font-family="Times,serif" font-size="14.00">Karl Marx</text>
</a>
</g>
</g>
<!-- Judith Butler -->
<g id="node2" class="node">
<title>Judith Butler</title>
<ellipse fill="none" stroke="black" cx="1056.19" cy="-90" rx="56.09" ry="18"/>
<text text-anchor="middle" x="1056.19" y="-85.8" font-family="Times,serif" font-size="14.00">Judith Butler</text>
</g>
<!-- Karl Marx&#45;&gt;Judith Butler -->
<g id="edge1" class="edge">
<title>Karl Marx&#45;&gt;Judith Butler</title>
<path fill="none" stroke="black" d="M81.24,-149.43C88.72,-147.29 96.66,-145.31 104.19,-144 275.03,-114.19 804,-97.67 990.38,-92.66"/>
<polygon fill="black" stroke="black" points="990.67,-96.15 1000.58,-92.39 990.49,-89.15 990.67,-96.15"/>
</g>
<!-- Susan Stryker -->
<g id="node17" class="node">
<title>Susan Stryker</title>
<g id="a_node17"><a xlink:href="https://en.wikipedia.org/wiki/Susan_Stryker" xlink:title="Susan Stryker">
<ellipse fill="none" stroke="black" cx="802.19" cy="-18" rx="59.46" ry="18"/>
<text text-anchor="middle" x="802.19" y="-13.8" font-family="Times,serif" font-size="14.00">Susan Stryker</text>
</a>
</g>
</g>
<!-- Judith Butler&#45;&gt;Susan Stryker -->
<g id="edge16" class="edge">
<title>Judith Butler&#45;&gt;Susan Stryker</title>
<path fill="none" stroke="black" d="M1015.09,-77.68C971.31,-65.61 901.89,-46.48 854.3,-33.36"/>
<polygon fill="black" stroke="black" points="855.06,-29.94 844.49,-30.66 853.2,-36.69 855.06,-29.94"/>
</g>
<!-- Sandy Stone -->
<g id="node18" class="node">
<title>Sandy Stone</title>
<g id="a_node18"><a xlink:href="https://en.wikipedia.org/wiki/Sandy_Stone_(artist)" xlink:title="Sandy Stone">
<ellipse fill="none" stroke="black" cx="934.19" cy="-18" rx="54.64" ry="18"/>
<text text-anchor="middle" x="934.19" y="-13.8" font-family="Times,serif" font-size="14.00">Sandy Stone</text>
</a>
</g>
</g>
<!-- Judith Butler&#45;&gt;Sandy Stone -->
<g id="edge17" class="edge">
<title>Judith Butler&#45;&gt;Sandy Stone</title>
<path fill="none" stroke="black" d="M1030.01,-73.98C1012.24,-63.79 988.54,-50.19 969.16,-39.07"/>
<polygon fill="black" stroke="black" points="970.73,-35.93 960.32,-33.99 967.25,-42 970.73,-35.93"/>
</g>
<!-- Jasbir Puar -->
<g id="node19" class="node">
<title>Jasbir Puar</title>
<g id="a_node19"><a xlink:href="https://en.wikipedia.org/wiki/Jasbir_Puar" xlink:title="Jasbir Puar">
<ellipse fill="none" stroke="black" cx="1056.19" cy="-18" rx="49.32" ry="18"/>
<text text-anchor="middle" x="1056.19" y="-13.8" font-family="Times,serif" font-size="14.00">Jasbir Puar</text>
</a>
</g>
</g>
<!-- Judith Butler&#45;&gt;Jasbir Puar -->
<g id="edge18" class="edge">
<title>Judith Butler&#45;&gt;Jasbir Puar</title>
<path fill="none" stroke="black" d="M1056.19,-71.7C1056.19,-63.98 1056.19,-54.71 1056.19,-46.11"/>
<polygon fill="black" stroke="black" points="1059.69,-46.1 1056.19,-36.1 1052.69,-46.1 1059.69,-46.1"/>
</g>
<!-- Andrea Smith -->
<g id="node20" class="node">
<title>Andrea Smith</title>
<g id="a_node20"><a xlink:href="https://en.wikipedia.org/wiki/Andrea_Smith_(academic)" xlink:title="Andrea Smith">
<ellipse fill="none" stroke="black" cx="1183.19" cy="-18" rx="59.45" ry="18"/>
<text text-anchor="middle" x="1183.19" y="-13.8" font-family="Times,serif" font-size="14.00">Andrea Smith</text>
</a>
</g>
</g>
<!-- Judith Butler&#45;&gt;Andrea Smith -->
<g id="edge19" class="edge">
<title>Judith Butler&#45;&gt;Andrea Smith</title>
<path fill="none" stroke="black" d="M1083.12,-74.15C1101.68,-63.92 1126.57,-50.2 1146.88,-39.01"/>
<polygon fill="black" stroke="black" points="1148.79,-41.96 1155.85,-34.07 1145.41,-35.83 1148.79,-41.96"/>
</g>
<!-- Pussy Riot -->
<g id="node21" class="node">
<title>Pussy Riot</title>
<g id="a_node21"><a xlink:href="https://en.wikipedia.org/wiki/Pussy_Riot" xlink:title="Pussy Riot">
<ellipse fill="none" stroke="black" cx="1309.19" cy="-18" rx="48.39" ry="18"/>
<text text-anchor="middle" x="1309.19" y="-13.8" font-family="Times,serif" font-size="14.00">Pussy Riot</text>
</a>
</g>
</g>
<!-- Judith Butler&#45;&gt;Pussy Riot -->
<g id="edge20" class="edge">
<title>Judith Butler&#45;&gt;Pussy Riot</title>
<path fill="none" stroke="black" d="M1098.09,-77.87C1137.63,-67.3 1198.52,-50.87 1251.19,-36 1255,-34.92 1258.94,-33.8 1262.91,-32.65"/>
<polygon fill="black" stroke="black" points="1264.08,-35.96 1272.71,-29.81 1262.13,-29.23 1264.08,-35.96"/>
</g>
<!-- Michel Foucault -->
<g id="node3" class="node">
<title>Michel Foucault</title>
<g id="a_node3"><a xlink:href="https://en.wikipedia.org/wiki/Michel_Foucault" xlink:title="Michel Foucault">
<ellipse fill="none" stroke="black" cx="181.19" cy="-162" rx="68.13" ry="18"/>
<text text-anchor="middle" x="181.19" y="-157.8" font-family="Times,serif" font-size="14.00">Michel Foucault</text>
</a>
</g>
</g>
<!-- Michel Foucault&#45;&gt;Judith Butler -->
<g id="edge2" class="edge">
<title>Michel Foucault&#45;&gt;Judith Butler</title>
<path fill="none" stroke="black" d="M229.45,-149.18C238.93,-147.19 248.84,-145.34 258.19,-144 527.79,-105.51 852.71,-94.89 989.92,-92.02"/>
<polygon fill="black" stroke="black" points="990.33,-95.52 1000.26,-91.82 990.19,-88.52 990.33,-95.52"/>
</g>
<!-- Louis Althusser -->
<g id="node4" class="node">
<title>Louis Althusser</title>
<g id="a_node4"><a xlink:href="https://en.wikipedia.org/wiki/Louis_Althusser" xlink:title="Louis Althusser">
<ellipse fill="none" stroke="black" cx="333.19" cy="-162" rx="65.75" ry="18"/>
<text text-anchor="middle" x="333.19" y="-157.8" font-family="Times,serif" font-size="14.00">Louis Althusser</text>
</a>
</g>
</g>
<!-- Louis Althusser&#45;&gt;Judith Butler -->
<g id="edge3" class="edge">
<title>Louis Althusser&#45;&gt;Judith Butler</title>
<path fill="none" stroke="black" d="M380.2,-149.28C389.43,-147.28 399.08,-145.4 408.19,-144 619.64,-111.55 873.18,-98.1 990.58,-93.3"/>
<polygon fill="black" stroke="black" points="990.98,-96.79 1000.83,-92.89 990.7,-89.79 990.98,-96.79"/>
</g>
<!-- Theodor Adorno -->
<g id="node5" class="node">
<title>Theodor Adorno</title>
<g id="a_node5"><a xlink:href="https://en.wikipedia.org/wiki/Theodor_Adorno" xlink:title="Theodor Adorno">
<ellipse fill="none" stroke="black" cx="486.19" cy="-162" rx="68.62" ry="18"/>
<text text-anchor="middle" x="486.19" y="-157.8" font-family="Times,serif" font-size="14.00">Theodor Adorno</text>
</a>
</g>
</g>
<!-- Theodor Adorno&#45;&gt;Judith Butler -->
<g id="edge4" class="edge">
<title>Theodor Adorno&#45;&gt;Judith Butler</title>
<path fill="none" stroke="black" d="M535.55,-149.4C545.02,-147.42 554.88,-145.51 564.19,-144 716.62,-119.25 897.57,-103.13 991.83,-95.72"/>
<polygon fill="black" stroke="black" points="992.36,-99.19 1002.06,-94.92 991.82,-92.21 992.36,-99.19"/>
</g>
<!-- J. L. Austin -->
<g id="node6" class="node">
<title>J. L. Austin</title>
<g id="a_node6"><a xlink:href="https://en.wikipedia.org/wiki/J._L._Austin" xlink:title="J. L. Austin">
<ellipse fill="none" stroke="black" cx="624.19" cy="-162" rx="50.79" ry="18"/>
<text text-anchor="middle" x="624.19" y="-157.8" font-family="Times,serif" font-size="14.00">J. L. Austin</text>
</a>
</g>
</g>
<!-- J. L. Austin&#45;&gt;Judith Butler -->
<g id="edge5" class="edge">
<title>J. L. Austin&#45;&gt;Judith Butler</title>
<path fill="none" stroke="black" d="M661.44,-149.61C668.93,-147.55 676.77,-145.57 684.19,-144 791.77,-121.2 918.97,-105.45 993.3,-97.35"/>
<polygon fill="black" stroke="black" points="993.86,-100.81 1003.43,-96.25 993.11,-93.85 993.86,-100.81"/>
</g>
<!-- Luce Irigaray -->
<g id="node7" class="node">
<title>Luce Irigaray</title>
<g id="a_node7"><a xlink:href="https://en.wikipedia.org/wiki/Luce_Irigaray" xlink:title="Luce Irigaray">
<ellipse fill="none" stroke="black" cx="751.19" cy="-162" rx="57.95" ry="18"/>
<text text-anchor="middle" x="751.19" y="-157.8" font-family="Times,serif" font-size="14.00">Luce Irigaray</text>
</a>
</g>
</g>
<!-- Luce Irigaray&#45;&gt;Judith Butler -->
<g id="edge6" class="edge">
<title>Luce Irigaray&#45;&gt;Judith Butler</title>
<path fill="none" stroke="black" d="M794.39,-149.84C802.3,-147.85 810.48,-145.83 818.19,-144 880.66,-129.12 952.67,-113.26 1000.98,-102.81"/>
<polygon fill="black" stroke="black" points="1001.88,-106.2 1010.91,-100.67 1000.4,-99.36 1001.88,-106.2"/>
</g>
<!-- Monique Wittig -->
<g id="node8" class="node">
<title>Monique Wittig</title>
<g id="a_node8"><a xlink:href="https://en.wikipedia.org/wiki/Monique_Wittig" xlink:title="Monique Wittig">
<ellipse fill="none" stroke="black" cx="893.19" cy="-162" rx="66.18" ry="18"/>
<text text-anchor="middle" x="893.19" y="-157.8" font-family="Times,serif" font-size="14.00">Monique Wittig</text>
</a>
</g>
</g>
<!-- Monique Wittig&#45;&gt;Judith Butler -->
<g id="edge7" class="edge">
<title>Monique Wittig&#45;&gt;Judith Butler</title>
<path fill="none" stroke="black" d="M926.96,-146.5C952.48,-135.53 987.65,-120.43 1014.86,-108.75"/>
<polygon fill="black" stroke="black" points="1016.31,-111.93 1024.12,-104.77 1013.55,-105.5 1016.31,-111.93"/>
</g>
<!-- Emmanuel Lévinas -->
<g id="node9" class="node">
<title>Emmanuel Lévinas</title>
<g id="a_node9"><a xlink:href="https://en.wikipedia.org/wiki/Emmanuel_L%C3%A9vinas" xlink:title="Emmanuel Lévinas">
<ellipse fill="none" stroke="black" cx="1056.19" cy="-162" rx="78.74" ry="18"/>
<text text-anchor="middle" x="1056.19" y="-157.8" font-family="Times,serif" font-size="14.00">Emmanuel Lévinas</text>
</a>
</g>
</g>
<!-- Emmanuel Lévinas&#45;&gt;Judith Butler -->
<g id="edge8" class="edge">
<title>Emmanuel Lévinas&#45;&gt;Judith Butler</title>
<path fill="none" stroke="black" d="M1056.19,-143.7C1056.19,-135.98 1056.19,-126.71 1056.19,-118.11"/>
<polygon fill="black" stroke="black" points="1059.69,-118.1 1056.19,-108.1 1052.69,-118.1 1059.69,-118.1"/>
</g>
<!-- Jacques Derrida -->
<g id="node10" class="node">
<title>Jacques Derrida</title>
<g id="a_node10"><a xlink:href="https://en.wikipedia.org/wiki/Jacques_Derrida" xlink:title="Jacques Derrida">
<ellipse fill="none" stroke="black" cx="1219.19" cy="-162" rx="66.65" ry="18"/>
<text text-anchor="middle" x="1219.19" y="-157.8" font-family="Times,serif" font-size="14.00">Jacques Derrida</text>
</a>
</g>
</g>
<!-- Jacques Derrida&#45;&gt;Judith Butler -->
<g id="edge9" class="edge">
<title>Jacques Derrida&#45;&gt;Judith Butler</title>
<path fill="none" stroke="black" d="M1185.02,-146.33C1159.55,-135.39 1124.64,-120.4 1097.58,-108.78"/>
<polygon fill="black" stroke="black" points="1098.94,-105.55 1088.37,-104.82 1096.18,-111.98 1098.94,-105.55"/>
</g>
<!-- Jacques Lacan -->
<g id="node11" class="node">
<title>Jacques Lacan</title>
<g id="a_node11"><a xlink:href="https://en.wikipedia.org/wiki/Jacques_Lacan" xlink:title="Jacques Lacan">
<ellipse fill="none" stroke="black" cx="1365.19" cy="-162" rx="61.34" ry="18"/>
<text text-anchor="middle" x="1365.19" y="-157.8" font-family="Times,serif" font-size="14.00">Jacques Lacan</text>
</a>
</g>
</g>
<!-- Jacques Lacan&#45;&gt;Judith Butler -->
<g id="edge10" class="edge">
<title>Jacques Lacan&#45;&gt;Judith Butler</title>
<path fill="none" stroke="black" d="M1319.66,-149.8C1311.51,-147.84 1303.1,-145.84 1295.19,-144 1232.38,-129.41 1160.08,-113.5 1111.59,-102.96"/>
<polygon fill="black" stroke="black" points="1112.14,-99.49 1101.62,-100.79 1110.65,-106.33 1112.14,-99.49"/>
</g>
<!-- Sigmund Freud -->
<g id="node12" class="node">
<title>Sigmund Freud</title>
<g id="a_node12"><a xlink:href="https://en.wikipedia.org/wiki/Sigmund_Freud" xlink:title="Sigmund Freud">
<ellipse fill="none" stroke="black" cx="1509.19" cy="-162" rx="64.78" ry="18"/>
<text text-anchor="middle" x="1509.19" y="-157.8" font-family="Times,serif" font-size="14.00">Sigmund Freud</text>
</a>
</g>
</g>
<!-- Sigmund Freud&#45;&gt;Judith Butler -->
<g id="edge11" class="edge">
<title>Sigmund Freud&#45;&gt;Judith Butler</title>
<path fill="none" stroke="black" d="M1461.94,-149.5C1453.08,-147.53 1443.87,-145.6 1435.19,-144 1324.27,-123.54 1193.79,-106.91 1118.47,-98.03"/>
<polygon fill="black" stroke="black" points="1118.56,-94.51 1108.22,-96.82 1117.74,-101.47 1118.56,-94.51"/>
</g>
<!-- Gayle Rubin -->
<g id="node13" class="node">
<title>Gayle Rubin</title>
<g id="a_node13"><a xlink:href="https://en.wikipedia.org/wiki/Gayle_Rubin" xlink:title="Gayle Rubin">
<ellipse fill="none" stroke="black" cx="1647.19" cy="-162" rx="55.11" ry="18"/>
<text text-anchor="middle" x="1647.19" y="-157.8" font-family="Times,serif" font-size="14.00">Gayle Rubin</text>
</a>
</g>
</g>
<!-- Gayle Rubin&#45;&gt;Judith Butler -->
<g id="edge12" class="edge">
<title>Gayle Rubin&#45;&gt;Judith Butler</title>
<path fill="none" stroke="black" d="M1607.46,-149.4C1599.48,-147.36 1591.1,-145.44 1583.19,-144 1418.48,-114.04 1221.51,-99.89 1121.46,-94.21"/>
<polygon fill="black" stroke="black" points="1121.39,-90.7 1111.21,-93.64 1121,-97.69 1121.39,-90.7"/>
</g>
<!-- Friedrich Nietzsche -->
<g id="node14" class="node">
<title>Friedrich Nietzsche</title>
<g id="a_node14"><a xlink:href="https://en.wikipedia.org/wiki/Friedrich_Nietzsche" xlink:title="Friedrich Nietzsche">
<ellipse fill="none" stroke="black" cx="1800.19" cy="-162" rx="79.7" ry="18"/>
<text text-anchor="middle" x="1800.19" y="-157.8" font-family="Times,serif" font-size="14.00">Friedrich Nietzsche</text>
</a>
</g>
</g>
<!-- Friedrich Nietzsche&#45;&gt;Judith Butler -->
<g id="edge13" class="edge">
<title>Friedrich Nietzsche&#45;&gt;Judith Butler</title>
<path fill="none" stroke="black" d="M1743.84,-149.29C1733.03,-147.31 1721.79,-145.44 1711.19,-144 1496.64,-114.92 1240.24,-99.83 1121.94,-93.97"/>
<polygon fill="black" stroke="black" points="1121.77,-90.45 1111.61,-93.46 1121.43,-97.45 1121.77,-90.45"/>
</g>
<!-- G. W. F. Hegel -->
<g id="node15" class="node">
<title>G. W. F. Hegel</title>
<g id="a_node15"><a xlink:href="https://en.wikipedia.org/wiki/G._W._F._Hegel" xlink:title="G. W. F. Hegel">
<ellipse fill="none" stroke="black" cx="1960.19" cy="-162" rx="62.75" ry="18"/>
<text text-anchor="middle" x="1960.19" y="-157.8" font-family="Times,serif" font-size="14.00">G. W. F. Hegel</text>
</a>
</g>
</g>
<!-- G. W. F. Hegel&#45;&gt;Judith Butler -->
<g id="edge14" class="edge">
<title>G. W. F. Hegel&#45;&gt;Judith Butler</title>
<path fill="none" stroke="black" d="M1916.1,-149.21C1907.24,-147.19 1897.96,-145.32 1889.19,-144 1606.09,-101.42 1263.85,-93 1122.34,-91.37"/>
<polygon fill="black" stroke="black" points="1122.14,-87.87 1112.1,-91.26 1122.06,-94.87 1122.14,-87.87"/>
</g>
<!-- Simone de Beauvoir -->
<g id="node16" class="node">
<title>Simone de Beauvoir</title>
<g id="a_node16"><a xlink:href="https://en.wikipedia.org/wiki/Simone_de_Beauvoir" xlink:title="Simone de Beauvoir">
<ellipse fill="none" stroke="black" cx="2123.19" cy="-162" rx="82.13" ry="18"/>
<text text-anchor="middle" x="2123.19" y="-157.8" font-family="Times,serif" font-size="14.00">Simone de Beauvoir</text>
</a>
</g>
</g>
<!-- Simone de Beauvoir&#45;&gt;Judith Butler -->
<g id="edge15" class="edge">
<title>Simone de Beauvoir&#45;&gt;Judith Butler</title>
<path fill="none" stroke="black" d="M2065.59,-149.07C2054.54,-147.11 2043.04,-145.3 2032.19,-144 1691.53,-103.11 1280.17,-93.75 1122.28,-91.62"/>
<polygon fill="black" stroke="black" points="1122.29,-88.12 1112.25,-91.49 1122.2,-95.12 1122.29,-88.12"/>
</g>
</g>
</svg>
