<?xml version="1.0" encoding="UTF-8" standalone="no"?>
<!DOCTYPE svg PUBLIC "-//W3C//DTD SVG 1.1//EN"
 "http://www.w3.org/Graphics/SVG/1.1/DTD/svg11.dtd">
<!-- Generated by graphviz version 2.42.3 (20191010.1750)
 -->
<!-- Title: G Pages: 1 -->
<svg width="2341pt" height="188pt"
 viewBox="0.00 0.00 2340.60 188.00" xmlns="http://www.w3.org/2000/svg" xmlns:xlink="http://www.w3.org/1999/xlink">
<g id="graph0" class="graph" transform="scale(1 1) rotate(0) translate(4 184)">
<title>G</title>
<polygon fill="white" stroke="transparent" points="-4,4 -4,-184 2336.6,-184 2336.6,4 -4,4"/>
<!-- Wolff -->
<g id="node1" class="node">
<title>Wolff</title>
<g id="a_node1"><a xlink:href="https://en.wikipedia.org/wiki/Christian_Wolff_(philosopher)" xlink:title="Wolff">
<ellipse fill="none" stroke="black" cx="377.38" cy="-162" rx="30.23" ry="18"/>
<text text-anchor="middle" x="377.38" y="-157.8" font-family="Times,serif" font-size="14.00">Wolff</text>
</a>
</g>
</g>
<!-- kant -->
<g id="node2" class="node">
<title>kant</title>
<ellipse fill="none" stroke="black" cx="1152.38" cy="-90" rx="27" ry="18"/>
<text text-anchor="middle" x="1152.38" y="-85.8" font-family="Times,serif" font-size="14.00">kant</text>
</g>
<!-- Wolff&#45;&gt;kant -->
<g id="edge1" class="edge">
<title>Wolff&#45;&gt;kant</title>
<path fill="none" stroke="black" d="M400.21,-149.78C405.71,-147.5 411.66,-145.38 417.38,-144 552.1,-111.47 985.25,-96.04 1115.19,-92.07"/>
<polygon fill="black" stroke="black" points="1115.53,-95.56 1125.42,-91.76 1115.32,-88.56 1115.53,-95.56"/>
</g>
<!-- Western philosophy -->
<g id="node19" class="node">
<title>Western philosophy</title>
<g id="a_node19"><a xlink:href="https://en.wikipedia.org/wiki/Western_philosophy" xlink:title="Western philosophy">
<ellipse fill="none" stroke="black" cx="80.38" cy="-18" rx="80.27" ry="18"/>
<text text-anchor="middle" x="80.38" y="-13.8" font-family="Times,serif" font-size="14.00">Western philosophy</text>
</a>
</g>
</g>
<!-- kant&#45;&gt;Western philosophy -->
<g id="edge18" class="edge">
<title>kant&#45;&gt;Western philosophy</title>
<path fill="none" stroke="black" d="M1125.32,-88.85C1009.85,-87.95 547.1,-81.54 170.38,-36 162.73,-35.07 154.74,-33.89 146.82,-32.58"/>
<polygon fill="black" stroke="black" points="147.31,-29.11 136.86,-30.85 146.11,-36.01 147.31,-29.11"/>
</g>
<!-- Beck -->
<g id="node20" class="node">
<title>Beck</title>
<g id="a_node20"><a xlink:href="https://en.wikipedia.org/wiki/Jakob_Sigismund_Beck" xlink:title="Beck">
<ellipse fill="none" stroke="black" cx="207.38" cy="-18" rx="28.06" ry="18"/>
<text text-anchor="middle" x="207.38" y="-13.8" font-family="Times,serif" font-size="14.00">Beck</text>
</a>
</g>
</g>
<!-- kant&#45;&gt;Beck -->
<g id="edge19" class="edge">
<title>kant&#45;&gt;Beck</title>
<path fill="none" stroke="black" d="M1125.03,-88.77C992.62,-87.43 417.51,-79.19 244.38,-36 242.21,-35.46 240.01,-34.79 237.82,-34.03"/>
<polygon fill="black" stroke="black" points="239,-30.74 228.41,-30.29 236.41,-37.24 239,-30.74"/>
</g>
<!-- Beneke -->
<g id="node21" class="node">
<title>Beneke</title>
<g id="a_node21"><a xlink:href="https://en.wikipedia.org/wiki/Friedrich_Eduard_Beneke" xlink:title="Beneke">
<ellipse fill="none" stroke="black" cx="290.38" cy="-18" rx="36.75" ry="18"/>
<text text-anchor="middle" x="290.38" y="-13.8" font-family="Times,serif" font-size="14.00">Beneke</text>
</a>
</g>
</g>
<!-- kant&#45;&gt;Beneke -->
<g id="edge20" class="edge">
<title>kant&#45;&gt;Beneke</title>
<path fill="none" stroke="black" d="M1125.4,-88.32C1002.07,-85.06 491.33,-69.73 335.38,-36 332.55,-35.39 329.66,-34.63 326.78,-33.78"/>
<polygon fill="black" stroke="black" points="327.71,-30.4 317.12,-30.58 325.51,-37.04 327.71,-30.4"/>
</g>
<!-- Bolzano -->
<g id="node22" class="node">
<title>Bolzano</title>
<g id="a_node22"><a xlink:href="https://en.wikipedia.org/wiki/Bernard_Bolzano" xlink:title="Bolzano">
<ellipse fill="none" stroke="black" cx="384.38" cy="-18" rx="39.66" ry="18"/>
<text text-anchor="middle" x="384.38" y="-13.8" font-family="Times,serif" font-size="14.00">Bolzano</text>
</a>
</g>
</g>
<!-- kant&#45;&gt;Bolzano -->
<g id="edge21" class="edge">
<title>kant&#45;&gt;Bolzano</title>
<path fill="none" stroke="black" d="M1125.25,-87.97C1011,-83.49 568.69,-64.62 432.38,-36 429.18,-35.33 425.9,-34.5 422.64,-33.56"/>
<polygon fill="black" stroke="black" points="423.55,-30.18 412.96,-30.52 421.45,-36.86 423.55,-30.18"/>
</g>
<!-- Carnap -->
<g id="node23" class="node">
<title>Carnap</title>
<g id="a_node23"><a xlink:href="https://en.wikipedia.org/wiki/Rudolf_Carnap" xlink:title="Carnap">
<ellipse fill="none" stroke="black" cx="477.38" cy="-18" rx="35.79" ry="18"/>
<text text-anchor="middle" x="477.38" y="-13.8" font-family="Times,serif" font-size="14.00">Carnap</text>
</a>
</g>
</g>
<!-- kant&#45;&gt;Carnap -->
<g id="edge22" class="edge">
<title>kant&#45;&gt;Carnap</title>
<path fill="none" stroke="black" d="M1125.27,-89.38C1037.13,-90.04 751.21,-87.79 522.38,-36 519.39,-35.32 516.32,-34.49 513.27,-33.55"/>
<polygon fill="black" stroke="black" points="514.25,-30.19 503.66,-30.32 512.02,-36.83 514.25,-30.19"/>
</g>
<!-- Fichte -->
<g id="node24" class="node">
<title>Fichte</title>
<g id="a_node24"><a xlink:href="https://en.wikipedia.org/wiki/Johann_Gottlieb_Fichte" xlink:title="Fichte">
<ellipse fill="none" stroke="black" cx="563.38" cy="-18" rx="32.42" ry="18"/>
<text text-anchor="middle" x="563.38" y="-13.8" font-family="Times,serif" font-size="14.00">Fichte</text>
</a>
</g>
</g>
<!-- kant&#45;&gt;Fichte -->
<g id="edge23" class="edge">
<title>kant&#45;&gt;Fichte</title>
<path fill="none" stroke="black" d="M1125.39,-89.19C1044.87,-89.17 799.82,-84.81 604.38,-36 601.9,-35.38 599.37,-34.63 596.84,-33.8"/>
<polygon fill="black" stroke="black" points="597.86,-30.45 587.26,-30.29 595.45,-37.02 597.86,-30.45"/>
</g>
<!-- Frege -->
<g id="node25" class="node">
<title>Frege</title>
<g id="a_node25"><a xlink:href="https://en.wikipedia.org/wiki/Gottlob_Frege" xlink:title="Frege">
<ellipse fill="none" stroke="black" cx="643.38" cy="-18" rx="30.49" ry="18"/>
<text text-anchor="middle" x="643.38" y="-13.8" font-family="Times,serif" font-size="14.00">Frege</text>
</a>
</g>
</g>
<!-- kant&#45;&gt;Frege -->
<g id="edge24" class="edge">
<title>kant&#45;&gt;Frege</title>
<path fill="none" stroke="black" d="M1125.36,-88.75C1052.54,-87.49 846.57,-79.97 682.38,-36 680.1,-35.39 677.77,-34.66 675.45,-33.86"/>
<polygon fill="black" stroke="black" points="676.66,-30.58 666.07,-30.24 674.14,-37.11 676.66,-30.58"/>
</g>
<!-- Guyer -->
<g id="node26" class="node">
<title>Guyer</title>
<g id="a_node26"><a xlink:href="https://en.wikipedia.org/wiki/Paul_Guyer" xlink:title="Guyer">
<ellipse fill="none" stroke="black" cx="723.38" cy="-18" rx="32.42" ry="18"/>
<text text-anchor="middle" x="723.38" y="-13.8" font-family="Times,serif" font-size="14.00">Guyer</text>
</a>
</g>
</g>
<!-- kant&#45;&gt;Guyer -->
<g id="edge25" class="edge">
<title>kant&#45;&gt;Guyer</title>
<path fill="none" stroke="black" d="M1125.57,-87.71C1061.88,-84.14 896.94,-71.89 764.38,-36 761.91,-35.33 759.39,-34.55 756.87,-33.69"/>
<polygon fill="black" stroke="black" points="757.9,-30.34 747.3,-30.12 755.45,-36.9 757.9,-30.34"/>
</g>
<!-- Habermas -->
<g id="node27" class="node">
<title>Habermas</title>
<g id="a_node27"><a xlink:href="https://en.wikipedia.org/wiki/J%C3%BCrgen_Habermas" xlink:title="Habermas">
<ellipse fill="none" stroke="black" cx="819.38" cy="-18" rx="45.91" ry="18"/>
<text text-anchor="middle" x="819.38" y="-13.8" font-family="Times,serif" font-size="14.00">Habermas</text>
</a>
</g>
</g>
<!-- kant&#45;&gt;Habermas -->
<g id="edge26" class="edge">
<title>kant&#45;&gt;Habermas</title>
<path fill="none" stroke="black" d="M1126.11,-84.99C1076.53,-77.21 965.92,-58.8 874.38,-36 870.78,-35.1 867.06,-34.11 863.33,-33.06"/>
<polygon fill="black" stroke="black" points="864.12,-29.64 853.54,-30.2 862.17,-36.36 864.12,-29.64"/>
</g>
<!-- Hegel -->
<g id="node28" class="node">
<title>Hegel</title>
<g id="a_node28"><a xlink:href="https://en.wikipedia.org/wiki/George_Wilhelm_Friedrich_Hegel" xlink:title="Hegel">
<ellipse fill="none" stroke="black" cx="914.38" cy="-18" rx="31.45" ry="18"/>
<text text-anchor="middle" x="914.38" y="-13.8" font-family="Times,serif" font-size="14.00">Hegel</text>
</a>
</g>
</g>
<!-- kant&#45;&gt;Hegel -->
<g id="edge27" class="edge">
<title>kant&#45;&gt;Hegel</title>
<path fill="none" stroke="black" d="M1127.04,-83.42C1089.05,-74.78 1015.28,-56.98 954.38,-36 952.16,-35.23 949.88,-34.4 947.59,-33.53"/>
<polygon fill="black" stroke="black" points="948.87,-30.27 938.28,-29.8 946.27,-36.77 948.87,-30.27"/>
</g>
<!-- Heidegger -->
<g id="node29" class="node">
<title>Heidegger</title>
<g id="a_node29"><a xlink:href="https://en.wikipedia.org/wiki/Martin_Heidegger" xlink:title="Heidegger">
<ellipse fill="none" stroke="black" cx="1010.38" cy="-18" rx="46.87" ry="18"/>
<text text-anchor="middle" x="1010.38" y="-13.8" font-family="Times,serif" font-size="14.00">Heidegger</text>
</a>
</g>
</g>
<!-- kant&#45;&gt;Heidegger -->
<g id="edge28" class="edge">
<title>kant&#45;&gt;Heidegger</title>
<path fill="none" stroke="black" d="M1131.13,-78.52C1108.98,-67.6 1073.85,-50.29 1047.19,-37.14"/>
<polygon fill="black" stroke="black" points="1048.66,-33.97 1038.14,-32.68 1045.56,-40.24 1048.66,-33.97"/>
</g>
<!-- Herder -->
<g id="node30" class="node">
<title>Herder</title>
<g id="a_node30"><a xlink:href="https://en.wikipedia.org/wiki/Johann_Gottfried_Herder" xlink:title="Herder">
<ellipse fill="none" stroke="black" cx="1110.38" cy="-18" rx="34.81" ry="18"/>
<text text-anchor="middle" x="1110.38" y="-13.8" font-family="Times,serif" font-size="14.00">Herder</text>
</a>
</g>
</g>
<!-- kant&#45;&gt;Herder -->
<g id="edge29" class="edge">
<title>kant&#45;&gt;Herder</title>
<path fill="none" stroke="black" d="M1142.85,-73.12C1137.72,-64.56 1131.26,-53.8 1125.46,-44.13"/>
<polygon fill="black" stroke="black" points="1128.31,-42.08 1120.17,-35.31 1122.31,-45.68 1128.31,-42.08"/>
</g>
<!-- Jacobi -->
<g id="node31" class="node">
<title>Jacobi</title>
<g id="a_node31"><a xlink:href="https://en.wikipedia.org/wiki/F._H._Jacobi" xlink:title="Jacobi">
<ellipse fill="none" stroke="black" cx="1195.38" cy="-18" rx="32.9" ry="18"/>
<text text-anchor="middle" x="1195.38" y="-13.8" font-family="Times,serif" font-size="14.00">Jacobi</text>
</a>
</g>
</g>
<!-- kant&#45;&gt;Jacobi -->
<g id="edge30" class="edge">
<title>kant&#45;&gt;Jacobi</title>
<path fill="none" stroke="black" d="M1162.14,-73.12C1167.45,-64.47 1174.14,-53.58 1180.13,-43.83"/>
<polygon fill="black" stroke="black" points="1183.11,-45.66 1185.37,-35.31 1177.15,-42 1183.11,-45.66"/>
</g>
<!-- Jaspers -->
<g id="node32" class="node">
<title>Jaspers</title>
<g id="a_node32"><a xlink:href="https://en.wikipedia.org/wiki/Karl_Jaspers" xlink:title="Jaspers">
<ellipse fill="none" stroke="black" cx="1281.38" cy="-18" rx="35.8" ry="18"/>
<text text-anchor="middle" x="1281.38" y="-13.8" font-family="Times,serif" font-size="14.00">Jaspers</text>
</a>
</g>
</g>
<!-- kant&#45;&gt;Jaspers -->
<g id="edge31" class="edge">
<title>kant&#45;&gt;Jaspers</title>
<path fill="none" stroke="black" d="M1172.82,-77.91C1193.27,-66.81 1225.03,-49.58 1248.93,-36.61"/>
<polygon fill="black" stroke="black" points="1250.86,-39.54 1257.98,-31.7 1247.52,-33.39 1250.86,-39.54"/>
</g>
<!-- Maimon -->
<g id="node33" class="node">
<title>Maimon</title>
<g id="a_node33"><a xlink:href="https://en.wikipedia.org/wiki/Salomon_Maimon" xlink:title="Maimon">
<ellipse fill="none" stroke="black" cx="1375.38" cy="-18" rx="40.15" ry="18"/>
<text text-anchor="middle" x="1375.38" y="-13.8" font-family="Times,serif" font-size="14.00">Maimon</text>
</a>
</g>
</g>
<!-- kant&#45;&gt;Maimon -->
<g id="edge32" class="edge">
<title>kant&#45;&gt;Maimon</title>
<path fill="none" stroke="black" d="M1176.68,-81.92C1210.4,-72.02 1273.24,-53.31 1326.38,-36 1329.29,-35.05 1332.28,-34.06 1335.29,-33.05"/>
<polygon fill="black" stroke="black" points="1336.52,-36.33 1344.86,-29.79 1334.27,-29.7 1336.52,-36.33"/>
</g>
<!-- Peirce -->
<g id="node34" class="node">
<title>Peirce</title>
<g id="a_node34"><a xlink:href="https://en.wikipedia.org/wiki/Charles_Sanders_Peirce" xlink:title="Peirce">
<ellipse fill="none" stroke="black" cx="1465.38" cy="-18" rx="32.41" ry="18"/>
<text text-anchor="middle" x="1465.38" y="-13.8" font-family="Times,serif" font-size="14.00">Peirce</text>
</a>
</g>
</g>
<!-- kant&#45;&gt;Peirce -->
<g id="edge33" class="edge">
<title>kant&#45;&gt;Peirce</title>
<path fill="none" stroke="black" d="M1178.68,-85.67C1227.73,-79.06 1336.17,-62.59 1424.38,-36 1426.69,-35.31 1429.04,-34.53 1431.39,-33.7"/>
<polygon fill="black" stroke="black" points="1432.85,-36.89 1440.96,-30.06 1430.37,-30.34 1432.85,-36.89"/>
</g>
<!-- Popper -->
<g id="node35" class="node">
<title>Popper</title>
<g id="a_node35"><a xlink:href="https://en.wikipedia.org/wiki/Karl_Popper" xlink:title="Popper">
<ellipse fill="none" stroke="black" cx="1550.38" cy="-18" rx="35.32" ry="18"/>
<text text-anchor="middle" x="1550.38" y="-13.8" font-family="Times,serif" font-size="14.00">Popper</text>
</a>
</g>
</g>
<!-- kant&#45;&gt;Popper -->
<g id="edge34" class="edge">
<title>kant&#45;&gt;Popper</title>
<path fill="none" stroke="black" d="M1179.44,-86.99C1239.24,-82.11 1386.83,-67.63 1506.38,-36 1509.04,-35.3 1511.75,-34.49 1514.46,-33.61"/>
<polygon fill="black" stroke="black" points="1515.89,-36.82 1524.17,-30.21 1513.58,-30.21 1515.89,-36.82"/>
</g>
<!-- Reinhold -->
<g id="node36" class="node">
<title>Reinhold</title>
<g id="a_node36"><a xlink:href="https://en.wikipedia.org/wiki/Karl_Leonhard_Reinhold" xlink:title="Reinhold">
<ellipse fill="none" stroke="black" cx="1646.38" cy="-18" rx="42.56" ry="18"/>
<text text-anchor="middle" x="1646.38" y="-13.8" font-family="Times,serif" font-size="14.00">Reinhold</text>
</a>
</g>
</g>
<!-- kant&#45;&gt;Reinhold -->
<g id="edge35" class="edge">
<title>kant&#45;&gt;Reinhold</title>
<path fill="none" stroke="black" d="M1179.35,-87.62C1248.85,-83.65 1439.5,-70.25 1594.38,-36 1597.98,-35.2 1601.68,-34.26 1605.37,-33.23"/>
<polygon fill="black" stroke="black" points="1606.45,-36.56 1615.04,-30.35 1604.45,-29.85 1606.45,-36.56"/>
</g>
<!-- Schelling -->
<g id="node37" class="node">
<title>Schelling</title>
<g id="a_node37"><a xlink:href="https://en.wikipedia.org/wiki/Friedrich_Wilhelm_Joseph_Schelling" xlink:title="Schelling">
<ellipse fill="none" stroke="black" cx="1750.38" cy="-18" rx="43.52" ry="18"/>
<text text-anchor="middle" x="1750.38" y="-13.8" font-family="Times,serif" font-size="14.00">Schelling</text>
</a>
</g>
</g>
<!-- kant&#45;&gt;Schelling -->
<g id="edge36" class="edge">
<title>kant&#45;&gt;Schelling</title>
<path fill="none" stroke="black" d="M1179.4,-88.47C1259.47,-86.44 1502.16,-77.08 1698.38,-36 1701.84,-35.28 1705.38,-34.41 1708.92,-33.45"/>
<polygon fill="black" stroke="black" points="1710.17,-36.73 1718.78,-30.55 1708.2,-30.01 1710.17,-36.73"/>
</g>
<!-- Schleiermacher -->
<g id="node38" class="node">
<title>Schleiermacher</title>
<g id="a_node38"><a xlink:href="https://en.wikipedia.org/wiki/Friedrich_Schleiermacher" xlink:title="Schleiermacher">
<ellipse fill="none" stroke="black" cx="1877.38" cy="-18" rx="65.2" ry="18"/>
<text text-anchor="middle" x="1877.38" y="-13.8" font-family="Times,serif" font-size="14.00">Schleiermacher</text>
</a>
</g>
</g>
<!-- kant&#45;&gt;Schleiermacher -->
<g id="edge37" class="edge">
<title>kant&#45;&gt;Schleiermacher</title>
<path fill="none" stroke="black" d="M1179.52,-88.2C1269.1,-85.24 1563.29,-73.15 1803.38,-36 1809.14,-35.11 1815.12,-34.02 1821.06,-32.82"/>
<polygon fill="black" stroke="black" points="1821.94,-36.22 1831,-30.73 1820.5,-29.37 1821.94,-36.22"/>
</g>
<!-- Schlegel -->
<g id="node39" class="node">
<title>Schlegel</title>
<g id="a_node39"><a xlink:href="https://en.wikipedia.org/wiki/Friedrich_Schlegel" xlink:title="Schlegel">
<ellipse fill="none" stroke="black" cx="2001.38" cy="-18" rx="40.62" ry="18"/>
<text text-anchor="middle" x="2001.38" y="-13.8" font-family="Times,serif" font-size="14.00">Schlegel</text>
</a>
</g>
</g>
<!-- kant&#45;&gt;Schlegel -->
<g id="edge38" class="edge">
<title>kant&#45;&gt;Schlegel</title>
<path fill="none" stroke="black" d="M1179.56,-88.15C1301.48,-84.2 1798.69,-66.47 1951.38,-36 1954.86,-35.31 1958.43,-34.43 1961.98,-33.45"/>
<polygon fill="black" stroke="black" points="1963.3,-36.71 1971.86,-30.46 1961.27,-30.01 1963.3,-36.71"/>
</g>
<!-- Schopenhauer -->
<g id="node40" class="node">
<title>Schopenhauer</title>
<g id="a_node40"><a xlink:href="https://en.wikipedia.org/wiki/Arthur_Schopenhauer" xlink:title="Schopenhauer">
<ellipse fill="none" stroke="black" cx="2120.38" cy="-18" rx="60.4" ry="18"/>
<text text-anchor="middle" x="2120.38" y="-13.8" font-family="Times,serif" font-size="14.00">Schopenhauer</text>
</a>
</g>
</g>
<!-- kant&#45;&gt;Schopenhauer -->
<g id="edge39" class="edge">
<title>kant&#45;&gt;Schopenhauer</title>
<path fill="none" stroke="black" d="M1179.41,-89.2C1288.94,-89.63 1710.13,-87.65 2051.38,-36 2056.72,-35.19 2062.25,-34.16 2067.75,-33.01"/>
<polygon fill="black" stroke="black" points="2068.56,-36.42 2077.56,-30.84 2067.04,-29.59 2068.56,-36.42"/>
</g>
<!-- Spir -->
<g id="node41" class="node">
<title>Spir</title>
<g id="a_node41"><a xlink:href="https://en.wikipedia.org/wiki/African_Spir" xlink:title="Spir">
<ellipse fill="none" stroke="black" cx="2225.38" cy="-18" rx="27" ry="18"/>
<text text-anchor="middle" x="2225.38" y="-13.8" font-family="Times,serif" font-size="14.00">Spir</text>
</a>
</g>
</g>
<!-- kant&#45;&gt;Spir -->
<g id="edge40" class="edge">
<title>kant&#45;&gt;Spir</title>
<path fill="none" stroke="black" d="M1179.73,-89.03C1323.22,-88.99 1990.07,-86.07 2189.38,-36 2191.56,-35.45 2193.77,-34.77 2195.96,-34"/>
<polygon fill="black" stroke="black" points="2197.42,-37.18 2205.34,-30.15 2194.76,-30.71 2197.42,-37.18"/>
</g>
<!-- Zeller -->
<g id="node42" class="node">
<title>Zeller</title>
<g id="a_node42"><a xlink:href="https://en.wikipedia.org/wiki/Eduard_Zeller" xlink:title="Zeller">
<ellipse fill="none" stroke="black" cx="2301.38" cy="-18" rx="31.44" ry="18"/>
<text text-anchor="middle" x="2301.38" y="-13.8" font-family="Times,serif" font-size="14.00">Zeller</text>
</a>
</g>
</g>
<!-- kant&#45;&gt;Zeller -->
<g id="edge41" class="edge">
<title>kant&#45;&gt;Zeller</title>
<path fill="none" stroke="black" d="M1179.61,-89C1328.59,-88.79 2046.23,-85.2 2261.38,-36 2263.89,-35.43 2266.45,-34.7 2268.98,-33.88"/>
<polygon fill="black" stroke="black" points="2270.42,-37.08 2278.58,-30.32 2267.99,-30.52 2270.42,-37.08"/>
</g>
<!-- Baumgarten -->
<g id="node3" class="node">
<title>Baumgarten</title>
<g id="a_node3"><a xlink:href="https://en.wikipedia.org/wiki/Alexander_Baumgarten" xlink:title="Baumgarten">
<ellipse fill="none" stroke="black" cx="479.38" cy="-162" rx="53.15" ry="18"/>
<text text-anchor="middle" x="479.38" y="-157.8" font-family="Times,serif" font-size="14.00">Baumgarten</text>
</a>
</g>
</g>
<!-- Baumgarten&#45;&gt;kant -->
<g id="edge2" class="edge">
<title>Baumgarten&#45;&gt;kant</title>
<path fill="none" stroke="black" d="M517.79,-149.48C525.85,-147.39 534.35,-145.42 542.38,-144 757.29,-105.98 1019.82,-94.85 1115.38,-91.94"/>
<polygon fill="black" stroke="black" points="1115.51,-95.44 1125.41,-91.64 1115.31,-88.44 1115.51,-95.44"/>
</g>
<!-- Plato -->
<g id="node4" class="node">
<title>Plato</title>
<g id="a_node4"><a xlink:href="https://en.wikipedia.org/wiki/Plato" xlink:title="Plato">
<ellipse fill="none" stroke="black" cx="579.38" cy="-162" rx="28.07" ry="18"/>
<text text-anchor="middle" x="579.38" y="-157.8" font-family="Times,serif" font-size="14.00">Plato</text>
</a>
</g>
</g>
<!-- Plato&#45;&gt;kant -->
<g id="edge3" class="edge">
<title>Plato&#45;&gt;kant</title>
<path fill="none" stroke="black" d="M600.45,-149.86C605.55,-147.58 611.06,-145.44 616.38,-144 798.73,-94.59 1027.11,-90.16 1115.28,-90.49"/>
<polygon fill="black" stroke="black" points="1115.31,-93.99 1125.33,-90.55 1115.35,-86.99 1115.31,-93.99"/>
</g>
<!-- Aristotle -->
<g id="node5" class="node">
<title>Aristotle</title>
<g id="a_node5"><a xlink:href="https://en.wikipedia.org/wiki/Aristotle" xlink:title="Aristotle">
<ellipse fill="none" stroke="black" cx="666.38" cy="-162" rx="41.11" ry="18"/>
<text text-anchor="middle" x="666.38" y="-157.8" font-family="Times,serif" font-size="14.00">Aristotle</text>
</a>
</g>
</g>
<!-- Aristotle&#45;&gt;kant -->
<g id="edge4" class="edge">
<title>Aristotle&#45;&gt;kant</title>
<path fill="none" stroke="black" d="M696.5,-149.64C702.99,-147.51 709.86,-145.49 716.38,-144 861.64,-110.85 1039.15,-97.43 1115.06,-92.93"/>
<polygon fill="black" stroke="black" points="1115.73,-96.4 1125.51,-92.33 1115.33,-89.41 1115.73,-96.4"/>
</g>
<!-- Hamann -->
<g id="node6" class="node">
<title>Hamann</title>
<g id="a_node6"><a xlink:href="https://en.wikipedia.org/wiki/Johann_Georg_Hamann" xlink:title="Hamann">
<ellipse fill="none" stroke="black" cx="765.38" cy="-162" rx="40.13" ry="18"/>
<text text-anchor="middle" x="765.38" y="-157.8" font-family="Times,serif" font-size="14.00">Hamann</text>
</a>
</g>
</g>
<!-- Hamann&#45;&gt;kant -->
<g id="edge5" class="edge">
<title>Hamann&#45;&gt;kant</title>
<path fill="none" stroke="black" d="M795.28,-149.9C801.84,-147.73 808.8,-145.63 815.38,-144 923.01,-117.45 1053.41,-101.39 1115.74,-94.68"/>
<polygon fill="black" stroke="black" points="1116.28,-98.14 1125.86,-93.6 1115.55,-91.18 1116.28,-98.14"/>
</g>
<!-- Empiricus -->
<g id="node7" class="node">
<title>Empiricus</title>
<g id="a_node7"><a xlink:href="https://en.wikipedia.org/wiki/Sextus_Empiricus" xlink:title="Empiricus">
<ellipse fill="none" stroke="black" cx="870.38" cy="-162" rx="46.41" ry="18"/>
<text text-anchor="middle" x="870.38" y="-157.8" font-family="Times,serif" font-size="14.00">Empiricus</text>
</a>
</g>
</g>
<!-- Empiricus&#45;&gt;kant -->
<g id="edge6" class="edge">
<title>Empiricus&#45;&gt;kant</title>
<path fill="none" stroke="black" d="M904.9,-149.93C911.66,-147.87 918.73,-145.8 925.38,-144 992.79,-125.74 1072.46,-108.01 1117.24,-98.4"/>
<polygon fill="black" stroke="black" points="1118,-101.82 1127.05,-96.31 1116.53,-94.97 1118,-101.82"/>
</g>
<!-- Lucretius -->
<g id="node8" class="node">
<title>Lucretius</title>
<g id="a_node8"><a xlink:href="https://en.wikipedia.org/wiki/Lucretius" xlink:title="Lucretius">
<ellipse fill="none" stroke="black" cx="978.38" cy="-162" rx="43.51" ry="18"/>
<text text-anchor="middle" x="978.38" y="-157.8" font-family="Times,serif" font-size="14.00">Lucretius</text>
</a>
</g>
</g>
<!-- Lucretius&#45;&gt;kant -->
<g id="edge7" class="edge">
<title>Lucretius&#45;&gt;kant</title>
<path fill="none" stroke="black" d="M1008.69,-148.81C1040.02,-136.2 1088.71,-116.62 1120.58,-103.8"/>
<polygon fill="black" stroke="black" points="1121.92,-107.03 1129.89,-100.05 1119.3,-100.54 1121.92,-107.03"/>
</g>
<!-- Hume -->
<g id="node9" class="node">
<title>Hume</title>
<g id="a_node9"><a xlink:href="https://en.wikipedia.org/wiki/David_Hume" xlink:title="Hume">
<ellipse fill="none" stroke="black" cx="1071.38" cy="-162" rx="31.94" ry="18"/>
<text text-anchor="middle" x="1071.38" y="-157.8" font-family="Times,serif" font-size="14.00">Hume</text>
</a>
</g>
</g>
<!-- Hume&#45;&gt;kant -->
<g id="edge8" class="edge">
<title>Hume&#45;&gt;kant</title>
<path fill="none" stroke="black" d="M1088.17,-146.5C1099.91,-136.35 1115.76,-122.65 1128.77,-111.4"/>
<polygon fill="black" stroke="black" points="1131.17,-113.96 1136.45,-104.77 1126.59,-108.66 1131.17,-113.96"/>
</g>
<!-- Smith -->
<g id="node10" class="node">
<title>Smith</title>
<g id="a_node10"><a xlink:href="https://en.wikipedia.org/wiki/Adam_Smith" xlink:title="Smith">
<ellipse fill="none" stroke="black" cx="1152.38" cy="-162" rx="31.48" ry="18"/>
<text text-anchor="middle" x="1152.38" y="-157.8" font-family="Times,serif" font-size="14.00">Smith</text>
</a>
</g>
</g>
<!-- Smith&#45;&gt;kant -->
<g id="edge9" class="edge">
<title>Smith&#45;&gt;kant</title>
<path fill="none" stroke="black" d="M1152.38,-143.7C1152.38,-135.98 1152.38,-126.71 1152.38,-118.11"/>
<polygon fill="black" stroke="black" points="1155.88,-118.1 1152.38,-108.1 1148.88,-118.1 1155.88,-118.1"/>
</g>
<!-- Descartes -->
<g id="node11" class="node">
<title>Descartes</title>
<g id="a_node11"><a xlink:href="https://en.wikipedia.org/wiki/Ren%C3%A9_Descartes" xlink:title="Descartes">
<ellipse fill="none" stroke="black" cx="1246.38" cy="-162" rx="44.46" ry="18"/>
<text text-anchor="middle" x="1246.38" y="-157.8" font-family="Times,serif" font-size="14.00">Descartes</text>
</a>
</g>
</g>
<!-- Descartes&#45;&gt;kant -->
<g id="edge10" class="edge">
<title>Descartes&#45;&gt;kant</title>
<path fill="none" stroke="black" d="M1225.99,-145.81C1211.99,-135.39 1193.31,-121.48 1178.27,-110.28"/>
<polygon fill="black" stroke="black" points="1180.01,-107.21 1169.9,-104.04 1175.83,-112.82 1180.01,-107.21"/>
</g>
<!-- Leibniz -->
<g id="node12" class="node">
<title>Leibniz</title>
<g id="a_node12"><a xlink:href="https://en.wikipedia.org/wiki/Gottfried_Wilhelm_Leibniz" xlink:title="Leibniz">
<ellipse fill="none" stroke="black" cx="1346.38" cy="-162" rx="37.23" ry="18"/>
<text text-anchor="middle" x="1346.38" y="-157.8" font-family="Times,serif" font-size="14.00">Leibniz</text>
</a>
</g>
</g>
<!-- Leibniz&#45;&gt;kant -->
<g id="edge11" class="edge">
<title>Leibniz&#45;&gt;kant</title>
<path fill="none" stroke="black" d="M1317.55,-150.57C1311.55,-148.4 1305.26,-146.12 1299.38,-144 1260.07,-129.8 1214.83,-113.5 1185.04,-102.76"/>
<polygon fill="black" stroke="black" points="1186.15,-99.44 1175.56,-99.35 1183.78,-106.03 1186.15,-99.44"/>
</g>
<!-- Locke -->
<g id="node13" class="node">
<title>Locke</title>
<g id="a_node13"><a xlink:href="https://en.wikipedia.org/wiki/John_Locke" xlink:title="Locke">
<ellipse fill="none" stroke="black" cx="1433.38" cy="-162" rx="32.41" ry="18"/>
<text text-anchor="middle" x="1433.38" y="-157.8" font-family="Times,serif" font-size="14.00">Locke</text>
</a>
</g>
</g>
<!-- Locke&#45;&gt;kant -->
<g id="edge12" class="edge">
<title>Locke&#45;&gt;kant</title>
<path fill="none" stroke="black" d="M1408.93,-150.04C1403.54,-147.86 1397.82,-145.71 1392.38,-144 1321.44,-121.65 1235.83,-105.16 1188.43,-96.92"/>
<polygon fill="black" stroke="black" points="1188.8,-93.43 1178.35,-95.19 1187.61,-100.33 1188.8,-93.43"/>
</g>
<!-- Rousseau -->
<g id="node14" class="node">
<title>Rousseau</title>
<g id="a_node14"><a xlink:href="https://en.wikipedia.org/wiki/Jean-Jacques_Rousseau" xlink:title="Rousseau">
<ellipse fill="none" stroke="black" cx="1527.38" cy="-162" rx="44.01" ry="18"/>
<text text-anchor="middle" x="1527.38" y="-157.8" font-family="Times,serif" font-size="14.00">Rousseau</text>
</a>
</g>
</g>
<!-- Rousseau&#45;&gt;kant -->
<g id="edge13" class="edge">
<title>Rousseau&#45;&gt;kant</title>
<path fill="none" stroke="black" d="M1494.8,-149.72C1488.1,-147.63 1481.05,-145.61 1474.38,-144 1372.29,-119.37 1249.22,-102.62 1189.08,-95.25"/>
<polygon fill="black" stroke="black" points="1189.29,-91.75 1178.94,-94.03 1188.45,-98.7 1189.29,-91.75"/>
</g>
<!-- Newton -->
<g id="node15" class="node">
<title>Newton</title>
<g id="a_node15"><a xlink:href="https://en.wikipedia.org/wiki/Isaac_Newton" xlink:title="Newton">
<ellipse fill="none" stroke="black" cx="1627.38" cy="-162" rx="38.21" ry="18"/>
<text text-anchor="middle" x="1627.38" y="-157.8" font-family="Times,serif" font-size="14.00">Newton</text>
</a>
</g>
</g>
<!-- Newton&#45;&gt;kant -->
<g id="edge14" class="edge">
<title>Newton&#45;&gt;kant</title>
<path fill="none" stroke="black" d="M1599.36,-149.71C1593.19,-147.55 1586.63,-145.5 1580.38,-144 1438.46,-110 1264.54,-97.05 1189.62,-92.81"/>
<polygon fill="black" stroke="black" points="1189.48,-89.29 1179.3,-92.24 1189.09,-96.28 1189.48,-89.29"/>
</g>
<!-- Tetens -->
<g id="node16" class="node">
<title>Tetens</title>
<g id="a_node16"><a xlink:href="https://en.wikipedia.org/wiki/Johannes_Nikolaus_Tetens" xlink:title="Tetens">
<ellipse fill="none" stroke="black" cx="1716.38" cy="-162" rx="33.12" ry="18"/>
<text text-anchor="middle" x="1716.38" y="-157.8" font-family="Times,serif" font-size="14.00">Tetens</text>
</a>
</g>
</g>
<!-- Tetens&#45;&gt;kant -->
<g id="edge15" class="edge">
<title>Tetens&#45;&gt;kant</title>
<path fill="none" stroke="black" d="M1691.9,-149.74C1686.25,-147.52 1680.19,-145.44 1674.38,-144 1496.57,-99.94 1275.98,-92.4 1189.56,-91.19"/>
<polygon fill="black" stroke="black" points="1189.5,-87.69 1179.46,-91.07 1189.42,-94.69 1189.5,-87.69"/>
</g>
<!-- Swedenborg -->
<g id="node17" class="node">
<title>Swedenborg</title>
<g id="a_node17"><a xlink:href="https://en.wikipedia.org/wiki/Emanuel_Swedenborg" xlink:title="Swedenborg">
<ellipse fill="none" stroke="black" cx="1821.38" cy="-162" rx="54.32" ry="18"/>
<text text-anchor="middle" x="1821.38" y="-157.8" font-family="Times,serif" font-size="14.00">Swedenborg</text>
</a>
</g>
</g>
<!-- Swedenborg&#45;&gt;kant -->
<g id="edge16" class="edge">
<title>Swedenborg&#45;&gt;kant</title>
<path fill="none" stroke="black" d="M1782.64,-149.4C1774.68,-147.34 1766.3,-145.4 1758.38,-144 1545.14,-106.21 1284.69,-94.95 1189.48,-91.97"/>
<polygon fill="black" stroke="black" points="1189.59,-88.47 1179.49,-91.67 1189.38,-95.47 1189.59,-88.47"/>
</g>
<!-- Euclid -->
<g id="node18" class="node">
<title>Euclid</title>
<g id="a_node18"><a xlink:href="https://en.wikipedia.org/wiki/Euclid" xlink:title="Euclid">
<ellipse fill="none" stroke="black" cx="1926.38" cy="-162" rx="33.38" ry="18"/>
<text text-anchor="middle" x="1926.38" y="-157.8" font-family="Times,serif" font-size="14.00">Euclid</text>
</a>
</g>
</g>
<!-- Euclid&#45;&gt;kant -->
<g id="edge17" class="edge">
<title>Euclid&#45;&gt;kant</title>
<path fill="none" stroke="black" d="M1901.93,-149.61C1896.27,-147.4 1890.21,-145.35 1884.38,-144 1750.09,-112.78 1319.72,-96.47 1189.84,-92.17"/>
<polygon fill="black" stroke="black" points="1189.72,-88.66 1179.62,-91.84 1189.5,-95.66 1189.72,-88.66"/>
</g>
</g>
</svg>
