<?xml version="1.0" encoding="UTF-8" standalone="no"?>
<!DOCTYPE svg PUBLIC "-//W3C//DTD SVG 1.1//EN"
 "http://www.w3.org/Graphics/SVG/1.1/DTD/svg11.dtd">
<!-- Generated by graphviz version 2.42.3 (20191010.1750)
 -->
<!-- Title: G Pages: 1 -->
<svg width="5525pt" height="188pt"
 viewBox="0.00 0.00 5524.81 188.00" xmlns="http://www.w3.org/2000/svg" xmlns:xlink="http://www.w3.org/1999/xlink">
<g id="graph0" class="graph" transform="scale(1 1) rotate(0) translate(4 184)">
<title>G</title>
<polygon fill="white" stroke="transparent" points="-4,4 -4,-184 5520.81,-184 5520.81,4 -4,4"/>
<!-- G.W.F. Hegel -->
<g id="node1" class="node">
<title>G.W.F. Hegel</title>
<g id="a_node1"><a xlink:href="https://en.wikipedia.org/wiki/Georg_Wilhelm_Friedrich_Hegel" xlink:title="G.W.F. Hegel">
<ellipse fill="none" stroke="black" cx="58.2" cy="-162" rx="58.4" ry="18"/>
<text text-anchor="middle" x="58.2" y="-157.8" font-family="Times,serif" font-size="14.00">G.W.F. Hegel</text>
</a>
</g>
</g>
<!-- karl marx -->
<g id="node2" class="node">
<title>karl marx</title>
<ellipse fill="none" stroke="black" cx="2730.2" cy="-90" rx="44.48" ry="18"/>
<text text-anchor="middle" x="2730.2" y="-85.8" font-family="Times,serif" font-size="14.00">karl marx</text>
</g>
<!-- G.W.F. Hegel&#45;&gt;karl marx -->
<g id="edge1" class="edge">
<title>G.W.F. Hegel&#45;&gt;karl marx</title>
<path fill="none" stroke="black" d="M99.01,-149.07C107.59,-147.01 116.64,-145.16 125.2,-144 385.99,-108.73 2325.22,-93.79 2675.92,-91.36"/>
<polygon fill="black" stroke="black" points="2676.09,-94.86 2686.06,-91.29 2676.04,-87.86 2676.09,-94.86"/>
</g>
<!-- Literally all Marxists -->
<g id="node35" class="node">
<title>Literally all Marxists</title>
<g id="a_node35"><a xlink:href="https://en.wikipedia.org/wiki/List_of_Marxists" xlink:title="Literally all Marxists">
<ellipse fill="none" stroke="black" cx="2730.2" cy="-18" rx="84.53" ry="18"/>
<text text-anchor="middle" x="2730.2" y="-13.8" font-family="Times,serif" font-size="14.00">Literally all Marxists</text>
</a>
</g>
</g>
<!-- karl marx&#45;&gt;Literally all Marxists -->
<g id="edge34" class="edge">
<title>karl marx&#45;&gt;Literally all Marxists</title>
<path fill="none" stroke="black" d="M2730.2,-71.7C2730.2,-63.98 2730.2,-54.71 2730.2,-46.11"/>
<polygon fill="black" stroke="black" points="2733.7,-46.1 2730.2,-36.1 2726.7,-46.1 2733.7,-46.1"/>
</g>
<!-- Ludwig Feuerbach -->
<g id="node3" class="node">
<title>Ludwig Feuerbach</title>
<g id="a_node3"><a xlink:href="https://en.wikipedia.org/wiki/Ludwig_Feuerbach" xlink:title="Ludwig Feuerbach">
<ellipse fill="none" stroke="black" cx="211.2" cy="-162" rx="76.82" ry="18"/>
<text text-anchor="middle" x="211.2" y="-157.8" font-family="Times,serif" font-size="14.00">Ludwig Feuerbach</text>
</a>
</g>
</g>
<!-- Ludwig Feuerbach&#45;&gt;karl marx -->
<g id="edge2" class="edge">
<title>Ludwig Feuerbach&#45;&gt;karl marx</title>
<path fill="none" stroke="black" d="M264.66,-148.94C275.38,-146.95 286.61,-145.15 297.2,-144 780.5,-91.37 2361.08,-90.53 2675.52,-90.9"/>
<polygon fill="black" stroke="black" points="2675.73,-94.4 2685.74,-90.91 2675.74,-87.4 2675.73,-94.4"/>
</g>
<!-- Charles Darwin -->
<g id="node4" class="node">
<title>Charles Darwin</title>
<g id="a_node4"><a xlink:href="https://en.wikipedia.org/wiki/Charles_Darwin" xlink:title="Charles Darwin">
<ellipse fill="none" stroke="black" cx="372.2" cy="-162" rx="65.71" ry="18"/>
<text text-anchor="middle" x="372.2" y="-157.8" font-family="Times,serif" font-size="14.00">Charles Darwin</text>
</a>
</g>
</g>
<!-- Charles Darwin&#45;&gt;karl marx -->
<g id="edge3" class="edge">
<title>Charles Darwin&#45;&gt;karl marx</title>
<path fill="none" stroke="black" d="M418.36,-149.02C427.84,-146.99 437.79,-145.16 447.2,-144 898.27,-88.21 2372.67,-89.84 2675.53,-90.79"/>
<polygon fill="black" stroke="black" points="2675.79,-94.29 2685.8,-90.82 2675.81,-87.29 2675.79,-94.29"/>
</g>
<!-- Charles Babbage -->
<g id="node5" class="node">
<title>Charles Babbage</title>
<g id="a_node5"><a xlink:href="https://en.wikipedia.org/wiki/Charles_Babbage" xlink:title="Charles Babbage">
<ellipse fill="none" stroke="black" cx="526.2" cy="-162" rx="70.04" ry="18"/>
<text text-anchor="middle" x="526.2" y="-157.8" font-family="Times,serif" font-size="14.00">Charles Babbage</text>
</a>
</g>
</g>
<!-- Charles Babbage&#45;&gt;karl marx -->
<g id="edge4" class="edge">
<title>Charles Babbage&#45;&gt;karl marx</title>
<path fill="none" stroke="black" d="M575.27,-148.96C585.12,-146.96 595.45,-145.16 605.2,-144 1023.51,-94.22 2385.79,-91.08 2675.65,-90.98"/>
<polygon fill="black" stroke="black" points="2675.91,-94.48 2685.91,-90.98 2675.9,-87.48 2675.91,-94.48"/>
</g>
<!-- Aristotle -->
<g id="node6" class="node">
<title>Aristotle</title>
<g id="a_node6"><a xlink:href="https://en.wikipedia.org/wiki/Aristotle" xlink:title="Aristotle">
<ellipse fill="none" stroke="black" cx="655.2" cy="-162" rx="41.11" ry="18"/>
<text text-anchor="middle" x="655.2" y="-157.8" font-family="Times,serif" font-size="14.00">Aristotle</text>
</a>
</g>
</g>
<!-- Aristotle&#45;&gt;karl marx -->
<g id="edge5" class="edge">
<title>Aristotle&#45;&gt;karl marx</title>
<path fill="none" stroke="black" d="M684.69,-149.34C691.34,-147.17 698.43,-145.21 705.2,-144 903.75,-108.5 2372.56,-94.06 2675.61,-91.45"/>
<polygon fill="black" stroke="black" points="2675.92,-94.95 2685.89,-91.36 2675.86,-87.95 2675.92,-94.95"/>
</g>
<!-- Epicurus -->
<g id="node7" class="node">
<title>Epicurus</title>
<g id="a_node7"><a xlink:href="https://en.wikipedia.org/wiki/Epicurus" xlink:title="Epicurus">
<ellipse fill="none" stroke="black" cx="756.2" cy="-162" rx="41.59" ry="18"/>
<text text-anchor="middle" x="756.2" y="-157.8" font-family="Times,serif" font-size="14.00">Epicurus</text>
</a>
</g>
</g>
<!-- Epicurus&#45;&gt;karl marx -->
<g id="edge6" class="edge">
<title>Epicurus&#45;&gt;karl marx</title>
<path fill="none" stroke="black" d="M786.03,-149.43C792.88,-147.23 800.22,-145.23 807.2,-144 995.23,-110.82 2381.72,-94.63 2675.58,-91.55"/>
<polygon fill="black" stroke="black" points="2676,-95.04 2685.96,-91.44 2675.93,-88.04 2676,-95.04"/>
</g>
<!-- Jean&#45;Jacques Rousseau -->
<g id="node8" class="node">
<title>Jean&#45;Jacques Rousseau</title>
<g id="a_node8"><a xlink:href="https://en.wikipedia.org/wiki/Jean-Jacques_Rousseau" xlink:title="Jean&#45;Jacques Rousseau">
<ellipse fill="none" stroke="black" cx="908.2" cy="-162" rx="92.25" ry="18"/>
<text text-anchor="middle" x="908.2" y="-157.8" font-family="Times,serif" font-size="14.00">Jean&#45;Jacques Rousseau</text>
</a>
</g>
</g>
<!-- Jean&#45;Jacques Rousseau&#45;&gt;karl marx -->
<g id="edge7" class="edge">
<title>Jean&#45;Jacques Rousseau&#45;&gt;karl marx</title>
<path fill="none" stroke="black" d="M972.23,-148.98C984.78,-147.01 997.87,-145.21 1010.2,-144 1344.88,-111.1 2421.11,-95.08 2675.8,-91.69"/>
<polygon fill="black" stroke="black" points="2675.96,-95.19 2685.91,-91.56 2675.87,-88.19 2675.96,-95.19"/>
</g>
<!-- Baruch Spinoza -->
<g id="node9" class="node">
<title>Baruch Spinoza</title>
<g id="a_node9"><a xlink:href="https://en.wikipedia.org/wiki/Baruch_Spinoza" xlink:title="Baruch Spinoza">
<ellipse fill="none" stroke="black" cx="1085.2" cy="-162" rx="66.19" ry="18"/>
<text text-anchor="middle" x="1085.2" y="-157.8" font-family="Times,serif" font-size="14.00">Baruch Spinoza</text>
</a>
</g>
</g>
<!-- Baruch Spinoza&#45;&gt;karl marx -->
<g id="edge8" class="edge">
<title>Baruch Spinoza&#45;&gt;karl marx</title>
<path fill="none" stroke="black" d="M1131.77,-149.01C1141.13,-147.01 1150.93,-145.2 1160.2,-144 1462.54,-104.99 2434.07,-93.69 2675.5,-91.46"/>
<polygon fill="black" stroke="black" points="2675.81,-94.96 2685.78,-91.36 2675.74,-87.96 2675.81,-94.96"/>
</g>
<!-- Jean Charles Léonard de Sismondi -->
<g id="node10" class="node">
<title>Jean Charles Léonard de Sismondi</title>
<g id="a_node10"><a xlink:href="https://en.wikipedia.org/wiki/Jean_Charles_L%C3%A9onard_de_Sismondi" xlink:title="Jean Charles Léonard de Sismondi">
<ellipse fill="none" stroke="black" cx="1302.2" cy="-162" rx="132.81" ry="18"/>
<text text-anchor="middle" x="1302.2" y="-157.8" font-family="Times,serif" font-size="14.00">Jean Charles Léonard de Sismondi</text>
</a>
</g>
</g>
<!-- Jean Charles Léonard de Sismondi&#45;&gt;karl marx -->
<g id="edge9" class="edge">
<title>Jean Charles Léonard de Sismondi&#45;&gt;karl marx</title>
<path fill="none" stroke="black" d="M1394.14,-148.93C1410.78,-147.05 1427.99,-145.3 1444.2,-144 1920.55,-105.73 2498.52,-94.41 2675.87,-91.72"/>
<polygon fill="black" stroke="black" points="2676.04,-95.22 2685.99,-91.57 2675.94,-88.22 2676.04,-95.22"/>
</g>
<!-- Friedrich Wilhelm Schulz -->
<g id="node11" class="node">
<title>Friedrich Wilhelm Schulz</title>
<g id="a_node11"><a xlink:href="https://en.wikipedia.org/wiki/Friedrich_Wilhelm_Schulz" xlink:title="Friedrich Wilhelm Schulz">
<ellipse fill="none" stroke="black" cx="1554.2" cy="-162" rx="101.4" ry="18"/>
<text text-anchor="middle" x="1554.2" y="-157.8" font-family="Times,serif" font-size="14.00">Friedrich Wilhelm Schulz</text>
</a>
</g>
</g>
<!-- Friedrich Wilhelm Schulz&#45;&gt;karl marx -->
<g id="edge10" class="edge">
<title>Friedrich Wilhelm Schulz&#45;&gt;karl marx</title>
<path fill="none" stroke="black" d="M1624.77,-148.99C1637.85,-147.07 1651.42,-145.3 1664.2,-144 2050.29,-104.68 2518.14,-94.22 2675.55,-91.72"/>
<polygon fill="black" stroke="black" points="2675.96,-95.21 2685.91,-91.56 2675.85,-88.21 2675.96,-95.21"/>
</g>
<!-- David Ricardo -->
<g id="node12" class="node">
<title>David Ricardo</title>
<g id="a_node12"><a xlink:href="https://en.wikipedia.org/wiki/David_Ricardo" xlink:title="David Ricardo">
<ellipse fill="none" stroke="black" cx="1735.2" cy="-162" rx="61.85" ry="18"/>
<text text-anchor="middle" x="1735.2" y="-157.8" font-family="Times,serif" font-size="14.00">David Ricardo</text>
</a>
</g>
</g>
<!-- David Ricardo&#45;&gt;karl marx -->
<g id="edge11" class="edge">
<title>David Ricardo&#45;&gt;karl marx</title>
<path fill="none" stroke="black" d="M1779.28,-149.16C1788.14,-147.15 1797.42,-145.29 1806.2,-144 2133.43,-95.83 2531.85,-90.86 2675.39,-90.76"/>
<polygon fill="black" stroke="black" points="2675.68,-94.26 2685.68,-90.76 2675.68,-87.26 2675.68,-94.26"/>
</g>
<!-- Adam Smith -->
<g id="node13" class="node">
<title>Adam Smith</title>
<g id="a_node13"><a xlink:href="https://en.wikipedia.org/wiki/Adam_Smith" xlink:title="Adam Smith">
<ellipse fill="none" stroke="black" cx="1870.2" cy="-162" rx="55.13" ry="18"/>
<text text-anchor="middle" x="1870.2" y="-157.8" font-family="Times,serif" font-size="14.00">Adam Smith</text>
</a>
</g>
</g>
<!-- Adam Smith&#45;&gt;karl marx -->
<g id="edge12" class="edge">
<title>Adam Smith&#45;&gt;karl marx</title>
<path fill="none" stroke="black" d="M1909.55,-149.27C1917.64,-147.22 1926.15,-145.33 1934.2,-144 2210.3,-98.58 2546.37,-91.84 2675.8,-91.02"/>
<polygon fill="black" stroke="black" points="2675.87,-94.52 2685.85,-90.96 2675.83,-87.52 2675.87,-94.52"/>
</g>
<!-- Adam Ferguson -->
<g id="node14" class="node">
<title>Adam Ferguson</title>
<g id="a_node14"><a xlink:href="https://en.wikipedia.org/wiki/Adam_Ferguson" xlink:title="Adam Ferguson">
<ellipse fill="none" stroke="black" cx="2010.2" cy="-162" rx="66.88" ry="18"/>
<text text-anchor="middle" x="2010.2" y="-157.8" font-family="Times,serif" font-size="14.00">Adam Ferguson</text>
</a>
</g>
</g>
<!-- Adam Ferguson&#45;&gt;karl marx -->
<g id="edge13" class="edge">
<title>Adam Ferguson&#45;&gt;karl marx</title>
<path fill="none" stroke="black" d="M2057.62,-149.19C2066.73,-147.22 2076.23,-145.38 2085.2,-144 2302.52,-110.61 2564.48,-97.3 2675.85,-92.88"/>
<polygon fill="black" stroke="black" points="2676.3,-96.37 2686.16,-92.48 2676.03,-89.37 2676.3,-96.37"/>
</g>
<!-- Friedrich Engels -->
<g id="node15" class="node">
<title>Friedrich Engels</title>
<g id="a_node15"><a xlink:href="https://en.wikipedia.org/wiki/Friedrich_Engels" xlink:title="Friedrich Engels">
<ellipse fill="none" stroke="black" cx="2163.2" cy="-162" rx="68.61" ry="18"/>
<text text-anchor="middle" x="2163.2" y="-157.8" font-family="Times,serif" font-size="14.00">Friedrich Engels</text>
</a>
</g>
</g>
<!-- Friedrich Engels&#45;&gt;karl marx -->
<g id="edge14" class="edge">
<title>Friedrich Engels&#45;&gt;karl marx</title>
<path fill="none" stroke="black" d="M2212.57,-149.41C2222.04,-147.42 2231.9,-145.51 2241.2,-144 2398.65,-118.39 2586.69,-101.93 2676.84,-94.91"/>
<polygon fill="black" stroke="black" points="2677.12,-98.4 2686.82,-94.14 2676.58,-91.42 2677.12,-98.4"/>
</g>
<!-- Pierre&#45;Joseph Proudhon -->
<g id="node16" class="node">
<title>Pierre&#45;Joseph Proudhon</title>
<g id="a_node16"><a xlink:href="https://en.wikipedia.org/wiki/Pierre-Joseph_Proudhon" xlink:title="Pierre&#45;Joseph Proudhon">
<ellipse fill="none" stroke="black" cx="2345.2" cy="-162" rx="94.69" ry="18"/>
<text text-anchor="middle" x="2345.2" y="-157.8" font-family="Times,serif" font-size="14.00">Pierre&#45;Joseph Proudhon</text>
</a>
</g>
</g>
<!-- Pierre&#45;Joseph Proudhon&#45;&gt;karl marx -->
<g id="edge15" class="edge">
<title>Pierre&#45;Joseph Proudhon&#45;&gt;karl marx</title>
<path fill="none" stroke="black" d="M2411.39,-148.97C2487.87,-135.06 2611.98,-112.5 2680.61,-100.02"/>
<polygon fill="black" stroke="black" points="2681.52,-103.41 2690.73,-98.18 2680.26,-96.52 2681.52,-103.41"/>
</g>
<!-- Constantin Pecqueur -->
<g id="node17" class="node">
<title>Constantin Pecqueur</title>
<g id="a_node17"><a xlink:href="https://en.wikipedia.org/wiki/Constantin_Pecqueur" xlink:title="Constantin Pecqueur">
<ellipse fill="none" stroke="black" cx="2541.2" cy="-162" rx="83.59" ry="18"/>
<text text-anchor="middle" x="2541.2" y="-157.8" font-family="Times,serif" font-size="14.00">Constantin Pecqueur</text>
</a>
</g>
</g>
<!-- Constantin Pecqueur&#45;&gt;karl marx -->
<g id="edge16" class="edge">
<title>Constantin Pecqueur&#45;&gt;karl marx</title>
<path fill="none" stroke="black" d="M2581.28,-146.15C2613,-134.41 2657.13,-118.06 2689.11,-106.22"/>
<polygon fill="black" stroke="black" points="2690.45,-109.45 2698.61,-102.7 2688.02,-102.89 2690.45,-109.45"/>
</g>
<!-- Henri de Saint&#45;Simon -->
<g id="node18" class="node">
<title>Henri de Saint&#45;Simon</title>
<g id="a_node18"><a xlink:href="https://en.wikipedia.org/wiki/Henri_de_Saint-Simon" xlink:title="Henri de Saint&#45;Simon">
<ellipse fill="none" stroke="black" cx="2730.2" cy="-162" rx="87.47" ry="18"/>
<text text-anchor="middle" x="2730.2" y="-157.8" font-family="Times,serif" font-size="14.00">Henri de Saint&#45;Simon</text>
</a>
</g>
</g>
<!-- Henri de Saint&#45;Simon&#45;&gt;karl marx -->
<g id="edge17" class="edge">
<title>Henri de Saint&#45;Simon&#45;&gt;karl marx</title>
<path fill="none" stroke="black" d="M2730.2,-143.7C2730.2,-135.98 2730.2,-126.71 2730.2,-118.11"/>
<polygon fill="black" stroke="black" points="2733.7,-118.1 2730.2,-108.1 2726.7,-118.1 2733.7,-118.1"/>
</g>
<!-- Robert Owen -->
<g id="node19" class="node">
<title>Robert Owen</title>
<g id="a_node19"><a xlink:href="https://en.wikipedia.org/wiki/Robert_Owen" xlink:title="Robert Owen">
<ellipse fill="none" stroke="black" cx="2893.2" cy="-162" rx="57.51" ry="18"/>
<text text-anchor="middle" x="2893.2" y="-157.8" font-family="Times,serif" font-size="14.00">Robert Owen</text>
</a>
</g>
</g>
<!-- Robert Owen&#45;&gt;karl marx -->
<g id="edge18" class="edge">
<title>Robert Owen&#45;&gt;karl marx</title>
<path fill="none" stroke="black" d="M2860.61,-147C2834.18,-135.65 2796.86,-119.63 2768.92,-107.63"/>
<polygon fill="black" stroke="black" points="2770.03,-104.29 2759.46,-103.56 2767.26,-110.73 2770.03,-104.29"/>
</g>
<!-- William Thompson -->
<g id="node20" class="node">
<title>William Thompson</title>
<g id="a_node20"><a xlink:href="https://en.wikipedia.org/wiki/William_Thompson_(philosopher)" xlink:title="William Thompson">
<ellipse fill="none" stroke="black" cx="3047.2" cy="-162" rx="78.74" ry="18"/>
<text text-anchor="middle" x="3047.2" y="-157.8" font-family="Times,serif" font-size="14.00">William Thompson</text>
</a>
</g>
</g>
<!-- William Thompson&#45;&gt;karl marx -->
<g id="edge19" class="edge">
<title>William Thompson&#45;&gt;karl marx</title>
<path fill="none" stroke="black" d="M2992.71,-148.97C2932.26,-135.62 2835.66,-114.29 2778.04,-101.56"/>
<polygon fill="black" stroke="black" points="2778.61,-98.11 2768.09,-99.37 2777.1,-104.94 2778.61,-98.11"/>
</g>
<!-- Charles Fourier -->
<g id="node21" class="node">
<title>Charles Fourier</title>
<g id="a_node21"><a xlink:href="https://en.wikipedia.org/wiki/Charles_Fourier" xlink:title="Charles Fourier">
<ellipse fill="none" stroke="black" cx="3209.2" cy="-162" rx="65.23" ry="18"/>
<text text-anchor="middle" x="3209.2" y="-157.8" font-family="Times,serif" font-size="14.00">Charles Fourier</text>
</a>
</g>
</g>
<!-- Charles Fourier&#45;&gt;karl marx -->
<g id="edge20" class="edge">
<title>Charles Fourier&#45;&gt;karl marx</title>
<path fill="none" stroke="black" d="M3161.97,-149.44C3153.11,-147.47 3143.89,-145.56 3135.2,-144 3009.46,-121.38 2860.12,-104.35 2782.67,-96.24"/>
<polygon fill="black" stroke="black" points="2782.99,-92.76 2772.68,-95.21 2782.26,-99.72 2782.99,-92.76"/>
</g>
<!-- Baron d&#39;Holbach -->
<g id="node22" class="node">
<title>Baron d&#39;Holbach</title>
<g id="a_node22"><a xlink:href="https://en.wikipedia.org/wiki/Baron_d%27Holbach" xlink:title="Baron d&#39;Holbach">
<ellipse fill="none" stroke="black" cx="3362.2" cy="-162" rx="69.81" ry="18"/>
<text text-anchor="middle" x="3362.2" y="-157.8" font-family="Times,serif" font-size="14.00">Baron d&#39;Holbach</text>
</a>
</g>
</g>
<!-- Baron d&#39;Holbach&#45;&gt;karl marx -->
<g id="edge21" class="edge">
<title>Baron d&#39;Holbach&#45;&gt;karl marx</title>
<path fill="none" stroke="black" d="M3312.22,-149.32C3302.62,-147.35 3292.63,-145.46 3283.2,-144 3101.17,-115.79 2882.95,-100.17 2783.86,-94.06"/>
<polygon fill="black" stroke="black" points="2783.99,-90.56 2773.79,-93.45 2783.56,-97.55 2783.99,-90.56"/>
</g>
<!-- Justus von Liebig -->
<g id="node23" class="node">
<title>Justus von Liebig</title>
<g id="a_node23"><a xlink:href="https://en.wikipedia.org/wiki/Justus_von_Liebig" xlink:title="Justus von Liebig">
<ellipse fill="none" stroke="black" cx="3522.2" cy="-162" rx="72.51" ry="18"/>
<text text-anchor="middle" x="3522.2" y="-157.8" font-family="Times,serif" font-size="14.00">Justus von Liebig</text>
</a>
</g>
</g>
<!-- Justus von Liebig&#45;&gt;karl marx -->
<g id="edge22" class="edge">
<title>Justus von Liebig&#45;&gt;karl marx</title>
<path fill="none" stroke="black" d="M3470.96,-149.18C3461.13,-147.21 3450.88,-145.37 3441.2,-144 3197.62,-109.51 2903.7,-96.63 2784.42,-92.59"/>
<polygon fill="black" stroke="black" points="2784.22,-89.08 2774.11,-92.25 2783.99,-96.08 2784.22,-89.08"/>
</g>
<!-- Ludwig von Westphalen -->
<g id="node24" class="node">
<title>Ludwig von Westphalen</title>
<g id="a_node24"><a xlink:href="https://en.wikipedia.org/wiki/Ludwig_von_Westphalen" xlink:title="Ludwig von Westphalen">
<ellipse fill="none" stroke="black" cx="3709.2" cy="-162" rx="96.38" ry="18"/>
<text text-anchor="middle" x="3709.2" y="-157.8" font-family="Times,serif" font-size="14.00">Ludwig von Westphalen</text>
</a>
</g>
</g>
<!-- Ludwig von Westphalen&#45;&gt;karl marx -->
<g id="edge23" class="edge">
<title>Ludwig von Westphalen&#45;&gt;karl marx</title>
<path fill="none" stroke="black" d="M3641.84,-149.07C3629.36,-147.15 3616.41,-145.35 3604.2,-144 3295.34,-109.72 2922.44,-96.39 2784.72,-92.41"/>
<polygon fill="black" stroke="black" points="2784.54,-88.91 2774.44,-92.12 2784.34,-95.9 2784.54,-88.91"/>
</g>
<!-- Max Stirner -->
<g id="node25" class="node">
<title>Max Stirner</title>
<g id="a_node25"><a xlink:href="https://en.wikipedia.org/wiki/Max_Stirner" xlink:title="Max Stirner">
<ellipse fill="none" stroke="black" cx="3876.2" cy="-162" rx="52.69" ry="18"/>
<text text-anchor="middle" x="3876.2" y="-157.8" font-family="Times,serif" font-size="14.00">Max Stirner</text>
</a>
</g>
</g>
<!-- Max Stirner&#45;&gt;karl marx -->
<g id="edge24" class="edge">
<title>Max Stirner&#45;&gt;karl marx</title>
<path fill="none" stroke="black" d="M3838.79,-149.33C3830.75,-147.22 3822.25,-145.28 3814.2,-144 3612.43,-111.8 2974.49,-96.12 2784.26,-92.08"/>
<polygon fill="black" stroke="black" points="2784.29,-88.58 2774.22,-91.87 2784.14,-95.58 2784.29,-88.58"/>
</g>
<!-- François&#45;Noël Babeuf -->
<g id="node26" class="node">
<title>François&#45;Noël Babeuf</title>
<g id="a_node26"><a xlink:href="https://en.wikipedia.org/wiki/Fran%C3%A7ois-No%C3%ABl_Babeuf" xlink:title="François&#45;Noël Babeuf">
<ellipse fill="none" stroke="black" cx="4035.2" cy="-162" rx="88.39" ry="18"/>
<text text-anchor="middle" x="4035.2" y="-157.8" font-family="Times,serif" font-size="14.00">François&#45;Noël Babeuf</text>
</a>
</g>
</g>
<!-- François&#45;Noël Babeuf&#45;&gt;karl marx -->
<g id="edge25" class="edge">
<title>François&#45;Noël Babeuf&#45;&gt;karl marx</title>
<path fill="none" stroke="black" d="M3973.8,-149C3962.02,-147.05 3949.76,-145.26 3938.2,-144 3494.9,-95.64 2955.52,-91.04 2784.75,-90.88"/>
<polygon fill="black" stroke="black" points="2784.51,-87.38 2774.51,-90.88 2784.51,-94.38 2784.51,-87.38"/>
</g>
<!-- Voltaire -->
<g id="node27" class="node">
<title>Voltaire</title>
<g id="a_node27"><a xlink:href="https://en.wikipedia.org/wiki/Voltaire" xlink:title="Voltaire">
<ellipse fill="none" stroke="black" cx="4179.2" cy="-162" rx="37.88" ry="18"/>
<text text-anchor="middle" x="4179.2" y="-157.8" font-family="Times,serif" font-size="14.00">Voltaire</text>
</a>
</g>
</g>
<!-- Voltaire&#45;&gt;karl marx -->
<g id="edge26" class="edge">
<title>Voltaire&#45;&gt;karl marx</title>
<path fill="none" stroke="black" d="M4151.77,-149.48C4145.45,-147.27 4138.67,-145.26 4132.2,-144 3867.29,-92.39 3010.42,-90.42 2784.97,-90.82"/>
<polygon fill="black" stroke="black" points="2784.71,-87.32 2774.72,-90.84 2784.73,-94.32 2784.71,-87.32"/>
</g>
<!-- Giambattista Vico -->
<g id="node28" class="node">
<title>Giambattista Vico</title>
<g id="a_node28"><a xlink:href="https://en.wikipedia.org/wiki/Giambattista_Vico" xlink:title="Giambattista Vico">
<ellipse fill="none" stroke="black" cx="4309.2" cy="-162" rx="74.03" ry="18"/>
<text text-anchor="middle" x="4309.2" y="-157.8" font-family="Times,serif" font-size="14.00">Giambattista Vico</text>
</a>
</g>
</g>
<!-- Giambattista Vico&#45;&gt;karl marx -->
<g id="edge27" class="edge">
<title>Giambattista Vico&#45;&gt;karl marx</title>
<path fill="none" stroke="black" d="M4257.62,-149.05C4247.26,-147.04 4236.43,-145.22 4226.2,-144 3938.69,-109.71 3018.29,-94.96 2784.57,-91.71"/>
<polygon fill="black" stroke="black" points="2784.34,-88.21 2774.29,-91.57 2784.24,-95.21 2784.34,-88.21"/>
</g>
<!-- Maximilien Robespierre -->
<g id="node29" class="node">
<title>Maximilien Robespierre</title>
<g id="a_node29"><a xlink:href="https://en.wikipedia.org/wiki/Maximilien_Robespierre" xlink:title="Maximilien Robespierre">
<ellipse fill="none" stroke="black" cx="4497.2" cy="-162" rx="96.12" ry="18"/>
<text text-anchor="middle" x="4497.2" y="-157.8" font-family="Times,serif" font-size="14.00">Maximilien Robespierre</text>
</a>
</g>
</g>
<!-- Maximilien Robespierre&#45;&gt;karl marx -->
<g id="edge28" class="edge">
<title>Maximilien Robespierre&#45;&gt;karl marx</title>
<path fill="none" stroke="black" d="M4430.71,-148.91C4417.97,-146.97 4404.7,-145.21 4392.2,-144 4069.61,-112.87 3034.44,-95.58 2784.77,-91.79"/>
<polygon fill="black" stroke="black" points="2784.55,-88.29 2774.5,-91.64 2784.44,-95.29 2784.55,-88.29"/>
</g>
<!-- William Shakespeare -->
<g id="node30" class="node">
<title>William Shakespeare</title>
<g id="a_node30"><a xlink:href="https://en.wikipedia.org/wiki/William_Shakespeare" xlink:title="William Shakespeare">
<ellipse fill="none" stroke="black" cx="4696.2" cy="-162" rx="85.29" ry="18"/>
<text text-anchor="middle" x="4696.2" y="-157.8" font-family="Times,serif" font-size="14.00">William Shakespeare</text>
</a>
</g>
</g>
<!-- William Shakespeare&#45;&gt;karl marx -->
<g id="edge29" class="edge">
<title>William Shakespeare&#45;&gt;karl marx</title>
<path fill="none" stroke="black" d="M4637.23,-148.93C4625.66,-146.96 4613.58,-145.18 4602.2,-144 4236.21,-105.94 3053.93,-93.75 2784.99,-91.44"/>
<polygon fill="black" stroke="black" points="2784.73,-87.93 2774.7,-91.35 2784.67,-94.93 2784.73,-87.93"/>
</g>
<!-- Johann Wolfgang von Goethe -->
<g id="node31" class="node">
<title>Johann Wolfgang von Goethe</title>
<g id="a_node31"><a xlink:href="https://en.wikipedia.org/wiki/Johann_Wolfgang_von_Goethe" xlink:title="Johann Wolfgang von Goethe">
<ellipse fill="none" stroke="black" cx="4914.2" cy="-162" rx="115.19" ry="18"/>
<text text-anchor="middle" x="4914.2" y="-157.8" font-family="Times,serif" font-size="14.00">Johann Wolfgang von Goethe</text>
</a>
</g>
</g>
<!-- Johann Wolfgang von Goethe&#45;&gt;karl marx -->
<g id="edge30" class="edge">
<title>Johann Wolfgang von Goethe&#45;&gt;karl marx</title>
<path fill="none" stroke="black" d="M4835.3,-148.85C4820.35,-146.93 4804.82,-145.19 4790.2,-144 4383.81,-111.02 3068.03,-94.75 2784.4,-91.58"/>
<polygon fill="black" stroke="black" points="2784.4,-88.08 2774.36,-91.47 2784.32,-95.08 2784.4,-88.08"/>
</g>
<!-- Claude Adrien Helvétius -->
<g id="node32" class="node">
<title>Claude Adrien Helvétius</title>
<g id="a_node32"><a xlink:href="https://en.wikipedia.org/wiki/Claude_Adrien_Helv%C3%A9tius" xlink:title="Claude Adrien Helvétius">
<ellipse fill="none" stroke="black" cx="5145.2" cy="-162" rx="97.59" ry="18"/>
<text text-anchor="middle" x="5145.2" y="-157.8" font-family="Times,serif" font-size="14.00">Claude Adrien Helvétius</text>
</a>
</g>
</g>
<!-- Claude Adrien Helvétius&#45;&gt;karl marx -->
<g id="edge31" class="edge">
<title>Claude Adrien Helvétius&#45;&gt;karl marx</title>
<path fill="none" stroke="black" d="M5078.02,-148.91C5064.86,-146.94 5051.13,-145.17 5038.2,-144 4580.35,-102.56 3089.71,-92.83 2784.93,-91.26"/>
<polygon fill="black" stroke="black" points="2784.61,-87.75 2774.59,-91.2 2784.57,-94.75 2784.61,-87.75"/>
</g>
<!-- François Guizot -->
<g id="node33" class="node">
<title>François Guizot</title>
<g id="a_node33"><a xlink:href="https://en.wikipedia.org/wiki/Fran%C3%A7ois_Guizot" xlink:title="François Guizot">
<ellipse fill="none" stroke="black" cx="5327.2" cy="-162" rx="66.69" ry="18"/>
<text text-anchor="middle" x="5327.2" y="-157.8" font-family="Times,serif" font-size="14.00">François Guizot</text>
</a>
</g>
</g>
<!-- François Guizot&#45;&gt;karl marx -->
<g id="edge32" class="edge">
<title>François Guizot&#45;&gt;karl marx</title>
<path fill="none" stroke="black" d="M5280.65,-148.92C5271.29,-146.92 5261.48,-145.14 5252.2,-144 4999.78,-113.06 3129.11,-94.63 2784.64,-91.48"/>
<polygon fill="black" stroke="black" points="2784.46,-87.98 2774.43,-91.39 2784.4,-94.98 2784.46,-87.98"/>
</g>
<!-- Moses Hess -->
<g id="node34" class="node">
<title>Moses Hess</title>
<g id="a_node34"><a xlink:href="https://en.wikipedia.org/wiki/Moses_Hess" xlink:title="Moses Hess">
<ellipse fill="none" stroke="black" cx="5464.2" cy="-162" rx="52.71" ry="18"/>
<text text-anchor="middle" x="5464.2" y="-157.8" font-family="Times,serif" font-size="14.00">Moses Hess</text>
</a>
</g>
</g>
<!-- Moses Hess&#45;&gt;karl marx -->
<g id="edge33" class="edge">
<title>Moses Hess&#45;&gt;karl marx</title>
<path fill="none" stroke="black" d="M5427.1,-149.06C5419.28,-147 5411.03,-145.15 5403.2,-144 5135.68,-104.71 3140.62,-93.04 2784.51,-91.25"/>
<polygon fill="black" stroke="black" points="2784.47,-87.75 2774.45,-91.21 2784.44,-94.75 2784.47,-87.75"/>
</g>
</g>
</svg>
