<?xml version="1.0" encoding="UTF-8" standalone="no"?>
<!DOCTYPE svg PUBLIC "-//W3C//DTD SVG 1.1//EN"
 "http://www.w3.org/Graphics/SVG/1.1/DTD/svg11.dtd">
<!-- Generated by graphviz version 2.42.3 (20191010.1750)
 -->
<!-- Title: G Pages: 1 -->
<svg width="673pt" height="638pt"
 viewBox="0.00 0.00 672.78 638.00" xmlns="http://www.w3.org/2000/svg" xmlns:xlink="http://www.w3.org/1999/xlink">
<g id="graph0" class="graph" transform="scale(1 1) rotate(0) translate(4 634)">
<title>G</title>
<polygon fill="white" stroke="transparent" points="-4,4 -4,-634 668.78,-634 668.78,4 -4,4"/>
<!-- Sigmund Freud -->
<g id="node1" class="node">
<title>Sigmund Freud</title>
<g id="a_node1"><a xlink:href="https://en.wikipedia.org/wiki/Sigmund_Freud" xlink:title="Sigmund Freud">
<ellipse fill="none" stroke="black" cx="130.05" cy="-612" rx="70.64" ry="18"/>
<text text-anchor="middle" x="130.05" y="-607.8" font-family="FiraSans-Regular" font-size="14.00">Sigmund Freud</text>
</a>
</g>
</g>
<!-- Lacan -->
<g id="node2" class="node">
<title>Lacan</title>
<ellipse fill="none" stroke="black" cx="327.82" cy="-315" rx="31.91" ry="18"/>
<text text-anchor="middle" x="327.82" y="-310.8" font-family="Times,serif" font-size="14.00">Lacan</text>
</g>
<!-- Sigmund Freud&#45;&gt;Lacan -->
<g id="edge1" class="edge">
<title>Sigmund Freud&#45;&gt;Lacan</title>
<path fill="none" stroke="black" d="M200.74,-611.42C222.19,-607.87 244.29,-600.26 260.11,-585 294.86,-551.48 316.03,-405.55 323.62,-343.3"/>
<polygon fill="black" stroke="black" points="327.14,-343.38 324.85,-333.04 320.19,-342.55 327.14,-343.38"/>
</g>
<!-- Alain Badiou -->
<g id="node14" class="node">
<title>Alain Badiou</title>
<g id="a_node14"><a xlink:href="https://en.wikipedia.org/wiki/Alain_Badiou" xlink:title="Alain Badiou">
<ellipse fill="none" stroke="black" cx="530.15" cy="-585" rx="57.52" ry="18"/>
<text text-anchor="middle" x="530.15" y="-580.8" font-family="Times,serif" font-size="14.00">Alain Badiou</text>
</a>
</g>
</g>
<!-- Lacan&#45;&gt;Alain Badiou -->
<g id="edge13" class="edge">
<title>Lacan&#45;&gt;Alain Badiou</title>
<path fill="none" stroke="black" d="M331.3,-333.04C338.68,-383.9 362.03,-526.73 395.52,-558 413.46,-574.75 438.79,-582.36 462.58,-585.49"/>
<polygon fill="black" stroke="black" points="462.34,-588.98 472.65,-586.57 463.08,-582.02 462.34,-588.98"/>
</g>
<!-- Louis Althusser -->
<g id="node15" class="node">
<title>Louis Althusser</title>
<g id="a_node15"><a xlink:href="https://en.wikipedia.org/wiki/Louis_Althusser" xlink:title="Louis Althusser">
<ellipse fill="none" stroke="black" cx="530.15" cy="-531" rx="65.75" ry="18"/>
<text text-anchor="middle" x="530.15" y="-526.8" font-family="Times,serif" font-size="14.00">Louis Althusser</text>
</a>
</g>
</g>
<!-- Lacan&#45;&gt;Louis Althusser -->
<g id="edge14" class="edge">
<title>Lacan&#45;&gt;Louis Althusser</title>
<path fill="none" stroke="black" d="M329.55,-333.04C332.11,-370.91 343.65,-458.92 395.52,-504 411.72,-518.07 433.19,-525.56 454.19,-529.37"/>
<polygon fill="black" stroke="black" points="453.68,-532.84 464.1,-530.91 454.76,-525.92 453.68,-532.84"/>
</g>
<!-- Luce Irigaray -->
<g id="node16" class="node">
<title>Luce Irigaray</title>
<g id="a_node16"><a xlink:href="https://en.wikipedia.org/wiki/Luce_Irigaray" xlink:title="Luce Irigaray">
<ellipse fill="none" stroke="black" cx="530.15" cy="-477" rx="57.95" ry="18"/>
<text text-anchor="middle" x="530.15" y="-472.8" font-family="Times,serif" font-size="14.00">Luce Irigaray</text>
</a>
</g>
</g>
<!-- Lacan&#45;&gt;Luce Irigaray -->
<g id="edge15" class="edge">
<title>Lacan&#45;&gt;Luce Irigaray</title>
<path fill="none" stroke="black" d="M332.41,-333.11C339.23,-362.52 356.98,-420.36 395.52,-450 414.4,-464.52 439.08,-471.79 462.08,-475.28"/>
<polygon fill="black" stroke="black" points="461.79,-478.77 472.16,-476.59 462.69,-471.83 461.79,-478.77"/>
</g>
<!-- Julia Kristeva -->
<g id="node17" class="node">
<title>Julia Kristeva</title>
<g id="a_node17"><a xlink:href="https://en.wikipedia.org/wiki/Julia_Kristeva" xlink:title="Julia Kristeva">
<ellipse fill="none" stroke="black" cx="530.15" cy="-423" rx="58.96" ry="18"/>
<text text-anchor="middle" x="530.15" y="-418.8" font-family="Times,serif" font-size="14.00">Julia Kristeva</text>
</a>
</g>
</g>
<!-- Lacan&#45;&gt;Julia Kristeva -->
<g id="edge16" class="edge">
<title>Lacan&#45;&gt;Julia Kristeva</title>
<path fill="none" stroke="black" d="M338.14,-332.22C349.24,-351 369.59,-380.44 395.52,-396 415.32,-407.88 439.43,-414.63 461.7,-418.43"/>
<polygon fill="black" stroke="black" points="461.36,-421.92 471.78,-419.98 462.43,-415 461.36,-421.92"/>
</g>
<!-- Jacques&#45;Alain Miller -->
<g id="node18" class="node">
<title>Jacques&#45;Alain Miller</title>
<g id="a_node18"><a xlink:href="https://en.wikipedia.org/wiki/Jacques-Alain_Miller" xlink:title="Jacques&#45;Alain Miller">
<ellipse fill="none" stroke="black" cx="530.15" cy="-369" rx="84.53" ry="18"/>
<text text-anchor="middle" x="530.15" y="-364.8" font-family="Times,serif" font-size="14.00">Jacques&#45;Alain Miller</text>
</a>
</g>
</g>
<!-- Lacan&#45;&gt;Jacques&#45;Alain Miller -->
<g id="edge17" class="edge">
<title>Lacan&#45;&gt;Jacques&#45;Alain Miller</title>
<path fill="none" stroke="black" d="M353.14,-326.11C365.61,-331.48 381.16,-337.68 395.52,-342 413.77,-347.49 433.77,-352.19 452.6,-356.07"/>
<polygon fill="black" stroke="black" points="452.13,-359.54 462.62,-358.07 453.5,-352.68 452.13,-359.54"/>
</g>
<!-- Slavoj Žižek -->
<g id="node19" class="node">
<title>Slavoj Žižek</title>
<g id="a_node19"><a xlink:href="https://en.wikipedia.org/wiki/Slavoj_%C5%BDi%C5%BEek" xlink:title="Slavoj Žižek">
<ellipse fill="none" stroke="black" cx="530.15" cy="-315" rx="55.1" ry="18"/>
<text text-anchor="middle" x="530.15" y="-310.8" font-family="Times,serif" font-size="14.00">Slavoj Žižek</text>
</a>
</g>
</g>
<!-- Lacan&#45;&gt;Slavoj Žižek -->
<g id="edge18" class="edge">
<title>Lacan&#45;&gt;Slavoj Žižek</title>
<path fill="none" stroke="black" d="M359.68,-315C387.55,-315 429.46,-315 464.63,-315"/>
<polygon fill="black" stroke="black" points="464.83,-318.5 474.83,-315 464.83,-311.5 464.83,-318.5"/>
</g>
<!-- Éric Laurent -->
<g id="node20" class="node">
<title>Éric Laurent</title>
<g id="a_node20"><a xlink:href="https://en.wikipedia.org/wiki/%C3%89ric_Laurent_(psychoanalyst)" xlink:title="Éric Laurent">
<ellipse fill="none" stroke="black" cx="530.15" cy="-261" rx="54.59" ry="18"/>
<text text-anchor="middle" x="530.15" y="-256.8" font-family="Times,serif" font-size="14.00">Éric Laurent</text>
</a>
</g>
</g>
<!-- Lacan&#45;&gt;Éric Laurent -->
<g id="edge19" class="edge">
<title>Lacan&#45;&gt;Éric Laurent</title>
<path fill="none" stroke="black" d="M353.14,-303.89C365.61,-298.52 381.16,-292.32 395.52,-288 419.72,-280.73 446.97,-274.82 470.52,-270.41"/>
<polygon fill="black" stroke="black" points="471.16,-273.86 480.37,-268.62 469.9,-266.97 471.16,-273.86"/>
</g>
<!-- Elisabeth Roudinesco -->
<g id="node21" class="node">
<title>Elisabeth Roudinesco</title>
<g id="a_node21"><a xlink:href="https://en.wikipedia.org/wiki/Elisabeth_Roudinesco" xlink:title="Elisabeth Roudinesco">
<ellipse fill="none" stroke="black" cx="530.15" cy="-207" rx="86.96" ry="18"/>
<text text-anchor="middle" x="530.15" y="-202.8" font-family="Times,serif" font-size="14.00">Elisabeth Roudinesco</text>
</a>
</g>
</g>
<!-- Lacan&#45;&gt;Elisabeth Roudinesco -->
<g id="edge20" class="edge">
<title>Lacan&#45;&gt;Elisabeth Roudinesco</title>
<path fill="none" stroke="black" d="M338.14,-297.78C349.24,-279 369.59,-249.56 395.52,-234 408.84,-226.01 424.11,-220.34 439.46,-216.32"/>
<polygon fill="black" stroke="black" points="440.62,-219.65 449.53,-213.92 438.99,-212.84 440.62,-219.65"/>
</g>
<!-- Mari Ruti -->
<g id="node22" class="node">
<title>Mari Ruti</title>
<g id="a_node22"><a xlink:href="https://en.wikipedia.org/wiki/Mari_Ruti" xlink:title="Mari Ruti">
<ellipse fill="none" stroke="black" cx="530.15" cy="-153" rx="44.99" ry="18"/>
<text text-anchor="middle" x="530.15" y="-148.8" font-family="Times,serif" font-size="14.00">Mari Ruti</text>
</a>
</g>
</g>
<!-- Lacan&#45;&gt;Mari Ruti -->
<g id="edge21" class="edge">
<title>Lacan&#45;&gt;Mari Ruti</title>
<path fill="none" stroke="black" d="M332.41,-296.89C339.23,-267.48 356.98,-209.64 395.52,-180 418.05,-162.68 448.84,-155.66 475.18,-153.1"/>
<polygon fill="black" stroke="black" points="475.71,-156.57 485.41,-152.3 475.17,-149.59 475.71,-156.57"/>
</g>
<!-- Lacanian movement -->
<g id="node23" class="node">
<title>Lacanian movement</title>
<g id="a_node23"><a xlink:href="https://en.wikipedia.org/wiki/Lacanian_movement" xlink:title="Lacanian movement">
<ellipse fill="none" stroke="black" cx="530.15" cy="-99" rx="82.1" ry="18"/>
<text text-anchor="middle" x="530.15" y="-94.8" font-family="Times,serif" font-size="14.00">Lacanian movement</text>
</a>
</g>
</g>
<!-- Lacan&#45;&gt;Lacanian movement -->
<g id="edge22" class="edge">
<title>Lacan&#45;&gt;Lacanian movement</title>
<path fill="none" stroke="black" d="M329.55,-296.96C332.11,-259.09 343.65,-171.08 395.52,-126 407.8,-115.33 423.12,-108.44 438.96,-104.08"/>
<polygon fill="black" stroke="black" points="439.98,-107.43 448.87,-101.67 438.32,-100.63 439.98,-107.43"/>
</g>
<!-- Ljubljana school of psychoanalysis -->
<g id="node24" class="node">
<title>Ljubljana school of psychoanalysis</title>
<g id="a_node24"><a xlink:href="https://en.wikipedia.org/wiki/Ljubljana_school_of_psychoanalysis" xlink:title="Ljubljana school of psychoanalysis">
<ellipse fill="none" stroke="black" cx="530.15" cy="-45" rx="134.76" ry="18"/>
<text text-anchor="middle" x="530.15" y="-40.8" font-family="Times,serif" font-size="14.00">Ljubljana school of psychoanalysis</text>
</a>
</g>
</g>
<!-- Lacan&#45;&gt;Ljubljana school of psychoanalysis -->
<g id="edge23" class="edge">
<title>Lacan&#45;&gt;Ljubljana school of psychoanalysis</title>
<path fill="none" stroke="black" d="M331.3,-296.96C338.68,-246.1 362.03,-103.27 395.52,-72 400.52,-67.33 406.09,-63.38 412.04,-60.03"/>
<polygon fill="black" stroke="black" points="413.63,-63.15 421.01,-55.55 410.5,-56.88 413.63,-63.15"/>
</g>
<!-- Gaëtan Gatian de Clérambault -->
<g id="node3" class="node">
<title>Gaëtan Gatian de Clérambault</title>
<g id="a_node3"><a xlink:href="https://en.wikipedia.org/wiki/Ga%C3%ABtan_Gatian_de_Cl%C3%A9rambault" xlink:title="Gaëtan Gatian de Clérambault">
<ellipse fill="none" stroke="black" cx="130.05" cy="-558" rx="130.11" ry="18"/>
<text text-anchor="middle" x="130.05" y="-553.8" font-family="FiraSans-Regular" font-size="14.00">Gaëtan Gatian de Clérambault</text>
</a>
</g>
</g>
<!-- Gaëtan Gatian de Clérambault&#45;&gt;Lacan -->
<g id="edge2" class="edge">
<title>Gaëtan Gatian de Clérambault&#45;&gt;Lacan</title>
<path fill="none" stroke="black" d="M234.35,-547.21C243.77,-543.15 252.58,-537.86 260.11,-531 314.1,-481.82 324.85,-390.01 326.69,-343.53"/>
<polygon fill="black" stroke="black" points="330.2,-343.37 326.98,-333.27 323.2,-343.17 330.2,-343.37"/>
</g>
<!-- G.W.F. Hegel -->
<g id="node4" class="node">
<title>G.W.F. Hegel</title>
<g id="a_node4"><a xlink:href="https://en.wikipedia.org/wiki/Georg_Wilhelm_Friedrich_Hegel" xlink:title="G.W.F. Hegel">
<ellipse fill="none" stroke="black" cx="130.05" cy="-504" rx="62.41" ry="18"/>
<text text-anchor="middle" x="130.05" y="-499.8" font-family="FiraSans-Regular" font-size="14.00">G.W.F. Hegel</text>
</a>
</g>
</g>
<!-- G.W.F. Hegel&#45;&gt;Lacan -->
<g id="edge3" class="edge">
<title>G.W.F. Hegel&#45;&gt;Lacan</title>
<path fill="none" stroke="black" d="M192.5,-503.07C215.87,-499.87 241.36,-492.58 260.11,-477 301.1,-442.95 317.23,-379.63 323.33,-343.05"/>
<polygon fill="black" stroke="black" points="326.8,-343.47 324.85,-333.05 319.88,-342.41 326.8,-343.47"/>
</g>
<!-- Alexandre Kojève -->
<g id="node5" class="node">
<title>Alexandre Kojève</title>
<g id="a_node5"><a xlink:href="https://en.wikipedia.org/wiki/Alexandre_Koj%C3%A8ve" xlink:title="Alexandre Kojève">
<ellipse fill="none" stroke="black" cx="130.05" cy="-450" rx="79.35" ry="18"/>
<text text-anchor="middle" x="130.05" y="-445.8" font-family="FiraSans-Regular" font-size="14.00">Alexandre Kojève</text>
</a>
</g>
</g>
<!-- Alexandre Kojève&#45;&gt;Lacan -->
<g id="edge4" class="edge">
<title>Alexandre Kojève&#45;&gt;Lacan</title>
<path fill="none" stroke="black" d="M206.23,-444.77C225.07,-440.75 244.37,-434.04 260.11,-423 288.33,-403.2 306.97,-367.26 317.2,-342.31"/>
<polygon fill="black" stroke="black" points="320.58,-343.28 320.95,-332.69 314.06,-340.74 320.58,-343.28"/>
</g>
<!-- Claude Lévi&#45;Strauss -->
<g id="node6" class="node">
<title>Claude Lévi&#45;Strauss</title>
<g id="a_node6"><a xlink:href="https://en.wikipedia.org/wiki/Claude_L%C3%A9vi-Strauss" xlink:title="Claude Lévi&#45;Strauss">
<ellipse fill="none" stroke="black" cx="130.05" cy="-396" rx="89.97" ry="18"/>
<text text-anchor="middle" x="130.05" y="-391.8" font-family="FiraSans-Regular" font-size="14.00">Claude Lévi&#45;Strauss</text>
</a>
</g>
</g>
<!-- Claude Lévi&#45;Strauss&#45;&gt;Lacan -->
<g id="edge5" class="edge">
<title>Claude Lévi&#45;Strauss&#45;&gt;Lacan</title>
<path fill="none" stroke="black" d="M206.38,-386.48C224.53,-382.51 243.46,-376.91 260.11,-369 276.45,-361.24 292.29,-348.7 304.44,-337.65"/>
<polygon fill="black" stroke="black" points="306.97,-340.07 311.85,-330.67 302.17,-334.98 306.97,-340.07"/>
</g>
<!-- Salvador Dali -->
<g id="node7" class="node">
<title>Salvador Dali</title>
<g id="a_node7"><a xlink:href="https://en.wikipedia.org/wiki/Salvador_Dali" xlink:title="Salvador Dali">
<ellipse fill="none" stroke="black" cx="130.05" cy="-342" rx="62.9" ry="18"/>
<text text-anchor="middle" x="130.05" y="-337.8" font-family="FiraSans-Regular" font-size="14.00">Salvador Dali</text>
</a>
</g>
</g>
<!-- Salvador Dali&#45;&gt;Lacan -->
<g id="edge6" class="edge">
<title>Salvador Dali&#45;&gt;Lacan</title>
<path fill="none" stroke="black" d="M186.89,-334.3C218.7,-329.91 257.81,-324.52 286.6,-320.55"/>
<polygon fill="black" stroke="black" points="287.27,-323.99 296.7,-319.15 286.31,-317.05 287.27,-323.99"/>
</g>
<!-- Georges Bataille -->
<g id="node8" class="node">
<title>Georges Bataille</title>
<g id="a_node8"><a xlink:href="https://en.wikipedia.org/wiki/Georges_Bataille" xlink:title="Georges Bataille">
<ellipse fill="none" stroke="black" cx="130.05" cy="-288" rx="75.47" ry="18"/>
<text text-anchor="middle" x="130.05" y="-283.8" font-family="FiraSans-Regular" font-size="14.00">Georges Bataille</text>
</a>
</g>
</g>
<!-- Georges Bataille&#45;&gt;Lacan -->
<g id="edge7" class="edge">
<title>Georges Bataille&#45;&gt;Lacan</title>
<path fill="none" stroke="black" d="M195.7,-296.92C225.78,-301.07 260.62,-305.87 286.82,-309.48"/>
<polygon fill="black" stroke="black" points="286.38,-312.96 296.77,-310.86 287.34,-306.02 286.38,-312.96"/>
</g>
<!-- Marquis de Sade -->
<g id="node9" class="node">
<title>Marquis de Sade</title>
<g id="a_node9"><a xlink:href="https://en.wikipedia.org/wiki/Marquis_de_Sade" xlink:title="Marquis de Sade">
<ellipse fill="none" stroke="black" cx="130.05" cy="-234" rx="76.93" ry="18"/>
<text text-anchor="middle" x="130.05" y="-229.8" font-family="FiraSans-Regular" font-size="14.00">Marquis de Sade</text>
</a>
</g>
</g>
<!-- Marquis de Sade&#45;&gt;Lacan -->
<g id="edge8" class="edge">
<title>Marquis de Sade&#45;&gt;Lacan</title>
<path fill="none" stroke="black" d="M199.33,-242.05C219.55,-246.07 241.29,-252.06 260.11,-261 276.45,-268.76 292.29,-281.3 304.44,-292.35"/>
<polygon fill="black" stroke="black" points="302.17,-295.02 311.85,-299.33 306.97,-289.93 302.17,-295.02"/>
</g>
<!-- Jean Paul Sartre -->
<g id="node10" class="node">
<title>Jean Paul Sartre</title>
<g id="a_node10"><a xlink:href="https://en.wikipedia.org/wiki/Jean_Paul_Sartre" xlink:title="Jean Paul Sartre">
<ellipse fill="none" stroke="black" cx="130.05" cy="-180" rx="75.96" ry="18"/>
<text text-anchor="middle" x="130.05" y="-175.8" font-family="FiraSans-Regular" font-size="14.00">Jean Paul Sartre</text>
</a>
</g>
</g>
<!-- Jean Paul Sartre&#45;&gt;Lacan -->
<g id="edge9" class="edge">
<title>Jean Paul Sartre&#45;&gt;Lacan</title>
<path fill="none" stroke="black" d="M203.54,-184.67C223.22,-188.62 243.62,-195.43 260.11,-207 288.33,-226.8 306.97,-262.74 317.2,-287.69"/>
<polygon fill="black" stroke="black" points="314.06,-289.26 320.95,-297.31 320.58,-286.72 314.06,-289.26"/>
</g>
<!-- Immanuel Kant -->
<g id="node11" class="node">
<title>Immanuel Kant</title>
<g id="a_node11"><a xlink:href="https://en.wikipedia.org/wiki/Immanuel_Kant" xlink:title="Immanuel Kant">
<ellipse fill="none" stroke="black" cx="130.05" cy="-126" rx="69.67" ry="18"/>
<text text-anchor="middle" x="130.05" y="-121.8" font-family="FiraSans-Regular" font-size="14.00">Immanuel Kant</text>
</a>
</g>
</g>
<!-- Immanuel Kant&#45;&gt;Lacan -->
<g id="edge10" class="edge">
<title>Immanuel Kant&#45;&gt;Lacan</title>
<path fill="none" stroke="black" d="M199.47,-128C220.83,-131.65 243.21,-138.96 260.11,-153 301.1,-187.05 317.23,-250.37 323.33,-286.95"/>
<polygon fill="black" stroke="black" points="319.88,-287.59 324.85,-296.95 326.8,-286.53 319.88,-287.59"/>
</g>
<!-- Aristotle -->
<g id="node12" class="node">
<title>Aristotle</title>
<g id="a_node12"><a xlink:href="https://en.wikipedia.org/wiki/Aristotle" xlink:title="Aristotle">
<ellipse fill="none" stroke="black" cx="130.05" cy="-72" rx="42.1" ry="18"/>
<text text-anchor="middle" x="130.05" y="-67.8" font-family="FiraSans-Regular" font-size="14.00">Aristotle</text>
</a>
</g>
</g>
<!-- Aristotle&#45;&gt;Lacan -->
<g id="edge11" class="edge">
<title>Aristotle&#45;&gt;Lacan</title>
<path fill="none" stroke="black" d="M171.94,-70.32C200.04,-71.37 236.42,-77.42 260.11,-99 314.1,-148.18 324.85,-239.99 326.69,-286.47"/>
<polygon fill="black" stroke="black" points="323.2,-286.83 326.98,-296.73 330.2,-286.63 323.2,-286.83"/>
</g>
<!-- Karl Marx -->
<g id="node13" class="node">
<title>Karl Marx</title>
<g id="a_node13"><a xlink:href="https://en.wikipedia.org/wiki/Karl_Marx" xlink:title="Karl Marx">
<ellipse fill="none" stroke="black" cx="130.05" cy="-18" rx="47.88" ry="18"/>
<text text-anchor="middle" x="130.05" y="-13.8" font-family="FiraSans-Regular" font-size="14.00">Karl Marx</text>
</a>
</g>
</g>
<!-- Karl Marx&#45;&gt;Lacan -->
<g id="edge12" class="edge">
<title>Karl Marx&#45;&gt;Lacan</title>
<path fill="none" stroke="black" d="M177.88,-16.13C205.24,-17.6 238.53,-24.18 260.11,-45 294.86,-78.52 316.03,-224.45 323.62,-286.7"/>
<polygon fill="black" stroke="black" points="320.19,-287.45 324.85,-296.96 327.14,-286.62 320.19,-287.45"/>
</g>
</g>
</svg>
