<?xml version="1.0" encoding="UTF-8" standalone="no"?>
<!DOCTYPE svg PUBLIC "-//W3C//DTD SVG 1.1//EN"
 "http://www.w3.org/Graphics/SVG/1.1/DTD/svg11.dtd">
<!-- Generated by graphviz version 2.42.3 (20191010.1750)
 -->
<!-- Title: G Pages: 1 -->
<svg width="550pt" height="1448pt"
 viewBox="0.00 0.00 550.29 1448.00" xmlns="http://www.w3.org/2000/svg" xmlns:xlink="http://www.w3.org/1999/xlink">
<g id="graph0" class="graph" transform="scale(1 1) rotate(0) translate(4 1444)">
<title>G</title>
<polygon fill="white" stroke="transparent" points="-4,4 -4,-1444 546.29,-1444 546.29,4 -4,4"/>
<!-- Voltaire -->
<g id="node1" class="node">
<title>Voltaire</title>
<g id="a_node1"><a xlink:href="https://en.wikipedia.org/wiki/Voltaire" xlink:title="Voltaire">
<ellipse fill="none" stroke="black" cx="52.34" cy="-882" rx="37.88" ry="18"/>
<text text-anchor="middle" x="52.34" y="-877.8" font-family="Times,serif" font-size="14.00">Voltaire</text>
</a>
</g>
</g>
<!-- Marquis de Sade -->
<g id="node2" class="node">
<title>Marquis de Sade</title>
<ellipse fill="none" stroke="black" cx="210.23" cy="-720" rx="69.58" ry="18"/>
<text text-anchor="middle" x="210.23" y="-715.8" font-family="Times,serif" font-size="14.00">Marquis de Sade</text>
</g>
<!-- Voltaire&#45;&gt;Marquis de Sade -->
<g id="edge1" class="edge">
<title>Voltaire&#45;&gt;Marquis de Sade</title>
<path fill="none" stroke="black" d="M81.08,-870.15C89.15,-866 97.66,-860.89 104.68,-855 142.19,-823.54 174.8,-776.5 193.24,-747.06"/>
<polygon fill="black" stroke="black" points="196.45,-748.52 198.71,-738.17 190.49,-744.85 196.45,-748.52"/>
</g>
<!-- Algernon Charles Swinburne -->
<g id="node9" class="node">
<title>Algernon Charles Swinburne</title>
<g id="a_node9"><a xlink:href="https://en.wikipedia.org/wiki/Algernon_Charles_Swinburne" xlink:title="Algernon Charles Swinburne">
<ellipse fill="none" stroke="black" cx="429.03" cy="-1422" rx="113.02" ry="18"/>
<text text-anchor="middle" x="429.03" y="-1417.8" font-family="Times,serif" font-size="14.00">Algernon Charles Swinburne</text>
</a>
</g>
</g>
<!-- Marquis de Sade&#45;&gt;Algernon Charles Swinburne -->
<g id="edge8" class="edge">
<title>Marquis de Sade&#45;&gt;Algernon Charles Swinburne</title>
<path fill="none" stroke="black" d="M211.41,-738.24C212.76,-835.82 223.99,-1295.34 315.77,-1395 319.81,-1399.39 324.44,-1403.13 329.45,-1406.3"/>
<polygon fill="black" stroke="black" points="327.77,-1409.37 338.22,-1411.13 331.14,-1403.24 327.77,-1409.37"/>
</g>
<!-- Sigmund Freud -->
<g id="node10" class="node">
<title>Sigmund Freud</title>
<g id="a_node10"><a xlink:href="https://en.wikipedia.org/wiki/Sigmund_Freud" xlink:title="Sigmund Freud">
<ellipse fill="none" stroke="black" cx="429.03" cy="-1368" rx="64.78" ry="18"/>
<text text-anchor="middle" x="429.03" y="-1363.8" font-family="Times,serif" font-size="14.00">Sigmund Freud</text>
</a>
</g>
</g>
<!-- Marquis de Sade&#45;&gt;Sigmund Freud -->
<g id="edge9" class="edge">
<title>Marquis de Sade&#45;&gt;Sigmund Freud</title>
<path fill="none" stroke="black" d="M211.68,-738.3C214.35,-831.25 231.02,-1250.17 315.77,-1341 326.04,-1352.02 339.96,-1358.89 354.5,-1363.11"/>
<polygon fill="black" stroke="black" points="354.08,-1366.61 364.62,-1365.62 355.76,-1359.81 354.08,-1366.61"/>
</g>
<!-- Jean Genet -->
<g id="node11" class="node">
<title>Jean Genet</title>
<g id="a_node11"><a xlink:href="https://en.wikipedia.org/wiki/Jean_Genet" xlink:title="Jean Genet">
<ellipse fill="none" stroke="black" cx="429.03" cy="-1314" rx="49.29" ry="18"/>
<text text-anchor="middle" x="429.03" y="-1309.8" font-family="Times,serif" font-size="14.00">Jean Genet</text>
</a>
</g>
</g>
<!-- Marquis de Sade&#45;&gt;Jean Genet -->
<g id="edge10" class="edge">
<title>Marquis de Sade&#45;&gt;Jean Genet</title>
<path fill="none" stroke="black" d="M211.99,-738.15C216.06,-825.86 237.96,-1204.9 315.77,-1287 329.68,-1301.68 350.07,-1308.98 369.66,-1312.44"/>
<polygon fill="black" stroke="black" points="369.4,-1315.94 379.8,-1313.92 370.41,-1309.02 369.4,-1315.94"/>
</g>
<!-- Jesús Franco -->
<g id="node12" class="node">
<title>Jesús Franco</title>
<g id="a_node12"><a xlink:href="https://en.wikipedia.org/wiki/Jes%C3%BAs_Franco" xlink:title="Jesús Franco">
<ellipse fill="none" stroke="black" cx="429.03" cy="-1260" rx="55.59" ry="18"/>
<text text-anchor="middle" x="429.03" y="-1255.8" font-family="Times,serif" font-size="14.00">Jesús Franco</text>
</a>
</g>
</g>
<!-- Marquis de Sade&#45;&gt;Jesús Franco -->
<g id="edge11" class="edge">
<title>Marquis de Sade&#45;&gt;Jesús Franco</title>
<path fill="none" stroke="black" d="M212.37,-738.06C217.93,-820.42 244.9,-1159.6 315.77,-1233 328.22,-1245.9 345.68,-1253.08 363.12,-1256.96"/>
<polygon fill="black" stroke="black" points="362.87,-1260.48 373.35,-1258.89 364.17,-1253.6 362.87,-1260.48"/>
</g>
<!-- Friedrich Nietzsche -->
<g id="node13" class="node">
<title>Friedrich Nietzsche</title>
<g id="a_node13"><a xlink:href="https://en.wikipedia.org/wiki/Friedrich_Nietzsche" xlink:title="Friedrich Nietzsche">
<ellipse fill="none" stroke="black" cx="429.03" cy="-1206" rx="79.7" ry="18"/>
<text text-anchor="middle" x="429.03" y="-1201.8" font-family="Times,serif" font-size="14.00">Friedrich Nietzsche</text>
</a>
</g>
</g>
<!-- Marquis de Sade&#45;&gt;Friedrich Nietzsche -->
<g id="edge12" class="edge">
<title>Marquis de Sade&#45;&gt;Friedrich Nietzsche</title>
<path fill="none" stroke="black" d="M212.84,-738.2C220.07,-815.34 251.86,-1114.32 315.77,-1179 323.59,-1186.92 333.29,-1192.67 343.7,-1196.82"/>
<polygon fill="black" stroke="black" points="342.83,-1200.22 353.42,-1200.21 345.13,-1193.61 342.83,-1200.22"/>
</g>
<!-- Antonin Artaud -->
<g id="node14" class="node">
<title>Antonin Artaud</title>
<g id="a_node14"><a xlink:href="https://en.wikipedia.org/wiki/Antonin_Artaud" xlink:title="Antonin Artaud">
<ellipse fill="none" stroke="black" cx="429.03" cy="-1152" rx="65.26" ry="18"/>
<text text-anchor="middle" x="429.03" y="-1147.8" font-family="Times,serif" font-size="14.00">Antonin Artaud</text>
</a>
</g>
</g>
<!-- Marquis de Sade&#45;&gt;Antonin Artaud -->
<g id="edge13" class="edge">
<title>Marquis de Sade&#45;&gt;Antonin Artaud</title>
<path fill="none" stroke="black" d="M213.47,-738.45C222.54,-810.14 258.82,-1068.99 315.77,-1125 326.33,-1135.39 340.16,-1142.03 354.48,-1146.23"/>
<polygon fill="black" stroke="black" points="353.89,-1149.69 364.45,-1148.75 355.61,-1142.9 353.89,-1149.69"/>
</g>
<!-- Dennis Cooper -->
<g id="node15" class="node">
<title>Dennis Cooper</title>
<g id="a_node15"><a xlink:href="https://en.wikipedia.org/wiki/Dennis_Cooper" xlink:title="Dennis Cooper">
<ellipse fill="none" stroke="black" cx="429.03" cy="-1098" rx="63.31" ry="18"/>
<text text-anchor="middle" x="429.03" y="-1093.8" font-family="Times,serif" font-size="14.00">Dennis Cooper</text>
</a>
</g>
</g>
<!-- Marquis de Sade&#45;&gt;Dennis Cooper -->
<g id="edge14" class="edge">
<title>Marquis de Sade&#45;&gt;Dennis Cooper</title>
<path fill="none" stroke="black" d="M210.77,-738.09C210.34,-795.86 217.25,-977.61 315.77,-1071 326.98,-1081.63 341.63,-1088.31 356.62,-1092.45"/>
<polygon fill="black" stroke="black" points="355.95,-1095.89 366.49,-1094.82 357.58,-1089.08 355.95,-1095.89"/>
</g>
<!-- Georges Bataille -->
<g id="node16" class="node">
<title>Georges Bataille</title>
<g id="a_node16"><a xlink:href="https://en.wikipedia.org/wiki/Georges_Bataille" xlink:title="Georges Bataille">
<ellipse fill="none" stroke="black" cx="429.03" cy="-1044" rx="69.26" ry="18"/>
<text text-anchor="middle" x="429.03" y="-1039.8" font-family="Times,serif" font-size="14.00">Georges Bataille</text>
</a>
</g>
</g>
<!-- Marquis de Sade&#45;&gt;Georges Bataille -->
<g id="edge15" class="edge">
<title>Marquis de Sade&#45;&gt;Georges Bataille</title>
<path fill="none" stroke="black" d="M211.9,-738.24C214.87,-790.22 230.75,-940.27 315.77,-1017 326.06,-1026.29 339,-1032.54 352.39,-1036.7"/>
<polygon fill="black" stroke="black" points="351.62,-1040.12 362.19,-1039.37 353.47,-1033.36 351.62,-1040.12"/>
</g>
<!-- Charles Baudelaire -->
<g id="node17" class="node">
<title>Charles Baudelaire</title>
<g id="a_node17"><a xlink:href="https://en.wikipedia.org/wiki/Charles_Baudelaire" xlink:title="Charles Baudelaire">
<ellipse fill="none" stroke="black" cx="429.03" cy="-990" rx="77.77" ry="18"/>
<text text-anchor="middle" x="429.03" y="-985.8" font-family="Times,serif" font-size="14.00">Charles Baudelaire</text>
</a>
</g>
</g>
<!-- Marquis de Sade&#45;&gt;Charles Baudelaire -->
<g id="edge16" class="edge">
<title>Marquis de Sade&#45;&gt;Charles Baudelaire</title>
<path fill="none" stroke="black" d="M213.5,-738.2C220.16,-783.58 243.95,-902.48 315.77,-963 324.87,-970.67 335.79,-976.23 347.19,-980.26"/>
<polygon fill="black" stroke="black" points="346.26,-983.64 356.85,-983.29 348.36,-976.96 346.26,-983.64"/>
</g>
<!-- Simone de Beauvoir -->
<g id="node18" class="node">
<title>Simone de Beauvoir</title>
<g id="a_node18"><a xlink:href="https://en.wikipedia.org/wiki/Simone_de_Beauvoir" xlink:title="Simone de Beauvoir">
<ellipse fill="none" stroke="black" cx="429.03" cy="-936" rx="82.13" ry="18"/>
<text text-anchor="middle" x="429.03" y="-931.8" font-family="Times,serif" font-size="14.00">Simone de Beauvoir</text>
</a>
</g>
</g>
<!-- Marquis de Sade&#45;&gt;Simone de Beauvoir -->
<g id="edge17" class="edge">
<title>Marquis de Sade&#45;&gt;Simone de Beauvoir</title>
<path fill="none" stroke="black" d="M215.88,-738.07C226.62,-776 256.85,-864.13 315.77,-909 324.71,-915.81 335.12,-920.93 345.93,-924.78"/>
<polygon fill="black" stroke="black" points="344.91,-928.13 355.5,-927.84 347.04,-921.46 344.91,-928.13"/>
</g>
<!-- Angela Carter -->
<g id="node19" class="node">
<title>Angela Carter</title>
<g id="a_node19"><a xlink:href="https://en.wikipedia.org/wiki/Angela_Carter" xlink:title="Angela Carter">
<ellipse fill="none" stroke="black" cx="429.03" cy="-882" rx="59.9" ry="18"/>
<text text-anchor="middle" x="429.03" y="-877.8" font-family="Times,serif" font-size="14.00">Angela Carter</text>
</a>
</g>
</g>
<!-- Marquis de Sade&#45;&gt;Angela Carter -->
<g id="edge18" class="edge">
<title>Marquis de Sade&#45;&gt;Angela Carter</title>
<path fill="none" stroke="black" d="M220.01,-738.05C235.26,-767.36 269.47,-825.06 315.77,-855 329.64,-863.97 346.21,-869.96 362.31,-873.96"/>
<polygon fill="black" stroke="black" points="361.71,-877.42 372.24,-876.21 363.26,-870.59 361.71,-877.42"/>
</g>
<!-- Samuel Beckett -->
<g id="node20" class="node">
<title>Samuel Beckett</title>
<g id="a_node20"><a xlink:href="https://en.wikipedia.org/wiki/Samuel_Beckett" xlink:title="Samuel Beckett">
<ellipse fill="none" stroke="black" cx="429.03" cy="-828" rx="65.71" ry="18"/>
<text text-anchor="middle" x="429.03" y="-823.8" font-family="Times,serif" font-size="14.00">Samuel Beckett</text>
</a>
</g>
</g>
<!-- Marquis de Sade&#45;&gt;Samuel Beckett -->
<g id="edge19" class="edge">
<title>Marquis de Sade&#45;&gt;Samuel Beckett</title>
<path fill="none" stroke="black" d="M228.87,-737.55C248.47,-756.04 281.82,-784.7 315.77,-801 329.92,-807.8 345.93,-812.96 361.32,-816.86"/>
<polygon fill="black" stroke="black" points="360.79,-820.33 371.33,-819.24 362.41,-813.52 360.79,-820.33"/>
</g>
<!-- Jim Morrison -->
<g id="node21" class="node">
<title>Jim Morrison</title>
<g id="a_node21"><a xlink:href="https://en.wikipedia.org/wiki/Jim_Morrison" xlink:title="Jim Morrison">
<ellipse fill="none" stroke="black" cx="429.03" cy="-774" rx="58.02" ry="18"/>
<text text-anchor="middle" x="429.03" y="-769.8" font-family="Times,serif" font-size="14.00">Jim Morrison</text>
</a>
</g>
</g>
<!-- Marquis de Sade&#45;&gt;Jim Morrison -->
<g id="edge20" class="edge">
<title>Marquis de Sade&#45;&gt;Jim Morrison</title>
<path fill="none" stroke="black" d="M259.85,-732.74C277.45,-737.3 297.49,-742.44 315.77,-747 334.23,-751.6 354.43,-756.51 372.55,-760.85"/>
<polygon fill="black" stroke="black" points="371.84,-764.28 382.38,-763.2 373.47,-757.47 371.84,-764.28"/>
</g>
<!-- Lydia Lunch -->
<g id="node22" class="node">
<title>Lydia Lunch</title>
<g id="a_node22"><a xlink:href="https://en.wikipedia.org/wiki/Lydia_Lunch" xlink:title="Lydia Lunch">
<ellipse fill="none" stroke="black" cx="429.03" cy="-720" rx="55.11" ry="18"/>
<text text-anchor="middle" x="429.03" y="-715.8" font-family="Times,serif" font-size="14.00">Lydia Lunch</text>
</a>
</g>
</g>
<!-- Marquis de Sade&#45;&gt;Lydia Lunch -->
<g id="edge21" class="edge">
<title>Marquis de Sade&#45;&gt;Lydia Lunch</title>
<path fill="none" stroke="black" d="M279.82,-720C306.66,-720 337.27,-720 363.67,-720"/>
<polygon fill="black" stroke="black" points="363.95,-723.5 373.95,-720 363.95,-716.5 363.95,-723.5"/>
</g>
<!-- Yukio Mishima -->
<g id="node23" class="node">
<title>Yukio Mishima</title>
<g id="a_node23"><a xlink:href="https://en.wikipedia.org/wiki/Yukio_Mishima" xlink:title="Yukio Mishima">
<ellipse fill="none" stroke="black" cx="429.03" cy="-666" rx="64.78" ry="18"/>
<text text-anchor="middle" x="429.03" y="-661.8" font-family="Times,serif" font-size="14.00">Yukio Mishima</text>
</a>
</g>
</g>
<!-- Marquis de Sade&#45;&gt;Yukio Mishima -->
<g id="edge22" class="edge">
<title>Marquis de Sade&#45;&gt;Yukio Mishima</title>
<path fill="none" stroke="black" d="M259.85,-707.26C277.45,-702.7 297.49,-697.56 315.77,-693 333.08,-688.68 351.93,-684.1 369.15,-679.96"/>
<polygon fill="black" stroke="black" points="370.17,-683.32 379.08,-677.58 368.54,-676.51 370.17,-683.32"/>
</g>
<!-- Guillaume Apollinaire -->
<g id="node24" class="node">
<title>Guillaume Apollinaire</title>
<g id="a_node24"><a xlink:href="https://en.wikipedia.org/wiki/Guillaume_Apollinaire" xlink:title="Guillaume Apollinaire">
<ellipse fill="none" stroke="black" cx="429.03" cy="-612" rx="89.38" ry="18"/>
<text text-anchor="middle" x="429.03" y="-607.8" font-family="Times,serif" font-size="14.00">Guillaume Apollinaire</text>
</a>
</g>
</g>
<!-- Marquis de Sade&#45;&gt;Guillaume Apollinaire -->
<g id="edge23" class="edge">
<title>Marquis de Sade&#45;&gt;Guillaume Apollinaire</title>
<path fill="none" stroke="black" d="M228.87,-702.45C248.47,-683.96 281.82,-655.3 315.77,-639 326.5,-633.85 338.29,-629.63 350.07,-626.2"/>
<polygon fill="black" stroke="black" points="351.22,-629.51 359.94,-623.49 349.37,-622.76 351.22,-629.51"/>
</g>
<!-- Michel Foucault -->
<g id="node25" class="node">
<title>Michel Foucault</title>
<g id="a_node25"><a xlink:href="https://en.wikipedia.org/wiki/Michel_Foucault" xlink:title="Michel Foucault">
<ellipse fill="none" stroke="black" cx="429.03" cy="-558" rx="68.13" ry="18"/>
<text text-anchor="middle" x="429.03" y="-553.8" font-family="Times,serif" font-size="14.00">Michel Foucault</text>
</a>
</g>
</g>
<!-- Marquis de Sade&#45;&gt;Michel Foucault -->
<g id="edge24" class="edge">
<title>Marquis de Sade&#45;&gt;Michel Foucault</title>
<path fill="none" stroke="black" d="M220.01,-701.95C235.26,-672.64 269.47,-614.94 315.77,-585 327.94,-577.13 342.19,-571.55 356.38,-567.6"/>
<polygon fill="black" stroke="black" points="357.33,-570.97 366.16,-565.11 355.61,-564.18 357.33,-570.97"/>
</g>
<!-- Pierre Klossowski -->
<g id="node26" class="node">
<title>Pierre Klossowski</title>
<g id="a_node26"><a xlink:href="https://en.wikipedia.org/wiki/Pierre_Klossowski" xlink:title="Pierre Klossowski">
<ellipse fill="none" stroke="black" cx="429.03" cy="-504" rx="74.92" ry="18"/>
<text text-anchor="middle" x="429.03" y="-499.8" font-family="Times,serif" font-size="14.00">Pierre Klossowski</text>
</a>
</g>
</g>
<!-- Marquis de Sade&#45;&gt;Pierre Klossowski -->
<g id="edge25" class="edge">
<title>Marquis de Sade&#45;&gt;Pierre Klossowski</title>
<path fill="none" stroke="black" d="M215.88,-701.93C226.62,-664 256.85,-575.87 315.77,-531 325.83,-523.33 337.76,-517.81 350.02,-513.83"/>
<polygon fill="black" stroke="black" points="351.27,-517.11 359.9,-510.96 349.32,-510.39 351.27,-517.11"/>
</g>
<!-- Camille Paglia -->
<g id="node27" class="node">
<title>Camille Paglia</title>
<g id="a_node27"><a xlink:href="https://en.wikipedia.org/wiki/Camille_Paglia" xlink:title="Camille Paglia">
<ellipse fill="none" stroke="black" cx="429.03" cy="-450" rx="62.34" ry="18"/>
<text text-anchor="middle" x="429.03" y="-445.8" font-family="Times,serif" font-size="14.00">Camille Paglia</text>
</a>
</g>
</g>
<!-- Marquis de Sade&#45;&gt;Camille Paglia -->
<g id="edge26" class="edge">
<title>Marquis de Sade&#45;&gt;Camille Paglia</title>
<path fill="none" stroke="black" d="M213.5,-701.8C220.16,-656.42 243.95,-537.52 315.77,-477 327.71,-466.93 342.79,-460.49 357.98,-456.4"/>
<polygon fill="black" stroke="black" points="359.03,-459.75 367.95,-454.04 357.41,-452.94 359.03,-459.75"/>
</g>
<!-- Pier Paolo Pasolini -->
<g id="node28" class="node">
<title>Pier Paolo Pasolini</title>
<g id="a_node28"><a xlink:href="https://en.wikipedia.org/wiki/Pier_Paolo_Pasolini" xlink:title="Pier Paolo Pasolini">
<ellipse fill="none" stroke="black" cx="429.03" cy="-396" rx="77.33" ry="18"/>
<text text-anchor="middle" x="429.03" y="-391.8" font-family="Times,serif" font-size="14.00">Pier Paolo Pasolini</text>
</a>
</g>
</g>
<!-- Marquis de Sade&#45;&gt;Pier Paolo Pasolini -->
<g id="edge27" class="edge">
<title>Marquis de Sade&#45;&gt;Pier Paolo Pasolini</title>
<path fill="none" stroke="black" d="M211.9,-701.76C214.87,-649.78 230.75,-499.73 315.77,-423 324.54,-415.08 335.24,-409.37 346.5,-405.28"/>
<polygon fill="black" stroke="black" points="347.6,-408.61 356.06,-402.22 345.47,-401.94 347.6,-408.61"/>
</g>
<!-- Pete Doherty -->
<g id="node29" class="node">
<title>Pete Doherty</title>
<g id="a_node29"><a xlink:href="https://en.wikipedia.org/wiki/Pete_Doherty" xlink:title="Pete Doherty">
<ellipse fill="none" stroke="black" cx="429.03" cy="-342" rx="56.54" ry="18"/>
<text text-anchor="middle" x="429.03" y="-337.8" font-family="Times,serif" font-size="14.00">Pete Doherty</text>
</a>
</g>
</g>
<!-- Marquis de Sade&#45;&gt;Pete Doherty -->
<g id="edge28" class="edge">
<title>Marquis de Sade&#45;&gt;Pete Doherty</title>
<path fill="none" stroke="black" d="M210.77,-701.91C210.34,-644.14 217.25,-462.39 315.77,-369 328.48,-356.95 345.58,-349.98 362.61,-346.03"/>
<polygon fill="black" stroke="black" points="363.47,-349.43 372.59,-344.03 362.09,-342.56 363.47,-349.43"/>
</g>
<!-- Surrealism -->
<g id="node30" class="node">
<title>Surrealism</title>
<g id="a_node30"><a xlink:href="https://en.wikipedia.org/wiki/Surrealism" xlink:title="Surrealism">
<ellipse fill="none" stroke="black" cx="429.03" cy="-288" rx="48.34" ry="18"/>
<text text-anchor="middle" x="429.03" y="-283.8" font-family="Times,serif" font-size="14.00">Surrealism</text>
</a>
</g>
</g>
<!-- Marquis de Sade&#45;&gt;Surrealism -->
<g id="edge29" class="edge">
<title>Marquis de Sade&#45;&gt;Surrealism</title>
<path fill="none" stroke="black" d="M213.47,-701.55C222.54,-629.86 258.82,-371.01 315.77,-315 330.25,-300.76 350.86,-293.56 370.47,-290.06"/>
<polygon fill="black" stroke="black" points="371.22,-293.49 380.6,-288.55 370.19,-286.56 371.22,-293.49"/>
</g>
<!-- Guy Debord -->
<g id="node31" class="node">
<title>Guy Debord</title>
<g id="a_node31"><a xlink:href="https://en.wikipedia.org/wiki/Guy_Debord" xlink:title="Guy Debord">
<ellipse fill="none" stroke="black" cx="429.03" cy="-234" rx="54.14" ry="18"/>
<text text-anchor="middle" x="429.03" y="-229.8" font-family="Times,serif" font-size="14.00">Guy Debord</text>
</a>
</g>
</g>
<!-- Marquis de Sade&#45;&gt;Guy Debord -->
<g id="edge30" class="edge">
<title>Marquis de Sade&#45;&gt;Guy Debord</title>
<path fill="none" stroke="black" d="M212.84,-701.8C220.07,-624.66 251.86,-325.68 315.77,-261 328.78,-247.83 347.03,-240.64 365.03,-236.84"/>
<polygon fill="black" stroke="black" points="365.74,-240.27 374.97,-235.07 364.51,-233.38 365.74,-240.27"/>
</g>
<!-- John Waters -->
<g id="node32" class="node">
<title>John Waters</title>
<g id="a_node32"><a xlink:href="https://en.wikipedia.org/wiki/John_Waters" xlink:title="John Waters">
<ellipse fill="none" stroke="black" cx="429.03" cy="-180" rx="53.41" ry="18"/>
<text text-anchor="middle" x="429.03" y="-175.8" font-family="Times,serif" font-size="14.00">John Waters</text>
</a>
</g>
</g>
<!-- Marquis de Sade&#45;&gt;John Waters -->
<g id="edge31" class="edge">
<title>Marquis de Sade&#45;&gt;John Waters</title>
<path fill="none" stroke="black" d="M212.37,-701.94C217.93,-619.58 244.9,-280.4 315.77,-207 328.81,-193.49 347.33,-186.26 365.58,-182.51"/>
<polygon fill="black" stroke="black" points="366.4,-185.92 375.66,-180.77 365.21,-179.02 366.4,-185.92"/>
</g>
<!-- Jacques Lacan -->
<g id="node33" class="node">
<title>Jacques Lacan</title>
<g id="a_node33"><a xlink:href="https://en.wikipedia.org/wiki/Jacques_Lacan" xlink:title="Jacques Lacan">
<ellipse fill="none" stroke="black" cx="429.03" cy="-126" rx="61.34" ry="18"/>
<text text-anchor="middle" x="429.03" y="-121.8" font-family="Times,serif" font-size="14.00">Jacques Lacan</text>
</a>
</g>
</g>
<!-- Marquis de Sade&#45;&gt;Jacques Lacan -->
<g id="edge32" class="edge">
<title>Marquis de Sade&#45;&gt;Jacques Lacan</title>
<path fill="none" stroke="black" d="M211.99,-701.85C216.06,-614.14 237.96,-235.1 315.77,-153 326.9,-141.25 342.18,-134.23 357.88,-130.12"/>
<polygon fill="black" stroke="black" points="358.68,-133.52 367.68,-127.92 357.15,-126.69 358.68,-133.52"/>
</g>
<!-- Susan Sontag -->
<g id="node34" class="node">
<title>Susan Sontag</title>
<g id="a_node34"><a xlink:href="https://en.wikipedia.org/wiki/Susan_Sontag" xlink:title="Susan Sontag">
<ellipse fill="none" stroke="black" cx="429.03" cy="-72" rx="58.02" ry="18"/>
<text text-anchor="middle" x="429.03" y="-67.8" font-family="Times,serif" font-size="14.00">Susan Sontag</text>
</a>
</g>
</g>
<!-- Marquis de Sade&#45;&gt;Susan Sontag -->
<g id="edge33" class="edge">
<title>Marquis de Sade&#45;&gt;Susan Sontag</title>
<path fill="none" stroke="black" d="M211.68,-701.7C214.35,-608.75 231.02,-189.83 315.77,-99 327.6,-86.32 344.26,-79.13 361.12,-75.16"/>
<polygon fill="black" stroke="black" points="361.92,-78.57 371.05,-73.18 360.56,-71.7 361.92,-78.57"/>
</g>
<!-- Max Stirner -->
<g id="node35" class="node">
<title>Max Stirner</title>
<g id="a_node35"><a xlink:href="https://en.wikipedia.org/wiki/Max_Stirner" xlink:title="Max Stirner">
<ellipse fill="none" stroke="black" cx="429.03" cy="-18" rx="52.69" ry="18"/>
<text text-anchor="middle" x="429.03" y="-13.8" font-family="Times,serif" font-size="14.00">Max Stirner</text>
</a>
</g>
</g>
<!-- Marquis de Sade&#45;&gt;Max Stirner -->
<g id="edge34" class="edge">
<title>Marquis de Sade&#45;&gt;Max Stirner</title>
<path fill="none" stroke="black" d="M211.41,-701.76C212.76,-604.18 223.99,-144.66 315.77,-45 328.72,-30.94 347.59,-23.61 366.19,-19.94"/>
<polygon fill="black" stroke="black" points="366.85,-23.38 376.15,-18.3 365.72,-16.47 366.85,-23.38"/>
</g>
<!-- Rousseau -->
<g id="node3" class="node">
<title>Rousseau</title>
<g id="a_node3"><a xlink:href="https://en.wikipedia.org/wiki/Jean-Jacques_Rousseau" xlink:title="Rousseau">
<ellipse fill="none" stroke="black" cx="52.34" cy="-828" rx="44.01" ry="18"/>
<text text-anchor="middle" x="52.34" y="-823.8" font-family="Times,serif" font-size="14.00">Rousseau</text>
</a>
</g>
</g>
<!-- Rousseau&#45;&gt;Marquis de Sade -->
<g id="edge2" class="edge">
<title>Rousseau&#45;&gt;Marquis de Sade</title>
<path fill="none" stroke="black" d="M81.29,-814.43C89.03,-810.38 97.32,-805.74 104.68,-801 131.96,-783.45 160.96,-760.61 181.48,-743.66"/>
<polygon fill="black" stroke="black" points="183.74,-746.33 189.18,-737.24 179.26,-740.96 183.74,-746.33"/>
</g>
<!-- Spinoza -->
<g id="node4" class="node">
<title>Spinoza</title>
<g id="a_node4"><a xlink:href="https://en.wikipedia.org/wiki/Baruch_Spinoza" xlink:title="Spinoza">
<ellipse fill="none" stroke="black" cx="52.34" cy="-774" rx="38.7" ry="18"/>
<text text-anchor="middle" x="52.34" y="-769.8" font-family="Times,serif" font-size="14.00">Spinoza</text>
</a>
</g>
</g>
<!-- Spinoza&#45;&gt;Marquis de Sade -->
<g id="edge3" class="edge">
<title>Spinoza&#45;&gt;Marquis de Sade</title>
<path fill="none" stroke="black" d="M83.77,-763.46C104.89,-756.14 133.53,-746.22 158.12,-737.7"/>
<polygon fill="black" stroke="black" points="159.37,-740.98 167.67,-734.4 157.08,-734.36 159.37,-740.98"/>
</g>
<!-- Radcliffe -->
<g id="node5" class="node">
<title>Radcliffe</title>
<g id="a_node5"><a xlink:href="https://en.wikipedia.org/wiki/Ann_Radcliffe" xlink:title="Radcliffe">
<ellipse fill="none" stroke="black" cx="52.34" cy="-720" rx="42.7" ry="18"/>
<text text-anchor="middle" x="52.34" y="-715.8" font-family="Times,serif" font-size="14.00">Radcliffe</text>
</a>
</g>
</g>
<!-- Radcliffe&#45;&gt;Marquis de Sade -->
<g id="edge4" class="edge">
<title>Radcliffe&#45;&gt;Marquis de Sade</title>
<path fill="none" stroke="black" d="M95.53,-720C106.37,-720 118.4,-720 130.46,-720"/>
<polygon fill="black" stroke="black" points="130.56,-723.5 140.56,-720 130.56,-716.5 130.56,-723.5"/>
</g>
<!-- Hobbes -->
<g id="node6" class="node">
<title>Hobbes</title>
<g id="a_node6"><a xlink:href="https://en.wikipedia.org/wiki/Thomas_Hobbes" xlink:title="Hobbes">
<ellipse fill="none" stroke="black" cx="52.34" cy="-666" rx="37.25" ry="18"/>
<text text-anchor="middle" x="52.34" y="-661.8" font-family="Times,serif" font-size="14.00">Hobbes</text>
</a>
</g>
</g>
<!-- Hobbes&#45;&gt;Marquis de Sade -->
<g id="edge5" class="edge">
<title>Hobbes&#45;&gt;Marquis de Sade</title>
<path fill="none" stroke="black" d="M83.03,-676.28C104.24,-683.63 133.31,-693.7 158.21,-702.33"/>
<polygon fill="black" stroke="black" points="157.28,-705.71 167.87,-705.68 159.57,-699.09 157.28,-705.71"/>
</g>
<!-- Diderot -->
<g id="node7" class="node">
<title>Diderot</title>
<g id="a_node7"><a xlink:href="https://en.wikipedia.org/wiki/Denis_Diderot" xlink:title="Diderot">
<ellipse fill="none" stroke="black" cx="52.34" cy="-612" rx="37.24" ry="18"/>
<text text-anchor="middle" x="52.34" y="-607.8" font-family="Times,serif" font-size="14.00">Diderot</text>
</a>
</g>
</g>
<!-- Diderot&#45;&gt;Marquis de Sade -->
<g id="edge6" class="edge">
<title>Diderot&#45;&gt;Marquis de Sade</title>
<path fill="none" stroke="black" d="M79.17,-624.46C87.49,-628.77 96.64,-633.82 104.68,-639 131.96,-656.55 160.96,-679.39 181.48,-696.34"/>
<polygon fill="black" stroke="black" points="179.26,-699.04 189.18,-702.76 183.74,-693.67 179.26,-699.04"/>
</g>
<!-- Machiavelli -->
<g id="node8" class="node">
<title>Machiavelli</title>
<g id="a_node8"><a xlink:href="https://en.wikipedia.org/wiki/Niccol%C3%B2_Machiavelli" xlink:title="Machiavelli">
<ellipse fill="none" stroke="black" cx="52.34" cy="-558" rx="52.18" ry="18"/>
<text text-anchor="middle" x="52.34" y="-553.8" font-family="Times,serif" font-size="14.00">Machiavelli</text>
</a>
</g>
</g>
<!-- Machiavelli&#45;&gt;Marquis de Sade -->
<g id="edge7" class="edge">
<title>Machiavelli&#45;&gt;Marquis de Sade</title>
<path fill="none" stroke="black" d="M85.37,-572.13C92.09,-575.82 98.9,-580.15 104.68,-585 142.19,-616.46 174.8,-663.5 193.24,-692.94"/>
<polygon fill="black" stroke="black" points="190.49,-695.15 198.71,-701.83 196.45,-691.48 190.49,-695.15"/>
</g>
</g>
</svg>
