<?xml version="1.0" encoding="UTF-8" standalone="no"?>
<!DOCTYPE svg PUBLIC "-//W3C//DTD SVG 1.1//EN"
 "http://www.w3.org/Graphics/SVG/1.1/DTD/svg11.dtd">
<!-- Generated by graphviz version 2.42.3 (20191010.1750)
 -->
<!-- Title: G Pages: 1 -->
<svg width="5525pt" height="188pt"
 viewBox="0.00 0.00 5524.81 188.00" xmlns="http://www.w3.org/2000/svg" xmlns:xlink="http://www.w3.org/1999/xlink">
<g id="graph0" class="graph" transform="scale(1 1) rotate(0) translate(4 184)">
<title>G</title>
<polygon fill="white" stroke="transparent" points="-4,4 -4,-184 5520.81,-184 5520.81,4 -4,4"/>
<!-- G.W.F. Hegel -->
<g id="node1" class="node">
<title>G.W.F. Hegel</title>
<g id="a_node1"><a xlink:href="https://en.wikipedia.org/wiki/Georg_Wilhelm_Friedrich_Hegel" xlink:title="G.W.F. Hegel">
<ellipse fill="none" stroke="black" cx="58.2" cy="-162" rx="58.4" ry="18"/>
<text text-anchor="middle" x="58.2" y="-157.8" font-family="Times,serif" font-size="14.00">G.W.F. Hegel</text>
</a>
</g>
</g>
<!-- Marx -->
<g id="node2" class="node">
<title>Marx</title>
<ellipse fill="none" stroke="black" cx="2730.2" cy="-90" rx="29.03" ry="18"/>
<text text-anchor="middle" x="2730.2" y="-85.8" font-family="Times,serif" font-size="14.00">Marx</text>
</g>
<!-- G.W.F. Hegel&#45;&gt;Marx -->
<g id="edge1" class="edge">
<title>G.W.F. Hegel&#45;&gt;Marx</title>
<path fill="none" stroke="black" d="M99.01,-149.07C107.59,-147.01 116.64,-145.16 125.2,-144 389.9,-108.2 2383.76,-93.34 2690.61,-91.26"/>
<polygon fill="black" stroke="black" points="2690.83,-94.76 2700.81,-91.19 2690.78,-87.76 2690.83,-94.76"/>
</g>
<!-- Literally all Marxists -->
<g id="node35" class="node">
<title>Literally all Marxists</title>
<g id="a_node35"><a xlink:href="https://en.wikipedia.org" xlink:title="Literally all Marxists">
<ellipse fill="none" stroke="black" cx="2730.2" cy="-18" rx="84.53" ry="18"/>
<text text-anchor="middle" x="2730.2" y="-13.8" font-family="Times,serif" font-size="14.00">Literally all Marxists</text>
</a>
</g>
</g>
<!-- Marx&#45;&gt;Literally all Marxists -->
<g id="edge34" class="edge">
<title>Marx&#45;&gt;Literally all Marxists</title>
<path fill="none" stroke="black" d="M2730.2,-71.7C2730.2,-63.98 2730.2,-54.71 2730.2,-46.11"/>
<polygon fill="black" stroke="black" points="2733.7,-46.1 2730.2,-36.1 2726.7,-46.1 2733.7,-46.1"/>
</g>
<!-- Ludwig Feuerbach -->
<g id="node3" class="node">
<title>Ludwig Feuerbach</title>
<g id="a_node3"><a xlink:href="https://en.wikipedia.org/wiki/Ludwig_Feuerbach" xlink:title="Ludwig Feuerbach">
<ellipse fill="none" stroke="black" cx="211.2" cy="-162" rx="76.82" ry="18"/>
<text text-anchor="middle" x="211.2" y="-157.8" font-family="Times,serif" font-size="14.00">Ludwig Feuerbach</text>
</a>
</g>
</g>
<!-- Ludwig Feuerbach&#45;&gt;Marx -->
<g id="edge2" class="edge">
<title>Ludwig Feuerbach&#45;&gt;Marx</title>
<path fill="none" stroke="black" d="M264.66,-148.94C275.38,-146.95 286.61,-145.15 297.2,-144 788.87,-90.46 2416.16,-90.52 2690.7,-90.92"/>
<polygon fill="black" stroke="black" points="2690.97,-94.42 2700.98,-90.94 2690.98,-87.42 2690.97,-94.42"/>
</g>
<!-- Charles Darwin -->
<g id="node4" class="node">
<title>Charles Darwin</title>
<g id="a_node4"><a xlink:href="https://en.wikipedia.org/wiki/Charles_Darwin" xlink:title="Charles Darwin">
<ellipse fill="none" stroke="black" cx="372.2" cy="-162" rx="65.71" ry="18"/>
<text text-anchor="middle" x="372.2" y="-157.8" font-family="Times,serif" font-size="14.00">Charles Darwin</text>
</a>
</g>
</g>
<!-- Charles Darwin&#45;&gt;Marx -->
<g id="edge3" class="edge">
<title>Charles Darwin&#45;&gt;Marx</title>
<path fill="none" stroke="black" d="M418.36,-149.02C427.84,-146.99 437.79,-145.16 447.2,-144 906.35,-87.21 2425.84,-89.92 2690.67,-90.84"/>
<polygon fill="black" stroke="black" points="2690.94,-94.34 2700.95,-90.88 2690.96,-87.34 2690.94,-94.34"/>
</g>
<!-- Charles Babbage -->
<g id="node5" class="node">
<title>Charles Babbage</title>
<g id="a_node5"><a xlink:href="https://en.wikipedia.org/wiki/Charles_Babbage" xlink:title="Charles Babbage">
<ellipse fill="none" stroke="black" cx="526.2" cy="-162" rx="70.04" ry="18"/>
<text text-anchor="middle" x="526.2" y="-157.8" font-family="Times,serif" font-size="14.00">Charles Babbage</text>
</a>
</g>
</g>
<!-- Charles Babbage&#45;&gt;Marx -->
<g id="edge4" class="edge">
<title>Charles Babbage&#45;&gt;Marx</title>
<path fill="none" stroke="black" d="M575.27,-148.96C585.12,-146.96 595.45,-145.16 605.2,-144 1031.27,-93.3 2436.61,-90.98 2690.65,-90.98"/>
<polygon fill="black" stroke="black" points="2690.88,-94.48 2700.88,-90.98 2690.88,-87.48 2690.88,-94.48"/>
</g>
<!-- Aristotle -->
<g id="node6" class="node">
<title>Aristotle</title>
<g id="a_node6"><a xlink:href="https://en.wikipedia.org/wiki/Aristotle" xlink:title="Aristotle">
<ellipse fill="none" stroke="black" cx="655.2" cy="-162" rx="41.11" ry="18"/>
<text text-anchor="middle" x="655.2" y="-157.8" font-family="Times,serif" font-size="14.00">Aristotle</text>
</a>
</g>
</g>
<!-- Aristotle&#45;&gt;Marx -->
<g id="edge5" class="edge">
<title>Aristotle&#45;&gt;Marx</title>
<path fill="none" stroke="black" d="M684.69,-149.34C691.34,-147.17 698.43,-145.21 705.2,-144 907.2,-107.88 2423.98,-93.57 2690.33,-91.32"/>
<polygon fill="black" stroke="black" points="2690.71,-94.82 2700.68,-91.24 2690.65,-87.82 2690.71,-94.82"/>
</g>
<!-- Epicurus -->
<g id="node7" class="node">
<title>Epicurus</title>
<g id="a_node7"><a xlink:href="https://en.wikipedia.org/wiki/Epicurus" xlink:title="Epicurus">
<ellipse fill="none" stroke="black" cx="756.2" cy="-162" rx="41.59" ry="18"/>
<text text-anchor="middle" x="756.2" y="-157.8" font-family="Times,serif" font-size="14.00">Epicurus</text>
</a>
</g>
</g>
<!-- Epicurus&#45;&gt;Marx -->
<g id="edge6" class="edge">
<title>Epicurus&#45;&gt;Marx</title>
<path fill="none" stroke="black" d="M786.03,-149.43C792.88,-147.23 800.22,-145.23 807.2,-144 998.7,-110.21 2433.34,-94.04 2690.72,-91.39"/>
<polygon fill="black" stroke="black" points="2690.78,-94.89 2700.74,-91.29 2690.7,-87.89 2690.78,-94.89"/>
</g>
<!-- Jean&#45;Jacques Rousseau -->
<g id="node8" class="node">
<title>Jean&#45;Jacques Rousseau</title>
<g id="a_node8"><a xlink:href="https://en.wikipedia.org/wiki/Jean-Jacques_Rousseau" xlink:title="Jean&#45;Jacques Rousseau">
<ellipse fill="none" stroke="black" cx="908.2" cy="-162" rx="92.25" ry="18"/>
<text text-anchor="middle" x="908.2" y="-157.8" font-family="Times,serif" font-size="14.00">Jean&#45;Jacques Rousseau</text>
</a>
</g>
</g>
<!-- Jean&#45;Jacques Rousseau&#45;&gt;Marx -->
<g id="edge7" class="edge">
<title>Jean&#45;Jacques Rousseau&#45;&gt;Marx</title>
<path fill="none" stroke="black" d="M972.23,-148.98C984.78,-147.01 997.87,-145.21 1010.2,-144 1351.73,-110.43 2465.47,-94.43 2690.39,-91.5"/>
<polygon fill="black" stroke="black" points="2690.77,-94.99 2700.72,-91.37 2690.68,-88 2690.77,-94.99"/>
</g>
<!-- Baruch Spinoza -->
<g id="node9" class="node">
<title>Baruch Spinoza</title>
<g id="a_node9"><a xlink:href="https://en.wikipedia.org/wiki/Baruch_Spinoza" xlink:title="Baruch Spinoza">
<ellipse fill="none" stroke="black" cx="1085.2" cy="-162" rx="66.19" ry="18"/>
<text text-anchor="middle" x="1085.2" y="-157.8" font-family="Times,serif" font-size="14.00">Baruch Spinoza</text>
</a>
</g>
</g>
<!-- Baruch Spinoza&#45;&gt;Marx -->
<g id="edge8" class="edge">
<title>Baruch Spinoza&#45;&gt;Marx</title>
<path fill="none" stroke="black" d="M1131.77,-149.01C1141.13,-147.01 1150.93,-145.2 1160.2,-144 1469.42,-104.1 2478.64,-93.2 2690.83,-91.32"/>
<polygon fill="black" stroke="black" points="2690.92,-94.82 2700.89,-91.23 2690.86,-87.82 2690.92,-94.82"/>
</g>
<!-- Jean Charles Léonard de Sismondi -->
<g id="node10" class="node">
<title>Jean Charles Léonard de Sismondi</title>
<g id="a_node10"><a xlink:href="https://en.wikipedia.org/wiki/Jean_Charles_L%C3%A9onard_de_Sismondi" xlink:title="Jean Charles Léonard de Sismondi">
<ellipse fill="none" stroke="black" cx="1302.2" cy="-162" rx="132.81" ry="18"/>
<text text-anchor="middle" x="1302.2" y="-157.8" font-family="Times,serif" font-size="14.00">Jean Charles Léonard de Sismondi</text>
</a>
</g>
</g>
<!-- Jean Charles Léonard de Sismondi&#45;&gt;Marx -->
<g id="edge9" class="edge">
<title>Jean Charles Léonard de Sismondi&#45;&gt;Marx</title>
<path fill="none" stroke="black" d="M1394.14,-148.93C1410.78,-147.05 1427.99,-145.3 1444.2,-144 1934.65,-104.6 2532.8,-93.77 2690.54,-91.51"/>
<polygon fill="black" stroke="black" points="2690.76,-95.01 2700.71,-91.37 2690.66,-88.01 2690.76,-95.01"/>
</g>
<!-- Friedrich Wilhelm Schulz -->
<g id="node11" class="node">
<title>Friedrich Wilhelm Schulz</title>
<g id="a_node11"><a xlink:href="https://en.wikipedia.org/wiki/Friedrich_Wilhelm_Schulz" xlink:title="Friedrich Wilhelm Schulz">
<ellipse fill="none" stroke="black" cx="1554.2" cy="-162" rx="101.4" ry="18"/>
<text text-anchor="middle" x="1554.2" y="-157.8" font-family="Times,serif" font-size="14.00">Friedrich Wilhelm Schulz</text>
</a>
</g>
</g>
<!-- Friedrich Wilhelm Schulz&#45;&gt;Marx -->
<g id="edge10" class="edge">
<title>Friedrich Wilhelm Schulz&#45;&gt;Marx</title>
<path fill="none" stroke="black" d="M1624.77,-148.99C1637.85,-147.07 1651.42,-145.3 1664.2,-144 2063.5,-103.33 2550.26,-93.54 2690.61,-91.49"/>
<polygon fill="black" stroke="black" points="2690.92,-94.99 2700.87,-91.34 2690.82,-87.99 2690.92,-94.99"/>
</g>
<!-- David Ricardo -->
<g id="node12" class="node">
<title>David Ricardo</title>
<g id="a_node12"><a xlink:href="https://en.wikipedia.org/wiki/David_Ricardo" xlink:title="David Ricardo">
<ellipse fill="none" stroke="black" cx="1735.2" cy="-162" rx="61.85" ry="18"/>
<text text-anchor="middle" x="1735.2" y="-157.8" font-family="Times,serif" font-size="14.00">David Ricardo</text>
</a>
</g>
</g>
<!-- David Ricardo&#45;&gt;Marx -->
<g id="edge11" class="edge">
<title>David Ricardo&#45;&gt;Marx</title>
<path fill="none" stroke="black" d="M1779.28,-149.16C1788.14,-147.15 1797.42,-145.29 1806.2,-144 2145.98,-93.98 2562.5,-90.54 2690.76,-90.77"/>
<polygon fill="black" stroke="black" points="2690.87,-94.27 2700.88,-90.79 2690.89,-87.27 2690.87,-94.27"/>
</g>
<!-- Adam Smith -->
<g id="node13" class="node">
<title>Adam Smith</title>
<g id="a_node13"><a xlink:href="https://en.wikipedia.org/wiki/Adam_Smith" xlink:title="Adam Smith">
<ellipse fill="none" stroke="black" cx="1870.2" cy="-162" rx="55.13" ry="18"/>
<text text-anchor="middle" x="1870.2" y="-157.8" font-family="Times,serif" font-size="14.00">Adam Smith</text>
</a>
</g>
</g>
<!-- Adam Smith&#45;&gt;Marx -->
<g id="edge12" class="edge">
<title>Adam Smith&#45;&gt;Marx</title>
<path fill="none" stroke="black" d="M1909.55,-149.27C1917.64,-147.22 1926.15,-145.33 1934.2,-144 2221.45,-96.74 2573.61,-91.36 2690.45,-90.94"/>
<polygon fill="black" stroke="black" points="2690.7,-94.44 2700.69,-90.92 2690.69,-87.44 2690.7,-94.44"/>
</g>
<!-- Adam Ferguson -->
<g id="node14" class="node">
<title>Adam Ferguson</title>
<g id="a_node14"><a xlink:href="https://en.wikipedia.org/wiki/Adam_Ferguson" xlink:title="Adam Ferguson">
<ellipse fill="none" stroke="black" cx="2010.2" cy="-162" rx="66.88" ry="18"/>
<text text-anchor="middle" x="2010.2" y="-157.8" font-family="Times,serif" font-size="14.00">Adam Ferguson</text>
</a>
</g>
</g>
<!-- Adam Ferguson&#45;&gt;Marx -->
<g id="edge13" class="edge">
<title>Adam Ferguson&#45;&gt;Marx</title>
<path fill="none" stroke="black" d="M2057.62,-149.19C2066.73,-147.22 2076.23,-145.38 2085.2,-144 2313.12,-108.98 2590.16,-96.05 2691.06,-92.29"/>
<polygon fill="black" stroke="black" points="2691.24,-95.79 2701.1,-91.93 2690.98,-88.8 2691.24,-95.79"/>
</g>
<!-- Friedrich Engels -->
<g id="node15" class="node">
<title>Friedrich Engels</title>
<g id="a_node15"><a xlink:href="https://en.wikipedia.org/wiki/Friedrich_Engels" xlink:title="Friedrich Engels">
<ellipse fill="none" stroke="black" cx="2163.2" cy="-162" rx="68.61" ry="18"/>
<text text-anchor="middle" x="2163.2" y="-157.8" font-family="Times,serif" font-size="14.00">Friedrich Engels</text>
</a>
</g>
</g>
<!-- Friedrich Engels&#45;&gt;Marx -->
<g id="edge14" class="edge">
<title>Friedrich Engels&#45;&gt;Marx</title>
<path fill="none" stroke="black" d="M2212.57,-149.41C2222.04,-147.42 2231.9,-145.51 2241.2,-144 2407.51,-116.94 2607.94,-100.11 2691.11,-93.81"/>
<polygon fill="black" stroke="black" points="2691.41,-97.3 2701.12,-93.06 2690.89,-90.32 2691.41,-97.3"/>
</g>
<!-- Pierre&#45;Joseph Proudhon -->
<g id="node16" class="node">
<title>Pierre&#45;Joseph Proudhon</title>
<g id="a_node16"><a xlink:href="https://en.wikipedia.org/wiki/Pierre-Joseph_Proudhon" xlink:title="Pierre&#45;Joseph Proudhon">
<ellipse fill="none" stroke="black" cx="2345.2" cy="-162" rx="94.69" ry="18"/>
<text text-anchor="middle" x="2345.2" y="-157.8" font-family="Times,serif" font-size="14.00">Pierre&#45;Joseph Proudhon</text>
</a>
</g>
</g>
<!-- Pierre&#45;Joseph Proudhon&#45;&gt;Marx -->
<g id="edge15" class="edge">
<title>Pierre&#45;Joseph Proudhon&#45;&gt;Marx</title>
<path fill="none" stroke="black" d="M2411.39,-148.97C2492.61,-134.2 2627.55,-109.66 2692.71,-97.82"/>
<polygon fill="black" stroke="black" points="2693.34,-101.26 2702.55,-96.03 2692.08,-94.37 2693.34,-101.26"/>
</g>
<!-- Constantin Pecqueur -->
<g id="node17" class="node">
<title>Constantin Pecqueur</title>
<g id="a_node17"><a xlink:href="https://en.wikipedia.org/wiki/Constantin_Pecqueur" xlink:title="Constantin Pecqueur">
<ellipse fill="none" stroke="black" cx="2541.2" cy="-162" rx="83.59" ry="18"/>
<text text-anchor="middle" x="2541.2" y="-157.8" font-family="Times,serif" font-size="14.00">Constantin Pecqueur</text>
</a>
</g>
</g>
<!-- Constantin Pecqueur&#45;&gt;Marx -->
<g id="edge16" class="edge">
<title>Constantin Pecqueur&#45;&gt;Marx</title>
<path fill="none" stroke="black" d="M2581.28,-146.15C2615.46,-133.5 2664.03,-115.51 2696.3,-103.56"/>
<polygon fill="black" stroke="black" points="2697.6,-106.81 2705.76,-100.05 2695.17,-100.24 2697.6,-106.81"/>
</g>
<!-- Henri de Saint&#45;Simon -->
<g id="node18" class="node">
<title>Henri de Saint&#45;Simon</title>
<g id="a_node18"><a xlink:href="https://en.wikipedia.org/wiki/Henri_de_Saint-Simon" xlink:title="Henri de Saint&#45;Simon">
<ellipse fill="none" stroke="black" cx="2730.2" cy="-162" rx="87.47" ry="18"/>
<text text-anchor="middle" x="2730.2" y="-157.8" font-family="Times,serif" font-size="14.00">Henri de Saint&#45;Simon</text>
</a>
</g>
</g>
<!-- Henri de Saint&#45;Simon&#45;&gt;Marx -->
<g id="edge17" class="edge">
<title>Henri de Saint&#45;Simon&#45;&gt;Marx</title>
<path fill="none" stroke="black" d="M2730.2,-143.7C2730.2,-135.98 2730.2,-126.71 2730.2,-118.11"/>
<polygon fill="black" stroke="black" points="2733.7,-118.1 2730.2,-108.1 2726.7,-118.1 2733.7,-118.1"/>
</g>
<!-- Robert Owen -->
<g id="node19" class="node">
<title>Robert Owen</title>
<g id="a_node19"><a xlink:href="https://en.wikipedia.org/wiki/Robert_Owen" xlink:title="Robert Owen">
<ellipse fill="none" stroke="black" cx="2893.2" cy="-162" rx="57.51" ry="18"/>
<text text-anchor="middle" x="2893.2" y="-157.8" font-family="Times,serif" font-size="14.00">Robert Owen</text>
</a>
</g>
</g>
<!-- Robert Owen&#45;&gt;Marx -->
<g id="edge18" class="edge">
<title>Robert Owen&#45;&gt;Marx</title>
<path fill="none" stroke="black" d="M2860.61,-147C2832.35,-134.87 2791.65,-117.39 2763.26,-105.2"/>
<polygon fill="black" stroke="black" points="2764.34,-101.85 2753.77,-101.12 2761.58,-108.28 2764.34,-101.85"/>
</g>
<!-- William Thompson -->
<g id="node20" class="node">
<title>William Thompson</title>
<g id="a_node20"><a xlink:href="https://en.wikipedia.org/wiki/William_Thompson_(philosopher)" xlink:title="William Thompson">
<ellipse fill="none" stroke="black" cx="3047.2" cy="-162" rx="78.74" ry="18"/>
<text text-anchor="middle" x="3047.2" y="-157.8" font-family="Times,serif" font-size="14.00">William Thompson</text>
</a>
</g>
</g>
<!-- William Thompson&#45;&gt;Marx -->
<g id="edge19" class="edge">
<title>William Thompson&#45;&gt;Marx</title>
<path fill="none" stroke="black" d="M2992.71,-148.97C2928.21,-134.73 2822.59,-111.4 2767.02,-99.13"/>
<polygon fill="black" stroke="black" points="2767.77,-95.71 2757.25,-96.97 2766.26,-102.55 2767.77,-95.71"/>
</g>
<!-- Charles Fourier -->
<g id="node21" class="node">
<title>Charles Fourier</title>
<g id="a_node21"><a xlink:href="https://en.wikipedia.org/wiki/Charles_Fourier" xlink:title="Charles Fourier">
<ellipse fill="none" stroke="black" cx="3209.2" cy="-162" rx="65.23" ry="18"/>
<text text-anchor="middle" x="3209.2" y="-157.8" font-family="Times,serif" font-size="14.00">Charles Fourier</text>
</a>
</g>
</g>
<!-- Charles Fourier&#45;&gt;Marx -->
<g id="edge20" class="edge">
<title>Charles Fourier&#45;&gt;Marx</title>
<path fill="none" stroke="black" d="M3161.97,-149.44C3153.11,-147.47 3143.89,-145.56 3135.2,-144 3001.5,-119.95 2841.1,-102.21 2768.83,-94.81"/>
<polygon fill="black" stroke="black" points="2769.13,-91.32 2758.83,-93.79 2768.42,-98.29 2769.13,-91.32"/>
</g>
<!-- Baron d&#39;Holbach -->
<g id="node22" class="node">
<title>Baron d&#39;Holbach</title>
<g id="a_node22"><a xlink:href="https://en.wikipedia.org/wiki/Baron_d%27Holbach" xlink:title="Baron d&#39;Holbach">
<ellipse fill="none" stroke="black" cx="3362.2" cy="-162" rx="69.81" ry="18"/>
<text text-anchor="middle" x="3362.2" y="-157.8" font-family="Times,serif" font-size="14.00">Baron d&#39;Holbach</text>
</a>
</g>
</g>
<!-- Baron d&#39;Holbach&#45;&gt;Marx -->
<g id="edge21" class="edge">
<title>Baron d&#39;Holbach&#45;&gt;Marx</title>
<path fill="none" stroke="black" d="M3312.22,-149.32C3302.62,-147.35 3292.63,-145.46 3283.2,-144 3091.82,-114.34 2860.44,-98.6 2769.55,-93.19"/>
<polygon fill="black" stroke="black" points="2769.62,-89.69 2759.43,-92.6 2769.21,-96.68 2769.62,-89.69"/>
</g>
<!-- Justus von Liebig -->
<g id="node23" class="node">
<title>Justus von Liebig</title>
<g id="a_node23"><a xlink:href="https://en.wikipedia.org/wiki/Justus_von_Liebig" xlink:title="Justus von Liebig">
<ellipse fill="none" stroke="black" cx="3522.2" cy="-162" rx="72.51" ry="18"/>
<text text-anchor="middle" x="3522.2" y="-157.8" font-family="Times,serif" font-size="14.00">Justus von Liebig</text>
</a>
</g>
</g>
<!-- Justus von Liebig&#45;&gt;Marx -->
<g id="edge22" class="edge">
<title>Justus von Liebig&#45;&gt;Marx</title>
<path fill="none" stroke="black" d="M3470.96,-149.18C3461.13,-147.21 3450.88,-145.37 3441.2,-144 3186.79,-107.98 2877.47,-95.53 2769.57,-92.11"/>
<polygon fill="black" stroke="black" points="2769.58,-88.6 2759.47,-91.79 2769.36,-95.6 2769.58,-88.6"/>
</g>
<!-- Ludwig von Westphalen -->
<g id="node24" class="node">
<title>Ludwig von Westphalen</title>
<g id="a_node24"><a xlink:href="https://en.wikipedia.org/wiki/Ludwig_von_Westphalen" xlink:title="Ludwig von Westphalen">
<ellipse fill="none" stroke="black" cx="3709.2" cy="-162" rx="96.38" ry="18"/>
<text text-anchor="middle" x="3709.2" y="-157.8" font-family="Times,serif" font-size="14.00">Ludwig von Westphalen</text>
</a>
</g>
</g>
<!-- Ludwig von Westphalen&#45;&gt;Marx -->
<g id="edge23" class="edge">
<title>Ludwig von Westphalen&#45;&gt;Marx</title>
<path fill="none" stroke="black" d="M3641.84,-149.07C3629.36,-147.15 3616.41,-145.35 3604.2,-144 3283.06,-108.36 2892.68,-95.36 2769.43,-91.98"/>
<polygon fill="black" stroke="black" points="2769.43,-88.48 2759.34,-91.71 2769.24,-95.48 2769.43,-88.48"/>
</g>
<!-- Max Stirner -->
<g id="node25" class="node">
<title>Max Stirner</title>
<g id="a_node25"><a xlink:href="https://en.wikipedia.org/wiki/Max_Stirner" xlink:title="Max Stirner">
<ellipse fill="none" stroke="black" cx="3876.2" cy="-162" rx="52.69" ry="18"/>
<text text-anchor="middle" x="3876.2" y="-157.8" font-family="Times,serif" font-size="14.00">Max Stirner</text>
</a>
</g>
</g>
<!-- Max Stirner&#45;&gt;Marx -->
<g id="edge24" class="edge">
<title>Max Stirner&#45;&gt;Marx</title>
<path fill="none" stroke="black" d="M3838.79,-149.33C3830.75,-147.22 3822.25,-145.28 3814.2,-144 3607,-110.94 2939.83,-95.29 2769.88,-91.78"/>
<polygon fill="black" stroke="black" points="2769.72,-88.27 2759.65,-91.57 2769.57,-95.27 2769.72,-88.27"/>
</g>
<!-- François&#45;Noël Babeuf -->
<g id="node26" class="node">
<title>François&#45;Noël Babeuf</title>
<g id="a_node26"><a xlink:href="https://en.wikipedia.org/wiki/Fran%C3%A7ois-No%C3%ABl_Babeuf" xlink:title="François&#45;Noël Babeuf">
<ellipse fill="none" stroke="black" cx="4035.2" cy="-162" rx="88.39" ry="18"/>
<text text-anchor="middle" x="4035.2" y="-157.8" font-family="Times,serif" font-size="14.00">François&#45;Noël Babeuf</text>
</a>
</g>
</g>
<!-- François&#45;Noël Babeuf&#45;&gt;Marx -->
<g id="edge25" class="edge">
<title>François&#45;Noël Babeuf&#45;&gt;Marx</title>
<path fill="none" stroke="black" d="M3973.8,-149C3962.02,-147.05 3949.76,-145.26 3938.2,-144 3481.19,-94.14 2922.08,-90.8 2769.98,-90.88"/>
<polygon fill="black" stroke="black" points="2769.74,-87.38 2759.74,-90.89 2769.75,-94.38 2769.74,-87.38"/>
</g>
<!-- Voltaire -->
<g id="node27" class="node">
<title>Voltaire</title>
<g id="a_node27"><a xlink:href="https://en.wikipedia.org/wiki/Voltaire" xlink:title="Voltaire">
<ellipse fill="none" stroke="black" cx="4179.2" cy="-162" rx="37.88" ry="18"/>
<text text-anchor="middle" x="4179.2" y="-157.8" font-family="Times,serif" font-size="14.00">Voltaire</text>
</a>
</g>
</g>
<!-- Voltaire&#45;&gt;Marx -->
<g id="edge26" class="edge">
<title>Voltaire&#45;&gt;Marx</title>
<path fill="none" stroke="black" d="M4151.77,-149.48C4145.45,-147.27 4138.67,-145.26 4132.2,-144 3860.91,-91.14 2968.77,-90.35 2769.79,-90.85"/>
<polygon fill="black" stroke="black" points="2769.51,-87.35 2759.51,-90.88 2769.52,-94.35 2769.51,-87.35"/>
</g>
<!-- Giambattista Vico -->
<g id="node28" class="node">
<title>Giambattista Vico</title>
<g id="a_node28"><a xlink:href="https://en.wikipedia.org/wiki/Giambattista_Vico" xlink:title="Giambattista Vico">
<ellipse fill="none" stroke="black" cx="4309.2" cy="-162" rx="74.03" ry="18"/>
<text text-anchor="middle" x="4309.2" y="-157.8" font-family="Times,serif" font-size="14.00">Giambattista Vico</text>
</a>
</g>
</g>
<!-- Giambattista Vico&#45;&gt;Marx -->
<g id="edge27" class="edge">
<title>Giambattista Vico&#45;&gt;Marx</title>
<path fill="none" stroke="black" d="M4257.62,-149.05C4247.26,-147.04 4236.43,-145.22 4226.2,-144 3932.13,-108.92 2975.94,-94.29 2769.66,-91.51"/>
<polygon fill="black" stroke="black" points="2769.63,-88.01 2759.58,-91.37 2769.54,-95.01 2769.63,-88.01"/>
</g>
<!-- Maximilien Robespierre -->
<g id="node29" class="node">
<title>Maximilien Robespierre</title>
<g id="a_node29"><a xlink:href="https://en.wikipedia.org/wiki/Maximilien_Robespierre" xlink:title="Maximilien Robespierre">
<ellipse fill="none" stroke="black" cx="4497.2" cy="-162" rx="96.12" ry="18"/>
<text text-anchor="middle" x="4497.2" y="-157.8" font-family="Times,serif" font-size="14.00">Maximilien Robespierre</text>
</a>
</g>
</g>
<!-- Maximilien Robespierre&#45;&gt;Marx -->
<g id="edge28" class="edge">
<title>Maximilien Robespierre&#45;&gt;Marx</title>
<path fill="none" stroke="black" d="M4430.71,-148.91C4417.97,-146.97 4404.7,-145.21 4392.2,-144 4062.65,-112.2 2989.44,-94.84 2769.72,-91.57"/>
<polygon fill="black" stroke="black" points="2769.67,-88.07 2759.62,-91.42 2769.56,-95.07 2769.67,-88.07"/>
</g>
<!-- William Shakespeare -->
<g id="node30" class="node">
<title>William Shakespeare</title>
<g id="a_node30"><a xlink:href="https://en.wikipedia.org/wiki/William_Shakespeare" xlink:title="William Shakespeare">
<ellipse fill="none" stroke="black" cx="4696.2" cy="-162" rx="85.29" ry="18"/>
<text text-anchor="middle" x="4696.2" y="-157.8" font-family="Times,serif" font-size="14.00">William Shakespeare</text>
</a>
</g>
</g>
<!-- William Shakespeare&#45;&gt;Marx -->
<g id="edge29" class="edge">
<title>William Shakespeare&#45;&gt;Marx</title>
<path fill="none" stroke="black" d="M4637.23,-148.93C4625.66,-146.96 4613.58,-145.18 4602.2,-144 4228.77,-105.17 3005.55,-93.27 2769.74,-91.31"/>
<polygon fill="black" stroke="black" points="2769.6,-87.81 2759.57,-91.22 2769.54,-94.81 2769.6,-87.81"/>
</g>
<!-- Johann Wolfgang von Goethe -->
<g id="node31" class="node">
<title>Johann Wolfgang von Goethe</title>
<g id="a_node31"><a xlink:href="https://en.wikipedia.org/wiki/Johann_Wolfgang_von_Goethe" xlink:title="Johann Wolfgang von Goethe">
<ellipse fill="none" stroke="black" cx="4914.2" cy="-162" rx="115.19" ry="18"/>
<text text-anchor="middle" x="4914.2" y="-157.8" font-family="Times,serif" font-size="14.00">Johann Wolfgang von Goethe</text>
</a>
</g>
</g>
<!-- Johann Wolfgang von Goethe&#45;&gt;Marx -->
<g id="edge30" class="edge">
<title>Johann Wolfgang von Goethe&#45;&gt;Marx</title>
<path fill="none" stroke="black" d="M4835.3,-148.85C4820.35,-146.93 4804.82,-145.19 4790.2,-144 4376.27,-110.4 3018.86,-94.15 2769.68,-91.42"/>
<polygon fill="black" stroke="black" points="2769.68,-87.92 2759.64,-91.31 2769.6,-94.92 2769.68,-87.92"/>
</g>
<!-- Claude Adrien Helvétius -->
<g id="node32" class="node">
<title>Claude Adrien Helvétius</title>
<g id="a_node32"><a xlink:href="https://en.wikipedia.org/wiki/Claude_Adrien_Helv%C3%A9tius" xlink:title="Claude Adrien Helvétius">
<ellipse fill="none" stroke="black" cx="5145.2" cy="-162" rx="97.59" ry="18"/>
<text text-anchor="middle" x="5145.2" y="-157.8" font-family="Times,serif" font-size="14.00">Claude Adrien Helvétius</text>
</a>
</g>
</g>
<!-- Claude Adrien Helvétius&#45;&gt;Marx -->
<g id="edge31" class="edge">
<title>Claude Adrien Helvétius&#45;&gt;Marx</title>
<path fill="none" stroke="black" d="M5078.02,-148.91C5064.86,-146.94 5051.13,-145.17 5038.2,-144 4572.39,-101.84 3037.61,-92.5 2770.13,-91.18"/>
<polygon fill="black" stroke="black" points="2769.76,-87.68 2759.75,-91.13 2769.73,-94.68 2769.76,-87.68"/>
</g>
<!-- François Guizot -->
<g id="node33" class="node">
<title>François Guizot</title>
<g id="a_node33"><a xlink:href="https://en.wikipedia.org/wiki/Fran%C3%A7ois_Guizot" xlink:title="François Guizot">
<ellipse fill="none" stroke="black" cx="5327.2" cy="-162" rx="66.69" ry="18"/>
<text text-anchor="middle" x="5327.2" y="-157.8" font-family="Times,serif" font-size="14.00">François Guizot</text>
</a>
</g>
</g>
<!-- François Guizot&#45;&gt;Marx -->
<g id="edge32" class="edge">
<title>François Guizot&#45;&gt;Marx</title>
<path fill="none" stroke="black" d="M5280.65,-148.92C5271.29,-146.92 5261.48,-145.14 5252.2,-144 4995.91,-112.59 3071.48,-94.07 2769.91,-91.35"/>
<polygon fill="black" stroke="black" points="2769.51,-87.85 2759.48,-91.26 2769.45,-94.85 2769.51,-87.85"/>
</g>
<!-- Moses Hess -->
<g id="node34" class="node">
<title>Moses Hess</title>
<g id="a_node34"><a xlink:href="https://en.wikipedia.org/wiki/Moses_Hess" xlink:title="Moses Hess">
<ellipse fill="none" stroke="black" cx="5464.2" cy="-162" rx="52.71" ry="18"/>
<text text-anchor="middle" x="5464.2" y="-157.8" font-family="Times,serif" font-size="14.00">Moses Hess</text>
</a>
</g>
</g>
<!-- Moses Hess&#45;&gt;Marx -->
<g id="edge33" class="edge">
<title>Moses Hess&#45;&gt;Marx</title>
<path fill="none" stroke="black" d="M5427.1,-149.06C5419.28,-147 5411.03,-145.15 5403.2,-144 5131.74,-104.14 3081.47,-92.7 2769.85,-91.18"/>
<polygon fill="black" stroke="black" points="2769.52,-87.68 2759.51,-91.13 2769.49,-94.68 2769.52,-87.68"/>
</g>
</g>
</svg>
