<?xml version="1.0" encoding="UTF-8" standalone="no"?>
<!DOCTYPE svg PUBLIC "-//W3C//DTD SVG 1.1//EN"
 "http://www.w3.org/Graphics/SVG/1.1/DTD/svg11.dtd">
<!-- Generated by graphviz version 2.42.3 (20191010.1750)
 -->
<!-- Title: G Pages: 1 -->
<svg width="499pt" height="1070pt"
 viewBox="0.00 0.00 499.20 1070.00" xmlns="http://www.w3.org/2000/svg" xmlns:xlink="http://www.w3.org/1999/xlink">
<g id="graph0" class="graph" transform="scale(1 1) rotate(0) translate(4 1066)">
<title>G</title>
<polygon fill="white" stroke="transparent" points="-4,4 -4,-1066 495.2,-1066 495.2,4 -4,4"/>
<!-- Althusser -->
<g id="node1" class="node">
<title>Althusser</title>
<g id="a_node1"><a xlink:href="https://en.wikipedia.org/wiki/Louis_Althusser" xlink:title="Althusser">
<ellipse fill="none" stroke="black" cx="63.15" cy="-1044" rx="44.01" ry="18"/>
<text text-anchor="middle" x="63.15" y="-1039.8" font-family="Times,serif" font-size="14.00">Althusser</text>
</a>
</g>
</g>
<!-- Michel Foucault -->
<g id="node2" class="node">
<title>Michel Foucault</title>
<ellipse fill="none" stroke="black" cx="230.62" cy="-531" rx="68.13" ry="18"/>
<text text-anchor="middle" x="230.62" y="-526.8" font-family="Times,serif" font-size="14.00">Michel Foucault</text>
</g>
<!-- Althusser&#45;&gt;Michel Foucault -->
<g id="edge1" class="edge">
<title>Althusser&#45;&gt;Michel Foucault</title>
<path fill="none" stroke="black" d="M101.18,-1034.6C110.58,-1030.58 119.83,-1024.93 126.31,-1017 184.92,-945.29 217.9,-651.9 227.01,-559.21"/>
<polygon fill="black" stroke="black" points="230.5,-559.46 227.98,-549.17 223.53,-558.78 230.5,-559.46"/>
</g>
<!-- Giorgio Agamben -->
<g id="node22" class="node">
<title>Giorgio Agamben</title>
<g id="a_node22"><a xlink:href="https://en.wikipedia.org/wiki/Giorgio_Agamben" xlink:title="Giorgio Agamben">
<ellipse fill="none" stroke="black" cx="413.07" cy="-828" rx="73.64" ry="18"/>
<text text-anchor="middle" x="413.07" y="-823.8" font-family="Times,serif" font-size="14.00">Giorgio Agamben</text>
</a>
</g>
</g>
<!-- Michel Foucault&#45;&gt;Giorgio Agamben -->
<g id="edge21" class="edge">
<title>Michel Foucault&#45;&gt;Giorgio Agamben</title>
<path fill="none" stroke="black" d="M233.38,-549.28C238.97,-597.39 260.61,-728.77 334.94,-801 339.01,-804.95 343.69,-808.33 348.69,-811.22"/>
<polygon fill="black" stroke="black" points="347.47,-814.52 357.98,-815.9 350.62,-808.27 347.47,-814.52"/>
</g>
<!-- Edward Said -->
<g id="node23" class="node">
<title>Edward Said</title>
<g id="a_node23"><a xlink:href="https://en.wikipedia.org/wiki/Edward_Said" xlink:title="Edward Said">
<ellipse fill="none" stroke="black" cx="413.07" cy="-774" rx="55.58" ry="18"/>
<text text-anchor="middle" x="413.07" y="-769.8" font-family="Times,serif" font-size="14.00">Edward Said</text>
</a>
</g>
</g>
<!-- Michel Foucault&#45;&gt;Edward Said -->
<g id="edge22" class="edge">
<title>Michel Foucault&#45;&gt;Edward Said</title>
<path fill="none" stroke="black" d="M235.33,-549.21C244.65,-590.39 272.87,-691.38 334.94,-747 341.1,-752.52 348.45,-756.93 356.14,-760.44"/>
<polygon fill="black" stroke="black" points="355.04,-763.77 365.62,-764.3 357.67,-757.29 355.04,-763.77"/>
</g>
<!-- Pierre Bourdieu -->
<g id="node24" class="node">
<title>Pierre Bourdieu</title>
<g id="a_node24"><a xlink:href="https://en.wikipedia.org/wiki/Pierre_Bourdieu" xlink:title="Pierre Bourdieu">
<ellipse fill="none" stroke="black" cx="413.07" cy="-720" rx="66.19" ry="18"/>
<text text-anchor="middle" x="413.07" y="-715.8" font-family="Times,serif" font-size="14.00">Pierre Bourdieu</text>
</a>
</g>
</g>
<!-- Michel Foucault&#45;&gt;Pierre Bourdieu -->
<g id="edge23" class="edge">
<title>Michel Foucault&#45;&gt;Pierre Bourdieu</title>
<path fill="none" stroke="black" d="M238.46,-549.12C251.89,-582.36 284.86,-653.34 334.94,-693 340.39,-697.32 346.59,-700.98 353.04,-704.06"/>
<polygon fill="black" stroke="black" points="352.05,-707.45 362.62,-708.19 354.82,-701.02 352.05,-707.45"/>
</g>
<!-- Gilles Deleuze -->
<g id="node25" class="node">
<title>Gilles Deleuze</title>
<g id="a_node25"><a xlink:href="https://en.wikipedia.org/wiki/Gilles_Deleuze" xlink:title="Gilles Deleuze">
<ellipse fill="none" stroke="black" cx="413.07" cy="-666" rx="62.32" ry="18"/>
<text text-anchor="middle" x="413.07" y="-661.8" font-family="Times,serif" font-size="14.00">Gilles Deleuze</text>
</a>
</g>
</g>
<!-- Michel Foucault&#45;&gt;Gilles Deleuze -->
<g id="edge24" class="edge">
<title>Michel Foucault&#45;&gt;Gilles Deleuze</title>
<path fill="none" stroke="black" d="M244.34,-548.8C262.11,-572.5 296.54,-614.27 334.94,-639 341.72,-643.37 349.3,-647.13 356.98,-650.34"/>
<polygon fill="black" stroke="black" points="355.77,-653.62 366.36,-653.98 358.3,-647.09 355.77,-653.62"/>
</g>
<!-- Judith Butler -->
<g id="node26" class="node">
<title>Judith Butler</title>
<g id="a_node26"><a xlink:href="https://en.wikipedia.org/wiki/Judith_Butler" xlink:title="Judith Butler">
<ellipse fill="none" stroke="black" cx="413.07" cy="-612" rx="56.09" ry="18"/>
<text text-anchor="middle" x="413.07" y="-607.8" font-family="Times,serif" font-size="14.00">Judith Butler</text>
</a>
</g>
</g>
<!-- Michel Foucault&#45;&gt;Judith Butler -->
<g id="edge25" class="edge">
<title>Michel Foucault&#45;&gt;Judith Butler</title>
<path fill="none" stroke="black" d="M260.03,-547.27C280.48,-558.63 308.94,-573.73 334.94,-585 343.83,-588.85 353.46,-592.57 362.81,-595.95"/>
<polygon fill="black" stroke="black" points="361.81,-599.31 372.41,-599.35 364.15,-592.71 361.81,-599.31"/>
</g>
<!-- Talal Asad -->
<g id="node27" class="node">
<title>Talal Asad</title>
<g id="a_node27"><a xlink:href="https://en.wikipedia.org/wiki/Talal_Asad" xlink:title="Talal Asad">
<ellipse fill="none" stroke="black" cx="413.07" cy="-558" rx="47.62" ry="18"/>
<text text-anchor="middle" x="413.07" y="-553.8" font-family="Times,serif" font-size="14.00">Talal Asad</text>
</a>
</g>
</g>
<!-- Michel Foucault&#45;&gt;Talal Asad -->
<g id="edge26" class="edge">
<title>Michel Foucault&#45;&gt;Talal Asad</title>
<path fill="none" stroke="black" d="M290.71,-539.84C312.53,-543.11 337.11,-546.78 358.42,-549.97"/>
<polygon fill="black" stroke="black" points="358.19,-553.48 368.59,-551.49 359.22,-546.55 358.19,-553.48"/>
</g>
<!-- David Halperin -->
<g id="node28" class="node">
<title>David Halperin</title>
<g id="a_node28"><a xlink:href="https://en.wikipedia.org/wiki/David_Halperin" xlink:title="David Halperin">
<ellipse fill="none" stroke="black" cx="413.07" cy="-504" rx="64.74" ry="18"/>
<text text-anchor="middle" x="413.07" y="-499.8" font-family="Times,serif" font-size="14.00">David Halperin</text>
</a>
</g>
</g>
<!-- Michel Foucault&#45;&gt;David Halperin -->
<g id="edge27" class="edge">
<title>Michel Foucault&#45;&gt;David Halperin</title>
<path fill="none" stroke="black" d="M290.71,-522.16C308.23,-519.54 327.54,-516.65 345.5,-513.96"/>
<polygon fill="black" stroke="black" points="346.24,-517.39 355.61,-512.45 345.21,-510.47 346.24,-517.39"/>
</g>
<!-- Hubert Dreyfus -->
<g id="node29" class="node">
<title>Hubert Dreyfus</title>
<g id="a_node29"><a xlink:href="https://en.wikipedia.org/wiki/Hubert_Dreyfus" xlink:title="Hubert Dreyfus">
<ellipse fill="none" stroke="black" cx="413.07" cy="-450" rx="65.22" ry="18"/>
<text text-anchor="middle" x="413.07" y="-445.8" font-family="Times,serif" font-size="14.00">Hubert Dreyfus</text>
</a>
</g>
</g>
<!-- Michel Foucault&#45;&gt;Hubert Dreyfus -->
<g id="edge28" class="edge">
<title>Michel Foucault&#45;&gt;Hubert Dreyfus</title>
<path fill="none" stroke="black" d="M260.03,-514.73C280.48,-503.37 308.94,-488.27 334.94,-477 342.98,-473.51 351.63,-470.14 360.12,-467.02"/>
<polygon fill="black" stroke="black" points="361.38,-470.29 369.61,-463.62 359.02,-463.7 361.38,-470.29"/>
</g>
<!-- Paul Rabinow -->
<g id="node30" class="node">
<title>Paul Rabinow</title>
<g id="a_node30"><a xlink:href="https://en.wikipedia.org/wiki/Paul_Rabinow" xlink:title="Paul Rabinow">
<ellipse fill="none" stroke="black" cx="413.07" cy="-396" rx="59.94" ry="18"/>
<text text-anchor="middle" x="413.07" y="-391.8" font-family="Times,serif" font-size="14.00">Paul Rabinow</text>
</a>
</g>
</g>
<!-- Michel Foucault&#45;&gt;Paul Rabinow -->
<g id="edge29" class="edge">
<title>Michel Foucault&#45;&gt;Paul Rabinow</title>
<path fill="none" stroke="black" d="M244.34,-513.2C262.11,-489.5 296.54,-447.73 334.94,-423 341.97,-418.47 349.85,-414.6 357.82,-411.32"/>
<polygon fill="black" stroke="black" points="359.08,-414.58 367.17,-407.73 356.58,-408.05 359.08,-414.58"/>
</g>
<!-- Jacques Rancière -->
<g id="node31" class="node">
<title>Jacques Rancière</title>
<g id="a_node31"><a xlink:href="https://en.wikipedia.org/wiki/Jacques_Ranci%C3%A8re" xlink:title="Jacques Rancière">
<ellipse fill="none" stroke="black" cx="413.07" cy="-342" rx="71.49" ry="18"/>
<text text-anchor="middle" x="413.07" y="-337.8" font-family="Times,serif" font-size="14.00">Jacques Rancière</text>
</a>
</g>
</g>
<!-- Michel Foucault&#45;&gt;Jacques Rancière -->
<g id="edge30" class="edge">
<title>Michel Foucault&#45;&gt;Jacques Rancière</title>
<path fill="none" stroke="black" d="M238.46,-512.88C251.89,-479.64 284.86,-408.66 334.94,-369 339.97,-365.01 345.64,-361.59 351.56,-358.66"/>
<polygon fill="black" stroke="black" points="353.3,-361.71 361.01,-354.44 350.45,-355.32 353.3,-361.71"/>
</g>
<!-- Félix Guattari -->
<g id="node32" class="node">
<title>Félix Guattari</title>
<g id="a_node32"><a xlink:href="https://en.wikipedia.org/wiki/F%C3%A9lix_Guattari" xlink:title="Félix Guattari">
<ellipse fill="none" stroke="black" cx="413.07" cy="-288" rx="59.44" ry="18"/>
<text text-anchor="middle" x="413.07" y="-283.8" font-family="Times,serif" font-size="14.00">Félix Guattari</text>
</a>
</g>
</g>
<!-- Michel Foucault&#45;&gt;Félix Guattari -->
<g id="edge31" class="edge">
<title>Michel Foucault&#45;&gt;Félix Guattari</title>
<path fill="none" stroke="black" d="M235.33,-512.79C244.65,-471.61 272.87,-370.62 334.94,-315 340.73,-309.81 347.59,-305.6 354.78,-302.19"/>
<polygon fill="black" stroke="black" points="356.16,-305.41 364.01,-298.3 353.44,-298.96 356.16,-305.41"/>
</g>
<!-- Stephen Greenblatt -->
<g id="node33" class="node">
<title>Stephen Greenblatt</title>
<g id="a_node33"><a xlink:href="https://en.wikipedia.org/wiki/Stephen_Greenblatt" xlink:title="Stephen Greenblatt">
<ellipse fill="none" stroke="black" cx="413.07" cy="-234" rx="78.26" ry="18"/>
<text text-anchor="middle" x="413.07" y="-229.8" font-family="Times,serif" font-size="14.00">Stephen Greenblatt</text>
</a>
</g>
</g>
<!-- Michel Foucault&#45;&gt;Stephen Greenblatt -->
<g id="edge32" class="edge">
<title>Michel Foucault&#45;&gt;Stephen Greenblatt</title>
<path fill="none" stroke="black" d="M233.38,-512.72C238.97,-464.61 260.61,-333.23 334.94,-261 338.72,-257.32 343.03,-254.15 347.64,-251.4"/>
<polygon fill="black" stroke="black" points="349.54,-254.36 356.79,-246.63 346.31,-248.15 349.54,-254.36"/>
</g>
<!-- Artaud -->
<g id="node3" class="node">
<title>Artaud</title>
<g id="a_node3"><a xlink:href="https://en.wikipedia.org/wiki/Antonin_Artaud" xlink:title="Artaud">
<ellipse fill="none" stroke="black" cx="63.15" cy="-990" rx="34.83" ry="18"/>
<text text-anchor="middle" x="63.15" y="-985.8" font-family="Times,serif" font-size="14.00">Artaud</text>
</a>
</g>
</g>
<!-- Artaud&#45;&gt;Michel Foucault -->
<g id="edge2" class="edge">
<title>Artaud&#45;&gt;Michel Foucault</title>
<path fill="none" stroke="black" d="M95.23,-982.78C106.49,-978.71 118.37,-972.47 126.31,-963 178.82,-900.39 215.2,-645.36 226.16,-559.43"/>
<polygon fill="black" stroke="black" points="229.65,-559.71 227.43,-549.36 222.71,-558.84 229.65,-559.71"/>
</g>
<!-- Bachelard -->
<g id="node4" class="node">
<title>Bachelard</title>
<g id="a_node4"><a xlink:href="https://en.wikipedia.org/wiki/Gaston_Bachelard" xlink:title="Bachelard">
<ellipse fill="none" stroke="black" cx="63.15" cy="-936" rx="45.9" ry="18"/>
<text text-anchor="middle" x="63.15" y="-931.8" font-family="Times,serif" font-size="14.00">Bachelard</text>
</a>
</g>
</g>
<!-- Bachelard&#45;&gt;Michel Foucault -->
<g id="edge3" class="edge">
<title>Bachelard&#45;&gt;Michel Foucault</title>
<path fill="none" stroke="black" d="M101.54,-926.07C110.71,-922.07 119.76,-916.56 126.31,-909 216.8,-804.55 228.73,-627.86 229.8,-559.34"/>
<polygon fill="black" stroke="black" points="233.3,-559.33 229.89,-549.3 226.3,-559.27 233.3,-559.33"/>
</g>
<!-- Barthes -->
<g id="node5" class="node">
<title>Barthes</title>
<g id="a_node5"><a xlink:href="https://en.wikipedia.org/wiki/Roland_Barthes" xlink:title="Barthes">
<ellipse fill="none" stroke="black" cx="63.15" cy="-882" rx="37.24" ry="18"/>
<text text-anchor="middle" x="63.15" y="-877.8" font-family="Times,serif" font-size="14.00">Barthes</text>
</a>
</g>
</g>
<!-- Barthes&#45;&gt;Michel Foucault -->
<g id="edge4" class="edge">
<title>Barthes&#45;&gt;Michel Foucault</title>
<path fill="none" stroke="black" d="M96.48,-873.87C107.21,-869.76 118.42,-863.73 126.31,-855 204.92,-768.01 223.74,-621.03 228.23,-559.46"/>
<polygon fill="black" stroke="black" points="231.73,-559.54 228.89,-549.33 224.74,-559.08 231.73,-559.54"/>
</g>
<!-- Bataille -->
<g id="node6" class="node">
<title>Bataille</title>
<g id="a_node6"><a xlink:href="https://en.wikipedia.org/wiki/Georges_Bataille" xlink:title="Bataille">
<ellipse fill="none" stroke="black" cx="63.15" cy="-828" rx="37.72" ry="18"/>
<text text-anchor="middle" x="63.15" y="-823.8" font-family="Times,serif" font-size="14.00">Bataille</text>
</a>
</g>
</g>
<!-- Bataille&#45;&gt;Michel Foucault -->
<g id="edge5" class="edge">
<title>Bataille&#45;&gt;Michel Foucault</title>
<path fill="none" stroke="black" d="M96.53,-819.49C107.14,-815.36 118.26,-809.42 126.31,-801 193.17,-731.1 217.92,-613.43 226.06,-559.52"/>
<polygon fill="black" stroke="black" points="229.57,-559.72 227.52,-549.33 222.64,-558.73 229.57,-559.72"/>
</g>
<!-- Blanchot -->
<g id="node7" class="node">
<title>Blanchot</title>
<g id="a_node7"><a xlink:href="https://en.wikipedia.org/wiki/Maurice_Blanchot" xlink:title="Blanchot">
<ellipse fill="none" stroke="black" cx="63.15" cy="-774" rx="42.07" ry="18"/>
<text text-anchor="middle" x="63.15" y="-769.8" font-family="Times,serif" font-size="14.00">Blanchot</text>
</a>
</g>
</g>
<!-- Blanchot&#45;&gt;Michel Foucault -->
<g id="edge6" class="edge">
<title>Blanchot&#45;&gt;Michel Foucault</title>
<path fill="none" stroke="black" d="M98.73,-764.07C108.52,-759.99 118.6,-754.43 126.31,-747 181.83,-693.46 211.14,-604.06 223.07,-558.91"/>
<polygon fill="black" stroke="black" points="226.47,-559.76 225.55,-549.2 219.68,-558.03 226.47,-559.76"/>
</g>
<!-- Canguilhem -->
<g id="node8" class="node">
<title>Canguilhem</title>
<g id="a_node8"><a xlink:href="https://en.wikipedia.org/wiki/Georges_Canguilhem" xlink:title="Canguilhem">
<ellipse fill="none" stroke="black" cx="63.15" cy="-720" rx="53.17" ry="18"/>
<text text-anchor="middle" x="63.15" y="-715.8" font-family="Times,serif" font-size="14.00">Canguilhem</text>
</a>
</g>
</g>
<!-- Canguilhem&#45;&gt;Michel Foucault -->
<g id="edge7" class="edge">
<title>Canguilhem&#45;&gt;Michel Foucault</title>
<path fill="none" stroke="black" d="M102.39,-707.63C110.83,-703.79 119.33,-698.96 126.31,-693 170.61,-655.2 202.54,-593.61 218.36,-558.26"/>
<polygon fill="black" stroke="black" points="221.6,-559.59 222.4,-549.03 215.19,-556.79 221.6,-559.59"/>
</g>
<!-- Dumézil -->
<g id="node9" class="node">
<title>Dumézil</title>
<g id="a_node9"><a xlink:href="https://en.wikipedia.org/wiki/Georges_Dum%C3%A9zil" xlink:title="Dumézil">
<ellipse fill="none" stroke="black" cx="63.15" cy="-666" rx="40.62" ry="18"/>
<text text-anchor="middle" x="63.15" y="-661.8" font-family="Times,serif" font-size="14.00">Dumézil</text>
</a>
</g>
</g>
<!-- Dumézil&#45;&gt;Michel Foucault -->
<g id="edge8" class="edge">
<title>Dumézil&#45;&gt;Michel Foucault</title>
<path fill="none" stroke="black" d="M95.78,-655.11C105.99,-650.87 117.04,-645.46 126.31,-639 159.63,-615.77 190.83,-580.57 210.05,-556.72"/>
<polygon fill="black" stroke="black" points="212.86,-558.81 216.33,-548.8 207.37,-554.46 212.86,-558.81"/>
</g>
<!-- Freud -->
<g id="node10" class="node">
<title>Freud</title>
<g id="a_node10"><a xlink:href="https://en.wikipedia.org/wiki/Sigmund_Freud" xlink:title="Freud">
<ellipse fill="none" stroke="black" cx="63.15" cy="-612" rx="30.98" ry="18"/>
<text text-anchor="middle" x="63.15" y="-607.8" font-family="Times,serif" font-size="14.00">Freud</text>
</a>
</g>
</g>
<!-- Freud&#45;&gt;Michel Foucault -->
<g id="edge9" class="edge">
<title>Freud&#45;&gt;Michel Foucault</title>
<path fill="none" stroke="black" d="M88.84,-601.76C100.32,-596.87 114.1,-590.83 126.31,-585 147.97,-574.65 171.73,-562.3 191,-552.03"/>
<polygon fill="black" stroke="black" points="192.91,-554.98 200.07,-547.17 189.6,-548.81 192.91,-554.98"/>
</g>
<!-- Goffman -->
<g id="node11" class="node">
<title>Goffman</title>
<g id="a_node11"><a xlink:href="https://en.wikipedia.org/wiki/Erving_Goffman" xlink:title="Goffman">
<ellipse fill="none" stroke="black" cx="63.15" cy="-558" rx="41.75" ry="18"/>
<text text-anchor="middle" x="63.15" y="-553.8" font-family="Times,serif" font-size="14.00">Goffman</text>
</a>
</g>
</g>
<!-- Goffman&#45;&gt;Michel Foucault -->
<g id="edge10" class="edge">
<title>Goffman&#45;&gt;Michel Foucault</title>
<path fill="none" stroke="black" d="M102.53,-551.74C120.17,-548.86 141.64,-545.36 161.86,-542.06"/>
<polygon fill="black" stroke="black" points="162.68,-545.47 171.98,-540.41 161.55,-538.56 162.68,-545.47"/>
</g>
<!-- Hegel -->
<g id="node12" class="node">
<title>Hegel</title>
<g id="a_node12"><a xlink:href="https://en.wikipedia.org/wiki/Georg_Wilhelm_Friedrich_Hegel" xlink:title="Hegel">
<ellipse fill="none" stroke="black" cx="63.15" cy="-504" rx="31.45" ry="18"/>
<text text-anchor="middle" x="63.15" y="-499.8" font-family="Times,serif" font-size="14.00">Hegel</text>
</a>
</g>
</g>
<!-- Hegel&#45;&gt;Michel Foucault -->
<g id="edge11" class="edge">
<title>Hegel&#45;&gt;Michel Foucault</title>
<path fill="none" stroke="black" d="M93.36,-508.76C112.35,-511.86 137.95,-516.04 161.83,-519.94"/>
<polygon fill="black" stroke="black" points="161.5,-523.43 171.93,-521.59 162.62,-516.52 161.5,-523.43"/>
</g>
<!-- Heidegger -->
<g id="node13" class="node">
<title>Heidegger</title>
<g id="a_node13"><a xlink:href="https://en.wikipedia.org/wiki/Martin_Heidegger" xlink:title="Heidegger">
<ellipse fill="none" stroke="black" cx="63.15" cy="-450" rx="46.87" ry="18"/>
<text text-anchor="middle" x="63.15" y="-445.8" font-family="Times,serif" font-size="14.00">Heidegger</text>
</a>
</g>
</g>
<!-- Heidegger&#45;&gt;Michel Foucault -->
<g id="edge12" class="edge">
<title>Heidegger&#45;&gt;Michel Foucault</title>
<path fill="none" stroke="black" d="M95.65,-463.16C105.53,-467.43 116.44,-472.28 126.31,-477 147.97,-487.35 171.73,-499.7 191,-509.97"/>
<polygon fill="black" stroke="black" points="189.6,-513.19 200.07,-514.83 192.91,-507.02 189.6,-513.19"/>
</g>
<!-- Hyppolite -->
<g id="node14" class="node">
<title>Hyppolite</title>
<g id="a_node14"><a xlink:href="https://en.wikipedia.org/wiki/Jean_Hyppolite" xlink:title="Hyppolite">
<ellipse fill="none" stroke="black" cx="63.15" cy="-396" rx="45.45" ry="18"/>
<text text-anchor="middle" x="63.15" y="-391.8" font-family="Times,serif" font-size="14.00">Hyppolite</text>
</a>
</g>
</g>
<!-- Hyppolite&#45;&gt;Michel Foucault -->
<g id="edge13" class="edge">
<title>Hyppolite&#45;&gt;Michel Foucault</title>
<path fill="none" stroke="black" d="M98.03,-407.84C107.59,-411.93 117.72,-417.01 126.31,-423 159.63,-446.23 190.83,-481.43 210.05,-505.28"/>
<polygon fill="black" stroke="black" points="207.37,-507.54 216.33,-513.2 212.86,-503.19 207.37,-507.54"/>
</g>
<!-- Kant -->
<g id="node15" class="node">
<title>Kant</title>
<g id="a_node15"><a xlink:href="https://en.wikipedia.org/wiki/Immanuel_Kant" xlink:title="Kant">
<ellipse fill="none" stroke="black" cx="63.15" cy="-342" rx="27.1" ry="18"/>
<text text-anchor="middle" x="63.15" y="-337.8" font-family="Times,serif" font-size="14.00">Kant</text>
</a>
</g>
</g>
<!-- Kant&#45;&gt;Michel Foucault -->
<g id="edge14" class="edge">
<title>Kant&#45;&gt;Michel Foucault</title>
<path fill="none" stroke="black" d="M88.44,-348.79C100.76,-353.11 115.39,-359.68 126.31,-369 170.61,-406.8 202.54,-468.39 218.36,-503.74"/>
<polygon fill="black" stroke="black" points="215.19,-505.21 222.4,-512.97 221.6,-502.41 215.19,-505.21"/>
</g>
<!-- Marx -->
<g id="node16" class="node">
<title>Marx</title>
<g id="a_node16"><a xlink:href="https://en.wikipedia.org/wiki/Karl_Marx" xlink:title="Marx">
<ellipse fill="none" stroke="black" cx="63.15" cy="-288" rx="29.03" ry="18"/>
<text text-anchor="middle" x="63.15" y="-283.8" font-family="Times,serif" font-size="14.00">Marx</text>
</a>
</g>
</g>
<!-- Marx&#45;&gt;Michel Foucault -->
<g id="edge15" class="edge">
<title>Marx&#45;&gt;Michel Foucault</title>
<path fill="none" stroke="black" d="M90.46,-294.79C102.57,-298.98 116.4,-305.45 126.31,-315 181.83,-368.54 211.14,-457.94 223.07,-503.09"/>
<polygon fill="black" stroke="black" points="219.68,-503.97 225.55,-512.8 226.47,-502.24 219.68,-503.97"/>
</g>
<!-- Merleau&#45;Ponty -->
<g id="node17" class="node">
<title>Merleau&#45;Ponty</title>
<g id="a_node17"><a xlink:href="https://en.wikipedia.org/wiki/Maurice_Merleau-Ponty" xlink:title="Merleau&#45;Ponty">
<ellipse fill="none" stroke="black" cx="63.15" cy="-234" rx="63.31" ry="18"/>
<text text-anchor="middle" x="63.15" y="-229.8" font-family="Times,serif" font-size="14.00">Merleau&#45;Ponty</text>
</a>
</g>
</g>
<!-- Merleau&#45;Ponty&#45;&gt;Michel Foucault -->
<g id="edge16" class="edge">
<title>Merleau&#45;Ponty&#45;&gt;Michel Foucault</title>
<path fill="none" stroke="black" d="M106.86,-247.11C114.01,-250.74 120.86,-255.3 126.31,-261 193.17,-330.9 217.92,-448.57 226.06,-502.48"/>
<polygon fill="black" stroke="black" points="222.64,-503.27 227.52,-512.67 229.57,-502.28 222.64,-503.27"/>
</g>
<!-- Nietzsche -->
<g id="node18" class="node">
<title>Nietzsche</title>
<g id="a_node18"><a xlink:href="https://en.wikipedia.org/wiki/Friedrich_Nietzsche" xlink:title="Nietzsche">
<ellipse fill="none" stroke="black" cx="63.15" cy="-180" rx="44.94" ry="18"/>
<text text-anchor="middle" x="63.15" y="-175.8" font-family="Times,serif" font-size="14.00">Nietzsche</text>
</a>
</g>
</g>
<!-- Nietzsche&#45;&gt;Michel Foucault -->
<g id="edge17" class="edge">
<title>Nietzsche&#45;&gt;Michel Foucault</title>
<path fill="none" stroke="black" d="M101,-189.98C110.29,-193.98 119.53,-199.49 126.31,-207 204.92,-293.99 223.74,-440.97 228.23,-502.54"/>
<polygon fill="black" stroke="black" points="224.74,-502.92 228.89,-512.67 231.73,-502.46 224.74,-502.92"/>
</g>
<!-- Sade -->
<g id="node19" class="node">
<title>Sade</title>
<g id="a_node19"><a xlink:href="https://en.wikipedia.org/wiki/Marquis_de_Sade" xlink:title="Sade">
<ellipse fill="none" stroke="black" cx="63.15" cy="-126" rx="27.1" ry="18"/>
<text text-anchor="middle" x="63.15" y="-121.8" font-family="Times,serif" font-size="14.00">Sade</text>
</a>
</g>
</g>
<!-- Sade&#45;&gt;Michel Foucault -->
<g id="edge18" class="edge">
<title>Sade&#45;&gt;Michel Foucault</title>
<path fill="none" stroke="black" d="M89.38,-131.43C102.12,-135.4 116.83,-142.06 126.31,-153 216.8,-257.45 228.73,-434.14 229.8,-502.66"/>
<polygon fill="black" stroke="black" points="226.3,-502.73 229.89,-512.7 233.3,-502.67 226.3,-502.73"/>
</g>
<!-- Lagache -->
<g id="node20" class="node">
<title>Lagache</title>
<g id="a_node20"><a xlink:href="https://en.wikipedia.org/wiki/Daniel_Lagache" xlink:title="Lagache">
<ellipse fill="none" stroke="black" cx="63.15" cy="-72" rx="40.11" ry="18"/>
<text text-anchor="middle" x="63.15" y="-67.8" font-family="Times,serif" font-size="14.00">Lagache</text>
</a>
</g>
</g>
<!-- Lagache&#45;&gt;Michel Foucault -->
<g id="edge19" class="edge">
<title>Lagache&#45;&gt;Michel Foucault</title>
<path fill="none" stroke="black" d="M98.79,-80.57C108.94,-84.64 119.2,-90.53 126.31,-99 178.82,-161.61 215.2,-416.64 226.16,-502.57"/>
<polygon fill="black" stroke="black" points="222.71,-503.16 227.43,-512.64 229.65,-502.29 222.71,-503.16"/>
</g>
<!-- Deleuze -->
<g id="node21" class="node">
<title>Deleuze</title>
<g id="a_node21"><a xlink:href="https://en.wikipedia.org/wiki/Gilles_Deleuze" xlink:title="Deleuze">
<ellipse fill="none" stroke="black" cx="63.15" cy="-18" rx="39.15" ry="18"/>
<text text-anchor="middle" x="63.15" y="-13.8" font-family="Times,serif" font-size="14.00">Deleuze</text>
</a>
</g>
</g>
<!-- Deleuze&#45;&gt;Michel Foucault -->
<g id="edge20" class="edge">
<title>Deleuze&#45;&gt;Michel Foucault</title>
<path fill="none" stroke="black" d="M98.27,-26.21C108.63,-30.27 119.16,-36.26 126.31,-45 184.92,-116.71 217.9,-410.1 227.01,-502.79"/>
<polygon fill="black" stroke="black" points="223.53,-503.22 227.98,-512.83 230.5,-502.54 223.53,-503.22"/>
</g>
</g>
</svg>
