<?xml version="1.0" encoding="UTF-8" standalone="no"?>
<!DOCTYPE svg PUBLIC "-//W3C//DTD SVG 1.1//EN"
 "http://www.w3.org/Graphics/SVG/1.1/DTD/svg11.dtd">
<!-- Generated by graphviz version 8.0.1 (20230327.1645)
 -->
<!-- Title: G Pages: 1 -->
<svg width="617pt" height="1124pt"
 viewBox="0.00 0.00 616.85 1124.00" xmlns="http://www.w3.org/2000/svg" xmlns:xlink="http://www.w3.org/1999/xlink">
<g id="graph0" class="graph" transform="scale(1 1) rotate(0) translate(4 1120)">
<title>G</title>
<polygon fill="white" stroke="none" points="-4,4 -4,-1120 612.85,-1120 612.85,4 -4,4"/>
<!-- Louis Althusser -->
<g id="node1" class="node">
<title>Louis Althusser</title>
<g id="a_node1"><a xlink:href="https://en.wikipedia.org/wiki/Louis_Althusser" xlink:title="Louis Althusser">
<ellipse fill="none" stroke="black" cx="124.14" cy="-1098" rx="66.09" ry="18"/>
<text text-anchor="middle" x="124.14" y="-1094.3" font-family="Times,serif" font-size="14.00">Louis Althusser</text>
</a>
</g>
</g>
<!-- Michel Foucault -->
<g id="node2" class="node">
<title>Michel Foucault</title>
<ellipse fill="none" stroke="black" cx="353.82" cy="-558" rx="69.59" ry="18"/>
<text text-anchor="middle" x="353.82" y="-554.3" font-family="Times,serif" font-size="14.00">Michel Foucault</text>
</g>
<!-- Louis Althusser&#45;&gt;Michel Foucault -->
<g id="edge1" class="edge">
<title>Louis Althusser&#45;&gt;Michel Foucault</title>
<path fill="none" stroke="black" d="M190.44,-1097.35C211.43,-1093.89 233.15,-1086.36 248.28,-1071 317.01,-1001.24 344.11,-685.43 350.96,-587.23"/>
<polygon fill="black" stroke="black" points="354.51,-587.58 351.7,-577.37 347.53,-587.11 354.51,-587.58"/>
</g>
<!-- Gilles Deleuze -->
<g id="node9" class="node">
<title>Gilles Deleuze</title>
<g id="a_node9"><a xlink:href="https://en.wikipedia.org/wiki/Gilles_Deleuze" xlink:title="Gilles Deleuze">
<ellipse fill="none" stroke="black" cx="534.11" cy="-855" rx="63.09" ry="18"/>
<text text-anchor="middle" x="534.11" y="-851.3" font-family="Times,serif" font-size="14.00">Gilles Deleuze</text>
</a>
</g>
</g>
<!-- Michel Foucault&#45;&gt;Gilles Deleuze -->
<g id="edge26" class="edge">
<title>Michel Foucault&#45;&gt;Gilles Deleuze</title>
<path fill="none" stroke="black" d="M357.34,-576.29C364.17,-623.39 387.63,-748.57 459.37,-819 467.03,-826.52 476.95,-831.97 487.03,-836.17"/>
<polygon fill="black" stroke="black" points="485.48,-839.71 496.07,-839.99 487.96,-833.16 485.48,-839.71"/>
</g>
<!-- Giorgio Agamben -->
<g id="node24" class="node">
<title>Giorgio Agamben</title>
<g id="a_node24"><a xlink:href="https://en.wikipedia.org/wiki/Giorgio_Agamben" xlink:title="Giorgio Agamben">
<ellipse fill="none" stroke="black" cx="534.11" cy="-801" rx="74.99" ry="18"/>
<text text-anchor="middle" x="534.11" y="-797.3" font-family="Times,serif" font-size="14.00">Giorgio Agamben</text>
</a>
</g>
</g>
<!-- Michel Foucault&#45;&gt;Giorgio Agamben -->
<g id="edge23" class="edge">
<title>Michel Foucault&#45;&gt;Giorgio Agamben</title>
<path fill="none" stroke="black" d="M358.7,-576.15C368.38,-617.2 397.43,-717.95 459.37,-774 463.15,-777.42 467.4,-780.42 471.9,-783.05"/>
<polygon fill="black" stroke="black" points="469.93,-786.48 480.43,-787.93 473.12,-780.25 469.93,-786.48"/>
</g>
<!-- Pierre Bourdieu -->
<g id="node25" class="node">
<title>Pierre Bourdieu</title>
<g id="a_node25"><a xlink:href="https://en.wikipedia.org/wiki/Pierre_Bourdieu" xlink:title="Pierre Bourdieu">
<ellipse fill="none" stroke="black" cx="534.11" cy="-747" rx="66.89" ry="18"/>
<text text-anchor="middle" x="534.11" y="-743.3" font-family="Times,serif" font-size="14.00">Pierre Bourdieu</text>
</a>
</g>
</g>
<!-- Michel Foucault&#45;&gt;Pierre Bourdieu -->
<g id="edge24" class="edge">
<title>Michel Foucault&#45;&gt;Pierre Bourdieu</title>
<path fill="none" stroke="black" d="M361.96,-576.31C375.81,-609.55 409.43,-680.08 459.37,-720 464.21,-723.87 469.66,-727.22 475.35,-730.11"/>
<polygon fill="black" stroke="black" points="473.53,-733.58 484.08,-734.55 476.44,-727.21 473.53,-733.58"/>
</g>
<!-- Judith Butler -->
<g id="node26" class="node">
<title>Judith Butler</title>
<g id="a_node26"><a xlink:href="https://en.wikipedia.org/wiki/Judith_Butler" xlink:title="Judith Butler">
<ellipse fill="none" stroke="black" cx="534.11" cy="-693" rx="56.59" ry="18"/>
<text text-anchor="middle" x="534.11" y="-689.3" font-family="Times,serif" font-size="14.00">Judith Butler</text>
</a>
</g>
</g>
<!-- Michel Foucault&#45;&gt;Judith Butler -->
<g id="edge25" class="edge">
<title>Michel Foucault&#45;&gt;Judith Butler</title>
<path fill="none" stroke="black" d="M367.79,-575.72C385.88,-599.31 420.86,-640.97 459.37,-666 465.89,-670.24 473.17,-673.93 480.54,-677.11"/>
<polygon fill="black" stroke="black" points="479.01,-680.66 489.59,-681.12 481.61,-674.16 479.01,-680.66"/>
</g>
<!-- Hubert Dreyfus -->
<g id="node27" class="node">
<title>Hubert Dreyfus</title>
<g id="a_node27"><a xlink:href="https://en.wikipedia.org/wiki/Hubert_Dreyfus" xlink:title="Hubert Dreyfus">
<ellipse fill="none" stroke="black" cx="534.11" cy="-639" rx="65.79" ry="18"/>
<text text-anchor="middle" x="534.11" y="-635.3" font-family="Times,serif" font-size="14.00">Hubert Dreyfus</text>
</a>
</g>
</g>
<!-- Michel Foucault&#45;&gt;Hubert Dreyfus -->
<g id="edge27" class="edge">
<title>Michel Foucault&#45;&gt;Hubert Dreyfus</title>
<path fill="none" stroke="black" d="M384.53,-574.62C405.19,-585.86 433.55,-600.66 459.37,-612 466.49,-615.13 474.1,-618.2 481.63,-621.09"/>
<polygon fill="black" stroke="black" points="480.2,-624.67 490.79,-624.91 482.66,-618.12 480.2,-624.67"/>
</g>
<!-- Félix Guattari -->
<g id="node28" class="node">
<title>Félix Guattari</title>
<g id="a_node28"><a xlink:href="https://en.wikipedia.org/wiki/F%C3%A9lix_Guattari" xlink:title="Félix Guattari">
<ellipse fill="none" stroke="black" cx="534.11" cy="-585" rx="59.59" ry="18"/>
<text text-anchor="middle" x="534.11" y="-581.3" font-family="Times,serif" font-size="14.00">Félix Guattari</text>
</a>
</g>
</g>
<!-- Michel Foucault&#45;&gt;Félix Guattari -->
<g id="edge28" class="edge">
<title>Michel Foucault&#45;&gt;Félix Guattari</title>
<path fill="none" stroke="black" d="M414.68,-567.07C432.36,-569.74 451.76,-572.68 469.66,-575.39"/>
<polygon fill="black" stroke="black" points="468.87,-578.96 479.28,-577 469.92,-572.04 468.87,-578.96"/>
</g>
<!-- David Halperin -->
<g id="node29" class="node">
<title>David Halperin</title>
<g id="a_node29"><a xlink:href="https://en.wikipedia.org/wiki/David_Halperin" xlink:title="David Halperin">
<ellipse fill="none" stroke="black" cx="534.11" cy="-531" rx="65.79" ry="18"/>
<text text-anchor="middle" x="534.11" y="-527.3" font-family="Times,serif" font-size="14.00">David Halperin</text>
</a>
</g>
</g>
<!-- Michel Foucault&#45;&gt;David Halperin -->
<g id="edge29" class="edge">
<title>Michel Foucault&#45;&gt;David Halperin</title>
<path fill="none" stroke="black" d="M414.68,-548.93C430.87,-546.48 448.5,-543.81 465.09,-541.3"/>
<polygon fill="black" stroke="black" points="465.46,-544.63 474.82,-539.68 464.41,-537.71 465.46,-544.63"/>
</g>
<!-- Paul Rabinow -->
<g id="node30" class="node">
<title>Paul Rabinow</title>
<g id="a_node30"><a xlink:href="https://en.wikipedia.org/wiki/Paul_Rabinow" xlink:title="Paul Rabinow">
<ellipse fill="none" stroke="black" cx="534.11" cy="-477" rx="60.39" ry="18"/>
<text text-anchor="middle" x="534.11" y="-473.3" font-family="Times,serif" font-size="14.00">Paul Rabinow</text>
</a>
</g>
</g>
<!-- Michel Foucault&#45;&gt;Paul Rabinow -->
<g id="edge30" class="edge">
<title>Michel Foucault&#45;&gt;Paul Rabinow</title>
<path fill="none" stroke="black" d="M384.53,-541.38C405.19,-530.14 433.55,-515.34 459.37,-504 467,-500.65 475.2,-497.35 483.25,-494.28"/>
<polygon fill="black" stroke="black" points="484.18,-497.3 492.33,-490.53 481.73,-490.74 484.18,-497.3"/>
</g>
<!-- Talal Asad -->
<g id="node31" class="node">
<title>Talal Asad</title>
<g id="a_node31"><a xlink:href="https://en.wikipedia.org/wiki/Talal_Asad" xlink:title="Talal Asad">
<ellipse fill="none" stroke="black" cx="534.11" cy="-423" rx="48.99" ry="18"/>
<text text-anchor="middle" x="534.11" y="-419.3" font-family="Times,serif" font-size="14.00">Talal Asad</text>
</a>
</g>
</g>
<!-- Michel Foucault&#45;&gt;Talal Asad -->
<g id="edge31" class="edge">
<title>Michel Foucault&#45;&gt;Talal Asad</title>
<path fill="none" stroke="black" d="M367.79,-540.28C385.88,-516.69 420.86,-475.03 459.37,-450 466.84,-445.14 475.31,-441 483.78,-437.53"/>
<polygon fill="black" stroke="black" points="484.94,-440.46 493.04,-433.63 482.45,-433.91 484.94,-440.46"/>
</g>
<!-- Jacques Rancière -->
<g id="node32" class="node">
<title>Jacques Rancière</title>
<g id="a_node32"><a xlink:href="https://en.wikipedia.org/wiki/Jacques_Ranci%C3%A8re" xlink:title="Jacques Rancière">
<ellipse fill="none" stroke="black" cx="534.11" cy="-369" rx="71.49" ry="18"/>
<text text-anchor="middle" x="534.11" y="-365.3" font-family="Times,serif" font-size="14.00">Jacques Rancière</text>
</a>
</g>
</g>
<!-- Michel Foucault&#45;&gt;Jacques Rancière -->
<g id="edge32" class="edge">
<title>Michel Foucault&#45;&gt;Jacques Rancière</title>
<path fill="none" stroke="black" d="M361.96,-539.69C375.81,-506.45 409.43,-435.92 459.37,-396 463.71,-392.52 468.55,-389.47 473.61,-386.79"/>
<polygon fill="black" stroke="black" points="475,-389.53 482.54,-382.09 472.01,-383.21 475,-389.53"/>
</g>
<!-- Edward Said -->
<g id="node33" class="node">
<title>Edward Said</title>
<g id="a_node33"><a xlink:href="https://en.wikipedia.org/wiki/Edward_Said" xlink:title="Edward Said">
<ellipse fill="none" stroke="black" cx="534.11" cy="-315" rx="55.79" ry="18"/>
<text text-anchor="middle" x="534.11" y="-311.3" font-family="Times,serif" font-size="14.00">Edward Said</text>
</a>
</g>
</g>
<!-- Michel Foucault&#45;&gt;Edward Said -->
<g id="edge33" class="edge">
<title>Michel Foucault&#45;&gt;Edward Said</title>
<path fill="none" stroke="black" d="M358.7,-539.85C368.38,-498.8 397.43,-398.05 459.37,-342 464.8,-337.08 471.2,-333.04 477.93,-329.72"/>
<polygon fill="black" stroke="black" points="479.17,-332.56 486.94,-325.36 476.37,-326.15 479.17,-332.56"/>
</g>
<!-- Abdullah Ocalan -->
<g id="node34" class="node">
<title>Abdullah Ocalan</title>
<g id="a_node34"><a xlink:href="https://en.wikipedia.org/wiki/Abdullah_Ocalan" xlink:title="Abdullah Ocalan">
<ellipse fill="none" stroke="black" cx="534.11" cy="-261" rx="70.69" ry="18"/>
<text text-anchor="middle" x="534.11" y="-257.3" font-family="Times,serif" font-size="14.00">Abdullah Ocalan</text>
</a>
</g>
</g>
<!-- Michel Foucault&#45;&gt;Abdullah Ocalan -->
<g id="edge34" class="edge">
<title>Michel Foucault&#45;&gt;Abdullah Ocalan</title>
<path fill="none" stroke="black" d="M356.73,-539.78C362.7,-491.8 385.29,-360.72 459.37,-288 463.22,-284.22 467.65,-280.96 472.38,-278.15"/>
<polygon fill="black" stroke="black" points="473.5,-280.99 480.77,-273.29 470.28,-274.78 473.5,-280.99"/>
</g>
<!-- Karen Barad -->
<g id="node35" class="node">
<title>Karen Barad</title>
<g id="a_node35"><a xlink:href="https://en.wikipedia.org/wiki/Karen_Barad" xlink:title="Karen Barad">
<ellipse fill="none" stroke="black" cx="534.11" cy="-207" rx="55.79" ry="18"/>
<text text-anchor="middle" x="534.11" y="-203.3" font-family="Times,serif" font-size="14.00">Karen Barad</text>
</a>
</g>
</g>
<!-- Michel Foucault&#45;&gt;Karen Barad -->
<g id="edge35" class="edge">
<title>Michel Foucault&#45;&gt;Karen Barad</title>
<path fill="none" stroke="black" d="M355.36,-539.82C357.95,-485.7 372.91,-323.88 459.37,-234 464.38,-228.78 470.49,-224.57 477.02,-221.17"/>
<polygon fill="black" stroke="black" points="478.14,-224.05 485.81,-216.74 475.25,-217.67 478.14,-224.05"/>
</g>
<!-- Antonin Artaud -->
<g id="node3" class="node">
<title>Antonin Artaud</title>
<g id="a_node3"><a xlink:href="https://en.wikipedia.org/wiki/Antonin_Artaud" xlink:title="Antonin Artaud">
<ellipse fill="none" stroke="black" cx="124.14" cy="-1044" rx="65.79" ry="18"/>
<text text-anchor="middle" x="124.14" y="-1040.3" font-family="Times,serif" font-size="14.00">Antonin Artaud</text>
</a>
</g>
</g>
<!-- Antonin Artaud&#45;&gt;Michel Foucault -->
<g id="edge2" class="edge">
<title>Antonin Artaud&#45;&gt;Michel Foucault</title>
<path fill="none" stroke="black" d="M190.24,-1043.16C211.22,-1039.68 232.97,-1032.18 248.28,-1017 310.12,-955.66 341.46,-678.25 350.21,-587.11"/>
<polygon fill="black" stroke="black" points="353.78,-587.52 351.24,-577.23 346.82,-586.86 353.78,-587.52"/>
</g>
<!-- Gaston Bachelard -->
<g id="node4" class="node">
<title>Gaston Bachelard</title>
<g id="a_node4"><a xlink:href="https://en.wikipedia.org/wiki/Gaston_Bachelard" xlink:title="Gaston Bachelard">
<ellipse fill="none" stroke="black" cx="124.14" cy="-990" rx="73.39" ry="18"/>
<text text-anchor="middle" x="124.14" y="-986.3" font-family="Times,serif" font-size="14.00">Gaston Bachelard</text>
</a>
</g>
</g>
<!-- Gaston Bachelard&#45;&gt;Michel Foucault -->
<g id="edge3" class="edge">
<title>Gaston Bachelard&#45;&gt;Michel Foucault</title>
<path fill="none" stroke="black" d="M197.03,-987.58C215.74,-983.65 234.49,-976.29 248.28,-963 303.33,-909.93 338.55,-670.1 349.32,-586.69"/>
<polygon fill="black" stroke="black" points="352.89,-587.36 350.67,-577 345.94,-586.48 352.89,-587.36"/>
</g>
<!-- Roland Barthes -->
<g id="node5" class="node">
<title>Roland Barthes</title>
<g id="a_node5"><a xlink:href="https://en.wikipedia.org/wiki/Roland_Barthes" xlink:title="Roland Barthes">
<ellipse fill="none" stroke="black" cx="124.14" cy="-936" rx="65.79" ry="18"/>
<text text-anchor="middle" x="124.14" y="-932.3" font-family="Times,serif" font-size="14.00">Roland Barthes</text>
</a>
</g>
</g>
<!-- Roland Barthes&#45;&gt;Michel Foucault -->
<g id="edge4" class="edge">
<title>Roland Barthes&#45;&gt;Michel Foucault</title>
<path fill="none" stroke="black" d="M190,-934.52C210.84,-930.98 232.56,-923.6 248.28,-909 342.3,-821.66 353.05,-653.87 353.39,-586.77"/>
<polygon fill="black" stroke="black" points="356.89,-587.16 353.36,-577.17 349.89,-587.18 356.89,-587.16"/>
</g>
<!-- Georges Bataille -->
<g id="node6" class="node">
<title>Georges Bataille</title>
<g id="a_node6"><a xlink:href="https://en.wikipedia.org/wiki/Georges_Bataille" xlink:title="Georges Bataille">
<ellipse fill="none" stroke="black" cx="124.14" cy="-882" rx="69.59" ry="18"/>
<text text-anchor="middle" x="124.14" y="-878.3" font-family="Times,serif" font-size="14.00">Georges Bataille</text>
</a>
</g>
</g>
<!-- Georges Bataille&#45;&gt;Michel Foucault -->
<g id="edge5" class="edge">
<title>Georges Bataille&#45;&gt;Michel Foucault</title>
<path fill="none" stroke="black" d="M193.43,-879.38C213.05,-875.58 233.19,-868.34 248.28,-855 328.7,-783.88 347.26,-647.07 351.54,-587.23"/>
<polygon fill="black" stroke="black" points="355.09,-587.53 352.22,-577.33 348.1,-587.09 355.09,-587.53"/>
</g>
<!-- Maurice Blanchot -->
<g id="node7" class="node">
<title>Maurice Blanchot</title>
<g id="a_node7"><a xlink:href="https://en.wikipedia.org/wiki/Maurice_Blanchot" xlink:title="Maurice Blanchot">
<ellipse fill="none" stroke="black" cx="124.14" cy="-828" rx="74.99" ry="18"/>
<text text-anchor="middle" x="124.14" y="-824.3" font-family="Times,serif" font-size="14.00">Maurice Blanchot</text>
</a>
</g>
</g>
<!-- Maurice Blanchot&#45;&gt;Michel Foucault -->
<g id="edge6" class="edge">
<title>Maurice Blanchot&#45;&gt;Michel Foucault</title>
<path fill="none" stroke="black" d="M197.36,-823.81C215.54,-819.8 233.93,-812.84 248.28,-801 315.61,-745.41 340.59,-638.36 348.99,-586.95"/>
<polygon fill="black" stroke="black" points="352.57,-587.7 350.62,-577.29 345.65,-586.64 352.57,-587.7"/>
</g>
<!-- Georges Canguilhem -->
<g id="node8" class="node">
<title>Georges Canguilhem</title>
<g id="a_node8"><a xlink:href="https://en.wikipedia.org/wiki/Georges_Canguilhem" xlink:title="Georges Canguilhem">
<ellipse fill="none" stroke="black" cx="124.14" cy="-774" rx="85.59" ry="18"/>
<text text-anchor="middle" x="124.14" y="-770.3" font-family="Times,serif" font-size="14.00">Georges Canguilhem</text>
</a>
</g>
</g>
<!-- Georges Canguilhem&#45;&gt;Michel Foucault -->
<g id="edge7" class="edge">
<title>Georges Canguilhem&#45;&gt;Michel Foucault</title>
<path fill="none" stroke="black" d="M203.67,-767.14C219.53,-763.02 235.29,-756.68 248.28,-747 302.78,-706.36 332.52,-628.49 345.23,-586.51"/>
<polygon fill="black" stroke="black" points="348.81,-587.74 348.24,-577.16 342.09,-585.79 348.81,-587.74"/>
</g>
<!-- Gilles Deleuze&#45;&gt;Michel Foucault -->
<g id="edge8" class="edge">
<title>Gilles Deleuze&#45;&gt;Michel Foucault</title>
<path fill="none" stroke="black" d="M475.05,-848.32C469.32,-845.24 463.94,-841.49 459.37,-837 388.22,-767.16 364.56,-643.47 357.52,-587.11"/>
<polygon fill="black" stroke="black" points="360.91,-586.99 356.29,-577.46 353.96,-587.79 360.91,-586.99"/>
</g>
<!-- Georges Dumézil -->
<g id="node10" class="node">
<title>Georges Dumézil</title>
<g id="a_node10"><a xlink:href="https://en.wikipedia.org/wiki/Georges_Dum%C3%A9zil" xlink:title="Georges Dumézil">
<ellipse fill="none" stroke="black" cx="124.14" cy="-720" rx="73.39" ry="18"/>
<text text-anchor="middle" x="124.14" y="-716.3" font-family="Times,serif" font-size="14.00">Georges Dumézil</text>
</a>
</g>
</g>
<!-- Georges Dumézil&#45;&gt;Michel Foucault -->
<g id="edge9" class="edge">
<title>Georges Dumézil&#45;&gt;Michel Foucault</title>
<path fill="none" stroke="black" d="M193.28,-713.74C212.14,-709.77 231.91,-703.35 248.28,-693 290.33,-666.41 322.18,-616.66 339.13,-585.55"/>
<polygon fill="black" stroke="black" points="342.51,-587.63 344.1,-577.15 336.33,-584.35 342.51,-587.63"/>
</g>
<!-- Sigmund Freud -->
<g id="node11" class="node">
<title>Sigmund Freud</title>
<g id="a_node11"><a xlink:href="https://en.wikipedia.org/wiki/Sigmund_Freud" xlink:title="Sigmund Freud">
<ellipse fill="none" stroke="black" cx="124.14" cy="-666" rx="65.79" ry="18"/>
<text text-anchor="middle" x="124.14" y="-662.3" font-family="Times,serif" font-size="14.00">Sigmund Freud</text>
</a>
</g>
</g>
<!-- Sigmund Freud&#45;&gt;Michel Foucault -->
<g id="edge10" class="edge">
<title>Sigmund Freud&#45;&gt;Michel Foucault</title>
<path fill="none" stroke="black" d="M184.5,-658.47C205.33,-654.42 228.45,-648.27 248.28,-639 278.12,-625.04 307.36,-601.28 327.29,-583.09"/>
<polygon fill="black" stroke="black" points="329.31,-586.06 334.24,-576.68 324.53,-580.94 329.31,-586.06"/>
</g>
<!-- Erving Goffman -->
<g id="node12" class="node">
<title>Erving Goffman</title>
<g id="a_node12"><a xlink:href="https://en.wikipedia.org/wiki/Erving_Goffman" xlink:title="Erving Goffman">
<ellipse fill="none" stroke="black" cx="124.14" cy="-612" rx="69.59" ry="18"/>
<text text-anchor="middle" x="124.14" y="-608.3" font-family="Times,serif" font-size="14.00">Erving Goffman</text>
</a>
</g>
</g>
<!-- Erving Goffman&#45;&gt;Michel Foucault -->
<g id="edge11" class="edge">
<title>Erving Goffman&#45;&gt;Michel Foucault</title>
<path fill="none" stroke="black" d="M179.18,-600.6C200.72,-595.94 225.71,-590.39 248.28,-585 263.02,-581.48 278.89,-577.49 293.69,-573.68"/>
<polygon fill="black" stroke="black" points="294.44,-576.84 303.25,-570.94 292.69,-570.06 294.44,-576.84"/>
</g>
<!-- Georg Wilhelm Friedrich Hegel -->
<g id="node13" class="node">
<title>Georg Wilhelm Friedrich Hegel</title>
<g id="a_node13"><a xlink:href="https://en.wikipedia.org/wiki/Georg_Wilhelm_Friedrich_Hegel" xlink:title="Georg Wilhelm Friedrich Hegel">
<ellipse fill="none" stroke="black" cx="124.14" cy="-558" rx="124.28" ry="18"/>
<text text-anchor="middle" x="124.14" y="-554.3" font-family="Times,serif" font-size="14.00">Georg Wilhelm Friedrich Hegel</text>
</a>
</g>
</g>
<!-- Georg Wilhelm Friedrich Hegel&#45;&gt;Michel Foucault -->
<g id="edge12" class="edge">
<title>Georg Wilhelm Friedrich Hegel&#45;&gt;Michel Foucault</title>
<path fill="none" stroke="black" d="M248.64,-558C256.98,-558 265.25,-558 273.26,-558"/>
<polygon fill="black" stroke="black" points="273.02,-561.5 283.02,-558 273.02,-554.5 273.02,-561.5"/>
</g>
<!-- Martin Heidegger -->
<g id="node14" class="node">
<title>Martin Heidegger</title>
<g id="a_node14"><a xlink:href="https://en.wikipedia.org/wiki/Martin_Heidegger" xlink:title="Martin Heidegger">
<ellipse fill="none" stroke="black" cx="124.14" cy="-504" rx="74.19" ry="18"/>
<text text-anchor="middle" x="124.14" y="-500.3" font-family="Times,serif" font-size="14.00">Martin Heidegger</text>
</a>
</g>
</g>
<!-- Martin Heidegger&#45;&gt;Michel Foucault -->
<g id="edge13" class="edge">
<title>Martin Heidegger&#45;&gt;Michel Foucault</title>
<path fill="none" stroke="black" d="M181.33,-515.86C202.37,-520.43 226.46,-525.79 248.28,-531 263.02,-534.52 278.89,-538.51 293.69,-542.32"/>
<polygon fill="black" stroke="black" points="292.69,-545.94 303.25,-545.06 294.44,-539.16 292.69,-545.94"/>
</g>
<!-- Jean Hyppolite -->
<g id="node15" class="node">
<title>Jean Hyppolite</title>
<g id="a_node15"><a xlink:href="https://en.wikipedia.org/wiki/Jean_Hyppolite" xlink:title="Jean Hyppolite">
<ellipse fill="none" stroke="black" cx="124.14" cy="-450" rx="63.89" ry="18"/>
<text text-anchor="middle" x="124.14" y="-446.3" font-family="Times,serif" font-size="14.00">Jean Hyppolite</text>
</a>
</g>
</g>
<!-- Jean Hyppolite&#45;&gt;Michel Foucault -->
<g id="edge14" class="edge">
<title>Jean Hyppolite&#45;&gt;Michel Foucault</title>
<path fill="none" stroke="black" d="M183.26,-457.29C204.4,-461.33 228.06,-467.54 248.28,-477 278.12,-490.96 307.36,-514.72 327.29,-532.91"/>
<polygon fill="black" stroke="black" points="324.53,-535.06 334.24,-539.32 329.31,-529.94 324.53,-535.06"/>
</g>
<!-- Immanuel Kant -->
<g id="node16" class="node">
<title>Immanuel Kant</title>
<g id="a_node16"><a xlink:href="https://en.wikipedia.org/wiki/Immanuel_Kant" xlink:title="Immanuel Kant">
<ellipse fill="none" stroke="black" cx="124.14" cy="-396" rx="66.89" ry="18"/>
<text text-anchor="middle" x="124.14" y="-392.3" font-family="Times,serif" font-size="14.00">Immanuel Kant</text>
</a>
</g>
</g>
<!-- Immanuel Kant&#45;&gt;Michel Foucault -->
<g id="edge15" class="edge">
<title>Immanuel Kant&#45;&gt;Michel Foucault</title>
<path fill="none" stroke="black" d="M188.51,-401.3C208.76,-405.17 230.52,-411.77 248.28,-423 290.33,-449.59 322.18,-499.34 339.13,-530.45"/>
<polygon fill="black" stroke="black" points="336.33,-531.65 344.1,-538.85 342.51,-528.37 336.33,-531.65"/>
</g>
<!-- Ludwig Klages -->
<g id="node17" class="node">
<title>Ludwig Klages</title>
<g id="a_node17"><a xlink:href="https://en.wikipedia.org/wiki/Ludwig_Klages" xlink:title="Ludwig Klages">
<ellipse fill="none" stroke="black" cx="124.14" cy="-342" rx="64.99" ry="18"/>
<text text-anchor="middle" x="124.14" y="-338.3" font-family="Times,serif" font-size="14.00">Ludwig Klages</text>
</a>
</g>
</g>
<!-- Ludwig Klages&#45;&gt;Michel Foucault -->
<g id="edge16" class="edge">
<title>Ludwig Klages&#45;&gt;Michel Foucault</title>
<path fill="none" stroke="black" d="M188.31,-345.51C209.01,-349.22 231.08,-356.18 248.28,-369 302.78,-409.64 332.52,-487.51 345.23,-529.49"/>
<polygon fill="black" stroke="black" points="342.09,-530.21 348.24,-538.84 348.81,-528.26 342.09,-530.21"/>
</g>
<!-- Daniel Lagache -->
<g id="node18" class="node">
<title>Daniel Lagache</title>
<g id="a_node18"><a xlink:href="https://en.wikipedia.org/wiki/Daniel_Lagache" xlink:title="Daniel Lagache">
<ellipse fill="none" stroke="black" cx="124.14" cy="-288" rx="66.09" ry="18"/>
<text text-anchor="middle" x="124.14" y="-284.3" font-family="Times,serif" font-size="14.00">Daniel Lagache</text>
</a>
</g>
</g>
<!-- Daniel Lagache&#45;&gt;Michel Foucault -->
<g id="edge17" class="edge">
<title>Daniel Lagache&#45;&gt;Michel Foucault</title>
<path fill="none" stroke="black" d="M189.69,-290.67C210.26,-294.33 231.91,-301.48 248.28,-315 315.61,-370.59 340.59,-477.64 348.99,-529.05"/>
<polygon fill="black" stroke="black" points="345.65,-529.36 350.62,-538.71 352.57,-528.3 345.65,-529.36"/>
</g>
<!-- Karl Marx -->
<g id="node19" class="node">
<title>Karl Marx</title>
<g id="a_node19"><a xlink:href="https://en.wikipedia.org/wiki/Karl_Marx" xlink:title="Karl Marx">
<ellipse fill="none" stroke="black" cx="124.14" cy="-234" rx="48.19" ry="18"/>
<text text-anchor="middle" x="124.14" y="-230.3" font-family="Times,serif" font-size="14.00">Karl Marx</text>
</a>
</g>
</g>
<!-- Karl Marx&#45;&gt;Michel Foucault -->
<g id="edge18" class="edge">
<title>Karl Marx&#45;&gt;Michel Foucault</title>
<path fill="none" stroke="black" d="M172.77,-233.74C197.95,-236.01 227.78,-242.88 248.28,-261 328.7,-332.12 347.26,-468.93 351.54,-528.77"/>
<polygon fill="black" stroke="black" points="348.1,-528.91 352.22,-538.67 355.09,-528.47 348.1,-528.91"/>
</g>
<!-- Maurice Merleau&#45;Ponty -->
<g id="node20" class="node">
<title>Maurice Merleau&#45;Ponty</title>
<g id="a_node20"><a xlink:href="https://en.wikipedia.org/wiki/Maurice_Merleau-Ponty" xlink:title="Maurice Merleau&#45;Ponty">
<ellipse fill="none" stroke="black" cx="124.14" cy="-180" rx="96.38" ry="18"/>
<text text-anchor="middle" x="124.14" y="-176.3" font-family="Times,serif" font-size="14.00">Maurice Merleau&#45;Ponty</text>
</a>
</g>
</g>
<!-- Maurice Merleau&#45;Ponty&#45;&gt;Michel Foucault -->
<g id="edge19" class="edge">
<title>Maurice Merleau&#45;Ponty&#45;&gt;Michel Foucault</title>
<path fill="none" stroke="black" d="M213.3,-187.21C226.19,-191.52 238.42,-197.84 248.28,-207 342.3,-294.34 353.05,-462.13 353.39,-529.23"/>
<polygon fill="black" stroke="black" points="349.89,-528.82 353.36,-538.83 356.89,-528.84 349.89,-528.82"/>
</g>
<!-- Michel de Montaigne -->
<g id="node21" class="node">
<title>Michel de Montaigne</title>
<g id="a_node21"><a xlink:href="https://en.wikipedia.org/wiki/Michel_de_Montaigne" xlink:title="Michel de Montaigne">
<ellipse fill="none" stroke="black" cx="124.14" cy="-126" rx="87.99" ry="18"/>
<text text-anchor="middle" x="124.14" y="-122.3" font-family="Times,serif" font-size="14.00">Michel de Montaigne</text>
</a>
</g>
</g>
<!-- Michel de Montaigne&#45;&gt;Michel Foucault -->
<g id="edge20" class="edge">
<title>Michel de Montaigne&#45;&gt;Michel Foucault</title>
<path fill="none" stroke="black" d="M208.54,-131.3C223.25,-135.63 237.33,-142.44 248.28,-153 303.33,-206.07 338.55,-445.9 349.32,-529.31"/>
<polygon fill="black" stroke="black" points="345.94,-529.52 350.67,-539 352.89,-528.64 345.94,-529.52"/>
</g>
<!-- Friedrich Nietzsche -->
<g id="node22" class="node">
<title>Friedrich Nietzsche</title>
<g id="a_node22"><a xlink:href="https://en.wikipedia.org/wiki/Friedrich_Nietzsche" xlink:title="Friedrich Nietzsche">
<ellipse fill="none" stroke="black" cx="124.14" cy="-72" rx="79.89" ry="18"/>
<text text-anchor="middle" x="124.14" y="-68.3" font-family="Times,serif" font-size="14.00">Friedrich Nietzsche</text>
</a>
</g>
</g>
<!-- Friedrich Nietzsche&#45;&gt;Michel Foucault -->
<g id="edge21" class="edge">
<title>Friedrich Nietzsche&#45;&gt;Michel Foucault</title>
<path fill="none" stroke="black" d="M203.05,-75.49C219.78,-79.68 236.08,-86.9 248.28,-99 310.12,-160.34 341.46,-437.75 350.21,-528.89"/>
<polygon fill="black" stroke="black" points="346.82,-529.14 351.24,-538.77 353.78,-528.48 346.82,-529.14"/>
</g>
<!-- Marquis de Sade -->
<g id="node23" class="node">
<title>Marquis de Sade</title>
<g id="a_node23"><a xlink:href="https://en.wikipedia.org/wiki/Marquis_de_Sade" xlink:title="Marquis de Sade">
<ellipse fill="none" stroke="black" cx="124.14" cy="-18" rx="70.69" ry="18"/>
<text text-anchor="middle" x="124.14" y="-14.3" font-family="Times,serif" font-size="14.00">Marquis de Sade</text>
</a>
</g>
</g>
<!-- Marquis de Sade&#45;&gt;Michel Foucault -->
<g id="edge22" class="edge">
<title>Marquis de Sade&#45;&gt;Michel Foucault</title>
<path fill="none" stroke="black" d="M194.92,-19.45C214.48,-23.22 234.22,-30.74 248.28,-45 317.01,-114.76 344.11,-430.57 350.96,-528.77"/>
<polygon fill="black" stroke="black" points="347.53,-528.89 351.7,-538.63 354.51,-528.42 347.53,-528.89"/>
</g>
</g>
</svg>
