<?xml version="1.0" encoding="UTF-8" standalone="no"?>
<!DOCTYPE svg PUBLIC "-//W3C//DTD SVG 1.1//EN"
 "http://www.w3.org/Graphics/SVG/1.1/DTD/svg11.dtd">
<!-- Generated by graphviz version 2.42.3 (20191010.1750)
 -->
<!-- Title: G Pages: 1 -->
<svg width="828pt" height="188pt"
 viewBox="0.00 0.00 827.68 188.00" xmlns="http://www.w3.org/2000/svg" xmlns:xlink="http://www.w3.org/1999/xlink">
<g id="graph0" class="graph" transform="scale(1 1) rotate(0) translate(4 184)">
<title>G</title>
<polygon fill="white" stroke="transparent" points="-4,4 -4,-184 823.68,-184 823.68,4 -4,4"/>
<!-- Feuerbach -->
<g id="node1" class="node">
<title>Feuerbach</title>
<g id="a_node1"><a xlink:href="https://en.wikipedia.org/wiki/Ludwig_Feuerbach" xlink:title="Feuerbach">
<ellipse fill="none" stroke="black" cx="193.01" cy="-162" rx="46.87" ry="18"/>
<text text-anchor="middle" x="193.01" y="-157.8" font-family="Times,serif" font-size="14.00">Feuerbach</text>
</a>
</g>
</g>
<!-- Mikhail Bakunin -->
<g id="node2" class="node">
<title>Mikhail Bakunin</title>
<ellipse fill="none" stroke="black" cx="446.01" cy="-90" rx="70.08" ry="18"/>
<text text-anchor="middle" x="446.01" y="-85.8" font-family="Times,serif" font-size="14.00">Mikhail Bakunin</text>
</g>
<!-- Feuerbach&#45;&gt;Mikhail Bakunin -->
<g id="edge1" class="edge">
<title>Feuerbach&#45;&gt;Mikhail Bakunin</title>
<path fill="none" stroke="black" d="M228.51,-150.04C235.31,-147.99 242.37,-145.9 249.01,-144 295.94,-130.57 349.44,-116.24 388.83,-105.87"/>
<polygon fill="black" stroke="black" points="389.74,-109.25 398.53,-103.32 387.97,-102.48 389.74,-109.25"/>
</g>
<!-- Chomsky -->
<g id="node8" class="node">
<title>Chomsky</title>
<g id="a_node8"><a xlink:href="https://en.wikipedia.org/wiki/Noam_Chomsky" xlink:title="Chomsky">
<ellipse fill="none" stroke="black" cx="44.01" cy="-18" rx="44.03" ry="18"/>
<text text-anchor="middle" x="44.01" y="-13.8" font-family="Times,serif" font-size="14.00">Chomsky</text>
</a>
</g>
</g>
<!-- Mikhail Bakunin&#45;&gt;Chomsky -->
<g id="edge7" class="edge">
<title>Mikhail Bakunin&#45;&gt;Chomsky</title>
<path fill="none" stroke="black" d="M382.06,-82.39C311.63,-74.4 195.31,-59.07 97.01,-36 93.41,-35.16 89.71,-34.18 86.01,-33.14"/>
<polygon fill="black" stroke="black" points="86.88,-29.75 76.3,-30.26 84.89,-36.46 86.88,-29.75"/>
</g>
<!-- Kropotkin -->
<g id="node9" class="node">
<title>Kropotkin</title>
<g id="a_node9"><a xlink:href="https://en.wikipedia.org/wiki/Peter_Kropotkin" xlink:title="Kropotkin">
<ellipse fill="none" stroke="black" cx="152.01" cy="-18" rx="46.42" ry="18"/>
<text text-anchor="middle" x="152.01" y="-13.8" font-family="Times,serif" font-size="14.00">Kropotkin</text>
</a>
</g>
</g>
<!-- Mikhail Bakunin&#45;&gt;Kropotkin -->
<g id="edge8" class="edge">
<title>Mikhail Bakunin&#45;&gt;Kropotkin</title>
<path fill="none" stroke="black" d="M392.08,-78.35C343.44,-68.44 270.08,-52.71 207.01,-36 203.47,-35.06 199.82,-34.04 196.15,-32.99"/>
<polygon fill="black" stroke="black" points="197.09,-29.62 186.51,-30.13 195.1,-36.33 197.09,-29.62"/>
</g>
<!-- Carlo Cafiero -->
<g id="node10" class="node">
<title>Carlo Cafiero</title>
<g id="a_node10"><a xlink:href="https://en.wikipedia.org/wiki/Carlo_Cafiero" xlink:title="Carlo Cafiero">
<ellipse fill="none" stroke="black" cx="274.01" cy="-18" rx="58" ry="18"/>
<text text-anchor="middle" x="274.01" y="-13.8" font-family="Times,serif" font-size="14.00">Carlo Cafiero</text>
</a>
</g>
</g>
<!-- Mikhail Bakunin&#45;&gt;Carlo Cafiero -->
<g id="edge9" class="edge">
<title>Mikhail Bakunin&#45;&gt;Carlo Cafiero</title>
<path fill="none" stroke="black" d="M409.96,-74.33C382.87,-63.3 345.68,-48.17 317.04,-36.51"/>
<polygon fill="black" stroke="black" points="318.27,-33.23 307.68,-32.7 315.63,-39.72 318.27,-33.23"/>
</g>
<!-- Malatesta -->
<g id="node11" class="node">
<title>Malatesta</title>
<g id="a_node11"><a xlink:href="https://en.wikipedia.org/wiki/Errico_Malatesta" xlink:title="Malatesta">
<ellipse fill="none" stroke="black" cx="394.01" cy="-18" rx="44.47" ry="18"/>
<text text-anchor="middle" x="394.01" y="-13.8" font-family="Times,serif" font-size="14.00">Malatesta</text>
</a>
</g>
</g>
<!-- Mikhail Bakunin&#45;&gt;Malatesta -->
<g id="edge10" class="edge">
<title>Mikhail Bakunin&#45;&gt;Malatesta</title>
<path fill="none" stroke="black" d="M433.42,-72.05C427.17,-63.63 419.48,-53.28 412.56,-43.97"/>
<polygon fill="black" stroke="black" points="415.26,-41.73 406.48,-35.79 409.64,-45.9 415.26,-41.73"/>
</g>
<!-- Nechaev -->
<g id="node12" class="node">
<title>Nechaev</title>
<g id="a_node12"><a xlink:href="https://en.wikipedia.org/wiki/Sergei_Nechaev" xlink:title="Nechaev">
<ellipse fill="none" stroke="black" cx="498.01" cy="-18" rx="41.07" ry="18"/>
<text text-anchor="middle" x="498.01" y="-13.8" font-family="Times,serif" font-size="14.00">Nechaev</text>
</a>
</g>
</g>
<!-- Mikhail Bakunin&#45;&gt;Nechaev -->
<g id="edge11" class="edge">
<title>Mikhail Bakunin&#45;&gt;Nechaev</title>
<path fill="none" stroke="black" d="M458.6,-72.05C464.95,-63.5 472.77,-52.97 479.77,-43.56"/>
<polygon fill="black" stroke="black" points="482.75,-45.42 485.9,-35.31 477.13,-41.25 482.75,-45.42"/>
</g>
<!-- Goldman -->
<g id="node13" class="node">
<title>Goldman</title>
<g id="a_node13"><a xlink:href="https://en.wikipedia.org/wiki/Emma_Goldman" xlink:title="Goldman">
<ellipse fill="none" stroke="black" cx="600.01" cy="-18" rx="43.04" ry="18"/>
<text text-anchor="middle" x="600.01" y="-13.8" font-family="Times,serif" font-size="14.00">Goldman</text>
</a>
</g>
</g>
<!-- Mikhail Bakunin&#45;&gt;Goldman -->
<g id="edge12" class="edge">
<title>Mikhail Bakunin&#45;&gt;Goldman</title>
<path fill="none" stroke="black" d="M479.05,-73.98C503.5,-62.87 536.85,-47.71 562.33,-36.13"/>
<polygon fill="black" stroke="black" points="564.03,-39.2 571.68,-31.88 561.13,-32.83 564.03,-39.2"/>
</g>
<!-- Korsch -->
<g id="node14" class="node">
<title>Korsch</title>
<g id="a_node14"><a xlink:href="https://en.wikipedia.org/wiki/Karl_Korsch" xlink:title="Korsch">
<ellipse fill="none" stroke="black" cx="697.01" cy="-18" rx="35.8" ry="18"/>
<text text-anchor="middle" x="697.01" y="-13.8" font-family="Times,serif" font-size="14.00">Korsch</text>
</a>
</g>
</g>
<!-- Mikhail Bakunin&#45;&gt;Korsch -->
<g id="edge13" class="edge">
<title>Mikhail Bakunin&#45;&gt;Korsch</title>
<path fill="none" stroke="black" d="M497.25,-77.47C539.2,-67.63 599.91,-52.49 652.01,-36 654.61,-35.18 657.28,-34.29 659.95,-33.36"/>
<polygon fill="black" stroke="black" points="661.34,-36.58 669.57,-29.91 658.98,-29.99 661.34,-36.58"/>
</g>
<!-- Guérin -->
<g id="node15" class="node">
<title>Guérin</title>
<g id="a_node15"><a xlink:href="https://en.wikipedia.org/wiki/Daniel_Gu%C3%A9rin" xlink:title="Guérin">
<ellipse fill="none" stroke="black" cx="785.01" cy="-18" rx="34.83" ry="18"/>
<text text-anchor="middle" x="785.01" y="-13.8" font-family="Times,serif" font-size="14.00">Guérin</text>
</a>
</g>
</g>
<!-- Mikhail Bakunin&#45;&gt;Guérin -->
<g id="edge14" class="edge">
<title>Mikhail Bakunin&#45;&gt;Guérin</title>
<path fill="none" stroke="black" d="M508.34,-81.52C568.81,-73.4 662.79,-58.51 742.01,-36 744.44,-35.31 746.93,-34.53 749.42,-33.7"/>
<polygon fill="black" stroke="black" points="750.7,-36.96 758.92,-30.27 748.33,-30.37 750.7,-36.96"/>
</g>
<!-- Buonarroti -->
<g id="node3" class="node">
<title>Buonarroti</title>
<g id="a_node3"><a xlink:href="https://en.wikipedia.org/wiki/Philippe_Buonarroti" xlink:title="Buonarroti">
<ellipse fill="none" stroke="black" cx="306.01" cy="-162" rx="48.34" ry="18"/>
<text text-anchor="middle" x="306.01" y="-157.8" font-family="Times,serif" font-size="14.00">Buonarroti</text>
</a>
</g>
</g>
<!-- Buonarroti&#45;&gt;Mikhail Bakunin -->
<g id="edge2" class="edge">
<title>Buonarroti&#45;&gt;Mikhail Bakunin</title>
<path fill="none" stroke="black" d="M333.67,-147.17C354.4,-136.8 383.07,-122.47 406.26,-110.88"/>
<polygon fill="black" stroke="black" points="408.12,-113.86 415.49,-106.26 404.98,-107.6 408.12,-113.86"/>
</g>
<!-- Hegel -->
<g id="node4" class="node">
<title>Hegel</title>
<g id="a_node4"><a xlink:href="https://en.wikipedia.org/wiki/Georg_Wilhelm_Friedrich_Hegel" xlink:title="Hegel">
<ellipse fill="none" stroke="black" cx="404.01" cy="-162" rx="31.45" ry="18"/>
<text text-anchor="middle" x="404.01" y="-157.8" font-family="Times,serif" font-size="14.00">Hegel</text>
</a>
</g>
</g>
<!-- Hegel&#45;&gt;Mikhail Bakunin -->
<g id="edge3" class="edge">
<title>Hegel&#45;&gt;Mikhail Bakunin</title>
<path fill="none" stroke="black" d="M413.75,-144.76C418.75,-136.44 424.95,-126.1 430.58,-116.73"/>
<polygon fill="black" stroke="black" points="433.59,-118.5 435.74,-108.12 427.59,-114.9 433.59,-118.5"/>
</g>
<!-- Herzen -->
<g id="node5" class="node">
<title>Herzen</title>
<g id="a_node5"><a xlink:href="https://en.wikipedia.org/wiki/Alexander_Herzen" xlink:title="Herzen">
<ellipse fill="none" stroke="black" cx="489.01" cy="-162" rx="35.77" ry="18"/>
<text text-anchor="middle" x="489.01" y="-157.8" font-family="Times,serif" font-size="14.00">Herzen</text>
</a>
</g>
</g>
<!-- Herzen&#45;&gt;Mikhail Bakunin -->
<g id="edge4" class="edge">
<title>Herzen&#45;&gt;Mikhail Bakunin</title>
<path fill="none" stroke="black" d="M478.82,-144.41C473.7,-136.08 467.39,-125.8 461.67,-116.49"/>
<polygon fill="black" stroke="black" points="464.64,-114.65 456.43,-107.96 458.68,-118.31 464.64,-114.65"/>
</g>
<!-- Marx -->
<g id="node6" class="node">
<title>Marx</title>
<g id="a_node6"><a xlink:href="https://en.wikipedia.org/wiki/Karl_Marx" xlink:title="Marx">
<ellipse fill="none" stroke="black" cx="572.01" cy="-162" rx="29.03" ry="18"/>
<text text-anchor="middle" x="572.01" y="-157.8" font-family="Times,serif" font-size="14.00">Marx</text>
</a>
</g>
</g>
<!-- Marx&#45;&gt;Mikhail Bakunin -->
<g id="edge5" class="edge">
<title>Marx&#45;&gt;Mikhail Bakunin</title>
<path fill="none" stroke="black" d="M550.92,-149.28C532.45,-139.02 505.18,-123.87 483.07,-111.59"/>
<polygon fill="black" stroke="black" points="484.71,-108.49 474.27,-106.7 481.31,-114.61 484.71,-108.49"/>
</g>
<!-- Proudhon -->
<g id="node7" class="node">
<title>Proudhon</title>
<g id="a_node7"><a xlink:href="https://en.wikipedia.org/wiki/Pierre-Joseph_Proudhon" xlink:title="Proudhon">
<ellipse fill="none" stroke="black" cx="664.01" cy="-162" rx="44.5" ry="18"/>
<text text-anchor="middle" x="664.01" y="-157.8" font-family="Times,serif" font-size="14.00">Proudhon</text>
</a>
</g>
</g>
<!-- Proudhon&#45;&gt;Mikhail Bakunin -->
<g id="edge6" class="edge">
<title>Proudhon&#45;&gt;Mikhail Bakunin</title>
<path fill="none" stroke="black" d="M629.95,-150.06C594.47,-138.67 538.47,-120.69 497.57,-107.56"/>
<polygon fill="black" stroke="black" points="498.64,-104.22 488.05,-104.5 496.5,-110.89 498.64,-104.22"/>
</g>
</g>
</svg>
