<?xml version="1.0" encoding="UTF-8" standalone="no"?>
<!DOCTYPE svg PUBLIC "-//W3C//DTD SVG 1.1//EN"
 "http://www.w3.org/Graphics/SVG/1.1/DTD/svg11.dtd">
<!-- Generated by graphviz version 2.42.3 (20191010.1750)
 -->
<!-- Title: G Pages: 1 -->
<svg width="533pt" height="188pt"
 viewBox="0.00 0.00 532.83 188.00" xmlns="http://www.w3.org/2000/svg" xmlns:xlink="http://www.w3.org/1999/xlink">
<g id="graph0" class="graph" transform="scale(1 1) rotate(0) translate(4 184)">
<title>G</title>
<polygon fill="white" stroke="transparent" points="-4,4 -4,-184 528.83,-184 528.83,4 -4,4"/>
<!-- Socrates -->
<g id="node1" class="node">
<title>Socrates</title>
<g id="a_node1"><a xlink:href="https://en.wikipedia.org/wiki/Socrates" xlink:title="Socrates">
<ellipse fill="none" stroke="black" cx="40.38" cy="-162" rx="40.13" ry="18"/>
<text text-anchor="middle" x="40.38" y="-157.8" font-family="Times,serif" font-size="14.00">Socrates</text>
</a>
</g>
</g>
<!-- Plato -->
<g id="node2" class="node">
<title>Plato</title>
<ellipse fill="none" stroke="black" cx="268.38" cy="-90" rx="28.07" ry="18"/>
<text text-anchor="middle" x="268.38" y="-85.8" font-family="Times,serif" font-size="14.00">Plato</text>
</g>
<!-- Socrates&#45;&gt;Plato -->
<g id="edge1" class="edge">
<title>Socrates&#45;&gt;Plato</title>
<path fill="none" stroke="black" d="M70.89,-150.17C77,-148.07 83.38,-145.93 89.38,-144 138.95,-128.07 196.8,-111.26 233.01,-100.95"/>
<polygon fill="black" stroke="black" points="234.41,-104.19 243.07,-98.1 232.5,-97.46 234.41,-104.19"/>
</g>
<!-- Western philosophy -->
<g id="node7" class="node">
<title>Western philosophy</title>
<g id="a_node7"><a xlink:href="https://en.wikipedia.org/wiki/Western_philosophy" xlink:title="Western philosophy">
<ellipse fill="none" stroke="black" cx="80.38" cy="-18" rx="80.27" ry="18"/>
<text text-anchor="middle" x="80.38" y="-13.8" font-family="Times,serif" font-size="14.00">Western philosophy</text>
</a>
</g>
</g>
<!-- Plato&#45;&gt;Western philosophy -->
<g id="edge6" class="edge">
<title>Plato&#45;&gt;Western philosophy</title>
<path fill="none" stroke="black" d="M244.57,-80.13C215.82,-69.43 166.71,-51.14 129.68,-37.35"/>
<polygon fill="black" stroke="black" points="130.65,-33.98 120.06,-33.77 128.21,-40.54 130.65,-33.98"/>
</g>
<!-- Aristotle -->
<g id="node8" class="node">
<title>Aristotle</title>
<g id="a_node8"><a xlink:href="https://en.wikipedia.org/wiki/Aristotle" xlink:title="Aristotle">
<ellipse fill="none" stroke="black" cx="219.38" cy="-18" rx="41.11" ry="18"/>
<text text-anchor="middle" x="219.38" y="-13.8" font-family="Times,serif" font-size="14.00">Aristotle</text>
</a>
</g>
</g>
<!-- Plato&#45;&gt;Aristotle -->
<g id="edge7" class="edge">
<title>Plato&#45;&gt;Aristotle</title>
<path fill="none" stroke="black" d="M257.27,-73.12C251.15,-64.38 243.43,-53.35 236.56,-43.54"/>
<polygon fill="black" stroke="black" points="239.4,-41.49 230.8,-35.31 233.67,-45.51 239.4,-41.49"/>
</g>
<!-- Plotinus -->
<g id="node9" class="node">
<title>Plotinus</title>
<g id="a_node9"><a xlink:href="https://en.wikipedia.org/wiki/Plotinus" xlink:title="Plotinus">
<ellipse fill="none" stroke="black" cx="317.38" cy="-18" rx="39.21" ry="18"/>
<text text-anchor="middle" x="317.38" y="-13.8" font-family="Times,serif" font-size="14.00">Plotinus</text>
</a>
</g>
</g>
<!-- Plato&#45;&gt;Plotinus -->
<g id="edge8" class="edge">
<title>Plato&#45;&gt;Plotinus</title>
<path fill="none" stroke="black" d="M279.5,-73.12C285.62,-64.38 293.34,-53.35 300.21,-43.54"/>
<polygon fill="black" stroke="black" points="303.1,-45.51 305.97,-35.31 297.37,-41.49 303.1,-45.51"/>
</g>
<!-- Augustine -->
<g id="node10" class="node">
<title>Augustine</title>
<g id="a_node10"><a xlink:href="https://en.wikipedia.org/wiki/Augustine_of_Hippo" xlink:title="Augustine">
<ellipse fill="none" stroke="black" cx="421.38" cy="-18" rx="46.42" ry="18"/>
<text text-anchor="middle" x="421.38" y="-13.8" font-family="Times,serif" font-size="14.00">Augustine</text>
</a>
</g>
</g>
<!-- Plato&#45;&gt;Augustine -->
<g id="edge9" class="edge">
<title>Plato&#45;&gt;Augustine</title>
<path fill="none" stroke="black" d="M290.63,-78.82C314.83,-67.75 353.95,-49.85 383.11,-36.51"/>
<polygon fill="black" stroke="black" points="384.94,-39.52 392.58,-32.18 382.03,-33.16 384.94,-39.52"/>
</g>
<!-- Parmenides -->
<g id="node3" class="node">
<title>Parmenides</title>
<g id="a_node3"><a xlink:href="https://en.wikipedia.org/wiki/Parmenides" xlink:title="Parmenides">
<ellipse fill="none" stroke="black" cx="149.38" cy="-162" rx="51.23" ry="18"/>
<text text-anchor="middle" x="149.38" y="-157.8" font-family="Times,serif" font-size="14.00">Parmenides</text>
</a>
</g>
</g>
<!-- Parmenides&#45;&gt;Plato -->
<g id="edge2" class="edge">
<title>Parmenides&#45;&gt;Plato</title>
<path fill="none" stroke="black" d="M174.62,-146.15C193.67,-134.95 219.83,-119.56 239.68,-107.88"/>
<polygon fill="black" stroke="black" points="241.46,-110.9 248.31,-102.81 237.91,-104.86 241.46,-110.9"/>
</g>
<!-- Pythagoras -->
<g id="node4" class="node">
<title>Pythagoras</title>
<g id="a_node4"><a xlink:href="https://en.wikipedia.org/wiki/Pythagoras" xlink:title="Pythagoras">
<ellipse fill="none" stroke="black" cx="268.38" cy="-162" rx="49.31" ry="18"/>
<text text-anchor="middle" x="268.38" y="-157.8" font-family="Times,serif" font-size="14.00">Pythagoras</text>
</a>
</g>
</g>
<!-- Pythagoras&#45;&gt;Plato -->
<g id="edge3" class="edge">
<title>Pythagoras&#45;&gt;Plato</title>
<path fill="none" stroke="black" d="M268.38,-143.7C268.38,-135.98 268.38,-126.71 268.38,-118.11"/>
<polygon fill="black" stroke="black" points="271.88,-118.1 268.38,-108.1 264.88,-118.1 271.88,-118.1"/>
</g>
<!-- Diotima -->
<g id="node5" class="node">
<title>Diotima</title>
<g id="a_node5"><a xlink:href="https://en.wikipedia.org/wiki/Diotima_of_Mantinea" xlink:title="Diotima">
<ellipse fill="none" stroke="black" cx="374.38" cy="-162" rx="39.18" ry="18"/>
<text text-anchor="middle" x="374.38" y="-157.8" font-family="Times,serif" font-size="14.00">Diotima</text>
</a>
</g>
</g>
<!-- Diotima&#45;&gt;Plato -->
<g id="edge4" class="edge">
<title>Diotima&#45;&gt;Plato</title>
<path fill="none" stroke="black" d="M352.93,-146.83C336.55,-136.02 313.85,-121.02 296.09,-109.3"/>
<polygon fill="black" stroke="black" points="297.59,-106.09 287.32,-103.5 293.73,-111.93 297.59,-106.09"/>
</g>
<!-- Heraclitus -->
<g id="node6" class="node">
<title>Heraclitus</title>
<g id="a_node6"><a xlink:href="https://en.wikipedia.org/wiki/Heraclitus" xlink:title="Heraclitus">
<ellipse fill="none" stroke="black" cx="478.38" cy="-162" rx="46.4" ry="18"/>
<text text-anchor="middle" x="478.38" y="-157.8" font-family="Times,serif" font-size="14.00">Heraclitus</text>
</a>
</g>
</g>
<!-- Heraclitus&#45;&gt;Plato -->
<g id="edge5" class="edge">
<title>Heraclitus&#45;&gt;Plato</title>
<path fill="none" stroke="black" d="M444.18,-149.6C405.15,-136.59 341.71,-115.44 302.66,-102.42"/>
<polygon fill="black" stroke="black" points="303.64,-99.06 293.05,-99.22 301.43,-105.7 303.64,-99.06"/>
</g>
</g>
</svg>
