<?xml version="1.0" encoding="UTF-8" standalone="no"?>
<!DOCTYPE svg PUBLIC "-//W3C//DTD SVG 1.1//EN"
 "http://www.w3.org/Graphics/SVG/1.1/DTD/svg11.dtd">
<!-- Generated by graphviz version 2.42.3 (20191010.1750)
 -->
<!-- Title: G Pages: 1 -->
<svg width="2581pt" height="188pt"
 viewBox="0.00 0.00 2580.77 188.00" xmlns="http://www.w3.org/2000/svg" xmlns:xlink="http://www.w3.org/1999/xlink">
<g id="graph0" class="graph" transform="scale(1 1) rotate(0) translate(4 184)">
<title>G</title>
<polygon fill="white" stroke="transparent" points="-4,4 -4,-184 2576.77,-184 2576.77,4 -4,4"/>
<!-- Plato -->
<g id="node1" class="node">
<title>Plato</title>
<g id="a_node1"><a xlink:href="https://en.wikipedia.org/wiki/Plato" xlink:title="Plato">
<ellipse fill="none" stroke="black" cx="28.29" cy="-162" rx="28.07" ry="18"/>
<text text-anchor="middle" x="28.29" y="-157.8" font-family="Times,serif" font-size="14.00">Plato</text>
</a>
</g>
</g>
<!-- rene descartes -->
<g id="node2" class="node">
<title>rene descartes</title>
<ellipse fill="none" stroke="black" cx="1265.29" cy="-90" rx="59.88" ry="18"/>
<text text-anchor="middle" x="1265.29" y="-85.8" font-family="Times,serif" font-size="14.00">rene descartes</text>
</g>
<!-- Plato&#45;&gt;rene descartes -->
<g id="edge1" class="edge">
<title>Plato&#45;&gt;rene descartes</title>
<path fill="none" stroke="black" d="M49.3,-149.65C54.4,-147.38 59.93,-145.3 65.29,-144 281.64,-91.65 971.67,-89.75 1194.89,-90.57"/>
<polygon fill="black" stroke="black" points="1195.15,-94.07 1205.17,-90.61 1195.18,-87.07 1195.15,-94.07"/>
</g>
<!-- Western philosophy -->
<g id="node25" class="node">
<title>Western philosophy</title>
<g id="a_node25"><a xlink:href="https://en.wikipedia.org/wiki/Western_philosophy" xlink:title="Western philosophy">
<ellipse fill="none" stroke="black" cx="506.29" cy="-18" rx="80.27" ry="18"/>
<text text-anchor="middle" x="506.29" y="-13.8" font-family="Times,serif" font-size="14.00">Western philosophy</text>
</a>
</g>
</g>
<!-- rene descartes&#45;&gt;Western philosophy -->
<g id="edge24" class="edge">
<title>rene descartes&#45;&gt;Western philosophy</title>
<path fill="none" stroke="black" d="M1206.35,-86.52C1089.41,-81.11 819.92,-66.24 595.29,-36 588.1,-35.03 580.63,-33.86 573.19,-32.6"/>
<polygon fill="black" stroke="black" points="573.56,-29.11 563.11,-30.82 572.35,-36 573.56,-29.11"/>
</g>
<!-- Spinoza -->
<g id="node26" class="node">
<title>Spinoza</title>
<g id="a_node26"><a xlink:href="https://en.wikipedia.org/wiki/Spinoza" xlink:title="Spinoza">
<ellipse fill="none" stroke="black" cx="643.29" cy="-18" rx="38.7" ry="18"/>
<text text-anchor="middle" x="643.29" y="-13.8" font-family="Times,serif" font-size="14.00">Spinoza</text>
</a>
</g>
</g>
<!-- rene descartes&#45;&gt;Spinoza -->
<g id="edge25" class="edge">
<title>rene descartes&#45;&gt;Spinoza</title>
<path fill="none" stroke="black" d="M1205.46,-88.34C1100.26,-86.1 875.78,-76.53 691.29,-36 688.05,-35.29 684.73,-34.42 681.42,-33.46"/>
<polygon fill="black" stroke="black" points="682.22,-30.04 671.63,-30.34 680.1,-36.71 682.22,-30.04"/>
</g>
<!-- Leibniz -->
<g id="node27" class="node">
<title>Leibniz</title>
<g id="a_node27"><a xlink:href="https://en.wikipedia.org/wiki/Leibniz" xlink:title="Leibniz">
<ellipse fill="none" stroke="black" cx="737.29" cy="-18" rx="37.23" ry="18"/>
<text text-anchor="middle" x="737.29" y="-13.8" font-family="Times,serif" font-size="14.00">Leibniz</text>
</a>
</g>
</g>
<!-- rene descartes&#45;&gt;Leibniz -->
<g id="edge26" class="edge">
<title>rene descartes&#45;&gt;Leibniz</title>
<path fill="none" stroke="black" d="M1205.88,-87.13C1114.11,-83.2 932.82,-71.29 783.29,-36 780.32,-35.3 777.28,-34.46 774.24,-33.54"/>
<polygon fill="black" stroke="black" points="775.27,-30.19 764.68,-30.37 773.07,-36.84 775.27,-30.19"/>
</g>
<!-- John Locke -->
<g id="node28" class="node">
<title>John Locke</title>
<g id="a_node28"><a xlink:href="https://en.wikipedia.org/wiki/John_Locke" xlink:title="John Locke">
<ellipse fill="none" stroke="black" cx="843.29" cy="-18" rx="51.24" ry="18"/>
<text text-anchor="middle" x="843.29" y="-13.8" font-family="Times,serif" font-size="14.00">John Locke</text>
</a>
</g>
</g>
<!-- rene descartes&#45;&gt;John Locke -->
<g id="edge27" class="edge">
<title>rene descartes&#45;&gt;John Locke</title>
<path fill="none" stroke="black" d="M1209.86,-83.06C1138.67,-74.93 1011.49,-58.71 904.29,-36 899.87,-35.06 895.3,-33.99 890.75,-32.85"/>
<polygon fill="black" stroke="black" points="891.41,-29.41 880.85,-30.27 889.64,-36.18 891.41,-29.41"/>
</g>
<!-- Nicolas Malebranche -->
<g id="node29" class="node">
<title>Nicolas Malebranche</title>
<g id="a_node29"><a xlink:href="https://en.wikipedia.org/wiki/Nicolas_Malebranche" xlink:title="Nicolas Malebranche">
<ellipse fill="none" stroke="black" cx="998.29" cy="-18" rx="85.48" ry="18"/>
<text text-anchor="middle" x="998.29" y="-13.8" font-family="Times,serif" font-size="14.00">Nicolas Malebranche</text>
</a>
</g>
</g>
<!-- rene descartes&#45;&gt;Nicolas Malebranche -->
<g id="edge28" class="edge">
<title>rene descartes&#45;&gt;Nicolas Malebranche</title>
<path fill="none" stroke="black" d="M1221.79,-77.6C1177.69,-66.04 1109.07,-48.04 1059.49,-35.05"/>
<polygon fill="black" stroke="black" points="1060.09,-31.58 1049.53,-32.43 1058.31,-38.36 1060.09,-31.58"/>
</g>
<!-- Antoine Arnauld -->
<g id="node30" class="node">
<title>Antoine Arnauld</title>
<g id="a_node30"><a xlink:href="https://en.wikipedia.org/wiki/Antoine_Arnauld" xlink:title="Antoine Arnauld">
<ellipse fill="none" stroke="black" cx="1171.29" cy="-18" rx="69.11" ry="18"/>
<text text-anchor="middle" x="1171.29" y="-13.8" font-family="Times,serif" font-size="14.00">Antoine Arnauld</text>
</a>
</g>
</g>
<!-- rene descartes&#45;&gt;Antoine Arnauld -->
<g id="edge29" class="edge">
<title>rene descartes&#45;&gt;Antoine Arnauld</title>
<path fill="none" stroke="black" d="M1243.96,-73.12C1231.4,-63.76 1215.31,-51.78 1201.46,-41.47"/>
<polygon fill="black" stroke="black" points="1203.29,-38.47 1193.18,-35.31 1199.11,-44.09 1203.29,-38.47"/>
</g>
<!-- Jacques&#45;Bénigne Bossuet -->
<g id="node31" class="node">
<title>Jacques&#45;Bénigne Bossuet</title>
<g id="a_node31"><a xlink:href="https://en.wikipedia.org/wiki/Jacques-B%C3%A9nigne_Bossuet" xlink:title="Jacques&#45;Bénigne Bossuet">
<ellipse fill="none" stroke="black" cx="1359.29" cy="-18" rx="100.49" ry="18"/>
<text text-anchor="middle" x="1359.29" y="-13.8" font-family="Times,serif" font-size="14.00">Jacques&#45;Bénigne Bossuet</text>
</a>
</g>
</g>
<!-- rene descartes&#45;&gt;Jacques&#45;Bénigne Bossuet -->
<g id="edge30" class="edge">
<title>rene descartes&#45;&gt;Jacques&#45;Bénigne Bossuet</title>
<path fill="none" stroke="black" d="M1286.62,-73.12C1299,-63.9 1314.81,-52.12 1328.51,-41.91"/>
<polygon fill="black" stroke="black" points="1330.8,-44.58 1336.73,-35.8 1326.62,-38.96 1330.8,-44.58"/>
</g>
<!-- Blaise Pascal -->
<g id="node32" class="node">
<title>Blaise Pascal</title>
<g id="a_node32"><a xlink:href="https://en.wikipedia.org/wiki/Blaise_Pascal" xlink:title="Blaise Pascal">
<ellipse fill="none" stroke="black" cx="1534.29" cy="-18" rx="57.03" ry="18"/>
<text text-anchor="middle" x="1534.29" y="-13.8" font-family="Times,serif" font-size="14.00">Blaise Pascal</text>
</a>
</g>
</g>
<!-- rene descartes&#45;&gt;Blaise Pascal -->
<g id="edge31" class="edge">
<title>rene descartes&#45;&gt;Blaise Pascal</title>
<path fill="none" stroke="black" d="M1309.1,-77.6C1356.42,-65.29 1431.76,-45.68 1482.1,-32.58"/>
<polygon fill="black" stroke="black" points="1483.02,-35.96 1491.82,-30.05 1481.26,-29.18 1483.02,-35.96"/>
</g>
<!-- Isaac Newton -->
<g id="node33" class="node">
<title>Isaac Newton</title>
<g id="a_node33"><a xlink:href="https://en.wikipedia.org/wiki/Isaac_Newton" xlink:title="Isaac Newton">
<ellipse fill="none" stroke="black" cx="1667.29" cy="-18" rx="58.46" ry="18"/>
<text text-anchor="middle" x="1667.29" y="-13.8" font-family="Times,serif" font-size="14.00">Isaac Newton</text>
</a>
</g>
</g>
<!-- rene descartes&#45;&gt;Isaac Newton -->
<g id="edge32" class="edge">
<title>rene descartes&#45;&gt;Isaac Newton</title>
<path fill="none" stroke="black" d="M1319.23,-82.02C1385.66,-73.06 1501.8,-56.24 1600.29,-36 1604.96,-35.04 1609.8,-33.97 1614.64,-32.84"/>
<polygon fill="black" stroke="black" points="1615.62,-36.2 1624.53,-30.47 1613.99,-29.4 1615.62,-36.2"/>
</g>
<!-- Immanuel Kant -->
<g id="node34" class="node">
<title>Immanuel Kant</title>
<g id="a_node34"><a xlink:href="https://en.wikipedia.org/wiki/Immanuel_Kant" xlink:title="Immanuel Kant">
<ellipse fill="none" stroke="black" cx="1809.29" cy="-18" rx="65.22" ry="18"/>
<text text-anchor="middle" x="1809.29" y="-13.8" font-family="Times,serif" font-size="14.00">Immanuel Kant</text>
</a>
</g>
</g>
<!-- rene descartes&#45;&gt;Immanuel Kant -->
<g id="edge33" class="edge">
<title>rene descartes&#45;&gt;Immanuel Kant</title>
<path fill="none" stroke="black" d="M1322.61,-84.58C1411.27,-77.27 1586.84,-60.96 1734.29,-36 1740.1,-35.01 1746.15,-33.86 1752.17,-32.63"/>
<polygon fill="black" stroke="black" points="1753.18,-36 1762.23,-30.5 1751.73,-29.15 1753.18,-36"/>
</g>
<!-- Edmund Husserl -->
<g id="node35" class="node">
<title>Edmund Husserl</title>
<g id="a_node35"><a xlink:href="https://en.wikipedia.org/wiki/Edmund_Husserl" xlink:title="Edmund Husserl">
<ellipse fill="none" stroke="black" cx="1962.29" cy="-18" rx="69.11" ry="18"/>
<text text-anchor="middle" x="1962.29" y="-13.8" font-family="Times,serif" font-size="14.00">Edmund Husserl</text>
</a>
</g>
</g>
<!-- rene descartes&#45;&gt;Edmund Husserl -->
<g id="edge34" class="edge">
<title>rene descartes&#45;&gt;Edmund Husserl</title>
<path fill="none" stroke="black" d="M1324.37,-86.42C1434.7,-81.06 1679.35,-66.56 1883.29,-36 1889.57,-35.06 1896.1,-33.92 1902.6,-32.68"/>
<polygon fill="black" stroke="black" points="1903.61,-36.05 1912.73,-30.66 1902.24,-29.18 1903.61,-36.05"/>
</g>
<!-- Noam Chomsky -->
<g id="node36" class="node">
<title>Noam Chomsky</title>
<g id="a_node36"><a xlink:href="https://en.wikipedia.org/wiki/Noam_Chomsky" xlink:title="Noam Chomsky">
<ellipse fill="none" stroke="black" cx="2117.29" cy="-18" rx="67.67" ry="18"/>
<text text-anchor="middle" x="2117.29" y="-13.8" font-family="Times,serif" font-size="14.00">Noam Chomsky</text>
</a>
</g>
</g>
<!-- rene descartes&#45;&gt;Noam Chomsky -->
<g id="edge35" class="edge">
<title>rene descartes&#45;&gt;Noam Chomsky</title>
<path fill="none" stroke="black" d="M1324.91,-87.95C1455.3,-84.98 1775.31,-74.09 2040.29,-36 2046.42,-35.12 2052.8,-34.02 2059.13,-32.8"/>
<polygon fill="black" stroke="black" points="2059.91,-36.21 2069.02,-30.81 2058.52,-29.35 2059.91,-36.21"/>
</g>
<!-- Aristotle -->
<g id="node3" class="node">
<title>Aristotle</title>
<g id="a_node3"><a xlink:href="https://en.wikipedia.org/wiki/Aristotle" xlink:title="Aristotle">
<ellipse fill="none" stroke="black" cx="115.29" cy="-162" rx="41.11" ry="18"/>
<text text-anchor="middle" x="115.29" y="-157.8" font-family="Times,serif" font-size="14.00">Aristotle</text>
</a>
</g>
</g>
<!-- Aristotle&#45;&gt;rene descartes -->
<g id="edge2" class="edge">
<title>Aristotle&#45;&gt;rene descartes</title>
<path fill="none" stroke="black" d="M144.8,-149.45C151.44,-147.28 158.53,-145.28 165.29,-144 363.96,-106.21 985.47,-94.69 1195.29,-91.82"/>
<polygon fill="black" stroke="black" points="1195.61,-95.32 1205.56,-91.68 1195.52,-88.32 1195.61,-95.32"/>
</g>
<!-- Archimedes -->
<g id="node4" class="node">
<title>Archimedes</title>
<g id="a_node4"><a xlink:href="https://en.wikipedia.org/wiki/Archimedes" xlink:title="Archimedes">
<ellipse fill="none" stroke="black" cx="227.29" cy="-162" rx="52.67" ry="18"/>
<text text-anchor="middle" x="227.29" y="-157.8" font-family="Times,serif" font-size="14.00">Archimedes</text>
</a>
</g>
</g>
<!-- Archimedes&#45;&gt;rene descartes -->
<g id="edge3" class="edge">
<title>Archimedes&#45;&gt;rene descartes</title>
<path fill="none" stroke="black" d="M264.75,-149.18C272.46,-147.14 280.58,-145.27 288.29,-144 463.25,-115.23 1002.57,-98.14 1195.64,-92.81"/>
<polygon fill="black" stroke="black" points="1195.77,-96.31 1205.67,-92.53 1195.58,-89.31 1195.77,-96.31"/>
</g>
<!-- Alhazen -->
<g id="node5" class="node">
<title>Alhazen</title>
<g id="a_node5"><a xlink:href="https://en.wikipedia.org/wiki/Ibn_al-Haytham" xlink:title="Alhazen">
<ellipse fill="none" stroke="black" cx="337.29" cy="-162" rx="39.64" ry="18"/>
<text text-anchor="middle" x="337.29" y="-157.8" font-family="Times,serif" font-size="14.00">Alhazen</text>
</a>
</g>
</g>
<!-- Alhazen&#45;&gt;rene descartes -->
<g id="edge4" class="edge">
<title>Alhazen&#45;&gt;rene descartes</title>
<path fill="none" stroke="black" d="M366.2,-149.51C372.72,-147.33 379.66,-145.32 386.29,-144 540.8,-113.15 1016.35,-97.62 1195.79,-92.74"/>
<polygon fill="black" stroke="black" points="1195.99,-96.23 1205.9,-92.47 1195.81,-89.24 1195.99,-96.23"/>
</g>
<!-- Al&#45;Ghazali -->
<g id="node6" class="node">
<title>Al&#45;Ghazali</title>
<g id="a_node6"><a xlink:href="https://en.wikipedia.org/wiki/Al-Ghazali" xlink:title="Al&#45;Ghazali">
<ellipse fill="none" stroke="black" cx="444.29" cy="-162" rx="49.29" ry="18"/>
<text text-anchor="middle" x="444.29" y="-157.8" font-family="Times,serif" font-size="14.00">Al&#45;Ghazali</text>
</a>
</g>
</g>
<!-- Al&#45;Ghazali&#45;&gt;rene descartes -->
<g id="edge5" class="edge">
<title>Al&#45;Ghazali&#45;&gt;rene descartes</title>
<path fill="none" stroke="black" d="M479.58,-149.34C487.01,-147.26 494.85,-145.33 502.29,-144 754.51,-98.82 1060.03,-91.64 1195.18,-90.84"/>
<polygon fill="black" stroke="black" points="1195.41,-94.34 1205.39,-90.79 1195.37,-87.34 1195.41,-94.34"/>
</g>
<!-- Averroes -->
<g id="node7" class="node">
<title>Averroes</title>
<g id="a_node7"><a xlink:href="https://en.wikipedia.org/wiki/Averroes" xlink:title="Averroes">
<ellipse fill="none" stroke="black" cx="553.29" cy="-162" rx="41.73" ry="18"/>
<text text-anchor="middle" x="553.29" y="-157.8" font-family="Times,serif" font-size="14.00">Averroes</text>
</a>
</g>
</g>
<!-- Averroes&#45;&gt;rene descartes -->
<g id="edge6" class="edge">
<title>Averroes&#45;&gt;rene descartes</title>
<path fill="none" stroke="black" d="M583.7,-149.53C590.4,-147.38 597.52,-145.38 604.29,-144 816.39,-100.81 1073.49,-92.47 1195.08,-91.09"/>
<polygon fill="black" stroke="black" points="1195.4,-94.59 1205.36,-90.99 1195.33,-87.59 1195.4,-94.59"/>
</g>
<!-- Avicenna -->
<g id="node8" class="node">
<title>Avicenna</title>
<g id="a_node8"><a xlink:href="https://en.wikipedia.org/wiki/Avicenna" xlink:title="Avicenna">
<ellipse fill="none" stroke="black" cx="656.29" cy="-162" rx="43.18" ry="18"/>
<text text-anchor="middle" x="656.29" y="-157.8" font-family="Times,serif" font-size="14.00">Avicenna</text>
</a>
</g>
</g>
<!-- Avicenna&#45;&gt;rene descartes -->
<g id="edge7" class="edge">
<title>Avicenna&#45;&gt;rene descartes</title>
<path fill="none" stroke="black" d="M687.61,-149.53C694.35,-147.4 701.5,-145.41 708.29,-144 881.07,-108 1089.18,-96.4 1195.43,-92.7"/>
<polygon fill="black" stroke="black" points="1195.82,-96.19 1205.7,-92.36 1195.59,-89.2 1195.82,-96.19"/>
</g>
<!-- Anselm -->
<g id="node9" class="node">
<title>Anselm</title>
<g id="a_node9"><a xlink:href="https://en.wikipedia.org/wiki/Anselm_of_Canterbury" xlink:title="Anselm">
<ellipse fill="none" stroke="black" cx="755.29" cy="-162" rx="37.74" ry="18"/>
<text text-anchor="middle" x="755.29" y="-157.8" font-family="Times,serif" font-size="14.00">Anselm</text>
</a>
</g>
</g>
<!-- Anselm&#45;&gt;rene descartes -->
<g id="edge8" class="edge">
<title>Anselm&#45;&gt;rene descartes</title>
<path fill="none" stroke="black" d="M782.68,-149.65C788.73,-147.5 795.16,-145.46 801.29,-144 938.94,-111.21 1104.55,-98.49 1196.03,-93.72"/>
<polygon fill="black" stroke="black" points="1196.46,-97.21 1206.27,-93.21 1196.11,-90.22 1196.46,-97.21"/>
</g>
<!-- Elisabeth of the Palatinate -->
<g id="node10" class="node">
<title>Elisabeth of the Palatinate</title>
<g id="a_node10"><a xlink:href="https://en.wikipedia.org/wiki/Elisabeth_of_the_Palatinate" xlink:title="Elisabeth of the Palatinate">
<ellipse fill="none" stroke="black" cx="913.29" cy="-162" rx="102.87" ry="18"/>
<text text-anchor="middle" x="913.29" y="-157.8" font-family="Times,serif" font-size="14.00">Elisabeth of the Palatinate</text>
</a>
</g>
</g>
<!-- Elisabeth of the Palatinate&#45;&gt;rene descartes -->
<g id="edge9" class="edge">
<title>Elisabeth of the Palatinate&#45;&gt;rene descartes</title>
<path fill="none" stroke="black" d="M978.67,-148C1044.02,-135 1143.59,-115.2 1206.51,-102.69"/>
<polygon fill="black" stroke="black" points="1207.54,-106.05 1216.67,-100.67 1206.18,-99.19 1207.54,-106.05"/>
</g>
<!-- Augustine -->
<g id="node11" class="node">
<title>Augustine</title>
<g id="a_node11"><a xlink:href="https://en.wikipedia.org/wiki/Augustine_of_Hippo" xlink:title="Augustine">
<ellipse fill="none" stroke="black" cx="1080.29" cy="-162" rx="46.42" ry="18"/>
<text text-anchor="middle" x="1080.29" y="-157.8" font-family="Times,serif" font-size="14.00">Augustine</text>
</a>
</g>
</g>
<!-- Augustine&#45;&gt;rene descartes -->
<g id="edge10" class="edge">
<title>Augustine&#45;&gt;rene descartes</title>
<path fill="none" stroke="black" d="M1112.51,-148.81C1142.28,-137.54 1186.82,-120.69 1220.13,-108.09"/>
<polygon fill="black" stroke="black" points="1221.53,-111.3 1229.64,-104.49 1219.05,-104.75 1221.53,-111.3"/>
</g>
<!-- Stoics -->
<g id="node12" class="node">
<title>Stoics</title>
<g id="a_node12"><a xlink:href="https://en.wikipedia.org/wiki/Stoics" xlink:title="Stoics">
<ellipse fill="none" stroke="black" cx="1176.29" cy="-162" rx="31.96" ry="18"/>
<text text-anchor="middle" x="1176.29" y="-157.8" font-family="Times,serif" font-size="14.00">Stoics</text>
</a>
</g>
</g>
<!-- Stoics&#45;&gt;rene descartes -->
<g id="edge11" class="edge">
<title>Stoics&#45;&gt;rene descartes</title>
<path fill="none" stroke="black" d="M1194.3,-146.83C1206.52,-137.22 1222.95,-124.3 1236.92,-113.31"/>
<polygon fill="black" stroke="black" points="1239.12,-116.04 1244.81,-107.1 1234.79,-110.53 1239.12,-116.04"/>
</g>
<!-- Aquinas -->
<g id="node13" class="node">
<title>Aquinas</title>
<g id="a_node13"><a xlink:href="https://en.wikipedia.org/wiki/Thomas_Aquinas" xlink:title="Aquinas">
<ellipse fill="none" stroke="black" cx="1265.29" cy="-162" rx="39.66" ry="18"/>
<text text-anchor="middle" x="1265.29" y="-157.8" font-family="Times,serif" font-size="14.00">Aquinas</text>
</a>
</g>
</g>
<!-- Aquinas&#45;&gt;rene descartes -->
<g id="edge12" class="edge">
<title>Aquinas&#45;&gt;rene descartes</title>
<path fill="none" stroke="black" d="M1265.29,-143.7C1265.29,-135.98 1265.29,-126.71 1265.29,-118.11"/>
<polygon fill="black" stroke="black" points="1268.79,-118.1 1265.29,-108.1 1261.79,-118.1 1268.79,-118.1"/>
</g>
<!-- Ockham -->
<g id="node14" class="node">
<title>Ockham</title>
<g id="a_node14"><a xlink:href="https://en.wikipedia.org/wiki/William_of_Ockham" xlink:title="Ockham">
<ellipse fill="none" stroke="black" cx="1363.29" cy="-162" rx="40.13" ry="18"/>
<text text-anchor="middle" x="1363.29" y="-157.8" font-family="Times,serif" font-size="14.00">Ockham</text>
</a>
</g>
</g>
<!-- Ockham&#45;&gt;rene descartes -->
<g id="edge13" class="edge">
<title>Ockham&#45;&gt;rene descartes</title>
<path fill="none" stroke="black" d="M1342.5,-146.15C1328.98,-136.49 1311.1,-123.72 1295.95,-112.9"/>
<polygon fill="black" stroke="black" points="1297.57,-109.76 1287.4,-106.8 1293.5,-115.46 1297.57,-109.76"/>
</g>
<!-- Suárez -->
<g id="node15" class="node">
<title>Suárez</title>
<g id="a_node15"><a xlink:href="https://en.wikipedia.org/wiki/Francisco_Su%C3%A1rez" xlink:title="Suárez">
<ellipse fill="none" stroke="black" cx="1455.29" cy="-162" rx="34.34" ry="18"/>
<text text-anchor="middle" x="1455.29" y="-157.8" font-family="Times,serif" font-size="14.00">Suárez</text>
</a>
</g>
</g>
<!-- Suárez&#45;&gt;rene descartes -->
<g id="edge14" class="edge">
<title>Suárez&#45;&gt;rene descartes</title>
<path fill="none" stroke="black" d="M1428.96,-150.44C1423.46,-148.28 1417.69,-146.04 1412.29,-144 1379,-131.42 1341.23,-117.82 1312.31,-107.54"/>
<polygon fill="black" stroke="black" points="1313.46,-104.24 1302.86,-104.19 1311.12,-110.83 1313.46,-104.24"/>
</g>
<!-- Mersenne -->
<g id="node16" class="node">
<title>Mersenne</title>
<g id="a_node16"><a xlink:href="https://en.wikipedia.org/wiki/Marin_Mersenne" xlink:title="Mersenne">
<ellipse fill="none" stroke="black" cx="1552.29" cy="-162" rx="44.95" ry="18"/>
<text text-anchor="middle" x="1552.29" y="-157.8" font-family="Times,serif" font-size="14.00">Mersenne</text>
</a>
</g>
</g>
<!-- Mersenne&#45;&gt;rene descartes -->
<g id="edge15" class="edge">
<title>Mersenne&#45;&gt;rene descartes</title>
<path fill="none" stroke="black" d="M1518.71,-149.96C1511.97,-147.88 1504.93,-145.8 1498.29,-144 1439.34,-128.05 1371.15,-112.92 1323.83,-102.94"/>
<polygon fill="black" stroke="black" points="1324.27,-99.45 1313.76,-100.83 1322.83,-106.3 1324.27,-99.45"/>
</g>
<!-- Sextus Empiricus -->
<g id="node17" class="node">
<title>Sextus Empiricus</title>
<g id="a_node17"><a xlink:href="https://en.wikipedia.org/wiki/Sextus_Empiricus" xlink:title="Sextus Empiricus">
<ellipse fill="none" stroke="black" cx="1687.29" cy="-162" rx="72.01" ry="18"/>
<text text-anchor="middle" x="1687.29" y="-157.8" font-family="Times,serif" font-size="14.00">Sextus Empiricus</text>
</a>
</g>
</g>
<!-- Sextus Empiricus&#45;&gt;rene descartes -->
<g id="edge16" class="edge">
<title>Sextus Empiricus&#45;&gt;rene descartes</title>
<path fill="none" stroke="black" d="M1634.64,-149.53C1625.22,-147.6 1615.47,-145.68 1606.29,-144 1509.86,-126.4 1397.41,-109.65 1328.8,-99.85"/>
<polygon fill="black" stroke="black" points="1328.98,-96.34 1318.59,-98.4 1328,-103.27 1328.98,-96.34"/>
</g>
<!-- Montaigne -->
<g id="node18" class="node">
<title>Montaigne</title>
<g id="a_node18"><a xlink:href="https://en.wikipedia.org/wiki/Michel_de_Montaigne" xlink:title="Montaigne">
<ellipse fill="none" stroke="black" cx="1826.29" cy="-162" rx="48.34" ry="18"/>
<text text-anchor="middle" x="1826.29" y="-157.8" font-family="Times,serif" font-size="14.00">Montaigne</text>
</a>
</g>
</g>
<!-- Montaigne&#45;&gt;rene descartes -->
<g id="edge17" class="edge">
<title>Montaigne&#45;&gt;rene descartes</title>
<path fill="none" stroke="black" d="M1790.96,-149.55C1783.53,-147.45 1775.7,-145.46 1768.29,-144 1614.99,-113.71 1431.76,-99.92 1334.29,-94.33"/>
<polygon fill="black" stroke="black" points="1334.45,-90.83 1324.27,-93.77 1334.06,-97.82 1334.45,-90.83"/>
</g>
<!-- Jacobus Golius -->
<g id="node19" class="node">
<title>Jacobus Golius</title>
<g id="a_node19"><a xlink:href="https://en.wikipedia.org/wiki/Jacobus_Golius" xlink:title="Jacobus Golius">
<ellipse fill="none" stroke="black" cx="1956.29" cy="-162" rx="63.8" ry="18"/>
<text text-anchor="middle" x="1956.29" y="-157.8" font-family="Times,serif" font-size="14.00">Jacobus Golius</text>
</a>
</g>
</g>
<!-- Jacobus Golius&#45;&gt;rene descartes -->
<g id="edge18" class="edge">
<title>Jacobus Golius&#45;&gt;rene descartes</title>
<path fill="none" stroke="black" d="M1910.53,-149.29C1901.54,-147.29 1892.15,-145.41 1883.29,-144 1685.58,-112.67 1449.14,-98.89 1334.47,-93.7"/>
<polygon fill="black" stroke="black" points="1334.57,-90.2 1324.42,-93.25 1334.26,-97.19 1334.57,-90.2"/>
</g>
<!-- Beeckman -->
<g id="node20" class="node">
<title>Beeckman</title>
<g id="a_node20"><a xlink:href="https://en.wikipedia.org/wiki/Isaac_Beeckman" xlink:title="Beeckman">
<ellipse fill="none" stroke="black" cx="2085.29" cy="-162" rx="47.36" ry="18"/>
<text text-anchor="middle" x="2085.29" y="-157.8" font-family="Times,serif" font-size="14.00">Beeckman</text>
</a>
</g>
</g>
<!-- Beeckman&#45;&gt;rene descartes -->
<g id="edge19" class="edge">
<title>Beeckman&#45;&gt;rene descartes</title>
<path fill="none" stroke="black" d="M2051.23,-149.33C2044.06,-147.25 2036.48,-145.32 2029.29,-144 1776.95,-97.56 1470.92,-91.02 1335.53,-90.61"/>
<polygon fill="black" stroke="black" points="1335.3,-87.11 1325.3,-90.59 1335.29,-94.11 1335.3,-87.11"/>
</g>
<!-- Harvey -->
<g id="node21" class="node">
<title>Harvey</title>
<g id="a_node21"><a xlink:href="https://en.wikipedia.org/wiki/William_Harvey" xlink:title="Harvey">
<ellipse fill="none" stroke="black" cx="2187.29" cy="-162" rx="36.26" ry="18"/>
<text text-anchor="middle" x="2187.29" y="-157.8" font-family="Times,serif" font-size="14.00">Harvey</text>
</a>
</g>
</g>
<!-- Harvey&#45;&gt;rene descartes -->
<g id="edge20" class="edge">
<title>Harvey&#45;&gt;rene descartes</title>
<path fill="none" stroke="black" d="M2160.43,-149.58C2154.24,-147.37 2147.62,-145.33 2141.29,-144 1987.71,-111.71 1514.06,-97.07 1334.91,-92.58"/>
<polygon fill="black" stroke="black" points="1334.89,-89.08 1324.81,-92.33 1334.72,-96.08 1334.89,-89.08"/>
</g>
<!-- Viète -->
<g id="node22" class="node">
<title>Viète</title>
<g id="a_node22"><a xlink:href="https://en.wikipedia.org/wiki/Fran%C3%A7ois_Vi%C3%A8te" xlink:title="Viète">
<ellipse fill="none" stroke="black" cx="2270.29" cy="-162" rx="28.96" ry="18"/>
<text text-anchor="middle" x="2270.29" y="-157.8" font-family="Times,serif" font-size="14.00">Viète</text>
</a>
</g>
</g>
<!-- Viète&#45;&gt;rene descartes -->
<g id="edge21" class="edge">
<title>Viète&#45;&gt;rene descartes</title>
<path fill="none" stroke="black" d="M2248.67,-149.7C2243.43,-147.42 2237.76,-145.33 2232.29,-144 2062,-102.74 1528.06,-93.53 1335.45,-91.54"/>
<polygon fill="black" stroke="black" points="1335.2,-88.03 1325.17,-91.43 1335.13,-95.03 1335.2,-88.03"/>
</g>
<!-- Duns Scotus -->
<g id="node23" class="node">
<title>Duns Scotus</title>
<g id="a_node23"><a xlink:href="https://en.wikipedia.org/wiki/Duns_Scotus" xlink:title="Duns Scotus">
<ellipse fill="none" stroke="black" cx="2371.29" cy="-162" rx="54.65" ry="18"/>
<text text-anchor="middle" x="2371.29" y="-157.8" font-family="Times,serif" font-size="14.00">Duns Scotus</text>
</a>
</g>
</g>
<!-- Duns Scotus&#45;&gt;rene descartes -->
<g id="edge22" class="edge">
<title>Duns Scotus&#45;&gt;rene descartes</title>
<path fill="none" stroke="black" d="M2332.58,-149.17C2324.61,-147.13 2316.23,-145.26 2308.29,-144 2119.95,-114.15 1536.97,-97.57 1335.01,-92.61"/>
<polygon fill="black" stroke="black" points="1334.91,-89.1 1324.82,-92.36 1334.74,-96.1 1334.91,-89.1"/>
</g>
<!-- Teresa of Ávila -->
<g id="node24" class="node">
<title>Teresa of Ávila</title>
<g id="a_node24"><a xlink:href="https://en.wikipedia.org/wiki/Teresa_of_%C3%81vila" xlink:title="Teresa of Ávila">
<ellipse fill="none" stroke="black" cx="2508.29" cy="-162" rx="64.48" ry="18"/>
<text text-anchor="middle" x="2508.29" y="-157.8" font-family="Times,serif" font-size="14.00">Teresa of Ávila</text>
</a>
</g>
</g>
<!-- Teresa of Ávila&#45;&gt;rene descartes -->
<g id="edge23" class="edge">
<title>Teresa of Ávila&#45;&gt;rene descartes</title>
<path fill="none" stroke="black" d="M2462.97,-149.09C2453.86,-147.08 2444.31,-145.24 2435.29,-144 2220.77,-114.42 1553.29,-97.37 1335.09,-92.48"/>
<polygon fill="black" stroke="black" points="1335.11,-88.98 1325.04,-92.26 1334.96,-95.98 1335.11,-88.98"/>
</g>
</g>
</svg>
