<?xml version="1.0" encoding="UTF-8" standalone="no"?>
<!DOCTYPE svg PUBLIC "-//W3C//DTD SVG 1.1//EN"
 "http://www.w3.org/Graphics/SVG/1.1/DTD/svg11.dtd">
<!-- Generated by graphviz version 2.42.3 (20191010.1750)
 -->
<!-- Title: G Pages: 1 -->
<svg width="3223pt" height="188pt"
 viewBox="0.00 0.00 3222.51 188.00" xmlns="http://www.w3.org/2000/svg" xmlns:xlink="http://www.w3.org/1999/xlink">
<g id="graph0" class="graph" transform="scale(1 1) rotate(0) translate(4 184)">
<title>G</title>
<polygon fill="white" stroke="transparent" points="-4,4 -4,-184 3218.51,-184 3218.51,4 -4,4"/>
<!-- Plato -->
<g id="node1" class="node">
<title>Plato</title>
<ellipse fill="none" stroke="black" cx="1188.3" cy="-162" rx="28.07" ry="18"/>
<text text-anchor="middle" x="1188.3" y="-157.8" font-family="Times,serif" font-size="14.00">Plato</text>
</g>
<!-- rousseau -->
<g id="node2" class="node">
<title>rousseau</title>
<ellipse fill="none" stroke="black" cx="1729.3" cy="-90" rx="41.1" ry="18"/>
<text text-anchor="middle" x="1729.3" y="-85.8" font-family="Times,serif" font-size="14.00">rousseau</text>
</g>
<!-- Plato&#45;&gt;rousseau -->
<g id="edge1" class="edge">
<title>Plato&#45;&gt;rousseau</title>
<path fill="none" stroke="black" d="M1209.37,-149.89C1214.47,-147.61 1219.98,-145.46 1225.3,-144 1386.24,-99.85 1585.39,-92.03 1677.76,-90.94"/>
<polygon fill="black" stroke="black" points="1677.99,-94.44 1687.96,-90.84 1677.93,-87.44 1677.99,-94.44"/>
</g>
<!-- Kant -->
<g id="node14" class="node">
<title>Kant</title>
<ellipse fill="none" stroke="black" cx="27.3" cy="-18" rx="27.1" ry="18"/>
<text text-anchor="middle" x="27.3" y="-13.8" font-family="Times,serif" font-size="14.00">Kant</text>
</g>
<!-- rousseau&#45;&gt;Kant -->
<g id="edge13" class="edge">
<title>rousseau&#45;&gt;Kant</title>
<path fill="none" stroke="black" d="M1688.22,-88.69C1447.55,-86.76 225.5,-75.09 63.3,-36 61.33,-35.53 59.35,-34.94 57.37,-34.27"/>
<polygon fill="black" stroke="black" points="58.29,-30.87 47.71,-30.4 55.68,-37.37 58.29,-30.87"/>
</g>
<!-- French Revolution -->
<g id="node15" class="node">
<title>French Revolution</title>
<ellipse fill="none" stroke="black" cx="148.3" cy="-18" rx="76.36" ry="18"/>
<text text-anchor="middle" x="148.3" y="-13.8" font-family="Times,serif" font-size="14.00">French Revolution</text>
</g>
<!-- rousseau&#45;&gt;French Revolution -->
<g id="edge14" class="edge">
<title>rousseau&#45;&gt;French Revolution</title>
<path fill="none" stroke="black" d="M1688.06,-88.43C1478.2,-85.39 527.44,-69.95 234.3,-36 226.94,-35.15 219.27,-34.01 211.67,-32.71"/>
<polygon fill="black" stroke="black" points="212.22,-29.26 201.76,-30.94 210.99,-36.15 212.22,-29.26"/>
</g>
<!-- American Revolution -->
<g id="node16" class="node">
<title>American Revolution</title>
<ellipse fill="none" stroke="black" cx="329.3" cy="-18" rx="86.47" ry="18"/>
<text text-anchor="middle" x="329.3" y="-13.8" font-family="Times,serif" font-size="14.00">American Revolution</text>
</g>
<!-- rousseau&#45;&gt;American Revolution -->
<g id="edge15" class="edge">
<title>rousseau&#45;&gt;American Revolution</title>
<path fill="none" stroke="black" d="M1688,-89.37C1526.16,-90.38 919.63,-90.12 424.3,-36 416.1,-35.1 407.54,-33.92 399.06,-32.6"/>
<polygon fill="black" stroke="black" points="399.6,-29.14 389.17,-30.99 398.48,-36.05 399.6,-29.14"/>
</g>
<!-- Robespierre -->
<g id="node17" class="node">
<title>Robespierre</title>
<ellipse fill="none" stroke="black" cx="486.3" cy="-18" rx="52.67" ry="18"/>
<text text-anchor="middle" x="486.3" y="-13.8" font-family="Times,serif" font-size="14.00">Robespierre</text>
</g>
<!-- rousseau&#45;&gt;Robespierre -->
<g id="edge16" class="edge">
<title>rousseau&#45;&gt;Robespierre</title>
<path fill="none" stroke="black" d="M1688.29,-88.38C1506.81,-85.47 774.99,-71.71 548.3,-36 543.58,-35.26 538.72,-34.29 533.88,-33.19"/>
<polygon fill="black" stroke="black" points="534.59,-29.76 524.04,-30.78 532.92,-36.56 534.59,-29.76"/>
</g>
<!-- Saint&#45;Just -->
<g id="node18" class="node">
<title>Saint&#45;Just</title>
<ellipse fill="none" stroke="black" cx="602.3" cy="-18" rx="44.99" ry="18"/>
<text text-anchor="middle" x="602.3" y="-13.8" font-family="Times,serif" font-size="14.00">Saint&#45;Just</text>
</g>
<!-- rousseau&#45;&gt;Saint&#45;Just -->
<g id="edge17" class="edge">
<title>rousseau&#45;&gt;Saint&#45;Just</title>
<path fill="none" stroke="black" d="M1688.33,-88.37C1517.34,-85.55 860.08,-72.49 656.3,-36 652.38,-35.3 648.36,-34.39 644.35,-33.37"/>
<polygon fill="black" stroke="black" points="645.09,-29.94 634.51,-30.62 643.2,-36.68 645.09,-29.94"/>
</g>
<!-- Counter&#45;Enlightenment -->
<g id="node19" class="node">
<title>Counter&#45;Enlightenment</title>
<ellipse fill="none" stroke="black" cx="758.3" cy="-18" rx="93.38" ry="18"/>
<text text-anchor="middle" x="758.3" y="-13.8" font-family="Times,serif" font-size="14.00">Counter&#45;Enlightenment</text>
</g>
<!-- rousseau&#45;&gt;Counter&#45;Enlightenment -->
<g id="edge18" class="edge">
<title>rousseau&#45;&gt;Counter&#45;Enlightenment</title>
<path fill="none" stroke="black" d="M1688.5,-88C1564.07,-84.61 1178.6,-71.78 861.3,-36 852.37,-34.99 843.04,-33.74 833.79,-32.37"/>
<polygon fill="black" stroke="black" points="834.23,-28.9 823.82,-30.85 833.17,-35.82 834.23,-28.9"/>
</g>
<!-- Romanticism -->
<g id="node20" class="node">
<title>Romanticism</title>
<ellipse fill="none" stroke="black" cx="927.3" cy="-18" rx="57.04" ry="18"/>
<text text-anchor="middle" x="927.3" y="-13.8" font-family="Times,serif" font-size="14.00">Romanticism</text>
</g>
<!-- rousseau&#45;&gt;Romanticism -->
<g id="edge19" class="edge">
<title>rousseau&#45;&gt;Romanticism</title>
<path fill="none" stroke="black" d="M1688.3,-88.63C1576.24,-87.07 1255.64,-78.87 993.3,-36 988.32,-35.19 983.16,-34.17 978.03,-33.05"/>
<polygon fill="black" stroke="black" points="978.78,-29.63 968.25,-30.77 977.19,-36.44 978.78,-29.63"/>
</g>
<!-- Hume -->
<g id="node21" class="node">
<title>Hume</title>
<ellipse fill="none" stroke="black" cx="1034.3" cy="-18" rx="31.94" ry="18"/>
<text text-anchor="middle" x="1034.3" y="-13.8" font-family="Times,serif" font-size="14.00">Hume</text>
</g>
<!-- rousseau&#45;&gt;Hume -->
<g id="edge20" class="edge">
<title>rousseau&#45;&gt;Hume</title>
<path fill="none" stroke="black" d="M1688.31,-87.4C1563.86,-82.28 1191.73,-64.9 1074.3,-36 1071.95,-35.42 1069.56,-34.72 1067.18,-33.94"/>
<polygon fill="black" stroke="black" points="1068.15,-30.57 1057.56,-30.36 1065.71,-37.13 1068.15,-30.57"/>
</g>
<!-- Paine -->
<g id="node22" class="node">
<title>Paine</title>
<ellipse fill="none" stroke="black" cx="1113.3" cy="-18" rx="29.51" ry="18"/>
<text text-anchor="middle" x="1113.3" y="-13.8" font-family="Times,serif" font-size="14.00">Paine</text>
</g>
<!-- rousseau&#45;&gt;Paine -->
<g id="edge21" class="edge">
<title>rousseau&#45;&gt;Paine</title>
<path fill="none" stroke="black" d="M1687.96,-89.68C1592.15,-90.28 1348.14,-86.28 1152.3,-36 1149.86,-35.37 1147.37,-34.61 1144.9,-33.76"/>
<polygon fill="black" stroke="black" points="1146.14,-30.49 1135.55,-30.15 1143.62,-37.02 1146.14,-30.49"/>
</g>
<!-- Smith -->
<g id="node23" class="node">
<title>Smith</title>
<ellipse fill="none" stroke="black" cx="1192.3" cy="-18" rx="31.48" ry="18"/>
<text text-anchor="middle" x="1192.3" y="-13.8" font-family="Times,serif" font-size="14.00">Smith</text>
</g>
<!-- rousseau&#45;&gt;Smith -->
<g id="edge22" class="edge">
<title>rousseau&#45;&gt;Smith</title>
<path fill="none" stroke="black" d="M1688.31,-88.69C1602.35,-87.17 1397.54,-78.91 1232.3,-36 1229.96,-35.39 1227.57,-34.67 1225.2,-33.87"/>
<polygon fill="black" stroke="black" points="1226.17,-30.5 1215.58,-30.26 1223.71,-37.05 1226.17,-30.5"/>
</g>
<!-- Wollstonecraft -->
<g id="node24" class="node">
<title>Wollstonecraft</title>
<ellipse fill="none" stroke="black" cx="1303.3" cy="-18" rx="61.9" ry="18"/>
<text text-anchor="middle" x="1303.3" y="-13.8" font-family="Times,serif" font-size="14.00">Wollstonecraft</text>
</g>
<!-- rousseau&#45;&gt;Wollstonecraft -->
<g id="edge23" class="edge">
<title>rousseau&#45;&gt;Wollstonecraft</title>
<path fill="none" stroke="black" d="M1690.24,-84.3C1624.66,-76.15 1488.39,-58.13 1374.3,-36 1369.22,-35.01 1363.95,-33.91 1358.69,-32.75"/>
<polygon fill="black" stroke="black" points="1359.15,-29.27 1348.62,-30.47 1357.6,-36.09 1359.15,-29.27"/>
</g>
<!-- Hegel -->
<g id="node25" class="node">
<title>Hegel</title>
<ellipse fill="none" stroke="black" cx="1414.3" cy="-18" rx="31.45" ry="18"/>
<text text-anchor="middle" x="1414.3" y="-13.8" font-family="Times,serif" font-size="14.00">Hegel</text>
</g>
<!-- rousseau&#45;&gt;Hegel -->
<g id="edge24" class="edge">
<title>rousseau&#45;&gt;Hegel</title>
<path fill="none" stroke="black" d="M1690.41,-84.15C1636.56,-76.84 1536.61,-61.11 1454.3,-36 1452.04,-35.31 1449.75,-34.54 1447.45,-33.71"/>
<polygon fill="black" stroke="black" points="1448.69,-30.44 1438.1,-30.09 1446.16,-36.97 1448.69,-30.44"/>
</g>
<!-- Proudhon -->
<g id="node26" class="node">
<title>Proudhon</title>
<ellipse fill="none" stroke="black" cx="1508.3" cy="-18" rx="44.5" ry="18"/>
<text text-anchor="middle" x="1508.3" y="-13.8" font-family="Times,serif" font-size="14.00">Proudhon</text>
</g>
<!-- rousseau&#45;&gt;Proudhon -->
<g id="edge25" class="edge">
<title>rousseau&#45;&gt;Proudhon</title>
<path fill="none" stroke="black" d="M1696.69,-78.67C1658.26,-66.5 1594.25,-46.23 1551.67,-32.74"/>
<polygon fill="black" stroke="black" points="1552.72,-29.4 1542.13,-29.72 1550.61,-36.07 1552.72,-29.4"/>
</g>
<!-- Marx -->
<g id="node27" class="node">
<title>Marx</title>
<ellipse fill="none" stroke="black" cx="1600.3" cy="-18" rx="29.03" ry="18"/>
<text text-anchor="middle" x="1600.3" y="-13.8" font-family="Times,serif" font-size="14.00">Marx</text>
</g>
<!-- rousseau&#45;&gt;Marx -->
<g id="edge26" class="edge">
<title>rousseau&#45;&gt;Marx</title>
<path fill="none" stroke="black" d="M1704.42,-75.5C1683.32,-64.05 1652.97,-47.58 1630.48,-35.38"/>
<polygon fill="black" stroke="black" points="1632.13,-32.29 1621.67,-30.6 1628.79,-38.44 1632.13,-32.29"/>
</g>
<!-- Engels -->
<g id="node28" class="node">
<title>Engels</title>
<ellipse fill="none" stroke="black" cx="1681.3" cy="-18" rx="34.35" ry="18"/>
<text text-anchor="middle" x="1681.3" y="-13.8" font-family="Times,serif" font-size="14.00">Engels</text>
</g>
<!-- rousseau&#45;&gt;Engels -->
<g id="edge27" class="edge">
<title>rousseau&#45;&gt;Engels</title>
<path fill="none" stroke="black" d="M1717.92,-72.41C1712.06,-63.87 1704.8,-53.28 1698.29,-43.79"/>
<polygon fill="black" stroke="black" points="1701.13,-41.74 1692.59,-35.47 1695.36,-45.7 1701.13,-41.74"/>
</g>
<!-- Nietzsche -->
<g id="node29" class="node">
<title>Nietzsche</title>
<ellipse fill="none" stroke="black" cx="1778.3" cy="-18" rx="44.94" ry="18"/>
<text text-anchor="middle" x="1778.3" y="-13.8" font-family="Times,serif" font-size="14.00">Nietzsche</text>
</g>
<!-- rousseau&#45;&gt;Nietzsche -->
<g id="edge28" class="edge">
<title>rousseau&#45;&gt;Nietzsche</title>
<path fill="none" stroke="black" d="M1740.91,-72.41C1746.89,-63.87 1754.3,-53.28 1760.95,-43.79"/>
<polygon fill="black" stroke="black" points="1763.9,-45.67 1766.77,-35.47 1758.17,-41.66 1763.9,-45.67"/>
</g>
<!-- Darwin -->
<g id="node30" class="node">
<title>Darwin</title>
<ellipse fill="none" stroke="black" cx="1878.3" cy="-18" rx="36.76" ry="18"/>
<text text-anchor="middle" x="1878.3" y="-13.8" font-family="Times,serif" font-size="14.00">Darwin</text>
</g>
<!-- rousseau&#45;&gt;Darwin -->
<g id="edge29" class="edge">
<title>rousseau&#45;&gt;Darwin</title>
<path fill="none" stroke="black" d="M1756.28,-76.32C1780.63,-64.88 1816.6,-47.99 1843.18,-35.5"/>
<polygon fill="black" stroke="black" points="1844.95,-38.53 1852.51,-31.11 1841.97,-32.2 1844.95,-38.53"/>
</g>
<!-- Freud -->
<g id="node31" class="node">
<title>Freud</title>
<ellipse fill="none" stroke="black" cx="1963.3" cy="-18" rx="30.98" ry="18"/>
<text text-anchor="middle" x="1963.3" y="-13.8" font-family="Times,serif" font-size="14.00">Freud</text>
</g>
<!-- rousseau&#45;&gt;Freud -->
<g id="edge30" class="edge">
<title>rousseau&#45;&gt;Freud</title>
<path fill="none" stroke="black" d="M1765,-80.95C1804.47,-71.67 1869.69,-55.21 1924.3,-36 1926.39,-35.26 1928.53,-34.47 1930.68,-33.63"/>
<polygon fill="black" stroke="black" points="1932.08,-36.84 1940.01,-29.81 1929.43,-30.36 1932.08,-36.84"/>
</g>
<!-- Derrida -->
<g id="node32" class="node">
<title>Derrida</title>
<ellipse fill="none" stroke="black" cx="2049.3" cy="-18" rx="37.22" ry="18"/>
<text text-anchor="middle" x="2049.3" y="-13.8" font-family="Times,serif" font-size="14.00">Derrida</text>
</g>
<!-- rousseau&#45;&gt;Derrida -->
<g id="edge31" class="edge">
<title>rousseau&#45;&gt;Derrida</title>
<path fill="none" stroke="black" d="M1767.88,-83.57C1821.34,-75.58 1920.7,-59.08 2003.3,-36 2006.06,-35.23 2008.9,-34.36 2011.74,-33.44"/>
<polygon fill="black" stroke="black" points="2012.99,-36.72 2021.32,-30.16 2010.72,-30.09 2012.99,-36.72"/>
</g>
<!-- de Sade -->
<g id="node33" class="node">
<title>de Sade</title>
<ellipse fill="none" stroke="black" cx="2142.3" cy="-18" rx="37.71" ry="18"/>
<text text-anchor="middle" x="2142.3" y="-13.8" font-family="Times,serif" font-size="14.00">de Sade</text>
</g>
<!-- rousseau&#45;&gt;de Sade -->
<g id="edge32" class="edge">
<title>rousseau&#45;&gt;de Sade</title>
<path fill="none" stroke="black" d="M1769.35,-85.88C1837.22,-80.01 1978.83,-65.17 2095.3,-36 2098.31,-35.24 2101.41,-34.37 2104.5,-33.42"/>
<polygon fill="black" stroke="black" points="2105.86,-36.65 2114.25,-30.19 2103.66,-30.01 2105.86,-36.65"/>
</g>
<!-- Strauss -->
<g id="node34" class="node">
<title>Strauss</title>
<ellipse fill="none" stroke="black" cx="2234.3" cy="-18" rx="35.81" ry="18"/>
<text text-anchor="middle" x="2234.3" y="-13.8" font-family="Times,serif" font-size="14.00">Strauss</text>
</g>
<!-- rousseau&#45;&gt;Strauss -->
<g id="edge33" class="edge">
<title>rousseau&#45;&gt;Strauss</title>
<path fill="none" stroke="black" d="M1770.19,-87.66C1851.24,-84.27 2037.54,-72.81 2189.3,-36 2192.28,-35.28 2195.34,-34.41 2198.39,-33.45"/>
<polygon fill="black" stroke="black" points="2199.66,-36.72 2207.99,-30.18 2197.39,-30.09 2199.66,-36.72"/>
</g>
<!-- Montessori -->
<g id="node35" class="node">
<title>Montessori</title>
<ellipse fill="none" stroke="black" cx="2338.3" cy="-18" rx="49.81" ry="18"/>
<text text-anchor="middle" x="2338.3" y="-13.8" font-family="Times,serif" font-size="14.00">Montessori</text>
</g>
<!-- rousseau&#45;&gt;Montessori -->
<g id="edge34" class="edge">
<title>rousseau&#45;&gt;Montessori</title>
<path fill="none" stroke="black" d="M1770.03,-87.64C1861.72,-84.03 2091.07,-71.87 2279.3,-36 2283.66,-35.17 2288.16,-34.16 2292.64,-33.05"/>
<polygon fill="black" stroke="black" points="2293.58,-36.42 2302.36,-30.5 2291.8,-29.65 2293.58,-36.42"/>
</g>
<!-- Goethe -->
<g id="node36" class="node">
<title>Goethe</title>
<ellipse fill="none" stroke="black" cx="2442.3" cy="-18" rx="35.79" ry="18"/>
<text text-anchor="middle" x="2442.3" y="-13.8" font-family="Times,serif" font-size="14.00">Goethe</text>
</g>
<!-- rousseau&#45;&gt;Goethe -->
<g id="edge35" class="edge">
<title>rousseau&#45;&gt;Goethe</title>
<path fill="none" stroke="black" d="M1770.56,-89.73C1876.21,-90.74 2164.57,-88.09 2397.3,-36 2400.3,-35.33 2403.37,-34.5 2406.42,-33.57"/>
<polygon fill="black" stroke="black" points="2407.66,-36.84 2416.03,-30.34 2405.43,-30.21 2407.66,-36.84"/>
</g>
<!-- Tolstoy -->
<g id="node37" class="node">
<title>Tolstoy</title>
<ellipse fill="none" stroke="black" cx="2532.3" cy="-18" rx="36.52" ry="18"/>
<text text-anchor="middle" x="2532.3" y="-13.8" font-family="Times,serif" font-size="14.00">Tolstoy</text>
</g>
<!-- rousseau&#45;&gt;Tolstoy -->
<g id="edge36" class="edge">
<title>rousseau&#45;&gt;Tolstoy</title>
<path fill="none" stroke="black" d="M1770.26,-87.71C1907.25,-83.14 2348.6,-66.36 2487.3,-36 2490.13,-35.38 2493.02,-34.62 2495.9,-33.76"/>
<polygon fill="black" stroke="black" points="2497.17,-37.03 2505.56,-30.56 2494.96,-30.38 2497.17,-37.03"/>
</g>
<!-- Dewey -->
<g id="node38" class="node">
<title>Dewey</title>
<ellipse fill="none" stroke="black" cx="2622.3" cy="-18" rx="35.3" ry="18"/>
<text text-anchor="middle" x="2622.3" y="-13.8" font-family="Times,serif" font-size="14.00">Dewey</text>
</g>
<!-- rousseau&#45;&gt;Dewey -->
<g id="edge37" class="edge">
<title>rousseau&#45;&gt;Dewey</title>
<path fill="none" stroke="black" d="M1770.23,-88.1C1917.69,-84.6 2421.32,-70.37 2578.3,-36 2581.15,-35.38 2584.06,-34.6 2586.95,-33.72"/>
<polygon fill="black" stroke="black" points="2588.3,-36.95 2596.65,-30.42 2586.05,-30.33 2588.3,-36.95"/>
</g>
<!-- Kitsikis -->
<g id="node39" class="node">
<title>Kitsikis</title>
<ellipse fill="none" stroke="black" cx="2713.3" cy="-18" rx="37.75" ry="18"/>
<text text-anchor="middle" x="2713.3" y="-13.8" font-family="Times,serif" font-size="14.00">Kitsikis</text>
</g>
<!-- rousseau&#45;&gt;Kitsikis -->
<g id="edge38" class="edge">
<title>rousseau&#45;&gt;Kitsikis</title>
<path fill="none" stroke="black" d="M1770.32,-88.26C1927.48,-85.18 2491.11,-71.84 2666.3,-36 2669.53,-35.34 2672.83,-34.5 2676.12,-33.55"/>
<polygon fill="black" stroke="black" points="2677.39,-36.82 2685.85,-30.43 2675.26,-30.15 2677.39,-36.82"/>
</g>
<!-- Madame de Stael -->
<g id="node40" class="node">
<title>Madame de Stael</title>
<ellipse fill="none" stroke="black" cx="2840.3" cy="-18" rx="71.49" ry="18"/>
<text text-anchor="middle" x="2840.3" y="-13.8" font-family="Times,serif" font-size="14.00">Madame de Stael</text>
</g>
<!-- rousseau&#45;&gt;Madame de Stael -->
<g id="edge39" class="edge">
<title>rousseau&#45;&gt;Madame de Stael</title>
<path fill="none" stroke="black" d="M1770.76,-89.21C1910.71,-89.43 2378.22,-86.1 2760.3,-36 2766.67,-35.16 2773.29,-34.09 2779.88,-32.89"/>
<polygon fill="black" stroke="black" points="2780.99,-36.24 2790.15,-30.92 2779.67,-29.37 2780.99,-36.24"/>
</g>
<!-- Schopenhauer -->
<g id="node41" class="node">
<title>Schopenhauer</title>
<ellipse fill="none" stroke="black" cx="2990.3" cy="-18" rx="60.4" ry="18"/>
<text text-anchor="middle" x="2990.3" y="-13.8" font-family="Times,serif" font-size="14.00">Schopenhauer</text>
</g>
<!-- rousseau&#45;&gt;Schopenhauer -->
<g id="edge40" class="edge">
<title>rousseau&#45;&gt;Schopenhauer</title>
<path fill="none" stroke="black" d="M1770.32,-88.24C1952.71,-84.71 2691.05,-68.62 2920.3,-36 2926.01,-35.19 2931.93,-34.12 2937.81,-32.9"/>
<polygon fill="black" stroke="black" points="2938.59,-36.32 2947.61,-30.76 2937.09,-29.48 2938.59,-36.32"/>
</g>
<!-- Fichte -->
<g id="node42" class="node">
<title>Fichte</title>
<ellipse fill="none" stroke="black" cx="3100.3" cy="-18" rx="32.42" ry="18"/>
<text text-anchor="middle" x="3100.3" y="-13.8" font-family="Times,serif" font-size="14.00">Fichte</text>
</g>
<!-- rousseau&#45;&gt;Fichte -->
<g id="edge41" class="edge">
<title>rousseau&#45;&gt;Fichte</title>
<path fill="none" stroke="black" d="M1770.6,-89.31C1966.7,-90.46 2804.83,-91.95 3059.3,-36 3061.8,-35.45 3064.34,-34.76 3066.88,-33.96"/>
<polygon fill="black" stroke="black" points="3068.24,-37.19 3076.48,-30.53 3065.88,-30.6 3068.24,-37.19"/>
</g>
<!-- Rawls -->
<g id="node43" class="node">
<title>Rawls</title>
<ellipse fill="none" stroke="black" cx="3182.3" cy="-18" rx="32.43" ry="18"/>
<text text-anchor="middle" x="3182.3" y="-13.8" font-family="Times,serif" font-size="14.00">Rawls</text>
</g>
<!-- rousseau&#45;&gt;Rawls -->
<g id="edge42" class="edge">
<title>rousseau&#45;&gt;Rawls</title>
<path fill="none" stroke="black" d="M1770.3,-88.33C1988.06,-84.64 3004.47,-65.92 3141.3,-36 3143.8,-35.45 3146.34,-34.76 3148.88,-33.97"/>
<polygon fill="black" stroke="black" points="3150.24,-37.2 3158.48,-30.54 3147.88,-30.61 3150.24,-37.2"/>
</g>
<!-- Aristotle -->
<g id="node3" class="node">
<title>Aristotle</title>
<ellipse fill="none" stroke="black" cx="1275.3" cy="-162" rx="41.11" ry="18"/>
<text text-anchor="middle" x="1275.3" y="-157.8" font-family="Times,serif" font-size="14.00">Aristotle</text>
</g>
<!-- Aristotle&#45;&gt;rousseau -->
<g id="edge2" class="edge">
<title>Aristotle&#45;&gt;rousseau</title>
<path fill="none" stroke="black" d="M1305.43,-149.69C1311.91,-147.56 1318.78,-145.52 1325.3,-144 1450.48,-114.81 1601.49,-100.36 1678.59,-94.43"/>
<polygon fill="black" stroke="black" points="1679.27,-97.88 1688.97,-93.64 1678.74,-90.9 1679.27,-97.88"/>
</g>
<!-- Socrates -->
<g id="node4" class="node">
<title>Socrates</title>
<ellipse fill="none" stroke="black" cx="1374.3" cy="-162" rx="40.13" ry="18"/>
<text text-anchor="middle" x="1374.3" y="-157.8" font-family="Times,serif" font-size="14.00">Socrates</text>
</g>
<!-- Socrates&#45;&gt;rousseau -->
<g id="edge3" class="edge">
<title>Socrates&#45;&gt;rousseau</title>
<path fill="none" stroke="black" d="M1404.12,-149.79C1410.4,-147.67 1417.02,-145.62 1423.3,-144 1512.62,-120.93 1619.23,-105.02 1680.13,-97.01"/>
<polygon fill="black" stroke="black" points="1680.76,-100.46 1690.22,-95.7 1679.86,-93.52 1680.76,-100.46"/>
</g>
<!-- Machiavelli -->
<g id="node5" class="node">
<title>Machiavelli</title>
<ellipse fill="none" stroke="black" cx="1484.3" cy="-162" rx="52.18" ry="18"/>
<text text-anchor="middle" x="1484.3" y="-157.8" font-family="Times,serif" font-size="14.00">Machiavelli</text>
</g>
<!-- Machiavelli&#45;&gt;rousseau -->
<g id="edge4" class="edge">
<title>Machiavelli&#45;&gt;rousseau</title>
<path fill="none" stroke="black" d="M1523.12,-149.91C1567.49,-137.23 1639.93,-116.53 1686.07,-103.35"/>
<polygon fill="black" stroke="black" points="1687.12,-106.69 1695.78,-100.58 1685.2,-99.96 1687.12,-106.69"/>
</g>
<!-- Hobbes -->
<g id="node6" class="node">
<title>Hobbes</title>
<ellipse fill="none" stroke="black" cx="1591.3" cy="-162" rx="37.25" ry="18"/>
<text text-anchor="middle" x="1591.3" y="-157.8" font-family="Times,serif" font-size="14.00">Hobbes</text>
</g>
<!-- Hobbes&#45;&gt;rousseau -->
<g id="edge5" class="edge">
<title>Hobbes&#45;&gt;rousseau</title>
<path fill="none" stroke="black" d="M1615.97,-148.49C1637.83,-137.4 1669.98,-121.09 1694.47,-108.67"/>
<polygon fill="black" stroke="black" points="1696.1,-111.76 1703.43,-104.12 1692.93,-105.52 1696.1,-111.76"/>
</g>
<!-- Spinoza -->
<g id="node7" class="node">
<title>Spinoza</title>
<ellipse fill="none" stroke="black" cx="1685.3" cy="-162" rx="38.7" ry="18"/>
<text text-anchor="middle" x="1685.3" y="-157.8" font-family="Times,serif" font-size="14.00">Spinoza</text>
</g>
<!-- Spinoza&#45;&gt;rousseau -->
<g id="edge6" class="edge">
<title>Spinoza&#45;&gt;rousseau</title>
<path fill="none" stroke="black" d="M1695.72,-144.41C1701.04,-135.95 1707.61,-125.49 1713.53,-116.08"/>
<polygon fill="black" stroke="black" points="1716.59,-117.8 1718.94,-107.47 1710.66,-114.07 1716.59,-117.8"/>
</g>
<!-- Locke -->
<g id="node8" class="node">
<title>Locke</title>
<ellipse fill="none" stroke="black" cx="1774.3" cy="-162" rx="32.41" ry="18"/>
<text text-anchor="middle" x="1774.3" y="-157.8" font-family="Times,serif" font-size="14.00">Locke</text>
</g>
<!-- Locke&#45;&gt;rousseau -->
<g id="edge7" class="edge">
<title>Locke&#45;&gt;rousseau</title>
<path fill="none" stroke="black" d="M1763.86,-144.76C1758.43,-136.32 1751.67,-125.8 1745.57,-116.31"/>
<polygon fill="black" stroke="black" points="1748.34,-114.15 1739.99,-107.63 1742.45,-117.94 1748.34,-114.15"/>
</g>
<!-- Montesquieu -->
<g id="node9" class="node">
<title>Montesquieu</title>
<ellipse fill="none" stroke="black" cx="1880.3" cy="-162" rx="56.07" ry="18"/>
<text text-anchor="middle" x="1880.3" y="-157.8" font-family="Times,serif" font-size="14.00">Montesquieu</text>
</g>
<!-- Montesquieu&#45;&gt;rousseau -->
<g id="edge8" class="edge">
<title>Montesquieu&#45;&gt;rousseau</title>
<path fill="none" stroke="black" d="M1849.74,-146.83C1825.59,-135.64 1791.8,-119.98 1766.16,-108.09"/>
<polygon fill="black" stroke="black" points="1767.31,-104.76 1756.76,-103.73 1764.36,-111.11 1767.31,-104.76"/>
</g>
<!-- Diderot -->
<g id="node10" class="node">
<title>Diderot</title>
<ellipse fill="none" stroke="black" cx="1991.3" cy="-162" rx="37.24" ry="18"/>
<text text-anchor="middle" x="1991.3" y="-157.8" font-family="Times,serif" font-size="14.00">Diderot</text>
</g>
<!-- Diderot&#45;&gt;rousseau -->
<g id="edge9" class="edge">
<title>Diderot&#45;&gt;rousseau</title>
<path fill="none" stroke="black" d="M1963.25,-150.06C1957.36,-147.93 1951.16,-145.8 1945.3,-144 1887.41,-126.27 1819.41,-110.37 1775.4,-100.72"/>
<polygon fill="black" stroke="black" points="1776.08,-97.29 1765.56,-98.58 1774.59,-104.13 1776.08,-97.29"/>
</g>
<!-- Voltaire -->
<g id="node11" class="node">
<title>Voltaire</title>
<ellipse fill="none" stroke="black" cx="2084.3" cy="-162" rx="37.88" ry="18"/>
<text text-anchor="middle" x="2084.3" y="-157.8" font-family="Times,serif" font-size="14.00">Voltaire</text>
</g>
<!-- Voltaire&#45;&gt;rousseau -->
<g id="edge10" class="edge">
<title>Voltaire&#45;&gt;rousseau</title>
<path fill="none" stroke="black" d="M2055.72,-149.76C2049.7,-147.64 2043.34,-145.6 2037.3,-144 1947.55,-120.25 1840.18,-104.57 1778.84,-96.78"/>
<polygon fill="black" stroke="black" points="1779.03,-93.28 1768.67,-95.51 1778.16,-100.23 1779.03,-93.28"/>
</g>
<!-- D&#39;Alembert -->
<g id="node12" class="node">
<title>D&#39;Alembert</title>
<ellipse fill="none" stroke="black" cx="2191.3" cy="-162" rx="51.47" ry="18"/>
<text text-anchor="middle" x="2191.3" y="-157.8" font-family="Times,serif" font-size="14.00">D&#39;Alembert</text>
</g>
<!-- D&#39;Alembert&#45;&gt;rousseau -->
<g id="edge11" class="edge">
<title>D&#39;Alembert&#45;&gt;rousseau</title>
<path fill="none" stroke="black" d="M2154.06,-149.54C2146.57,-147.5 2138.72,-145.53 2131.3,-144 2006.03,-118.14 1856.06,-102.29 1779.57,-95.27"/>
<polygon fill="black" stroke="black" points="1779.55,-91.75 1769.27,-94.33 1778.92,-98.72 1779.55,-91.75"/>
</g>
<!-- D&#39;Épinay -->
<g id="node13" class="node">
<title>D&#39;Épinay</title>
<ellipse fill="none" stroke="black" cx="2304.3" cy="-162" rx="43.27" ry="18"/>
<text text-anchor="middle" x="2304.3" y="-157.8" font-family="Times,serif" font-size="14.00">D&#39;Épinay</text>
</g>
<!-- D&#39;Épinay&#45;&gt;rousseau -->
<g id="edge12" class="edge">
<title>D&#39;Épinay&#45;&gt;rousseau</title>
<path fill="none" stroke="black" d="M2272.64,-149.66C2265.68,-147.5 2258.3,-145.46 2251.3,-144 2081.12,-108.48 1874.57,-96.46 1780.45,-92.65"/>
<polygon fill="black" stroke="black" points="1780.48,-89.15 1770.35,-92.25 1780.21,-96.14 1780.48,-89.15"/>
</g>
</g>
</svg>
