<?xml version="1.0" encoding="UTF-8" standalone="no"?>
<!DOCTYPE svg PUBLIC "-//W3C//DTD SVG 1.1//EN"
 "http://www.w3.org/Graphics/SVG/1.1/DTD/svg11.dtd">
<!-- Generated by graphviz version 2.42.3 (20191010.1750)
 -->
<!-- Title: G Pages: 1 -->
<svg width="418pt" height="188pt"
 viewBox="0.00 0.00 418.15 188.00" xmlns="http://www.w3.org/2000/svg" xmlns:xlink="http://www.w3.org/1999/xlink">
<g id="graph0" class="graph" transform="scale(1 1) rotate(0) translate(4 184)">
<title>G</title>
<polygon fill="white" stroke="transparent" points="-4,4 -4,-184 414.15,-184 414.15,4 -4,4"/>
<!-- Prodicus -->
<g id="node1" class="node">
<title>Prodicus</title>
<g id="a_node1"><a xlink:href="https://en.wikipedia.org/wiki/Prodicus" xlink:title="Prodicus">
<ellipse fill="none" stroke="black" cx="41.06" cy="-162" rx="41.12" ry="18"/>
<text text-anchor="middle" x="41.06" y="-157.8" font-family="Times,serif" font-size="14.00">Prodicus</text>
</a>
</g>
</g>
<!-- Socrates -->
<g id="node2" class="node">
<title>Socrates</title>
<ellipse fill="none" stroke="black" cx="210.06" cy="-90" rx="40.13" ry="18"/>
<text text-anchor="middle" x="210.06" y="-85.8" font-family="Times,serif" font-size="14.00">Socrates</text>
</g>
<!-- Prodicus&#45;&gt;Socrates -->
<g id="edge1" class="edge">
<title>Prodicus&#45;&gt;Socrates</title>
<path fill="none" stroke="black" d="M70.11,-148.97C98.3,-137.29 141.22,-119.51 172.1,-106.72"/>
<polygon fill="black" stroke="black" points="173.77,-109.82 181.67,-102.76 171.09,-103.35 173.77,-109.82"/>
</g>
<!-- Western philosophy -->
<g id="node6" class="node">
<title>Western philosophy</title>
<g id="a_node6"><a xlink:href="https://en.wikipedia.org/wiki/Western_philosophy" xlink:title="Western philosophy">
<ellipse fill="none" stroke="black" cx="83.06" cy="-18" rx="80.27" ry="18"/>
<text text-anchor="middle" x="83.06" y="-13.8" font-family="Times,serif" font-size="14.00">Western philosophy</text>
</a>
</g>
</g>
<!-- Socrates&#45;&gt;Western philosophy -->
<g id="edge5" class="edge">
<title>Socrates&#45;&gt;Western philosophy</title>
<path fill="none" stroke="black" d="M185.57,-75.5C167.24,-65.4 141.82,-51.39 120.88,-39.85"/>
<polygon fill="black" stroke="black" points="122.36,-36.67 111.92,-34.91 118.99,-42.8 122.36,-36.67"/>
</g>
<!-- Plato -->
<g id="node7" class="node">
<title>Plato</title>
<g id="a_node7"><a xlink:href="https://en.wikipedia.org/wiki/Plato" xlink:title="Plato">
<ellipse fill="none" stroke="black" cx="210.06" cy="-18" rx="28.07" ry="18"/>
<text text-anchor="middle" x="210.06" y="-13.8" font-family="Times,serif" font-size="14.00">Plato</text>
</a>
</g>
</g>
<!-- Socrates&#45;&gt;Plato -->
<g id="edge6" class="edge">
<title>Socrates&#45;&gt;Plato</title>
<path fill="none" stroke="black" d="M210.06,-71.7C210.06,-63.98 210.06,-54.71 210.06,-46.11"/>
<polygon fill="black" stroke="black" points="213.56,-46.1 210.06,-36.1 206.56,-46.1 213.56,-46.1"/>
</g>
<!-- Xenophon -->
<g id="node8" class="node">
<title>Xenophon</title>
<g id="a_node8"><a xlink:href="https://en.wikipedia.org/wiki/Xenophon" xlink:title="Xenophon">
<ellipse fill="none" stroke="black" cx="303.06" cy="-18" rx="46.9" ry="18"/>
<text text-anchor="middle" x="303.06" y="-13.8" font-family="Times,serif" font-size="14.00">Xenophon</text>
</a>
</g>
</g>
<!-- Socrates&#45;&gt;Xenophon -->
<g id="edge7" class="edge">
<title>Socrates&#45;&gt;Xenophon</title>
<path fill="none" stroke="black" d="M229.78,-74.15C242.8,-64.36 260.06,-51.37 274.56,-40.45"/>
<polygon fill="black" stroke="black" points="276.84,-43.12 282.72,-34.31 272.63,-37.53 276.84,-43.12"/>
</g>
<!-- Anaxagoras -->
<g id="node3" class="node">
<title>Anaxagoras</title>
<g id="a_node3"><a xlink:href="https://en.wikipedia.org/wiki/Anaxagoras" xlink:title="Anaxagoras">
<ellipse fill="none" stroke="black" cx="152.06" cy="-162" rx="52.18" ry="18"/>
<text text-anchor="middle" x="152.06" y="-157.8" font-family="Times,serif" font-size="14.00">Anaxagoras</text>
</a>
</g>
</g>
<!-- Anaxagoras&#45;&gt;Socrates -->
<g id="edge2" class="edge">
<title>Anaxagoras&#45;&gt;Socrates</title>
<path fill="none" stroke="black" d="M165.8,-144.41C173.13,-135.57 182.28,-124.53 190.35,-114.79"/>
<polygon fill="black" stroke="black" points="193.13,-116.92 196.81,-106.99 187.74,-112.46 193.13,-116.92"/>
</g>
<!-- Archelaus -->
<g id="node4" class="node">
<title>Archelaus</title>
<g id="a_node4"><a xlink:href="https://en.wikipedia.org/wiki/Archelaus_(philosopher)" xlink:title="Archelaus">
<ellipse fill="none" stroke="black" cx="268.06" cy="-162" rx="45.91" ry="18"/>
<text text-anchor="middle" x="268.06" y="-157.8" font-family="Times,serif" font-size="14.00">Archelaus</text>
</a>
</g>
</g>
<!-- Archelaus&#45;&gt;Socrates -->
<g id="edge3" class="edge">
<title>Archelaus&#45;&gt;Socrates</title>
<path fill="none" stroke="black" d="M254.61,-144.76C247.29,-135.93 238.09,-124.83 229.96,-115.01"/>
<polygon fill="black" stroke="black" points="232.51,-112.61 223.44,-107.15 227.12,-117.08 232.51,-112.61"/>
</g>
<!-- Diotima -->
<g id="node5" class="node">
<title>Diotima</title>
<g id="a_node5"><a xlink:href="https://en.wikipedia.org/wiki/Diotima_of_Mantinea" xlink:title="Diotima">
<ellipse fill="none" stroke="black" cx="371.06" cy="-162" rx="39.18" ry="18"/>
<text text-anchor="middle" x="371.06" y="-157.8" font-family="Times,serif" font-size="14.00">Diotima</text>
</a>
</g>
</g>
<!-- Diotima&#45;&gt;Socrates -->
<g id="edge4" class="edge">
<title>Diotima&#45;&gt;Socrates</title>
<path fill="none" stroke="black" d="M343.38,-148.97C316.89,-137.45 276.73,-119.99 247.41,-107.24"/>
<polygon fill="black" stroke="black" points="248.48,-103.89 237.91,-103.11 245.69,-110.31 248.48,-103.89"/>
</g>
</g>
</svg>
