<?xml version="1.0" encoding="UTF-8" standalone="no"?>
<!DOCTYPE svg PUBLIC "-//W3C//DTD SVG 1.1//EN"
 "http://www.w3.org/Graphics/SVG/1.1/DTD/svg11.dtd">
<!-- Generated by graphviz version 2.42.3 (20191010.1750)
 -->
<!-- Title: G Pages: 1 -->
<svg width="470pt" height="314pt"
 viewBox="0.00 0.00 469.66 314.00" xmlns="http://www.w3.org/2000/svg" xmlns:xlink="http://www.w3.org/1999/xlink">
<g id="graph0" class="graph" transform="scale(1 1) rotate(0) translate(4 310)">
<title>G</title>
<polygon fill="white" stroke="transparent" points="-4,4 -4,-310 465.66,-310 465.66,4 -4,4"/>
<!-- Karl Marx -->
<g id="node1" class="node">
<title>Karl Marx</title>
<g id="a_node1"><a xlink:href="https://en.wikipedia.org/wiki/Karl_Marx" xlink:title="Karl Marx">
<ellipse fill="none" stroke="black" cx="85.79" cy="-288" rx="47.88" ry="18"/>
<text text-anchor="middle" x="85.79" y="-283.8" font-family="sans-serif" font-size="14.00">Karl Marx</text>
</a>
</g>
</g>
<!-- Wendy Brown (political theorist) -->
<g id="node2" class="node">
<title>Wendy Brown (political theorist)</title>
<ellipse fill="none" stroke="black" cx="334.62" cy="-153" rx="127.08" ry="18"/>
<text text-anchor="middle" x="334.62" y="-148.8" font-family="Times,serif" font-size="14.00">Wendy Brown (political theorist)</text>
</g>
<!-- Karl Marx&#45;&gt;Wendy Brown (political theorist) -->
<g id="edge1" class="edge">
<title>Karl Marx&#45;&gt;Wendy Brown (political theorist)</title>
<path fill="none" stroke="black" d="M126.08,-277.98C140.71,-273.61 157.24,-267.89 171.58,-261 220.53,-237.47 271.85,-200.94 303.3,-177"/>
<polygon fill="black" stroke="black" points="305.44,-179.76 311.23,-170.9 301.17,-174.21 305.44,-179.76"/>
</g>
<!-- Michel Foucault -->
<g id="node3" class="node">
<title>Michel Foucault</title>
<g id="a_node3"><a xlink:href="https://en.wikipedia.org/wiki/Michel_Foucault" xlink:title="Michel Foucault">
<ellipse fill="none" stroke="black" cx="85.79" cy="-234" rx="72.07" ry="18"/>
<text text-anchor="middle" x="85.79" y="-229.8" font-family="sans-serif" font-size="14.00">Michel Foucault</text>
</a>
</g>
</g>
<!-- Michel Foucault&#45;&gt;Wendy Brown (political theorist) -->
<g id="edge2" class="edge">
<title>Michel Foucault&#45;&gt;Wendy Brown (political theorist)</title>
<path fill="none" stroke="black" d="M131.27,-219.96C144.28,-215.82 158.51,-211.26 171.58,-207 205.8,-195.85 243.99,-183.14 274.7,-172.85"/>
<polygon fill="black" stroke="black" points="276.02,-176.09 284.39,-169.6 273.8,-169.46 276.02,-176.09"/>
</g>
<!-- Sigmund Freud -->
<g id="node4" class="node">
<title>Sigmund Freud</title>
<g id="a_node4"><a xlink:href="https://en.wikipedia.org/wiki/Sigmund_Freud" xlink:title="Sigmund Freud">
<ellipse fill="none" stroke="black" cx="85.79" cy="-180" rx="70.64" ry="18"/>
<text text-anchor="middle" x="85.79" y="-175.8" font-family="sans-serif" font-size="14.00">Sigmund Freud</text>
</a>
</g>
</g>
<!-- Sigmund Freud&#45;&gt;Wendy Brown (political theorist) -->
<g id="edge3" class="edge">
<title>Sigmund Freud&#45;&gt;Wendy Brown (political theorist)</title>
<path fill="none" stroke="black" d="M151,-172.98C173.09,-170.56 198.51,-167.78 223.22,-165.08"/>
<polygon fill="black" stroke="black" points="223.82,-168.53 233.38,-163.96 223.06,-161.57 223.82,-168.53"/>
</g>
<!-- Friedrich Nietzsche -->
<g id="node5" class="node">
<title>Friedrich Nietzsche</title>
<g id="a_node5"><a xlink:href="https://en.wikipedia.org/wiki/Friedrich_Nietzsche" xlink:title="Friedrich Nietzsche">
<ellipse fill="none" stroke="black" cx="85.79" cy="-126" rx="85.58" ry="18"/>
<text text-anchor="middle" x="85.79" y="-121.8" font-family="sans-serif" font-size="14.00">Friedrich Nietzsche</text>
</a>
</g>
</g>
<!-- Friedrich Nietzsche&#45;&gt;Wendy Brown (political theorist) -->
<g id="edge4" class="edge">
<title>Friedrich Nietzsche&#45;&gt;Wendy Brown (political theorist)</title>
<path fill="none" stroke="black" d="M162.19,-134.25C181.56,-136.37 202.8,-138.69 223.54,-140.96"/>
<polygon fill="black" stroke="black" points="223.34,-144.46 233.66,-142.07 224.1,-137.5 223.34,-144.46"/>
</g>
<!-- Frankfurt School -->
<g id="node6" class="node">
<title>Frankfurt School</title>
<g id="a_node6"><a xlink:href="https://en.wikipedia.org/wiki/Frankfurt_School" xlink:title="Frankfurt School">
<ellipse fill="none" stroke="black" cx="85.79" cy="-72" rx="74.97" ry="18"/>
<text text-anchor="middle" x="85.79" y="-67.8" font-family="sans-serif" font-size="14.00">Frankfurt School</text>
</a>
</g>
</g>
<!-- Frankfurt School&#45;&gt;Wendy Brown (political theorist) -->
<g id="edge5" class="edge">
<title>Frankfurt School&#45;&gt;Wendy Brown (political theorist)</title>
<path fill="none" stroke="black" d="M132.15,-86.32C144.91,-90.38 158.8,-94.84 171.58,-99 205.8,-110.15 243.99,-122.86 274.7,-133.15"/>
<polygon fill="black" stroke="black" points="273.8,-136.54 284.39,-136.4 276.02,-129.91 273.8,-136.54"/>
</g>
<!-- Sheldon Wolin -->
<g id="node7" class="node">
<title>Sheldon Wolin</title>
<g id="a_node7"><a xlink:href="https://en.wikipedia.org/wiki/Sheldon_Wolin" xlink:title="Sheldon Wolin">
<ellipse fill="none" stroke="black" cx="85.79" cy="-18" rx="66.95" ry="18"/>
<text text-anchor="middle" x="85.79" y="-13.8" font-family="sans-serif" font-size="14.00">Sheldon Wolin</text>
</a>
</g>
</g>
<!-- Sheldon Wolin&#45;&gt;Wendy Brown (political theorist) -->
<g id="edge6" class="edge">
<title>Sheldon Wolin&#45;&gt;Wendy Brown (political theorist)</title>
<path fill="none" stroke="black" d="M134.34,-30.57C146.73,-34.54 159.88,-39.38 171.58,-45 220.53,-68.53 271.85,-105.06 303.3,-129"/>
<polygon fill="black" stroke="black" points="301.17,-131.79 311.23,-135.1 305.44,-126.24 301.17,-131.79"/>
</g>
</g>
</svg>
