<?xml version="1.0" encoding="UTF-8" standalone="no"?>
<!DOCTYPE svg PUBLIC "-//W3C//DTD SVG 1.1//EN"
 "http://www.w3.org/Graphics/SVG/1.1/DTD/svg11.dtd">
<!-- Generated by graphviz version 2.42.3 (20191010.1750)
 -->
<!-- Title: G Pages: 1 -->
<svg width="640pt" height="1232pt"
 viewBox="0.00 0.00 639.94 1232.00" xmlns="http://www.w3.org/2000/svg" xmlns:xlink="http://www.w3.org/1999/xlink">
<g id="graph0" class="graph" transform="scale(1 1) rotate(0) translate(4 1228)">
<title>G</title>
<polygon fill="white" stroke="transparent" points="-4,4 -4,-1228 635.94,-1228 635.94,4 -4,4"/>
<!-- Gottlob Frege -->
<g id="node1" class="node">
<title>Gottlob Frege</title>
<g id="a_node1"><a xlink:href="https://en.wikipedia.org/wiki/Gottlob_Frege" xlink:title="Gottlob Frege">
<ellipse fill="none" stroke="black" cx="115.1" cy="-1152" rx="59.45" ry="18"/>
<text text-anchor="middle" x="115.1" y="-1147.8" font-family="Times,serif" font-size="14.00">Gottlob Frege</text>
</a>
</g>
</g>
<!-- Ludwig Wittgenstein -->
<g id="node2" class="node">
<title>Ludwig Wittgenstein</title>
<ellipse fill="none" stroke="black" cx="350.71" cy="-693" rx="84.52" ry="18"/>
<text text-anchor="middle" x="350.71" y="-688.8" font-family="Times,serif" font-size="14.00">Ludwig Wittgenstein</text>
</g>
<!-- Gottlob Frege&#45;&gt;Ludwig Wittgenstein -->
<g id="edge1" class="edge">
<title>Gottlob Frege&#45;&gt;Ludwig Wittgenstein</title>
<path fill="none" stroke="black" d="M174.35,-1150.03C194.3,-1146.54 215.31,-1139.33 230.19,-1125 289.72,-1067.67 332.75,-808.05 345.67,-721.32"/>
<polygon fill="black" stroke="black" points="349.17,-721.57 347.16,-711.17 342.24,-720.55 349.17,-721.57"/>
</g>
<!-- G. E. Moore -->
<g id="node6" class="node">
<title>G. E. Moore</title>
<g id="a_node6"><a xlink:href="https://en.wikipedia.org/wiki/G._E._Moore" xlink:title="G. E. Moore">
<ellipse fill="none" stroke="black" cx="551.58" cy="-1206" rx="54.13" ry="18"/>
<text text-anchor="middle" x="551.58" y="-1201.8" font-family="Times,serif" font-size="14.00">G. E. Moore</text>
</a>
</g>
</g>
<!-- Ludwig Wittgenstein&#45;&gt;G. E. Moore -->
<g id="edge24" class="edge">
<title>Ludwig Wittgenstein&#45;&gt;G. E. Moore</title>
<path fill="none" stroke="black" d="M354.23,-711.12C364.6,-789.86 406.48,-1099.39 471.22,-1170 479.83,-1179.4 491.84,-1185.52 503.91,-1189.88"/>
<polygon fill="black" stroke="black" points="502.95,-1193.25 513.55,-1193.02 505.13,-1186.59 502.95,-1193.25"/>
</g>
<!-- Frank P. Ramsey -->
<g id="node7" class="node">
<title>Frank P. Ramsey</title>
<g id="a_node7"><a xlink:href="https://en.wikipedia.org/wiki/Frank_P._Ramsey" xlink:title="Frank P. Ramsey">
<ellipse fill="none" stroke="black" cx="551.58" cy="-1152" rx="69.6" ry="18"/>
<text text-anchor="middle" x="551.58" y="-1147.8" font-family="Times,serif" font-size="14.00">Frank P. Ramsey</text>
</a>
</g>
</g>
<!-- Ludwig Wittgenstein&#45;&gt;Frank P. Ramsey -->
<g id="edge25" class="edge">
<title>Ludwig Wittgenstein&#45;&gt;Frank P. Ramsey</title>
<path fill="none" stroke="black" d="M351.06,-711.45C350.27,-776.44 357.46,-995.45 471.22,-1116 479.02,-1124.27 489.45,-1130.01 500.18,-1134.24"/>
<polygon fill="black" stroke="black" points="499.03,-1137.55 509.62,-1137.6 501.38,-1130.95 499.03,-1137.55"/>
</g>
<!-- Bertrand Russell -->
<g id="node15" class="node">
<title>Bertrand Russell</title>
<g id="a_node15"><a xlink:href="https://en.wikipedia.org/wiki/Bertrand_Russell" xlink:title="Bertrand Russell">
<ellipse fill="none" stroke="black" cx="551.58" cy="-1098" rx="69.1" ry="18"/>
<text text-anchor="middle" x="551.58" y="-1093.8" font-family="Times,serif" font-size="14.00">Bertrand Russell</text>
</a>
</g>
</g>
<!-- Ludwig Wittgenstein&#45;&gt;Bertrand Russell -->
<g id="edge22" class="edge">
<title>Ludwig Wittgenstein&#45;&gt;Bertrand Russell</title>
<path fill="none" stroke="black" d="M352.1,-711.19C354.47,-770.51 370.13,-958.69 471.22,-1062 479.25,-1070.21 489.87,-1075.92 500.71,-1080.16"/>
<polygon fill="black" stroke="black" points="499.65,-1083.5 510.25,-1083.53 501.99,-1076.9 499.65,-1083.5"/>
</g>
<!-- Norman Malcolm -->
<g id="node23" class="node">
<title>Norman Malcolm</title>
<g id="a_node23"><a xlink:href="https://en.wikipedia.org/wiki/Norman_Malcolm" xlink:title="Norman Malcolm">
<ellipse fill="none" stroke="black" cx="551.58" cy="-1044" rx="73.45" ry="18"/>
<text text-anchor="middle" x="551.58" y="-1039.8" font-family="Times,serif" font-size="14.00">Norman Malcolm</text>
</a>
</g>
</g>
<!-- Ludwig Wittgenstein&#45;&gt;Norman Malcolm -->
<g id="edge23" class="edge">
<title>Ludwig Wittgenstein&#45;&gt;Norman Malcolm</title>
<path fill="none" stroke="black" d="M353.09,-711.33C358.18,-765.85 380.63,-928.69 471.22,-1017 475.56,-1021.23 480.59,-1024.8 485.96,-1027.81"/>
<polygon fill="black" stroke="black" points="484.76,-1031.12 495.28,-1032.37 487.83,-1024.83 484.76,-1031.12"/>
</g>
<!-- Vienna Circle -->
<g id="node24" class="node">
<title>Vienna Circle</title>
<g id="a_node24"><a xlink:href="https://en.wikipedia.org/wiki/Vienna_Circle" xlink:title="Vienna Circle">
<ellipse fill="none" stroke="black" cx="551.58" cy="-990" rx="58.87" ry="18"/>
<text text-anchor="middle" x="551.58" y="-985.8" font-family="Times,serif" font-size="14.00">Vienna Circle</text>
</a>
</g>
</g>
<!-- Ludwig Wittgenstein&#45;&gt;Vienna Circle -->
<g id="edge26" class="edge">
<title>Ludwig Wittgenstein&#45;&gt;Vienna Circle</title>
<path fill="none" stroke="black" d="M354.56,-711.02C363.11,-759.05 392.93,-891.37 471.22,-963 477.18,-968.46 484.29,-972.82 491.78,-976.3"/>
<polygon fill="black" stroke="black" points="490.81,-979.69 501.39,-980.26 493.48,-973.21 490.81,-979.69"/>
</g>
<!-- Rudolf Carnap -->
<g id="node25" class="node">
<title>Rudolf Carnap</title>
<g id="a_node25"><a xlink:href="https://en.wikipedia.org/wiki/Rudolf_Carnap" xlink:title="Rudolf Carnap">
<ellipse fill="none" stroke="black" cx="551.58" cy="-936" rx="62.34" ry="18"/>
<text text-anchor="middle" x="551.58" y="-931.8" font-family="Times,serif" font-size="14.00">Rudolf Carnap</text>
</a>
</g>
</g>
<!-- Ludwig Wittgenstein&#45;&gt;Rudolf Carnap -->
<g id="edge27" class="edge">
<title>Ludwig Wittgenstein&#45;&gt;Rudolf Carnap</title>
<path fill="none" stroke="black" d="M356.74,-710.97C369.15,-752.09 405.15,-853.72 471.22,-909 477.26,-914.06 484.3,-918.18 491.64,-921.54"/>
<polygon fill="black" stroke="black" points="490.47,-924.84 501.05,-925.41 493.12,-918.37 490.47,-924.84"/>
</g>
<!-- Alan Turing -->
<g id="node26" class="node">
<title>Alan Turing</title>
<g id="a_node26"><a xlink:href="https://en.wikipedia.org/wiki/Alan_Turing" xlink:title="Alan Turing">
<ellipse fill="none" stroke="black" cx="551.58" cy="-882" rx="53.23" ry="18"/>
<text text-anchor="middle" x="551.58" y="-877.8" font-family="Times,serif" font-size="14.00">Alan Turing</text>
</a>
</g>
</g>
<!-- Ludwig Wittgenstein&#45;&gt;Alan Turing -->
<g id="edge28" class="edge">
<title>Ludwig Wittgenstein&#45;&gt;Alan Turing</title>
<path fill="none" stroke="black" d="M360.36,-711.14C377.12,-744.44 417.2,-815.48 471.22,-855 478.98,-860.68 488.02,-865.22 497.16,-868.84"/>
<polygon fill="black" stroke="black" points="496.08,-872.17 506.67,-872.28 498.46,-865.59 496.08,-872.17"/>
</g>
<!-- G. E. M. Anscombe -->
<g id="node27" class="node">
<title>G. E. M. Anscombe</title>
<g id="a_node27"><a xlink:href="https://en.wikipedia.org/wiki/G._E._M._Anscombe" xlink:title="G. E. M. Anscombe">
<ellipse fill="none" stroke="black" cx="551.58" cy="-828" rx="80.22" ry="18"/>
<text text-anchor="middle" x="551.58" y="-823.8" font-family="Times,serif" font-size="14.00">G. E. M. Anscombe</text>
</a>
</g>
</g>
<!-- Ludwig Wittgenstein&#45;&gt;G. E. M. Anscombe -->
<g id="edge29" class="edge">
<title>Ludwig Wittgenstein&#45;&gt;G. E. M. Anscombe</title>
<path fill="none" stroke="black" d="M366.99,-710.74C388.21,-734.37 428.79,-776.06 471.22,-801 477.12,-804.47 483.53,-807.57 490.07,-810.33"/>
<polygon fill="black" stroke="black" points="489.1,-813.71 499.68,-814.13 491.67,-807.2 489.1,-813.71"/>
</g>
<!-- Crispin Wright -->
<g id="node28" class="node">
<title>Crispin Wright</title>
<g id="a_node28"><a xlink:href="https://en.wikipedia.org/wiki/Crispin_Wright" xlink:title="Crispin Wright">
<ellipse fill="none" stroke="black" cx="551.58" cy="-774" rx="62.81" ry="18"/>
<text text-anchor="middle" x="551.58" y="-769.8" font-family="Times,serif" font-size="14.00">Crispin Wright</text>
</a>
</g>
</g>
<!-- Ludwig Wittgenstein&#45;&gt;Crispin Wright -->
<g id="edge30" class="edge">
<title>Ludwig Wittgenstein&#45;&gt;Crispin Wright</title>
<path fill="none" stroke="black" d="M385.85,-709.49C409.55,-720.67 441.99,-735.46 471.22,-747 480.16,-750.53 489.77,-754.04 499.11,-757.3"/>
<polygon fill="black" stroke="black" points="498.11,-760.65 508.71,-760.6 500.39,-754.04 498.11,-760.65"/>
</g>
<!-- Daniel Dennett -->
<g id="node29" class="node">
<title>Daniel Dennett</title>
<g id="a_node29"><a xlink:href="https://en.wikipedia.org/wiki/Daniel_Dennett" xlink:title="Daniel Dennett">
<ellipse fill="none" stroke="black" cx="551.58" cy="-720" rx="63.77" ry="18"/>
<text text-anchor="middle" x="551.58" y="-715.8" font-family="Times,serif" font-size="14.00">Daniel Dennett</text>
</a>
</g>
</g>
<!-- Ludwig Wittgenstein&#45;&gt;Daniel Dennett -->
<g id="edge31" class="edge">
<title>Ludwig Wittgenstein&#45;&gt;Daniel Dennett</title>
<path fill="none" stroke="black" d="M422.38,-702.6C442.25,-705.29 463.8,-708.22 483.46,-710.89"/>
<polygon fill="black" stroke="black" points="483.16,-714.38 493.54,-712.26 484.1,-707.44 483.16,-714.38"/>
</g>
<!-- Cora Diamond -->
<g id="node30" class="node">
<title>Cora Diamond</title>
<g id="a_node30"><a xlink:href="https://en.wikipedia.org/wiki/Cora_Diamond" xlink:title="Cora Diamond">
<ellipse fill="none" stroke="black" cx="551.58" cy="-666" rx="62.34" ry="18"/>
<text text-anchor="middle" x="551.58" y="-661.8" font-family="Times,serif" font-size="14.00">Cora Diamond</text>
</a>
</g>
</g>
<!-- Ludwig Wittgenstein&#45;&gt;Cora Diamond -->
<g id="edge32" class="edge">
<title>Ludwig Wittgenstein&#45;&gt;Cora Diamond</title>
<path fill="none" stroke="black" d="M422.38,-683.4C442.73,-680.64 464.83,-677.64 484.86,-674.92"/>
<polygon fill="black" stroke="black" points="485.37,-678.38 494.81,-673.57 484.43,-671.45 485.37,-678.38"/>
</g>
<!-- Alice Crary -->
<g id="node31" class="node">
<title>Alice Crary</title>
<g id="a_node31"><a xlink:href="https://en.wikipedia.org/wiki/Alice_Crary" xlink:title="Alice Crary">
<ellipse fill="none" stroke="black" cx="551.58" cy="-612" rx="51.71" ry="18"/>
<text text-anchor="middle" x="551.58" y="-607.8" font-family="Times,serif" font-size="14.00">Alice Crary</text>
</a>
</g>
</g>
<!-- Ludwig Wittgenstein&#45;&gt;Alice Crary -->
<g id="edge33" class="edge">
<title>Ludwig Wittgenstein&#45;&gt;Alice Crary</title>
<path fill="none" stroke="black" d="M385.85,-676.51C409.55,-665.33 441.99,-650.54 471.22,-639 481.48,-634.95 492.62,-630.93 503.22,-627.28"/>
<polygon fill="black" stroke="black" points="504.42,-630.57 512.77,-624.04 502.17,-623.94 504.42,-630.57"/>
</g>
<!-- James F. Conant -->
<g id="node32" class="node">
<title>James F. Conant</title>
<g id="a_node32"><a xlink:href="https://en.wikipedia.org/wiki/James_F._Conant" xlink:title="James F. Conant">
<ellipse fill="none" stroke="black" cx="551.58" cy="-558" rx="68.22" ry="18"/>
<text text-anchor="middle" x="551.58" y="-553.8" font-family="Times,serif" font-size="14.00">James F. Conant</text>
</a>
</g>
</g>
<!-- Ludwig Wittgenstein&#45;&gt;James F. Conant -->
<g id="edge34" class="edge">
<title>Ludwig Wittgenstein&#45;&gt;James F. Conant</title>
<path fill="none" stroke="black" d="M366.99,-675.26C388.21,-651.63 428.79,-609.94 471.22,-585 478.18,-580.91 485.84,-577.33 493.59,-574.22"/>
<polygon fill="black" stroke="black" points="494.9,-577.46 503.03,-570.66 492.43,-570.91 494.9,-577.46"/>
</g>
<!-- Gilbert Ryle -->
<g id="node33" class="node">
<title>Gilbert Ryle</title>
<g id="a_node33"><a xlink:href="https://en.wikipedia.org/wiki/Gilbert_Ryle" xlink:title="Gilbert Ryle">
<ellipse fill="none" stroke="black" cx="551.58" cy="-504" rx="53.94" ry="18"/>
<text text-anchor="middle" x="551.58" y="-499.8" font-family="Times,serif" font-size="14.00">Gilbert Ryle</text>
</a>
</g>
</g>
<!-- Ludwig Wittgenstein&#45;&gt;Gilbert Ryle -->
<g id="edge35" class="edge">
<title>Ludwig Wittgenstein&#45;&gt;Gilbert Ryle</title>
<path fill="none" stroke="black" d="M360.36,-674.86C377.12,-641.56 417.2,-570.52 471.22,-531 478.89,-525.39 487.81,-520.88 496.85,-517.28"/>
<polygon fill="black" stroke="black" points="498.06,-520.57 506.26,-513.85 495.67,-513.99 498.06,-520.57"/>
</g>
<!-- Saul Kripke -->
<g id="node34" class="node">
<title>Saul Kripke</title>
<g id="a_node34"><a xlink:href="https://en.wikipedia.org/wiki/Saul_Kripke" xlink:title="Saul Kripke">
<ellipse fill="none" stroke="black" cx="551.58" cy="-450" rx="52.69" ry="18"/>
<text text-anchor="middle" x="551.58" y="-445.8" font-family="Times,serif" font-size="14.00">Saul Kripke</text>
</a>
</g>
</g>
<!-- Ludwig Wittgenstein&#45;&gt;Saul Kripke -->
<g id="edge36" class="edge">
<title>Ludwig Wittgenstein&#45;&gt;Saul Kripke</title>
<path fill="none" stroke="black" d="M356.74,-675.03C369.15,-633.91 405.15,-532.28 471.22,-477 478.51,-470.9 487.24,-466.16 496.21,-462.47"/>
<polygon fill="black" stroke="black" points="497.43,-465.75 505.6,-459 495,-459.19 497.43,-465.75"/>
</g>
<!-- John Searle -->
<g id="node35" class="node">
<title>John Searle</title>
<g id="a_node35"><a xlink:href="https://en.wikipedia.org/wiki/John_Searle" xlink:title="John Searle">
<ellipse fill="none" stroke="black" cx="551.58" cy="-396" rx="51.24" ry="18"/>
<text text-anchor="middle" x="551.58" y="-391.8" font-family="Times,serif" font-size="14.00">John Searle</text>
</a>
</g>
</g>
<!-- Ludwig Wittgenstein&#45;&gt;John Searle -->
<g id="edge37" class="edge">
<title>Ludwig Wittgenstein&#45;&gt;John Searle</title>
<path fill="none" stroke="black" d="M354.56,-674.98C363.11,-626.95 392.93,-494.63 471.22,-423 478.39,-416.44 487.22,-411.46 496.36,-407.69"/>
<polygon fill="black" stroke="black" points="497.75,-410.91 505.94,-404.18 495.34,-404.34 497.75,-410.91"/>
</g>
<!-- Hans Sluga -->
<g id="node36" class="node">
<title>Hans Sluga</title>
<g id="a_node36"><a xlink:href="https://en.wikipedia.org/wiki/Hans_Sluga" xlink:title="Hans Sluga">
<ellipse fill="none" stroke="black" cx="551.58" cy="-342" rx="50.77" ry="18"/>
<text text-anchor="middle" x="551.58" y="-337.8" font-family="Times,serif" font-size="14.00">Hans Sluga</text>
</a>
</g>
</g>
<!-- Ludwig Wittgenstein&#45;&gt;Hans Sluga -->
<g id="edge38" class="edge">
<title>Ludwig Wittgenstein&#45;&gt;Hans Sluga</title>
<path fill="none" stroke="black" d="M353.09,-674.67C358.18,-620.15 380.63,-457.31 471.22,-369 478.18,-362.21 486.91,-357.13 496.01,-353.32"/>
<polygon fill="black" stroke="black" points="497.4,-356.54 505.58,-349.8 494.99,-349.97 497.4,-356.54"/>
</g>
<!-- Peter Hacker -->
<g id="node37" class="node">
<title>Peter Hacker</title>
<g id="a_node37"><a xlink:href="https://en.wikipedia.org/wiki/Peter_Hacker" xlink:title="Peter Hacker">
<ellipse fill="none" stroke="black" cx="551.58" cy="-288" rx="56.03" ry="18"/>
<text text-anchor="middle" x="551.58" y="-283.8" font-family="Times,serif" font-size="14.00">Peter Hacker</text>
</a>
</g>
</g>
<!-- Ludwig Wittgenstein&#45;&gt;Peter Hacker -->
<g id="edge39" class="edge">
<title>Ludwig Wittgenstein&#45;&gt;Peter Hacker</title>
<path fill="none" stroke="black" d="M351.97,-674.74C353.84,-614.59 367.96,-420.52 471.22,-315 477.22,-308.87 484.66,-304.13 492.57,-300.47"/>
<polygon fill="black" stroke="black" points="494.05,-303.64 502,-296.64 491.41,-297.16 494.05,-303.64"/>
</g>
<!-- Paul Feyerabend -->
<g id="node38" class="node">
<title>Paul Feyerabend</title>
<g id="a_node38"><a xlink:href="https://en.wikipedia.org/wiki/Paul_Feyerabend" xlink:title="Paul Feyerabend">
<ellipse fill="none" stroke="black" cx="551.58" cy="-234" rx="69.08" ry="18"/>
<text text-anchor="middle" x="551.58" y="-229.8" font-family="Times,serif" font-size="14.00">Paul Feyerabend</text>
</a>
</g>
</g>
<!-- Ludwig Wittgenstein&#45;&gt;Paul Feyerabend -->
<g id="edge40" class="edge">
<title>Ludwig Wittgenstein&#45;&gt;Paul Feyerabend</title>
<path fill="none" stroke="black" d="M351.12,-674.98C350.01,-609.86 355.06,-384.1 471.22,-261 475.61,-256.35 480.83,-252.49 486.48,-249.31"/>
<polygon fill="black" stroke="black" points="488.18,-252.37 495.62,-244.82 485.1,-246.08 488.18,-252.37"/>
</g>
<!-- Ian Hacking -->
<g id="node39" class="node">
<title>Ian Hacking</title>
<g id="a_node39"><a xlink:href="https://en.wikipedia.org/wiki/Ian_Hacking" xlink:title="Ian Hacking">
<ellipse fill="none" stroke="black" cx="551.58" cy="-180" rx="53.64" ry="18"/>
<text text-anchor="middle" x="551.58" y="-175.8" font-family="Times,serif" font-size="14.00">Ian Hacking</text>
</a>
</g>
</g>
<!-- Ludwig Wittgenstein&#45;&gt;Ian Hacking -->
<g id="edge41" class="edge">
<title>Ludwig Wittgenstein&#45;&gt;Ian Hacking</title>
<path fill="none" stroke="black" d="M353.82,-674.95C363.46,-595.61 405.6,-278.57 471.22,-207 477.29,-200.37 485.05,-195.37 493.34,-191.6"/>
<polygon fill="black" stroke="black" points="494.83,-194.77 502.85,-187.84 492.26,-188.26 494.83,-194.77"/>
</g>
<!-- Jon Fosse -->
<g id="node40" class="node">
<title>Jon Fosse</title>
<g id="a_node40"><a xlink:href="https://en.wikipedia.org/wiki/Jon_Fosse" xlink:title="Jon Fosse">
<ellipse fill="none" stroke="black" cx="551.58" cy="-126" rx="44.5" ry="18"/>
<text text-anchor="middle" x="551.58" y="-121.8" font-family="Times,serif" font-size="14.00">Jon Fosse</text>
</a>
</g>
</g>
<!-- Ludwig Wittgenstein&#45;&gt;Jon Fosse -->
<g id="edge42" class="edge">
<title>Ludwig Wittgenstein&#45;&gt;Jon Fosse</title>
<path fill="none" stroke="black" d="M353.34,-674.99C361.36,-590.42 399.07,-233.56 471.22,-153 478.65,-144.7 488.74,-138.95 499.22,-134.97"/>
<polygon fill="black" stroke="black" points="500.5,-138.23 508.9,-131.78 498.31,-131.58 500.5,-138.23"/>
</g>
<!-- Quentin Skinner -->
<g id="node41" class="node">
<title>Quentin Skinner</title>
<g id="a_node41"><a xlink:href="https://en.wikipedia.org/wiki/Quentin_Skinner" xlink:title="Quentin Skinner">
<ellipse fill="none" stroke="black" cx="551.58" cy="-72" rx="68.14" ry="18"/>
<text text-anchor="middle" x="551.58" y="-67.8" font-family="Times,serif" font-size="14.00">Quentin Skinner</text>
</a>
</g>
</g>
<!-- Ludwig Wittgenstein&#45;&gt;Quentin Skinner -->
<g id="edge43" class="edge">
<title>Ludwig Wittgenstein&#45;&gt;Quentin Skinner</title>
<path fill="none" stroke="black" d="M352.97,-674.72C359.54,-584.62 392.6,-188.51 471.22,-99 475.44,-94.19 480.55,-90.24 486.13,-86.99"/>
<polygon fill="black" stroke="black" points="487.83,-90.05 495.2,-82.44 484.69,-83.79 487.83,-90.05"/>
</g>
<!-- Thomas Kuhn -->
<g id="node42" class="node">
<title>Thomas Kuhn</title>
<g id="a_node42"><a xlink:href="https://en.wikipedia.org/wiki/Thomas_Kuhn" xlink:title="Thomas Kuhn">
<ellipse fill="none" stroke="black" cx="551.58" cy="-18" rx="60.42" ry="18"/>
<text text-anchor="middle" x="551.58" y="-13.8" font-family="Times,serif" font-size="14.00">Thomas Kuhn</text>
</a>
</g>
</g>
<!-- Ludwig Wittgenstein&#45;&gt;Thomas Kuhn -->
<g id="edge44" class="edge">
<title>Ludwig Wittgenstein&#45;&gt;Thomas Kuhn</title>
<path fill="none" stroke="black" d="M352.62,-674.98C357.77,-580.59 385.95,-143.68 471.22,-45 476.19,-39.25 482.44,-34.72 489.24,-31.15"/>
<polygon fill="black" stroke="black" points="491.09,-34.15 498.77,-26.86 488.22,-27.77 491.09,-34.15"/>
</g>
<!-- Johann Wolfgang von Goethe -->
<g id="node3" class="node">
<title>Johann Wolfgang von Goethe</title>
<g id="a_node3"><a xlink:href="https://en.wikipedia.org/wiki/Johann_Wolfgang_von_Goethe" xlink:title="Johann Wolfgang von Goethe">
<ellipse fill="none" stroke="black" cx="115.1" cy="-1098" rx="115.19" ry="18"/>
<text text-anchor="middle" x="115.1" y="-1093.8" font-family="Times,serif" font-size="14.00">Johann Wolfgang von Goethe</text>
</a>
</g>
</g>
<!-- Johann Wolfgang von Goethe&#45;&gt;Ludwig Wittgenstein -->
<g id="edge2" class="edge">
<title>Johann Wolfgang von Goethe&#45;&gt;Ludwig Wittgenstein</title>
<path fill="none" stroke="black" d="M205.2,-1086.78C214.37,-1082.86 222.96,-1077.72 230.19,-1071 333.12,-975.41 347.89,-792 349.65,-721.54"/>
<polygon fill="black" stroke="black" points="353.16,-721.29 349.84,-711.23 346.16,-721.17 353.16,-721.29"/>
</g>
<!-- Søren Kierkegaard -->
<g id="node4" class="node">
<title>Søren Kierkegaard</title>
<g id="a_node4"><a xlink:href="https://en.wikipedia.org/wiki/S%C3%B8ren_Kierkegaard" xlink:title="Søren Kierkegaard">
<ellipse fill="none" stroke="black" cx="115.1" cy="-1044" rx="76.8" ry="18"/>
<text text-anchor="middle" x="115.1" y="-1039.8" font-family="Times,serif" font-size="14.00">Søren Kierkegaard</text>
</a>
</g>
</g>
<!-- Søren Kierkegaard&#45;&gt;Ludwig Wittgenstein -->
<g id="edge3" class="edge">
<title>Søren Kierkegaard&#45;&gt;Ludwig Wittgenstein</title>
<path fill="none" stroke="black" d="M187.93,-1038.18C203.27,-1034.06 218.38,-1027.46 230.19,-1017 319.93,-937.52 342.39,-784.56 347.93,-721.38"/>
<polygon fill="black" stroke="black" points="351.43,-721.59 348.73,-711.35 344.45,-721.03 351.43,-721.59"/>
</g>
<!-- Fyodor Dostoyevsky -->
<g id="node5" class="node">
<title>Fyodor Dostoyevsky</title>
<g id="a_node5"><a xlink:href="https://en.wikipedia.org/wiki/Fyodor_Dostoyevsky" xlink:title="Fyodor Dostoyevsky">
<ellipse fill="none" stroke="black" cx="115.1" cy="-990" rx="84.1" ry="18"/>
<text text-anchor="middle" x="115.1" y="-985.8" font-family="Times,serif" font-size="14.00">Fyodor Dostoyevsky</text>
</a>
</g>
</g>
<!-- Fyodor Dostoyevsky&#45;&gt;Ludwig Wittgenstein -->
<g id="edge4" class="edge">
<title>Fyodor Dostoyevsky&#45;&gt;Ludwig Wittgenstein</title>
<path fill="none" stroke="black" d="M191.61,-982.46C205.54,-978.34 219.16,-972.17 230.19,-963 306.9,-899.28 336.04,-776.49 345.61,-721.2"/>
<polygon fill="black" stroke="black" points="349.11,-721.52 347.27,-711.08 342.2,-720.38 349.11,-721.52"/>
</g>
<!-- G. E. Moore&#45;&gt;Ludwig Wittgenstein -->
<g id="edge5" class="edge">
<title>G. E. Moore&#45;&gt;Ludwig Wittgenstein</title>
<path fill="none" stroke="black" d="M497.09,-1204.82C487.41,-1201.09 478.2,-1195.62 471.22,-1188 407.26,-1118.24 365.61,-815.25 354.62,-720.96"/>
<polygon fill="black" stroke="black" points="358.09,-720.56 353.48,-711.02 351.14,-721.35 358.09,-720.56"/>
</g>
<!-- Frank P. Ramsey&#45;&gt;Ludwig Wittgenstein -->
<g id="edge6" class="edge">
<title>Frank P. Ramsey&#45;&gt;Ludwig Wittgenstein</title>
<path fill="none" stroke="black" d="M486.1,-1145.44C480.6,-1142.34 475.51,-1138.55 471.22,-1134 358.72,-1014.78 350.44,-799.28 351.04,-721.64"/>
<polygon fill="black" stroke="black" points="354.54,-721.26 351.18,-711.21 347.54,-721.16 354.54,-721.26"/>
</g>
<!-- Ludwig Boltzmann -->
<g id="node8" class="node">
<title>Ludwig Boltzmann</title>
<g id="a_node8"><a xlink:href="https://en.wikipedia.org/wiki/Ludwig_Boltzmann" xlink:title="Ludwig Boltzmann">
<ellipse fill="none" stroke="black" cx="115.1" cy="-936" rx="78.77" ry="18"/>
<text text-anchor="middle" x="115.1" y="-931.8" font-family="Times,serif" font-size="14.00">Ludwig Boltzmann</text>
</a>
</g>
</g>
<!-- Ludwig Boltzmann&#45;&gt;Ludwig Wittgenstein -->
<g id="edge7" class="edge">
<title>Ludwig Boltzmann&#45;&gt;Ludwig Wittgenstein</title>
<path fill="none" stroke="black" d="M187.12,-928.75C202.41,-924.69 217.71,-918.47 230.19,-909 294.16,-860.48 328.51,-767.31 342.33,-720.81"/>
<polygon fill="black" stroke="black" points="345.72,-721.68 345.12,-711.11 338.99,-719.75 345.72,-721.68"/>
</g>
<!-- William James -->
<g id="node9" class="node">
<title>William James</title>
<g id="a_node9"><a xlink:href="https://en.wikipedia.org/wiki/William_James" xlink:title="William James">
<ellipse fill="none" stroke="black" cx="115.1" cy="-882" rx="62.62" ry="18"/>
<text text-anchor="middle" x="115.1" y="-877.8" font-family="Times,serif" font-size="14.00">William James</text>
</a>
</g>
</g>
<!-- William James&#45;&gt;Ludwig Wittgenstein -->
<g id="edge8" class="edge">
<title>William James&#45;&gt;Ludwig Wittgenstein</title>
<path fill="none" stroke="black" d="M174.69,-876.23C193.56,-872.33 213.8,-865.83 230.19,-855 281.73,-820.96 319.06,-756.72 337.24,-720.2"/>
<polygon fill="black" stroke="black" points="340.44,-721.64 341.66,-711.11 334.14,-718.58 340.44,-721.64"/>
</g>
<!-- Karl Kraus -->
<g id="node10" class="node">
<title>Karl Kraus</title>
<g id="a_node10"><a xlink:href="https://en.wikipedia.org/wiki/Karl_Kraus_(writer)" xlink:title="Karl Kraus">
<ellipse fill="none" stroke="black" cx="115.1" cy="-828" rx="49.3" ry="18"/>
<text text-anchor="middle" x="115.1" y="-823.8" font-family="Times,serif" font-size="14.00">Karl Kraus</text>
</a>
</g>
</g>
<!-- Karl Kraus&#45;&gt;Ludwig Wittgenstein -->
<g id="edge9" class="edge">
<title>Karl Kraus&#45;&gt;Ludwig Wittgenstein</title>
<path fill="none" stroke="black" d="M162.11,-822.51C183.68,-818.61 209.2,-812.03 230.19,-801 269.74,-780.23 306.46,-743.34 328.49,-718.53"/>
<polygon fill="black" stroke="black" points="331.17,-720.77 335.11,-710.93 325.9,-716.17 331.17,-720.77"/>
</g>
<!-- Augustine of Hippo -->
<g id="node11" class="node">
<title>Augustine of Hippo</title>
<g id="a_node11"><a xlink:href="https://en.wikipedia.org/wiki/Augustine_of_Hippo" xlink:title="Augustine of Hippo">
<ellipse fill="none" stroke="black" cx="115.1" cy="-774" rx="80.22" ry="18"/>
<text text-anchor="middle" x="115.1" y="-769.8" font-family="Times,serif" font-size="14.00">Augustine of Hippo</text>
</a>
</g>
</g>
<!-- Augustine of Hippo&#45;&gt;Ludwig Wittgenstein -->
<g id="edge10" class="edge">
<title>Augustine of Hippo&#45;&gt;Ludwig Wittgenstein</title>
<path fill="none" stroke="black" d="M175.93,-762.12C193.6,-758 212.85,-752.91 230.19,-747 256.9,-737.9 285.76,-724.96 308.42,-714.02"/>
<polygon fill="black" stroke="black" points="309.97,-717.16 317.42,-709.63 306.9,-710.87 309.97,-717.16"/>
</g>
<!-- Adolf Loos -->
<g id="node12" class="node">
<title>Adolf Loos</title>
<g id="a_node12"><a xlink:href="https://en.wikipedia.org/wiki/Adolf_Loos" xlink:title="Adolf Loos">
<ellipse fill="none" stroke="black" cx="115.1" cy="-720" rx="50.77" ry="18"/>
<text text-anchor="middle" x="115.1" y="-715.8" font-family="Times,serif" font-size="14.00">Adolf Loos</text>
</a>
</g>
</g>
<!-- Adolf Loos&#45;&gt;Ludwig Wittgenstein -->
<g id="edge11" class="edge">
<title>Adolf Loos&#45;&gt;Ludwig Wittgenstein</title>
<path fill="none" stroke="black" d="M163.37,-714.54C192.74,-711.14 231.32,-706.68 265.76,-702.7"/>
<polygon fill="black" stroke="black" points="266.29,-706.16 275.82,-701.54 265.49,-699.21 266.29,-706.16"/>
</g>
<!-- Piero Sraffa -->
<g id="node13" class="node">
<title>Piero Sraffa</title>
<g id="a_node13"><a xlink:href="https://en.wikipedia.org/wiki/Piero_Sraffa" xlink:title="Piero Sraffa">
<ellipse fill="none" stroke="black" cx="115.1" cy="-666" rx="52.37" ry="18"/>
<text text-anchor="middle" x="115.1" y="-661.8" font-family="Times,serif" font-size="14.00">Piero Sraffa</text>
</a>
</g>
</g>
<!-- Piero Sraffa&#45;&gt;Ludwig Wittgenstein -->
<g id="edge12" class="edge">
<title>Piero Sraffa&#45;&gt;Ludwig Wittgenstein</title>
<path fill="none" stroke="black" d="M165.07,-671.66C194.17,-675.02 231.86,-679.38 265.6,-683.28"/>
<polygon fill="black" stroke="black" points="265.6,-686.8 275.93,-684.47 266.4,-679.85 265.6,-686.8"/>
</g>
<!-- Otto Weininger -->
<g id="node14" class="node">
<title>Otto Weininger</title>
<g id="a_node14"><a xlink:href="https://en.wikipedia.org/wiki/Otto_Weininger" xlink:title="Otto Weininger">
<ellipse fill="none" stroke="black" cx="115.1" cy="-612" rx="64.5" ry="18"/>
<text text-anchor="middle" x="115.1" y="-607.8" font-family="Times,serif" font-size="14.00">Otto Weininger</text>
</a>
</g>
</g>
<!-- Otto Weininger&#45;&gt;Ludwig Wittgenstein -->
<g id="edge13" class="edge">
<title>Otto Weininger&#45;&gt;Ludwig Wittgenstein</title>
<path fill="none" stroke="black" d="M168.38,-622.16C188,-626.55 210.35,-632.24 230.19,-639 256.9,-648.1 285.76,-661.04 308.42,-671.98"/>
<polygon fill="black" stroke="black" points="306.9,-675.13 317.42,-676.37 309.97,-668.84 306.9,-675.13"/>
</g>
<!-- Bertrand Russell&#45;&gt;Ludwig Wittgenstein -->
<g id="edge14" class="edge">
<title>Bertrand Russell&#45;&gt;Ludwig Wittgenstein</title>
<path fill="none" stroke="black" d="M486.66,-1091.49C480.98,-1088.38 475.7,-1084.58 471.22,-1080 371.15,-977.74 354.79,-792.31 352.18,-721.39"/>
<polygon fill="black" stroke="black" points="355.67,-720.91 351.87,-711.02 348.67,-721.12 355.67,-720.91"/>
</g>
<!-- Arthur Schopenhauer -->
<g id="node16" class="node">
<title>Arthur Schopenhauer</title>
<g id="a_node16"><a xlink:href="https://en.wikipedia.org/wiki/Arthur_Schopenhauer" xlink:title="Arthur Schopenhauer">
<ellipse fill="none" stroke="black" cx="115.1" cy="-558" rx="85.98" ry="18"/>
<text text-anchor="middle" x="115.1" y="-553.8" font-family="Times,serif" font-size="14.00">Arthur Schopenhauer</text>
</a>
</g>
</g>
<!-- Arthur Schopenhauer&#45;&gt;Ludwig Wittgenstein -->
<g id="edge15" class="edge">
<title>Arthur Schopenhauer&#45;&gt;Ludwig Wittgenstein</title>
<path fill="none" stroke="black" d="M185.38,-568.53C200.67,-572.44 216.41,-577.76 230.19,-585 269.74,-605.77 306.46,-642.66 328.49,-667.47"/>
<polygon fill="black" stroke="black" points="325.9,-669.83 335.11,-675.07 331.17,-665.23 325.9,-669.83"/>
</g>
<!-- Baruch Spinoza -->
<g id="node17" class="node">
<title>Baruch Spinoza</title>
<g id="a_node17"><a xlink:href="https://en.wikipedia.org/wiki/Baruch_Spinoza" xlink:title="Baruch Spinoza">
<ellipse fill="none" stroke="black" cx="115.1" cy="-504" rx="66.19" ry="18"/>
<text text-anchor="middle" x="115.1" y="-499.8" font-family="Times,serif" font-size="14.00">Baruch Spinoza</text>
</a>
</g>
</g>
<!-- Baruch Spinoza&#45;&gt;Ludwig Wittgenstein -->
<g id="edge16" class="edge">
<title>Baruch Spinoza&#45;&gt;Ludwig Wittgenstein</title>
<path fill="none" stroke="black" d="M177.34,-510.34C195.44,-514.29 214.57,-520.68 230.19,-531 281.73,-565.04 319.06,-629.28 337.24,-665.8"/>
<polygon fill="black" stroke="black" points="334.14,-667.42 341.66,-674.89 340.44,-664.36 334.14,-667.42"/>
</g>
<!-- Leo Tolstoy -->
<g id="node18" class="node">
<title>Leo Tolstoy</title>
<g id="a_node18"><a xlink:href="https://en.wikipedia.org/wiki/Leo_Tolstoy" xlink:title="Leo Tolstoy">
<ellipse fill="none" stroke="black" cx="115.1" cy="-450" rx="52.13" ry="18"/>
<text text-anchor="middle" x="115.1" y="-445.8" font-family="Times,serif" font-size="14.00">Leo Tolstoy</text>
</a>
</g>
</g>
<!-- Leo Tolstoy&#45;&gt;Ludwig Wittgenstein -->
<g id="edge17" class="edge">
<title>Leo Tolstoy&#45;&gt;Ludwig Wittgenstein</title>
<path fill="none" stroke="black" d="M166.83,-452.99C188.14,-456.39 212.11,-463.28 230.19,-477 294.16,-525.52 328.51,-618.69 342.33,-665.19"/>
<polygon fill="black" stroke="black" points="338.99,-666.25 345.12,-674.89 345.72,-664.32 338.99,-666.25"/>
</g>
<!-- L. E. J. Brouwer -->
<g id="node19" class="node">
<title>L. E. J. Brouwer</title>
<g id="a_node19"><a xlink:href="https://en.wikipedia.org/wiki/L._E._J._Brouwer" xlink:title="L. E. J. Brouwer">
<ellipse fill="none" stroke="black" cx="115.1" cy="-396" rx="68.62" ry="18"/>
<text text-anchor="middle" x="115.1" y="-391.8" font-family="Times,serif" font-size="14.00">L. E. J. Brouwer</text>
</a>
</g>
</g>
<!-- L. E. J. Brouwer&#45;&gt;Ludwig Wittgenstein -->
<g id="edge18" class="edge">
<title>L. E. J. Brouwer&#45;&gt;Ludwig Wittgenstein</title>
<path fill="none" stroke="black" d="M181.21,-400.83C198.63,-404.79 216.42,-411.55 230.19,-423 306.9,-486.72 336.04,-609.51 345.61,-664.8"/>
<polygon fill="black" stroke="black" points="342.2,-665.62 347.27,-674.92 349.11,-664.48 342.2,-665.62"/>
</g>
<!-- Heinrich Hertz -->
<g id="node20" class="node">
<title>Heinrich Hertz</title>
<g id="a_node20"><a xlink:href="https://en.wikipedia.org/wiki/Heinrich_Hertz" xlink:title="Heinrich Hertz">
<ellipse fill="none" stroke="black" cx="115.1" cy="-342" rx="62.79" ry="18"/>
<text text-anchor="middle" x="115.1" y="-337.8" font-family="Times,serif" font-size="14.00">Heinrich Hertz</text>
</a>
</g>
</g>
<!-- Heinrich Hertz&#45;&gt;Ludwig Wittgenstein -->
<g id="edge19" class="edge">
<title>Heinrich Hertz&#45;&gt;Ludwig Wittgenstein</title>
<path fill="none" stroke="black" d="M176.95,-345.27C195.86,-349.01 215.57,-356.04 230.19,-369 319.93,-448.48 342.39,-601.44 347.93,-664.62"/>
<polygon fill="black" stroke="black" points="344.45,-664.97 348.73,-674.65 351.43,-664.41 344.45,-664.97"/>
</g>
<!-- Georg Christoph Lichtenberg -->
<g id="node21" class="node">
<title>Georg Christoph Lichtenberg</title>
<g id="a_node21"><a xlink:href="https://en.wikipedia.org/wiki/Georg_Christoph_Lichtenberg" xlink:title="Georg Christoph Lichtenberg">
<ellipse fill="none" stroke="black" cx="115.1" cy="-288" rx="113.85" ry="18"/>
<text text-anchor="middle" x="115.1" y="-283.8" font-family="Times,serif" font-size="14.00">Georg Christoph Lichtenberg</text>
</a>
</g>
</g>
<!-- Georg Christoph Lichtenberg&#45;&gt;Ludwig Wittgenstein -->
<g id="edge20" class="edge">
<title>Georg Christoph Lichtenberg&#45;&gt;Ludwig Wittgenstein</title>
<path fill="none" stroke="black" d="M204.92,-299.1C214.19,-303.03 222.89,-308.21 230.19,-315 333.12,-410.59 347.89,-594 349.65,-664.46"/>
<polygon fill="black" stroke="black" points="346.16,-664.83 349.84,-674.77 353.16,-664.71 346.16,-664.83"/>
</g>
<!-- Hermann von Helmholtz -->
<g id="node22" class="node">
<title>Hermann von Helmholtz</title>
<g id="a_node22"><a xlink:href="https://en.wikipedia.org/wiki/Hermann_von_Helmholtz" xlink:title="Hermann von Helmholtz">
<ellipse fill="none" stroke="black" cx="115.1" cy="-234" rx="98.06" ry="18"/>
<text text-anchor="middle" x="115.1" y="-229.8" font-family="Times,serif" font-size="14.00">Hermann von Helmholtz</text>
</a>
</g>
</g>
<!-- Hermann von Helmholtz&#45;&gt;Ludwig Wittgenstein -->
<g id="edge21" class="edge">
<title>Hermann von Helmholtz&#45;&gt;Ludwig Wittgenstein</title>
<path fill="none" stroke="black" d="M200.59,-242.99C211.55,-247.15 221.84,-252.95 230.19,-261 289.72,-318.33 332.75,-577.95 345.67,-664.68"/>
<polygon fill="black" stroke="black" points="342.24,-665.45 347.16,-674.83 349.17,-664.43 342.24,-665.45"/>
</g>
</g>
</svg>
